<?xml version="1.0" encoding="utf-8"?>
<!-- Generator: Adobe Illustrator 25.0.1, SVG Export Plug-In . SVG Version: 6.00 Build 0)  -->
<svg version="1.1" id="Laag_1" xmlns="http://www.w3.org/2000/svg" xmlns:xlink="http://www.w3.org/1999/xlink" x="0px" y="0px"
	 viewBox="0 0 24 24" style="enable-background:new 0 0 24 24;" xml:space="preserve">
<style type="text/css">
	.st0{fill:#A0A0B1;}
</style>
<g>
	<path class="st0" d="M12,1C5.9,1,1,5.9,1,12s4.9,11,11,11s11-4.9,11-11S18.1,1,12,1z M12,21c-5,0-9-4-9-9c0-5,4-9,9-9c5,0,9,4,9,9
		C21,17,17,21,12,21z"/>
	<path class="st0" d="M16,11h-3V8c0-0.6-0.4-1-1-1s-1,0.4-1,1v3H8c-0.6,0-1,0.4-1,1c0,0.6,0.4,1,1,1h3v3c0,0.6,0.4,1,1,1s1-0.4,1-1
		v-3h3c0.6,0,1-0.4,1-1C17,11.4,16.6,11,16,11z"/>
</g>
</svg>
