<?xml version="1.0" encoding="utf-8"?>
<!-- Generator: Adobe Illustrator 25.0.1, SVG Export Plug-In . SVG Version: 6.00 Build 0)  -->
<svg version="1.1" id="Laag_1" xmlns="http://www.w3.org/2000/svg" xmlns:xlink="http://www.w3.org/1999/xlink" x="0px" y="0px"
	 viewBox="0 0 24 24" style="enable-background:new 0 0 24 24;" xml:space="preserve">
<style type="text/css">
	.st0{fill:#A0A0B1;}
</style>
<g>
	<path class="st0" d="M19,22c-0.2,0-0.4-0.1-0.6-0.2L12,17.2l-6.4,4.6c-0.3,0.2-0.7,0.2-1,0.1S4,21.4,4,21V5c0-0.8,0.3-1.6,0.9-2.1
		C5.4,2.3,6.2,2,7,2h10c0.8,0,1.6,0.3,2.1,0.9C19.7,3.4,20,4.2,20,5v16c0,0.4-0.2,0.7-0.5,0.9C19.3,22,19.2,22,19,22z M12,15
		c0.2,0,0.4,0.1,0.6,0.2l5.4,3.9V5c0-0.3-0.1-0.5-0.3-0.7C17.5,4.1,17.3,4,17,4H7C6.7,4,6.5,4.1,6.3,4.3C6.1,4.5,6,4.7,6,5v14.1
		l5.4-3.9C11.6,15.1,11.8,15,12,15z"/>
</g>
</svg>
