<svg width="49" height="4" viewBox="0 0 49 4" fill="none" xmlns="http://www.w3.org/2000/svg">
<path fill-rule="evenodd" clip-rule="evenodd" d="M48.1976 2C48.1976 3.10457 47.3021 4 46.1976 4H46.1701C45.0655 4 44.1701 3.10457 44.1701 2C44.1701 0.895431 45.0655 0 46.1701 0H46.1976C47.3021 0 48.1976 0.895431 48.1976 2ZM37.1757 2C37.1757 3.10457 36.2802 4 35.1757 4H35.1207C34.0161 4 33.1207 3.10457 33.1207 2C33.1207 0.895431 34.0161 0 35.1207 0H35.1757C36.2802 0 37.1757 0.895431 37.1757 2ZM26.1263 2C26.1263 3.10457 25.2308 4 24.1263 4H24.0713C22.9667 4 22.0713 3.10457 22.0713 2C22.0713 0.895431 22.9667 0 24.0713 0H24.1263C25.2308 0 26.1263 0.895431 26.1263 2ZM15.0769 2C15.0769 3.10457 14.1814 4 13.0769 4H13.0219C11.9173 4 11.0219 3.10457 11.0219 2C11.0219 0.895431 11.9173 0 13.0219 0H13.0769C14.1814 0 15.0769 0.895431 15.0769 2ZM4.02746 2C4.02746 3.10457 3.13203 4 2.02746 4H1.99997C0.895401 4 -3.05176e-05 3.10457 -3.05176e-05 2C-3.05176e-05 0.895431 0.895401 0 1.99997 0H2.02746C3.13203 0 4.02746 0.895431 4.02746 2Z" fill="#262626"/>
</svg>
