<svg width="24" height="24" viewBox="0 0 24 24" fill="none" xmlns="http://www.w3.org/2000/svg">
<path fill-rule="evenodd" clip-rule="evenodd" d="M0.966548 2.96655C1.58542 2.34768 2.42479 2 3.3 2H11C11.6075 2 12.1 2.49249 12.1 3.1C12.1 3.70751 11.6075 4.2 11 4.2H3.3C3.00826 4.2 2.72847 4.31589 2.52218 4.52218C2.31589 4.72847 2.2 5.00826 2.2 5.3V20.7C2.2 20.9917 2.31589 21.2715 2.52218 21.4778C2.72847 21.6841 3.00826 21.8 3.3 21.8H18.7C18.9917 21.8 19.2715 21.6841 19.4778 21.4778C19.6841 21.2715 19.8 20.9917 19.8 20.7V13C19.8 12.3925 20.2925 11.9 20.9 11.9C21.5075 11.9 22 12.3925 22 13V20.7C22 21.5752 21.6523 22.4146 21.0335 23.0335C20.4146 23.6523 19.5752 24 18.7 24H3.3C2.42479 24 1.58542 23.6523 0.966548 23.0335C0.347678 22.4146 0 21.5752 0 20.7V5.3C0 4.42479 0.347677 3.58542 0.966548 2.96655Z" fill="#262626"/>
<path fill-rule="evenodd" clip-rule="evenodd" d="M20.7086 2.10901C20.395 2.10901 20.0942 2.23358 19.8725 2.45533L10.0612 12.2666L9.5038 14.4962L11.7334 13.9388L21.5447 4.12755C21.7664 3.9058 21.891 3.60504 21.891 3.29144C21.891 2.97784 21.7664 2.67708 21.5447 2.45533C21.3229 2.23358 21.0222 2.10901 20.7086 2.10901ZM18.3812 0.964041C18.9984 0.346776 19.8356 0 20.7086 0C21.5815 0 22.4187 0.346776 23.036 0.964041C23.6532 1.58131 24 2.4185 24 3.29144C24 4.16439 23.6532 5.00158 23.036 5.61884L13.0182 15.6366C12.883 15.7718 12.7137 15.8676 12.5283 15.914L8.31028 16.9685C7.95093 17.0583 7.5708 16.953 7.30888 16.6911C7.04696 16.4292 6.94167 16.0491 7.03151 15.6897L8.08601 11.4717C8.13236 11.2863 8.22824 11.117 8.36338 10.9818L18.3812 0.964041Z" fill="#262626"/>
</svg>
