<?xml version="1.0" encoding="utf-8"?>
<!-- Generator: Adobe Illustrator 25.0.1, SVG Export Plug-In . SVG Version: 6.00 Build 0)  -->
<svg version="1.1" id="Laag_1" xmlns="http://www.w3.org/2000/svg" xmlns:xlink="http://www.w3.org/1999/xlink" x="0px" y="0px"
	 viewBox="0 0 24 24" style="enable-background:new 0 0 24 24;" xml:space="preserve">
<style type="text/css">
	.st0{fill:#262626;}
</style>
<g>
	<path class="st0" d="M20.4,15.8c0.2,0.2,0.4,0.2,0.6,0.2c0,0,0,0,0,0c0.2,0,0.5-0.1,0.6-0.3c0.9-1,1.6-2.2,2.3-3.4
		c0.1-0.2,0.1-0.5,0-0.8C23.7,11.3,19.5,3,12,3c-0.8,0-1.6,0.1-2.3,0.3C9.4,3.4,9.1,3.6,9.1,3.9C9,4.2,9.1,4.5,9.3,4.7L20.4,15.8z
		 M12,4.7c5.6,0,9.3,5.7,10.2,7.3c-0.4,0.7-0.8,1.4-1.3,2l-9.2-9.3C11.8,4.7,11.9,4.7,12,4.7z"/>
	<path class="st0" d="M23.8,22.6l-5.1-5.1c0,0,0,0,0,0l-3.9-3.9c0,0,0,0,0,0L6.6,5.4c0,0,0,0,0,0L1.4,0.2c-0.3-0.3-0.9-0.3-1.2,0
		s-0.3,0.9,0,1.2l4.5,4.5c-1.9,1.6-3.5,3.5-4.6,5.7c-0.1,0.2-0.1,0.5,0,0.8C0.3,12.7,4.5,21,12,21c2.1,0,4.2-0.7,5.9-1.8l4.6,4.6
		c0.2,0.2,0.4,0.2,0.6,0.2c0.2,0,0.4-0.1,0.6-0.2C24.1,23.4,24.1,22.9,23.8,22.6z M9.9,11.2C9.9,11.2,9.9,11.1,9.9,11.2l3,2.9
		c0,0,0,0-0.1,0c-0.3,0.1-0.6,0.2-0.9,0.2c-0.3,0-0.6,0-0.9-0.2c-0.3-0.1-0.5-0.3-0.7-0.5c-0.2-0.2-0.4-0.5-0.5-0.7
		c-0.1-0.3-0.2-0.6-0.2-0.9C9.7,11.7,9.8,11.4,9.9,11.2z M12,19.3c-5.6,0-9.3-5.7-10.2-7.3c1.1-1.9,2.5-3.5,4.1-4.9l2.8,2.8
		c-0.1,0.2-0.2,0.4-0.3,0.6C8.2,11,8.1,11.5,8,12c0,0.5,0.1,1,0.3,1.5c0.2,0.5,0.5,0.9,0.9,1.3c0.4,0.4,0.8,0.7,1.3,0.9
		c0.5,0.2,1,0.3,1.5,0.3c0.5,0,1-0.1,1.5-0.3c0.2-0.1,0.4-0.2,0.6-0.3l2.6,2.6C15.3,18.8,13.7,19.3,12,19.3z"/>
</g>
</svg>
