<?xml version="1.0" encoding="utf-8"?>
<!-- Generator: Adobe Illustrator 25.0.1, SVG Export Plug-In . SVG Version: 6.00 Build 0)  -->
<svg version="1.1" id="Laag_1" xmlns="http://www.w3.org/2000/svg" xmlns:xlink="http://www.w3.org/1999/xlink" x="0px" y="0px"
	 viewBox="0 0 24 24" style="enable-background:new 0 0 24 24;" xml:space="preserve">
<style type="text/css">
	.st0{fill:#262626;}
</style>
<g>
	<path class="st0" d="M23.7,11.7c-0.2-0.3-4.3-8.4-11.7-8.4S0.5,11.3,0.3,11.7c-0.1,0.2-0.1,0.5,0,0.7c0.2,0.3,4.3,8.4,11.7,8.4
		s11.5-8.1,11.7-8.4C23.8,12.1,23.8,11.9,23.7,11.7z M12,19.3c-5.7,0-9.3-5.8-10.1-7.3C2.7,10.5,6.3,4.8,12,4.8
		c5.7,0,9.3,5.8,10.1,7.3C21.3,13.5,17.7,19.3,12,19.3z"/>
	<path class="st0" d="M12,8.3c-2.1,0-3.8,1.7-3.8,3.8c0,2.1,1.7,3.8,3.8,3.8c2.1,0,3.8-1.7,3.8-3.8C15.8,9.9,14.1,8.3,12,8.3z
		 M12,14.3c-1.2,0-2.2-1-2.2-2.2c0-1.2,1-2.2,2.2-2.2c1.2,0,2.2,1,2.2,2.2C14.2,13.2,13.2,14.3,12,14.3z"/>
</g>
</svg>
