<?xml version="1.0" encoding="utf-8"?>
<!-- Generator: Adobe Illustrator 25.0.1, SVG Export Plug-In . SVG Version: 6.00 Build 0)  -->
<svg version="1.1" id="Laag_1" xmlns="http://www.w3.org/2000/svg" xmlns:xlink="http://www.w3.org/1999/xlink" x="0px" y="0px"
	 viewBox="0 0 15 15" style="enable-background:new 0 0 15 15;" xml:space="preserve">
<style type="text/css">
	.st0{fill:#262626;}
</style>
<g>
	<path class="st0" d="M0.6,11.7c0.4,0,0.6,0.1,0.9,0.2c0.3,0.2,0.7,0.4,1.4,0.4S4,12.1,4.3,12c0.3-0.1,0.4-0.2,0.9-0.2
		c0.4,0,0.6,0.1,0.9,0.2c0.3,0.2,0.7,0.4,1.4,0.4s1.1-0.2,1.4-0.4c0.3-0.1,0.4-0.2,0.9-0.2s0.6,0.1,0.9,0.2c0.3,0.2,0.7,0.4,1.4,0.4
		s1.1-0.2,1.4-0.4c0.3-0.1,0.4-0.2,0.9-0.2c0.3,0,0.6-0.3,0.6-0.6c0-0.3-0.3-0.6-0.6-0.6c-0.6,0-0.9,0.1-1.2,0.3V7.3h0.6
		c0.3,0,0.5-0.2,0.6-0.4c0.1-0.2,0-0.5-0.2-0.7L7.8,0.5C7.6,0.3,7.2,0.3,7,0.5L0.8,6.2C0.6,6.4,0.5,6.6,0.6,6.9
		c0.1,0.2,0.3,0.4,0.6,0.4h0.6v3.5c-0.3-0.1-0.6-0.3-1.2-0.3c-0.3,0-0.6,0.3-0.6,0.6C0,11.4,0.2,11.7,0.6,11.7z M8.9,8.6v2
		c-0.3,0.1-0.5,0.2-0.6,0.3C8,11,7.8,11.1,7.4,11.1S6.8,11,6.5,10.9c-0.2-0.1-0.4-0.2-0.6-0.3v-2H8.9z M11.9,6.7v4.5
		c-0.4,0-0.5-0.1-0.8-0.2c-0.3-0.2-0.6-0.3-1-0.4V7.9c0-0.3-0.3-0.6-0.6-0.6H5.3C5,7.3,4.7,7.6,4.7,7.9v2.6c-0.4,0.1-0.7,0.2-1,0.4
		c-0.2,0.1-0.4,0.2-0.8,0.2V6.7c0-0.2-0.1-0.4-0.3-0.5l4.8-4.3l4.8,4.3C12,6.2,11.9,6.4,11.9,6.7z"/>
	<path class="st0" d="M14.3,13c-0.7,0-1.1,0.2-1.4,0.4c-0.3,0.1-0.4,0.2-0.9,0.2c-0.4,0-0.6-0.1-0.9-0.2c-0.3-0.2-0.7-0.4-1.4-0.4
		c-0.7,0-1.1,0.2-1.4,0.4c-0.3,0.1-0.4,0.2-0.9,0.2c-0.4,0-0.6-0.1-0.9-0.2C6.2,13.2,5.8,13,5.1,13c-0.7,0-1.1,0.2-1.4,0.4
		c-0.3,0.1-0.4,0.2-0.9,0.2S2.2,13.6,2,13.4C1.7,13.2,1.3,13,0.6,13C0.2,13,0,13.3,0,13.6c0,0.3,0.3,0.6,0.6,0.6
		c0.4,0,0.6,0.1,0.9,0.2c0.3,0.2,0.7,0.4,1.4,0.4c0.7,0,1.1-0.2,1.4-0.4c0.3-0.1,0.4-0.2,0.9-0.2c0.4,0,0.6,0.1,0.9,0.2
		c0.3,0.2,0.7,0.4,1.4,0.4s1.1-0.2,1.4-0.4c0.3-0.1,0.4-0.2,0.9-0.2s0.6,0.1,0.9,0.2c0.3,0.2,0.7,0.4,1.4,0.4s1.1-0.2,1.4-0.4
		c0.3-0.1,0.4-0.2,0.9-0.2c0.3,0,0.6-0.3,0.6-0.6C14.8,13.3,14.6,13,14.3,13z"/>
</g>
</svg>
