<svg width="15" height="15" viewBox="0 0 15 15" fill="none" xmlns="http://www.w3.org/2000/svg">
<path fill-rule="evenodd" clip-rule="evenodd" d="M1.56381 11.704C1.29278 11.5534 1.05855 11.4232 0.561758 11.4232C0.397266 11.4232 0.26416 11.2814 0.26416 11.1062C0.26416 10.931 0.397266 10.7893 0.561786 10.7893C1.20435 10.7893 1.54142 10.9765 1.83883 11.1417C1.90944 11.181 1.9788 11.2188 2.04972 11.2534V6.98597H1.15695C1.03227 6.98597 0.920984 6.90334 0.877964 6.7789C0.834665 6.65446 0.868673 6.51457 0.963418 6.42852L7.21277 0.723588C7.32378 0.621434 7.48886 0.621434 7.59987 0.723588L13.8492 6.42852C13.944 6.51457 13.978 6.65446 13.9347 6.7789C13.8917 6.90334 13.7804 6.98597 13.6557 6.98597H12.7629V11.2525C12.8333 11.2182 12.9012 11.181 12.9713 11.1421C13.269 10.9769 13.6073 10.7893 14.2509 10.7893C14.4154 10.7893 14.5485 10.931 14.5485 11.1062C14.5485 11.2814 14.4154 11.4232 14.2509 11.4232C13.7529 11.4232 13.5181 11.5534 13.2464 11.7041C12.9486 11.8693 12.6103 12.057 11.9667 12.057C11.3229 12.057 10.9853 11.8697 10.6875 11.7044C10.4158 11.5537 10.1805 11.4232 9.68244 11.4232C9.18533 11.4232 8.95109 11.5534 8.68003 11.7041C8.38256 11.8693 8.04443 12.057 7.40167 12.057C6.75939 12.057 6.42231 11.8698 6.12491 11.7046L6.12386 11.704C5.85282 11.5534 5.6186 11.4232 5.1218 11.4232C4.62529 11.4232 4.39133 11.5532 4.12049 11.7038L4.11882 11.7047C3.82145 11.8698 3.48438 12.057 2.84221 12.057C2.19934 12.057 1.86131 11.8693 1.56381 11.704ZM8.40425 11.1421C8.61399 11.0256 8.84943 10.9012 9.19181 10.8361L9.19178 8.25375H5.62072V10.8381C5.95802 10.9038 6.1917 11.0267 6.39957 11.1421C6.67041 11.2927 6.9051 11.4231 7.40162 11.4231C7.89872 11.4231 8.1332 11.2928 8.40425 11.1421ZM7.40628 1.38165L1.96133 6.3521H2.34723C2.51172 6.3521 2.64483 6.49386 2.64483 6.66905V11.4095C2.66053 11.4108 2.67592 11.4124 2.69132 11.4139C2.73855 11.4185 2.78581 11.4232 2.84216 11.4232C3.33868 11.4232 3.57264 11.2931 3.84348 11.1425C4.12439 10.9865 4.45031 10.8157 5.02555 10.7965V7.93682C5.02555 7.76164 5.15866 7.61987 5.32315 7.61987H9.4894C9.65389 7.61987 9.787 7.76164 9.787 7.93682V10.7971C10.3577 10.8178 10.6822 10.9869 10.962 11.1421C11.2336 11.2929 11.4685 11.4232 11.9666 11.4232C12.0248 11.4232 12.0737 11.4184 12.1225 11.4136C12.1375 11.4121 12.1524 11.4106 12.1677 11.4093V6.66905C12.1677 6.49386 12.3008 6.3521 12.4653 6.3521H12.8512L7.40628 1.38165Z" fill="white"/>
<path d="M12.9717 13.6773C13.2695 13.5121 13.6072 13.3247 14.2508 13.3247C14.4153 13.3247 14.5484 13.4664 14.5485 13.6416C14.5485 13.8168 14.4154 13.9586 14.2509 13.9586C13.7529 13.9586 13.5181 14.0888 13.2464 14.2395C12.9486 14.4047 12.6103 14.5925 11.9667 14.5925C11.3229 14.5925 10.9853 14.4051 10.6875 14.2398C10.4158 14.0891 10.1805 13.9586 9.68244 13.9586C9.18533 13.9586 8.95109 14.0888 8.68003 14.2395C8.38256 14.4047 8.04443 14.5925 7.40167 14.5925C6.75939 14.5925 6.42231 14.4052 6.12491 14.24L6.12386 14.2395C5.85282 14.0888 5.6186 13.9586 5.1218 13.9586C4.62528 13.9586 4.39133 14.0886 4.12048 14.2392L4.11882 14.2401C3.82145 14.4053 3.48438 14.5925 2.84221 14.5925C2.19934 14.5925 1.86198 14.4051 1.56448 14.2398C1.29344 14.0892 1.05856 13.9586 0.561758 13.9586C0.397266 13.9586 0.26416 13.8168 0.26416 13.6416C0.26416 13.4664 0.397266 13.3247 0.561674 13.3247C1.20424 13.3247 1.54131 13.5119 1.83872 13.6771L1.83973 13.6777C2.11078 13.8284 2.34503 13.9586 2.84213 13.9586C3.33865 13.9586 3.57261 13.8285 3.84345 13.678L3.84511 13.677C4.14248 13.5119 4.47955 13.3247 5.12172 13.3247C5.76428 13.3247 6.10136 13.5119 6.39876 13.6771L6.40027 13.678C6.67111 13.8285 6.90507 13.9586 7.40159 13.9586C7.89869 13.9586 8.13294 13.8284 8.40399 13.6777C8.70147 13.5125 9.0396 13.3247 9.68235 13.3247C10.3261 13.3247 10.6637 13.5121 10.9615 13.6773C11.2332 13.828 11.4685 13.9586 11.9666 13.9586C12.4646 13.9586 12.7001 13.828 12.9717 13.6773Z" fill="white"/>
<path fill-rule="evenodd" clip-rule="evenodd" d="M1.56381 11.704C1.29278 11.5534 1.05855 11.4232 0.561758 11.4232C0.397266 11.4232 0.26416 11.2814 0.26416 11.1062C0.26416 10.931 0.397266 10.7893 0.561786 10.7893C1.20435 10.7893 1.54142 10.9765 1.83883 11.1417C1.90944 11.181 1.9788 11.2188 2.04972 11.2534V6.98597H1.15695C1.03227 6.98597 0.920984 6.90334 0.877964 6.7789C0.834665 6.65446 0.868673 6.51457 0.963418 6.42852L7.21277 0.723588C7.32378 0.621434 7.48886 0.621434 7.59987 0.723588L13.8492 6.42852C13.944 6.51457 13.978 6.65446 13.9347 6.7789C13.8917 6.90334 13.7804 6.98597 13.6557 6.98597H12.7629V11.2525C12.8333 11.2182 12.9012 11.181 12.9713 11.1421C13.269 10.9769 13.6073 10.7893 14.2509 10.7893C14.4154 10.7893 14.5485 10.931 14.5485 11.1062C14.5485 11.2814 14.4154 11.4232 14.2509 11.4232C13.7529 11.4232 13.5181 11.5534 13.2464 11.7041C12.9486 11.8693 12.6103 12.057 11.9667 12.057C11.3229 12.057 10.9853 11.8697 10.6875 11.7044C10.4158 11.5537 10.1805 11.4232 9.68244 11.4232C9.18533 11.4232 8.95109 11.5534 8.68003 11.7041C8.38256 11.8693 8.04443 12.057 7.40167 12.057C6.75939 12.057 6.42231 11.8698 6.12491 11.7046L6.12386 11.704C5.85282 11.5534 5.6186 11.4232 5.1218 11.4232C4.62529 11.4232 4.39133 11.5532 4.12049 11.7038L4.11882 11.7047C3.82145 11.8698 3.48438 12.057 2.84221 12.057C2.19934 12.057 1.86131 11.8693 1.56381 11.704ZM8.40425 11.1421C8.61399 11.0256 8.84943 10.9012 9.19181 10.8361L9.19178 8.25375H5.62072V10.8381C5.95802 10.9038 6.1917 11.0267 6.39957 11.1421C6.67041 11.2927 6.9051 11.4231 7.40162 11.4231C7.89872 11.4231 8.1332 11.2928 8.40425 11.1421ZM7.40628 1.38165L1.96133 6.3521H2.34723C2.51172 6.3521 2.64483 6.49386 2.64483 6.66905V11.4095C2.66053 11.4108 2.67592 11.4124 2.69132 11.4139C2.73855 11.4185 2.78581 11.4232 2.84216 11.4232C3.33868 11.4232 3.57264 11.2931 3.84348 11.1425C4.12439 10.9865 4.45031 10.8157 5.02555 10.7965V7.93682C5.02555 7.76164 5.15866 7.61987 5.32315 7.61987H9.4894C9.65389 7.61987 9.787 7.76164 9.787 7.93682V10.7971C10.3577 10.8178 10.6822 10.9869 10.962 11.1421C11.2336 11.2929 11.4685 11.4232 11.9666 11.4232C12.0248 11.4232 12.0737 11.4184 12.1225 11.4136C12.1375 11.4121 12.1524 11.4106 12.1677 11.4093V6.66905C12.1677 6.49386 12.3008 6.3521 12.4653 6.3521H12.8512L7.40628 1.38165Z" stroke="white" stroke-width="0.3" stroke-linecap="round" stroke-linejoin="round"/>
<path d="M12.9717 13.6773C13.2695 13.5121 13.6072 13.3247 14.2508 13.3247C14.4153 13.3247 14.5484 13.4664 14.5485 13.6416C14.5485 13.8168 14.4154 13.9586 14.2509 13.9586C13.7529 13.9586 13.5181 14.0888 13.2464 14.2395C12.9486 14.4047 12.6103 14.5925 11.9667 14.5925C11.3229 14.5925 10.9853 14.4051 10.6875 14.2398C10.4158 14.0891 10.1805 13.9586 9.68244 13.9586C9.18533 13.9586 8.95109 14.0888 8.68003 14.2395C8.38256 14.4047 8.04443 14.5925 7.40167 14.5925C6.75939 14.5925 6.42231 14.4052 6.12491 14.24L6.12386 14.2395C5.85282 14.0888 5.6186 13.9586 5.1218 13.9586C4.62528 13.9586 4.39133 14.0886 4.12048 14.2392L4.11882 14.2401C3.82145 14.4053 3.48438 14.5925 2.84221 14.5925C2.19934 14.5925 1.86198 14.4051 1.56448 14.2398C1.29344 14.0892 1.05856 13.9586 0.561758 13.9586C0.397266 13.9586 0.26416 13.8168 0.26416 13.6416C0.26416 13.4664 0.397266 13.3247 0.561674 13.3247C1.20424 13.3247 1.54131 13.5119 1.83872 13.6771L1.83973 13.6777C2.11078 13.8284 2.34503 13.9586 2.84213 13.9586C3.33865 13.9586 3.57261 13.8285 3.84345 13.678L3.84511 13.677C4.14248 13.5119 4.47955 13.3247 5.12172 13.3247C5.76428 13.3247 6.10136 13.5119 6.39876 13.6771L6.40027 13.678C6.67111 13.8285 6.90507 13.9586 7.40159 13.9586C7.89869 13.9586 8.13294 13.8284 8.40399 13.6777C8.70147 13.5125 9.0396 13.3247 9.68235 13.3247C10.3261 13.3247 10.6637 13.5121 10.9615 13.6773C11.2332 13.828 11.4685 13.9586 11.9666 13.9586C12.4646 13.9586 12.7001 13.828 12.9717 13.6773Z" stroke="white" stroke-width="0.3" stroke-linecap="round" stroke-linejoin="round"/>
</svg>
