<?xml version="1.0" encoding="utf-8"?>
<!-- Generator: Adobe Illustrator 25.0.1, SVG Export Plug-In . SVG Version: 6.00 Build 0)  -->
<svg version="1.1" id="Laag_1" xmlns="http://www.w3.org/2000/svg" xmlns:xlink="http://www.w3.org/1999/xlink" x="0px" y="0px"
	 viewBox="0 0 15 15" style="enable-background:new 0 0 15 15;" xml:space="preserve">
<style type="text/css">
	.st0{fill:#262626;}
</style>
<g>
	<path class="st0" d="M2.6,7C1.6,7,0.7,7.9,0.7,9s0.9,1.9,1.9,1.9S4.5,10,4.5,9S3.7,7,2.6,7z M3.2,9c0,0.3-0.3,0.6-0.6,0.6
		S2,9.3,2,9c0-0.3,0.3-0.6,0.6-0.6S3.2,8.6,3.2,9z"/>
	<path class="st0" d="M7.2,10.5c-1.1,0-1.9,0.9-1.9,1.9s0.9,1.9,1.9,1.9s1.9-0.9,1.9-1.9S8.3,10.5,7.2,10.5z M7.8,12.4
		c0,0.3-0.3,0.6-0.6,0.6s-0.6-0.3-0.6-0.6s0.3-0.6,0.6-0.6S7.8,12,7.8,12.4z"/>
	<path class="st0" d="M11.8,7C10.7,7,9.9,7.9,9.9,9s0.9,1.9,1.9,1.9S13.7,10,13.7,9S12.9,7,11.8,7z M12.4,9c0,0.3-0.3,0.6-0.6,0.6
		S11.2,9.3,11.2,9c0-0.3,0.3-0.6,0.6-0.6S12.4,8.6,12.4,9z"/>
	<path class="st0" d="M7.2,9.6c0.4,0,0.7-0.3,0.7-0.7V4.7c0-0.4-0.3-0.7-0.7-0.7S6.5,4.4,6.5,4.7V9C6.5,9.3,6.8,9.6,7.2,9.6z"/>
	<path class="st0" d="M11.8,6.2c0.4,0,0.7-0.3,0.7-0.7V1.4c0-0.4-0.3-0.7-0.7-0.7S11.1,1,11.1,1.4v4.2C11.1,5.9,11.4,6.2,11.8,6.2z"
		/>
	<path class="st0" d="M2.6,6.2c0.4,0,0.7-0.3,0.7-0.7V1.4C3.3,1,3,0.7,2.6,0.7S2,1,2,1.4v4.2C2,5.9,2.3,6.2,2.6,6.2z"/>
</g>
</svg>
