<?xml version="1.0" encoding="utf-8"?>
<!-- Generator: Adobe Illustrator 25.0.1, SVG Export Plug-In . SVG Version: 6.00 Build 0)  -->
<svg version="1.1" id="Laag_1" xmlns="http://www.w3.org/2000/svg" xmlns:xlink="http://www.w3.org/1999/xlink" x="0px" y="0px"
	 viewBox="0 0 16 16" style="enable-background:new 0 0 16 16;" xml:space="preserve">
<style type="text/css">
	.st0{fill:#333333;}
</style>
<g>
	<path class="st0" d="M7.3,15.4c-0.1,0-0.2,0-0.3-0.1c-0.3-0.1-0.5-0.5-0.4-0.8l0.6-4.5H2c-0.3,0-0.6-0.2-0.7-0.4S1.2,9.1,1.4,8.9
		l6.7-8C8.3,0.6,8.7,0.5,9,0.6c0.3,0.1,0.5,0.5,0.4,0.8L8.8,5.9H14c0.3,0,0.6,0.2,0.7,0.4c0.1,0.3,0.1,0.6-0.1,0.8l-6.7,8
		C7.8,15.3,7.6,15.4,7.3,15.4z M3.6,8.6H8c0.2,0,0.4,0.1,0.6,0.3C8.7,9,8.8,9.2,8.7,9.4l-0.3,2.8l4-4.8H8c-0.2,0-0.4-0.1-0.6-0.3
		C7.3,7,7.2,6.8,7.3,6.6l0.3-2.8L3.6,8.6z"/>
</g>
</svg>
