<?xml version="1.0" encoding="utf-8"?>
<!-- Generator: Adobe Illustrator 25.0.1, SVG Export Plug-In . SVG Version: 6.00 Build 0)  -->
<svg version="1.1" id="Laag_1" xmlns="http://www.w3.org/2000/svg" xmlns:xlink="http://www.w3.org/1999/xlink" x="0px" y="0px"
	 viewBox="0 0 16 16" style="enable-background:new 0 0 16 16;" xml:space="preserve">
<style type="text/css">
	.st0{fill:#262626;}
</style>
<path class="st0" d="M15.4,5.9c-0.1-0.3-0.3-0.5-0.6-0.5l-4.2-0.6L8.7,1C8.5,0.7,8.3,0.6,8,0.6S7.5,0.7,7.3,1L5.4,4.8L1.2,5.4
	c-0.3,0-0.5,0.2-0.6,0.5s0,0.6,0.2,0.8l3.1,3l-0.7,4.2c0,0.3,0.1,0.6,0.3,0.7c0.1,0.1,0.3,0.1,0.4,0.1c0.1,0,0.2,0,0.3-0.1l3.8-2
	l3.8,2c0.3,0.1,0.6,0.1,0.8-0.1c0.2-0.2,0.3-0.5,0.3-0.7l-0.7-4.2l3.1-3C15.4,6.5,15.5,6.2,15.4,5.9z M10.8,8.9
	c-0.2,0.2-0.3,0.4-0.2,0.7l0.5,3.1l-2.8-1.5c-0.2-0.1-0.5-0.1-0.7,0l-2.8,1.5l0.5-3.1c0-0.2,0-0.5-0.2-0.7L2.9,6.7L6,6.2
	c0.2,0,0.5-0.2,0.6-0.4L8,3l1.4,2.8C9.5,6.1,9.7,6.2,10,6.2l3.1,0.5L10.8,8.9z"/>
</svg>
