<?xml version="1.0" encoding="utf-8"?>
<!-- Generator: Adobe Illustrator 25.0.1, SVG Export Plug-In . SVG Version: 6.00 Build 0)  -->
<svg version="1.1" id="Laag_1" xmlns="http://www.w3.org/2000/svg" xmlns:xlink="http://www.w3.org/1999/xlink" x="0px" y="0px"
	 viewBox="0 0 16 16" style="enable-background:new 0 0 16 16;" xml:space="preserve">
<path d="M14.7,4.9c0-0.1,0-0.1,0-0.2c0-0.1-0.1-0.1-0.1-0.1c0,0,0-0.1-0.1-0.1c0,0,0,0,0,0c0,0-0.1-0.1-0.1-0.1c0,0-0.1,0-0.1-0.1
	c0,0-0.1,0-0.1,0c-0.1,0-0.1,0-0.2,0c0,0,0,0,0,0h-3c-0.4,0-0.8,0.3-0.8,0.8s0.3,0.8,0.8,0.8h1.1l-3.3,3l-2.2-2
	c-0.3-0.3-0.7-0.3-1,0l-4.1,3.8c-0.3,0.3-0.3,0.8,0,1.1c0.1,0.2,0.4,0.2,0.6,0.2c0.2,0,0.4-0.1,0.5-0.2l3.6-3.3l2.2,2
	c0.3,0.3,0.7,0.3,1,0l3.9-3.6V8c0,0.4,0.3,0.8,0.8,0.8s0.8-0.3,0.8-0.8V5C14.7,5,14.7,4.9,14.7,4.9z"/>
</svg>
