<?xml version="1.0" encoding="utf-8"?>
<!-- Generator: Adobe Illustrator 25.0.1, SVG Export Plug-In . SVG Version: 6.00 Build 0)  -->
<svg version="1.1" id="Laag_1" xmlns="http://www.w3.org/2000/svg" xmlns:xlink="http://www.w3.org/1999/xlink" x="0px" y="0px"
	 viewBox="0 0 16 16" style="enable-background:new 0 0 16 16;" xml:space="preserve">
<style type="text/css">
	.st0{fill:#262626;}
</style>
<g>
	<path class="st0" d="M14,9.3c-0.4,0-0.8,0.3-0.8,0.8v2.7c0,0.2-0.1,0.3-0.2,0.4s-0.3,0.2-0.4,0.2H3.3c-0.2,0-0.3-0.1-0.4-0.2
		s-0.2-0.3-0.2-0.4V10c0-0.4-0.3-0.8-0.8-0.8S1.2,9.6,1.2,10v2.7c0,0.6,0.2,1.1,0.6,1.5s0.9,0.6,1.5,0.6h9.3c0.6,0,1.1-0.2,1.5-0.6
		s0.6-0.9,0.6-1.5V10C14.8,9.6,14.4,9.3,14,9.3z"/>
	<path class="st0" d="M5.2,5.9l2.1-2.1V10c0,0.4,0.3,0.8,0.8,0.8s0.8-0.3,0.8-0.8V3.8l2.1,2.1c0.1,0.1,0.3,0.2,0.5,0.2
		s0.4-0.1,0.5-0.2c0.3-0.3,0.3-0.8,0-1.1L8.5,1.5C8.5,1.4,8.4,1.3,8.3,1.3c-0.2-0.1-0.4-0.1-0.6,0c-0.1,0-0.2,0.1-0.2,0.2L4.1,4.8
		c-0.3,0.3-0.3,0.8,0,1.1S4.9,6.2,5.2,5.9z"/>
</g>
</svg>
