<?xml version="1.0" encoding="utf-8"?>
<!-- Generator: Adobe Illustrator 25.0.1, SVG Export Plug-In . SVG Version: 6.00 Build 0)  -->
<svg version="1.1" id="Laag_1" xmlns="http://www.w3.org/2000/svg" xmlns:xlink="http://www.w3.org/1999/xlink" x="0px" y="0px"
	 viewBox="0 0 15 15" style="enable-background:new 0 0 15 15;" xml:space="preserve">
<style type="text/css">
	.st0{fill:#262626;}
</style>
<g>
	<path class="st0" d="M7.5,14.2c-1.4,0-2.6-0.5-3.6-1.5c-1-1-1.5-2.2-1.5-3.6c0-1.5,0.7-3.1,1.7-4.1l0.1-0.1c0.9-0.9,2-2,2-3.9
		c0-0.2,0.1-0.5,0.4-0.6c0.2-0.1,0.5,0,0.7,0.1C8,1.4,9.5,4.3,8.3,6.7c0.1,0,0.2,0,0.2,0c0.2,0,0.7-0.4,1.5-1.6
		c0.1-0.2,0.3-0.3,0.5-0.3c0.2,0,0.4,0.1,0.5,0.2c0.8,0.9,1.7,2.8,1.7,4.1c0,1.4-0.5,2.6-1.5,3.6C10.1,13.7,8.9,14.2,7.5,14.2z
		 M7.1,2.7C6.6,4.1,5.7,5.1,5,5.8L4.9,5.9C4.1,6.7,3.6,8,3.6,9.2c0,1,0.4,2,1.1,2.7c1.5,1.5,4,1.5,5.5,0c0.7-0.7,1.1-1.7,1.1-2.7
		c0-0.7-0.4-1.8-0.9-2.6C9.9,7.4,9.3,7.8,8.7,7.9C8,8.1,7.5,7.7,7.1,7.4C6.9,7.2,6.8,6.8,7,6.6C7.8,5.4,7.6,3.8,7.1,2.7z"/>
</g>
</svg>
