<svg width="236" height="264" viewBox="0 0 236 264" fill="none" xmlns="http://www.w3.org/2000/svg">
<path d="M183.537 75.2026C183.649 71.3749 183.587 67.5347 183.574 63.707C184.096 63.4078 184.096 62.9091 184.096 62.3979C184.096 59.6549 184.108 56.9119 184.083 54.1689C184.059 51.613 182.779 50.3537 180.246 50.3412C178.011 50.3288 175.775 50.3412 173.54 50.3288C172.112 50.3288 171.068 49.6804 170.497 48.3713C169.926 47.0372 170.112 45.7779 171.118 44.6807C171.714 44.0449 172.31 43.409 172.919 42.7856C178.892 36.5765 184.878 30.3549 190.852 24.1458C193.783 21.1036 196.701 18.0364 199.657 15.0191C201.284 13.3609 203.109 13.3983 204.761 15.0441C205.581 15.867 206.376 16.7023 207.183 17.5377C210.399 20.8791 213.616 24.2331 216.845 27.562C217.205 27.9361 217.491 28.4847 218.174 28.2478C220.645 30.8287 223.116 33.3971 225.588 35.978C225.302 36.5391 225.724 36.8134 226.035 37.1375C227.215 38.3594 228.394 39.5813 229.574 40.8156C230.841 42.1372 232.133 43.4215 233.337 44.7805C234.902 46.526 234.206 49.3189 232.046 50.1418C231.524 50.3412 230.99 50.3288 230.456 50.3288C228.258 50.3288 226.072 50.3038 223.874 50.3412C221.663 50.3662 220.347 51.7252 220.297 53.9445C220.285 54.2812 220.297 54.6053 220.297 54.942C220.297 68.1207 220.248 81.2871 220.334 94.4658C220.359 97.4582 218.919 99.1289 215.851 99.0042C212.548 98.8671 209.232 98.9668 205.916 98.9793C205.394 98.9793 204.811 98.8671 204.525 99.5154C201.42 99.5154 198.328 99.5279 195.223 99.5279C195.186 99.3658 195.136 99.2037 195.099 99.0416C193.485 91.648 190.541 84.8405 186.133 78.6812C185.301 77.4968 184.406 76.3622 183.537 75.2026Z" fill="#00E3A8"/>
<path d="M218.186 28.2601C217.503 28.497 217.217 27.9484 216.857 27.5744C213.628 24.2329 210.411 20.8915 207.195 17.55C206.388 16.7147 205.593 15.8668 204.773 15.0564C203.121 13.3982 201.296 13.3732 199.669 15.0315C196.713 18.0612 193.795 21.1159 190.864 24.1581C184.89 30.3672 178.904 36.5763 172.931 42.7979C172.322 43.4213 171.726 44.0572 171.13 44.6931C170.112 45.7778 169.926 47.0371 170.509 48.3836C171.068 49.6928 172.124 50.3411 173.552 50.3411C175.787 50.3536 178.023 50.3411 180.258 50.3536C182.792 50.3661 184.083 51.6378 184.096 54.1813C184.12 56.9243 184.096 59.6673 184.108 62.4102C184.108 62.9214 184.12 63.4202 183.586 63.7194C183.338 63.7568 183.201 63.6446 183.177 63.3952C183.139 62.9838 183.102 62.5723 183.102 62.1609C183.09 59.58 183.09 57.0116 183.102 54.4307C183.102 53.1963 182.667 52.2612 181.525 51.6378C181.078 51.4009 180.668 51.376 180.233 51.376C178.035 51.3635 175.849 51.4009 173.651 51.351C172.769 51.3386 171.863 51.4009 171.068 50.8024C170.037 50.0169 169.404 49.0694 169.267 47.7602C169.093 46.0646 169.392 44.5684 170.795 43.4338C171.987 42.4738 172.981 41.3142 173.987 40.1672C175.477 38.4466 177.141 36.888 178.755 35.2921C180.519 33.5466 182.022 31.5517 183.847 29.8685C186.281 27.6243 188.293 24.9685 190.715 22.7118C193.075 20.505 195.111 17.9989 197.396 15.7172C198.154 14.9691 198.924 14.1961 199.719 13.5353C200.613 12.7872 201.904 12.6875 203.109 12.9618C203.966 13.1613 204.686 13.5976 205.32 14.246C209.455 18.535 213.603 22.8116 217.751 27.0881C218.074 27.4123 218.409 27.724 218.186 28.2601Z" fill="#342F3B"/>
<path d="M204.537 99.503C204.823 98.8546 205.406 98.9668 205.928 98.9668C209.244 98.9668 212.56 98.8546 215.863 98.9918C218.918 99.1164 220.359 97.4582 220.346 94.4534C220.26 81.2746 220.309 68.1083 220.309 54.9295C220.309 54.5929 220.297 54.2687 220.309 53.9321C220.371 51.7127 221.688 50.3537 223.886 50.3288C226.084 50.3039 228.27 50.3163 230.468 50.3163C231.002 50.3163 231.548 50.3288 232.058 50.1293C234.219 49.3064 234.914 46.526 233.349 44.768C232.132 43.409 230.841 42.1123 229.586 40.8032C228.406 39.5813 227.227 38.3594 226.047 37.1251C225.736 36.8009 225.314 36.5141 225.6 35.9655C225.972 35.7411 226.221 35.9531 226.457 36.2024C228.68 38.4841 230.965 40.7159 233.101 43.0973C233.809 43.8828 234.541 44.5935 234.964 45.6657C235.634 47.3614 234.603 49.6181 233.511 50.4285C232.654 51.0519 231.747 51.3761 230.667 51.3512C228.555 51.3013 226.444 51.3387 224.333 51.3387C223.836 51.3387 223.339 51.3262 222.855 51.4883C222.11 51.7502 221.601 52.2239 221.415 53.0219C221.278 53.5954 221.303 54.1814 221.303 54.755C221.303 68.0958 221.303 81.4367 221.303 94.7776C221.303 95.6877 221.228 96.5605 220.806 97.4208C219.986 99.0915 218.645 99.9144 216.869 99.9393C213.106 100.002 209.331 99.9643 205.568 99.9643C205.146 99.9892 204.748 99.9643 204.537 99.503Z" fill="#342F3B"/>
<path d="M28.4166 47.3156C27.3523 47.5183 26.4899 46.7998 25.7559 46.0076C25.2421 45.455 24.8201 44.7365 24.5448 44.018C23.609 41.7336 22.2694 39.6703 21.1684 37.478C20.4161 35.949 19.3151 35.1384 17.4617 35.1384C14.5991 35.1384 11.7182 34.8989 8.85563 34.7515C7.49773 34.6778 5.69944 32.9645 5.51594 31.5828C5.44254 30.9749 5.36914 30.3669 5.36914 29.759C5.36914 27.9352 6.37839 26.793 7.88308 26.0008C9.99332 24.8955 12.0852 23.7533 14.2505 22.74C16.4158 21.69 17.5168 20.124 17.4801 17.637C17.4434 15.0579 17.4984 12.4787 17.8471 9.918C18.1774 7.3757 20.3794 5.80978 22.8933 6.32561C24.5448 6.65722 25.7559 7.55992 26.4899 9.08899C27.5175 11.2076 28.6735 13.2709 29.6277 15.4263C30.5269 17.4159 31.8664 18.4292 34.1235 18.3923C36.509 18.3371 38.8944 18.5213 41.2616 18.6871C43.0966 18.7976 44.6013 19.4424 45.5738 21.211C46.7666 23.348 45.9041 25.8903 44.0141 27.1246C42.6011 28.0457 41.0597 28.801 39.5917 29.5748C38.454 30.1827 37.3714 31.0117 36.0135 31.3249C34.9492 31.5828 34.2886 32.6513 34.0684 33.7935C33.9583 34.3278 33.8482 34.8252 33.1876 34.6225C32.6188 34.4383 32.6371 33.9041 32.7472 33.3882C33.0592 31.8407 33.94 30.7354 35.3346 30.0169C37.5182 28.9116 39.6835 27.7878 41.8671 26.6825C42.1974 26.5166 42.5277 26.3508 42.8397 26.1666C44.3811 25.3008 44.9866 24.0112 44.6013 22.519C44.2343 21.1004 43.1333 20.253 41.4818 20.1609C38.9862 20.0319 36.4723 19.8293 33.9767 19.8477C31.4077 19.8661 29.7011 18.8161 28.6368 16.4764C27.5542 14.1367 26.3614 11.8708 25.1504 9.58639C24.2879 7.94679 22.9117 7.3757 21.3519 7.89153C20.1959 8.25997 19.4802 9.05214 19.2784 10.2312C19.1499 10.9497 19.1316 11.6866 19.0949 12.4235C18.9848 14.7447 18.8747 17.0843 18.7829 19.4056C18.7095 21.3031 17.792 22.6479 16.1222 23.4954C13.6817 24.7481 11.2228 26.0008 8.78223 27.2535C7.80968 27.751 7.07568 28.4142 6.85548 29.5564C6.48849 31.546 7.73628 33.204 9.84652 33.333C12.5256 33.4988 15.223 33.6461 17.9021 33.683C20.1775 33.7198 21.7006 34.7147 22.6915 36.7411C23.9026 39.2097 25.1687 41.6599 26.4348 44.1101C27.022 45.2523 28.0129 45.8418 29.2791 45.7866C30.5269 45.7313 31.4994 45.1418 32.0499 43.9627C32.1784 43.6864 32.2151 43.3732 32.2885 43.0785C32.3986 42.5626 32.5821 42.0652 33.2243 42.2126C33.8849 42.36 33.7932 42.9495 33.7198 43.4101C33.4812 44.7917 32.0683 47.1314 30.0681 47.1682C29.5727 47.1867 29.0772 47.2604 28.4166 47.3156Z" fill="#342F3B"/>
<path d="M59.4461 237.053C59.4461 228.902 59.4461 220.766 59.4461 212.615C59.4461 212.205 59.4461 211.81 59.4461 211.401C59.4461 211.067 59.5562 210.809 60.0333 210.793C60.5471 210.778 60.859 210.96 60.8774 211.385C60.8957 211.689 60.8957 211.993 60.8957 212.296C60.8957 228.781 60.8957 245.28 60.8957 261.765C60.8957 262.069 60.8957 262.372 60.8774 262.676C60.8407 263.101 60.5838 263.313 60.0516 263.283C59.5745 263.268 59.4461 263.025 59.4461 262.691C59.4461 262.281 59.4277 261.886 59.4277 261.477C59.4461 253.341 59.4461 245.189 59.4461 237.053Z" fill="#342F3B"/>
<path d="M29.279 195.828C29.279 203.737 29.279 211.631 29.279 219.541C29.279 220 29.279 220.459 29.2056 220.918C29.1506 221.254 28.8386 221.453 28.4166 221.392C28.0863 221.361 27.8661 221.162 27.8477 220.887C27.811 220.535 27.811 220.168 27.811 219.816C27.811 203.798 27.811 187.796 27.811 171.778C27.811 171.427 27.7927 171.059 27.8477 170.708C27.8844 170.386 28.1046 170.126 28.5634 170.157C29.0038 170.172 29.224 170.417 29.2607 170.753C29.3157 171.151 29.2974 171.564 29.2974 171.977C29.279 179.917 29.279 187.873 29.279 195.828Z" fill="#342F3B"/>
<path d="M191.291 234.212C191.291 227.101 191.291 219.99 191.291 212.878C191.291 212.381 191.291 211.902 191.309 211.405C191.327 211.055 191.566 210.834 191.878 210.797C192.282 210.76 192.612 210.963 192.667 211.386C192.74 211.939 192.722 212.492 192.722 213.044C192.722 223.048 192.722 233.033 192.722 243.036C192.722 247.144 192.722 251.253 192.722 255.361C192.722 255.95 192.924 256.613 192.208 256.982C191.786 257.203 191.382 257.24 191.291 256.669C191.217 256.245 191.272 255.821 191.272 255.379C191.272 248.305 191.272 241.268 191.291 234.212Z" fill="#342F3B"/>
<path d="M220.632 161.535C220.632 155.953 220.614 150.371 220.65 144.77C220.65 144.07 220.228 142.854 221.311 142.799C222.559 142.744 222.027 143.997 222.027 144.66C222.063 155.824 222.063 167.006 222.027 178.17C222.027 178.889 222.449 180.086 221.348 180.141C220.1 180.197 220.65 178.944 220.65 178.281C220.614 172.717 220.632 167.135 220.632 161.535Z" fill="#342F3B"/>
<path d="M173.473 92.8671L192.113 87.5752L194.575 91.1032L199.499 106.626L201.961 124.619L200.554 140.495L195.278 155.665L192.816 153.548L190.706 147.198L192.113 140.495L190.706 124.619L188.948 118.621L184.024 116.505L173.473 110.507L170.659 105.568L172.066 102.04L171.363 98.8647L169.604 95.6895L173.473 92.8671Z" fill="#00E3A8"/>
<path d="M114.035 43.8286C145.266 38.1838 170.659 58.646 179.452 69.5827H178.045L172.418 67.1131L166.439 65.3492L164.68 66.4076L161.867 69.9355L150.964 69.5827L143.93 64.2908V59.3516L142.523 55.1181L131.269 51.9429C114.387 48.2738 112.746 45.0046 114.035 43.8286Z" fill="#00E3A8"/>
<path d="M41.5847 116.505C39.3338 116.222 37.5987 113.094 37.0125 111.565C26.0394 147.41 50.0255 178.009 63.3902 188.828V185.3L61.6317 179.655L55.3011 165.191V156.018L59.8732 150.373L66.5556 144.023L71.1277 135.203L73.5896 127.794L72.1828 119.68L68.6658 116.505L59.8732 114.035L53.1909 111.565C51.9013 112.741 49.2518 115.235 48.9704 115.799C48.6187 116.505 44.3983 116.857 41.5847 116.505Z" fill="#00E3A8"/>
<path d="M122.936 147.845C120.821 146.193 118 144.777 117.06 142.181C115.415 137.697 110.715 135.338 108.13 131.326C106.014 128.022 106.014 123.774 106.72 119.762C108.365 109.851 114.24 100.412 123.641 96.8718C128.106 95.2199 132.806 94.9839 137.507 94.9839C141.502 94.9839 145.732 95.2199 149.493 97.1078C153.018 98.9957 156.073 102.771 155.603 106.783C155.368 108.435 154.898 110.087 154.663 111.739C154.663 116.223 158.893 119.29 162.889 121.65C166.649 123.774 170.409 125.898 174.17 128.258C176.05 129.438 176.285 132.034 176.52 134.158C176.52 140.293 176.755 146.429 176.755 152.565C176.755 153.744 176.755 154.924 176.52 156.104C176.285 157.284 175.58 158.464 174.875 159.644C167.824 170.736 160.304 182.535 148.553 188.198C145.968 189.378 143.147 190.322 140.562 191.266C137.977 192.21 135.392 192.918 133.041 193.862C131.161 194.57 129.281 195.042 127.166 195.042C125.286 195.042 123.171 193.862 122.466 191.974C121.996 190.794 122.231 189.614 122.231 188.434C122.701 184.659 124.111 180.883 126.226 177.343C129.046 172.623 130.691 167.196 130.456 161.768C129.751 156.576 127.401 151.149 122.936 147.845Z" fill="#00E3A8"/>
<path d="M77.4583 53.354C51.0103 65.208 39.7089 92.8673 37.3642 105.215L36.3091 107.332L45.8051 105.215L59.1698 102.393L64.797 107.332L73.9413 109.801C78.7479 108.626 89.1348 106.274 92.2298 106.274C96.0986 106.274 105.595 97.1008 107.353 95.6896C108.76 94.5607 110.284 87.2225 110.87 83.6945L107.353 73.8162L96.802 61.8211L88.3611 55.118L77.4583 53.354Z" fill="#00E3A8"/>
<path d="M122.841 147.784C120.726 146.132 117.906 144.716 116.966 142.121C115.32 137.637 110.62 135.277 108.035 131.265C105.92 127.961 105.92 123.714 106.625 119.702C108.27 109.79 114.145 100.351 123.546 96.8112C128.011 95.1593 132.712 94.9233 137.412 94.9233C141.407 94.9233 145.638 95.1593 149.398 97.0472C152.923 98.9351 155.979 102.711 155.509 106.723C155.274 108.375 154.803 110.026 154.568 111.678C154.568 116.162 158.799 119.23 162.794 121.59C166.554 123.714 170.315 125.838 174.075 128.197C175.955 129.377 176.19 131.973 176.425 134.097C176.425 140.233 176.66 146.368 176.66 152.504C176.66 153.684 176.66 154.864 176.425 156.044C176.19 157.224 175.485 158.404 174.78 159.584C167.73 170.675 160.209 182.474 148.458 188.138C145.873 189.318 143.053 190.262 140.467 191.206C137.882 192.15 135.297 192.858 132.947 193.802C131.067 194.51 129.186 194.982 127.071 194.982C125.191 194.982 123.076 193.802 122.371 191.914C121.901 190.734 122.136 189.554 122.136 188.374C122.606 184.598 124.016 180.822 126.131 177.283C128.952 172.563 130.597 167.135 130.362 161.707C129.657 156.516 127.306 151.088 122.841 147.784ZM114.145 134.805C119.316 139.761 124.016 145.188 128.011 151.324C129.422 153.448 130.597 155.572 131.302 157.932C132.712 162.651 131.772 167.607 130.362 172.091C128.716 176.575 126.366 180.822 124.486 185.306C123.546 187.666 122.841 190.97 124.956 192.622C126.601 194.038 129.187 193.33 131.302 192.622C134.357 191.442 137.412 190.262 140.467 189.318C143.053 188.374 145.638 187.43 147.988 186.25C159.034 180.586 166.084 169.495 172.665 158.876C173.37 157.932 173.84 156.988 174.075 155.808C174.31 154.628 174.31 153.448 174.31 152.268C174.31 147.076 174.075 141.885 174.075 136.693C174.075 134.805 174.075 132.917 173.135 131.265C171.725 128.433 168.2 127.253 165.379 125.838C160.914 123.714 156.919 120.646 153.863 116.87C153.158 115.926 152.218 114.746 151.983 113.566C151.513 111.442 152.923 109.319 152.923 106.959C153.158 103.419 150.573 99.8791 147.283 98.4631C143.993 96.8112 140.232 96.8112 136.472 96.8112C132.947 96.8112 129.422 96.8112 126.131 97.7552C116.261 100.351 109.445 110.262 107.8 120.646C107.33 123.478 107.33 126.546 108.74 129.377C110.62 131.265 112.5 133.153 114.145 134.805Z" fill="#29222F"/>
<path d="M128.011 209.848C128.716 209.612 129.656 209.612 130.596 209.612C149.163 206.545 166.789 197.341 179.715 183.418C196.402 165.247 204.627 139.525 201.572 114.982C198.282 90.4394 183.946 67.5487 163.029 54.3334C160.914 53.1535 159.034 51.9736 156.919 50.7936C154.098 49.3777 151.278 47.9618 148.223 47.0179C145.638 46.0739 142.582 45.13 139.762 44.186C139.292 44.186 139.057 43.95 138.822 43.95C138.117 43.95 137.412 43.7141 136.707 43.4781C111.325 37.5784 83.3578 44.186 63.3812 60.9411C43.1696 77.9321 31.6538 104.835 33.2989 131.265C34.944 157.695 49.7501 182.946 71.8418 197.105C74.662 198.757 77.4824 200.409 80.3026 202.061C80.5376 202.061 80.7726 202.297 81.0076 202.297C81.4776 202.297 81.7127 202.533 82.1827 202.769C85.708 204.657 89.7033 206.073 93.4635 207.253C94.1686 207.489 95.1087 207.725 95.8137 207.961C96.0487 207.961 96.2838 208.197 96.7539 208.197C97.4589 208.433 98.1639 208.433 98.8689 208.669C99.104 208.669 99.5741 208.904 99.8091 208.904C100.044 208.904 100.044 208.904 100.279 208.904C107.33 210.32 115.085 210.792 122.606 210.792C124.016 210.32 126.131 210.084 128.011 209.848ZM128.011 43.4781C146.343 46.0739 163.734 54.8054 176.66 68.0206C174.31 68.7286 171.96 66.8407 169.845 65.6608C167.729 64.4809 164.674 63.7729 163.264 65.6608C162.559 66.6047 162.559 68.0207 161.619 68.7286C160.914 69.4366 159.739 69.4366 158.564 69.2006C155.508 68.9646 152.688 68.7286 149.868 67.5487C147.048 66.3687 144.698 64.0089 144.228 61.177C143.758 59.0532 144.228 56.6933 143.053 55.2774C142.347 54.3334 141.172 54.0975 139.997 53.6255C131.536 51.0296 122.841 48.4338 114.38 45.8379C117.906 42.7701 123.311 42.7701 128.011 43.4781ZM38.4693 101.767C43.6397 84.7757 54.4505 69.4366 68.7866 58.8172C71.3718 56.9293 73.957 55.2774 77.0123 54.5694C80.0675 53.8615 83.5928 54.3334 85.708 56.6933C89.4683 60.4691 95.3437 61.649 99.339 64.9528C101.689 67.0767 103.569 69.6726 105.214 72.5044C107.095 75.8082 109.21 79.112 109.445 82.8878C109.68 86.8996 107.8 90.9113 105.919 94.4511C102.864 100.587 95.8138 103.655 89.2332 105.778C84.2979 107.43 79.3625 108.61 74.4271 108.61C69.2567 108.61 64.0863 106.722 60.7961 102.947C58.6809 100.587 54.9205 101.295 51.8653 102.003C47.3999 103.183 43.1696 104.363 38.7043 105.542C37.7642 104.599 38.2343 103.183 38.4693 101.767ZM61.7361 186.722C42.2295 168.787 32.3588 140.94 36.1191 114.51C39.1744 119.702 48.105 119.466 51.1602 114.038C52.1003 112.386 54.2155 112.386 55.8606 113.094C57.5057 113.802 58.9158 115.218 60.561 115.69C62.6761 116.398 64.7913 115.926 66.9065 116.398C72.0769 118.05 72.782 125.129 71.3719 130.557C69.0217 139.289 63.3813 147.312 56.0957 152.74C52.5704 155.336 53.2754 160.527 54.6855 164.775C57.0357 172.327 59.856 179.406 63.1463 186.486C64.0863 180.35 60.326 174.686 57.9758 169.023C55.6256 163.359 54.6856 155.808 59.621 152.032C67.1416 146.368 72.3119 137.873 73.9571 128.669C74.8971 123.713 73.957 117.578 69.4916 115.218C66.6714 113.802 63.6163 114.51 60.7961 113.33C58.9159 112.622 57.5057 111.206 55.8606 110.734C53.9805 110.026 51.6303 110.262 50.9253 112.15C49.5152 114.982 46.2249 116.634 43.1697 115.926C40.1145 115.218 37.7642 112.15 37.7642 108.846C37.7642 107.902 38.9392 107.194 40.1143 106.958C44.3447 105.778 48.81 104.599 53.0404 103.655C55.6256 102.947 58.6808 102.475 60.561 104.363C66.6714 111.206 77.2473 110.734 86.178 108.61C92.0535 107.194 98.1639 104.835 102.864 101.059C107.8 97.283 111.56 91.6193 112.03 85.4836C112.735 78.404 108.975 71.5604 104.039 66.3687C97.6939 59.7611 89.4683 55.5134 81.4777 51.2656C91.5835 46.0739 102.864 43.0061 114.145 42.7701C112.735 43.2421 112.5 45.366 113.44 46.5459C114.38 47.7258 116.025 48.1978 117.435 48.6698C124.251 50.5577 131.067 52.4455 137.882 54.3334C140.467 55.0414 143.758 56.6933 143.053 59.5251C142.347 62.8289 144.463 66.1328 147.518 68.0206C150.338 69.6726 153.863 70.1445 157.154 70.6165C159.034 70.8525 160.914 71.0885 162.794 70.3805C164.674 69.6726 166.084 67.7847 165.614 65.8968C170.08 67.3127 174.31 68.7286 178.775 70.3805C180.655 71.0885 182.065 72.7404 183.476 74.3923C200.632 96.575 205.332 127.961 195.462 154.392C190.996 152.268 191.701 145.896 192.171 140.94C193.111 134.569 192.641 127.961 191.231 121.59C190.526 118.522 187.471 116.398 184.416 115.218C181.36 114.038 178.07 113.566 175.485 111.678C172.9 109.79 170.785 106.25 172.195 103.419C173.37 101.059 172.9 97.9909 171.02 95.867C175.015 92.3272 180.42 90.4393 185.826 90.4393C187.236 90.4393 188.646 90.6753 189.821 89.7314C190.996 89.0234 190.996 86.8996 189.821 86.4276C189.351 86.4276 188.881 86.4276 188.411 86.6636C184.416 87.8435 180.185 89.2594 176.19 90.4393C172.665 91.6193 168.199 94.2151 169.845 97.7549C170.55 99.4068 172.43 101.295 171.02 102.475C168.199 104.835 170.55 109.554 173.605 111.914C177.365 114.982 182.066 117.106 186.766 118.286C188.411 118.522 189.116 120.41 189.351 122.062C190.761 127.961 190.996 134.097 190.526 140.232C190.291 143.3 189.586 146.368 190.056 149.2C190.526 152.268 191.936 155.336 194.757 156.516C184.886 181.058 162.324 200.409 136.472 206.073C109.68 212.208 81.2426 204.657 61.7361 186.722Z" fill="#29222F"/>
</svg>
