<svg width="211" height="239" viewBox="0 0 211 239" fill="none" xmlns="http://www.w3.org/2000/svg">
<path d="M172.862 102.908C178.584 104.455 183.747 107.105 188.275 110.935C194.264 116.006 198.156 122.422 200.305 129.929C201.284 133.352 201.717 136.865 202.085 140.402C202.709 146.273 203.395 152.144 204.044 158.027C204.285 160.246 204.502 162.478 204.769 164.697C204.845 165.292 204.616 165.432 204.095 165.457C203.204 165.508 202.327 165.597 201.437 165.673C201.17 165.686 200.903 165.698 200.648 165.711C200.267 165.711 199.885 165.698 199.517 165.724C194.799 166.053 190.081 166.396 185.375 166.852C181.306 167.258 177.224 167.638 173.18 168.221C172.773 168.006 172.404 167.841 172.366 168.564C172.277 170.123 172.175 171.683 172.073 173.243C171.972 174.802 171.883 176.362 171.755 177.921C171.692 178.796 171.641 178.834 170.751 178.796C169.695 178.758 168.64 178.657 167.584 178.606C163.731 178.403 159.89 178.226 156.037 178.01C147.835 177.541 139.632 177.059 131.43 176.59C126.012 176.286 120.608 176.032 115.19 175.715C114.275 175.664 113.346 175.677 112.456 175.271C108.209 173.319 103.758 171.949 99.116 171.341C96.0131 170.935 92.8847 170.555 89.8327 171.746C89.2477 171.975 88.5991 172.063 88.0268 172.33C87.3147 172.647 86.984 172.393 86.628 171.772C82.0117 163.847 77.37 155.935 72.7156 148.035C72.3595 147.439 72.3595 147.034 72.8046 146.476C74.3434 144.523 75.3226 142.291 76.0347 139.92C76.8868 137.105 77.0648 134.202 77.2047 131.285C78.8325 129.409 80.4094 127.482 82.088 125.643C86.9205 120.356 92.287 115.689 98.4166 111.924C98.6328 111.797 98.8108 111.619 99.0143 111.454C100.706 110.681 102.346 109.831 104.127 109.248C107.255 108.221 110.409 107.207 113.588 106.357C115.33 105.888 117.06 105.368 118.942 105.064C118.993 105.799 119.094 106.471 119.069 107.131C119.031 107.955 119.425 108.323 120.15 108.589C121.956 109.248 123.8 109.692 125.707 109.831C133.668 110.427 140.446 107.473 146.652 102.845C147.021 102.566 147.263 102.274 147.11 101.78C147.046 101.552 146.881 101.298 147.275 100.943C148.305 100.943 149.488 100.956 150.671 100.943C155.414 100.88 160.145 101.108 164.863 101.666C167.533 101.97 170.191 102.464 172.862 102.908ZM86.1066 166.535C86.132 166.801 86.0811 167.042 86.3482 167.118C86.6661 167.207 86.806 167.004 86.8696 166.725C86.9586 166.358 87.0349 165.99 87.1112 165.609C88.3448 159.143 89.5783 152.689 90.7991 146.222C90.8754 145.804 91.2315 145.119 90.672 145.005C89.9344 144.84 90.0997 145.677 90.0107 146.095C88.9679 151.434 87.9505 156.772 86.9332 162.123C86.6407 163.606 86.3736 165.102 86.1066 166.535ZM174.312 151.446H174.324C174.337 151.193 174.362 150.939 174.362 150.685C174.362 150.406 174.451 150.013 174.057 149.963C173.663 149.912 173.625 150.267 173.587 150.571C173.561 150.825 173.523 151.079 173.51 151.332C173.421 152.473 173.332 153.602 173.243 154.743C172.964 158.027 172.684 161.298 172.417 164.582C172.391 164.912 172.302 165.356 172.747 165.419C173.218 165.483 173.192 165.026 173.256 164.709C173.269 164.62 173.269 164.544 173.281 164.456C173.612 160.106 173.955 155.77 174.312 151.446Z" fill="#00E3A8"/>
<path d="M172.862 102.908C170.191 102.464 167.533 101.97 164.85 101.653C160.132 101.108 155.401 100.867 150.658 100.93C149.475 100.943 148.293 100.93 147.262 100.93C146.868 101.298 147.034 101.539 147.097 101.767C147.25 102.262 147.008 102.553 146.639 102.832C140.433 107.473 133.655 110.415 125.695 109.819C123.787 109.679 121.943 109.235 120.137 108.576C119.412 108.31 119.005 107.955 119.056 107.118C119.094 106.459 118.98 105.786 118.929 105.051C117.047 105.355 115.317 105.875 113.575 106.344C110.383 107.194 107.242 108.208 104.114 109.235C102.333 109.819 100.68 110.668 99.0016 111.442C97.6154 105.913 96.2293 100.385 94.8304 94.8693C93.4443 89.4297 92.0454 83.9901 90.6338 78.5631C90.5194 78.094 90.4812 77.6502 89.7564 77.5488C84.0719 76.7119 80.7146 73.1236 78.7562 68.0136C77.8406 65.6172 77.5099 63.0939 77.9423 60.5326C78.0695 59.7845 77.9041 59.3153 77.2683 58.8335C72.0416 54.9282 69.3965 49.5646 68.5826 43.2248C67.9976 38.7362 68.252 34.2602 69.5618 29.9238C71.5202 23.4191 75.3099 18.2077 81.0071 14.4545C83.7794 12.6286 86.8823 12.1468 90.1251 12.337C94.1946 12.5652 98.0224 13.7571 101.736 15.3674C102.855 15.8493 103.974 16.3691 105.042 16.9778C105.716 17.3582 106.212 17.3582 106.873 16.9397C109.569 15.2914 112.469 14.1502 115.559 13.4908C119.985 12.5399 124.296 12.8822 128.556 14.4418C132.93 16.0395 136.987 18.1697 140.599 21.124C144.579 24.3954 147.491 28.3641 149.208 33.2712C153.596 45.7734 157.868 58.3263 162.116 70.8792C165.588 81.1118 169.021 91.357 172.48 101.602C172.62 102.008 172.735 102.464 172.862 102.908ZM101.863 66.454L101.837 66.4287L101.863 66.454C101.876 66.5301 101.888 66.5935 101.901 66.6569C101.926 67.1768 102.194 67.6205 102.359 68.1024C103.173 70.372 104.012 72.6164 104.813 74.886C105.017 75.4566 105.246 75.6088 105.818 75.3552C106.352 75.1143 106.937 74.9621 107.497 74.7846C107.764 74.6958 108.082 74.4549 108.26 74.8733C108.463 75.3552 108.005 75.4313 107.713 75.5327C106.962 75.8116 106.187 76.0272 105.436 76.3188C104.851 76.5471 104.546 76.4837 104.317 75.8243C103.707 74.0238 103.046 72.2486 102.372 70.4735C102.066 69.6747 101.863 68.8124 101.316 67.8615C100.146 72.7178 97.6663 76.1794 92.783 77.422C92.7576 77.6756 92.8974 77.8404 93.0119 78.0179C94.3853 79.9959 95.8987 81.8852 97.5646 83.6224C100.464 86.6401 103.669 89.2268 107.547 90.9005C110.981 92.384 114.529 92.9419 118.217 92.0417C121.18 91.3063 123.762 89.7467 126.229 88.0349C130.934 84.7762 134.393 80.5412 136.084 75.0509C138.526 67.1641 137.152 59.5182 134.291 52.0118C134.126 51.568 133.821 51.4919 133.414 51.4666C132.066 51.3652 130.73 51.1369 129.408 50.8072C124.741 49.6534 120.544 47.4852 116.564 44.8858C111.757 41.7666 107.357 38.1275 103.351 34.032C102.74 33.4107 102.257 33.3473 101.481 33.6643C98.9889 34.6913 96.7252 36.0734 94.7541 37.8993C91.346 41.0439 89.1205 44.9239 87.569 49.2476C87.48 49.5012 87.2384 49.7548 87.5436 50.0972C88.6627 49.945 89.7945 50.0718 90.9009 50.3381C93.7749 51.0228 96.0385 52.6458 97.9079 54.8901C98.1496 55.1817 98.2894 55.6382 98.76 55.7143C98.8871 54.9155 98.9762 54.1547 99.1542 53.4193C99.3322 52.6838 99.5484 51.9484 99.8282 51.2384C102.55 44.2518 110.154 41.9441 116.309 46.2299C122.21 50.3254 124.601 58.9603 121.625 65.4777C118.662 71.9824 111.35 73.9985 105.462 69.9156C104.127 68.99 102.995 67.8615 102.016 66.5808C101.977 66.5428 101.926 66.4921 101.863 66.454ZM138.361 68.2799C138.272 68.2926 138.17 68.2926 138.081 68.3053C138.055 68.6603 138.03 69.028 138.005 69.383C137.725 73.0982 136.72 76.6105 134.876 79.8438C131.468 85.8286 126.279 89.7213 120.023 92.3206C118.929 92.7771 118.904 92.7264 119.005 93.7915C119.412 98.0392 119.667 102.287 119.845 106.547C119.883 107.65 119.883 107.663 120.964 108.031C124.741 109.324 128.607 109.4 132.498 108.652C137.203 107.752 141.362 105.647 145.228 102.896C146.36 102.084 146.36 102.084 146.042 100.765C144.185 92.9293 142.328 85.0932 140.484 77.2445C139.759 74.2647 139.06 71.2723 138.361 68.2799ZM121.333 59.1759C121.294 58.1995 121.218 56.9696 120.9 55.7777C119.908 52.0372 117.963 48.956 114.542 46.978C109.798 44.2265 104.444 45.7734 101.85 50.5917C100.35 53.3812 99.9935 56.361 100.617 59.4421C101.507 63.842 103.694 67.3923 107.827 69.4591C112.075 71.5766 116.691 70.3087 119.323 66.3653C120.722 64.2731 121.32 61.9274 121.333 59.1759ZM99.9299 64.476C99.79 60.4311 98.0987 56.4497 94.22 53.5714C92.4015 52.2274 90.3413 51.5427 88.0396 51.6568C86.7424 51.7202 86.717 51.7202 86.4245 52.9374C85.9158 55.0296 85.5725 57.1471 85.2673 59.2773C85.0256 60.9257 85.2418 62.4219 85.8395 63.9561C87.3528 67.76 88.9552 71.5132 91.0916 75.0255C91.7148 76.0526 91.7275 76.0779 92.9102 75.7482C94.4998 75.3171 95.8605 74.493 96.9669 73.2757C99.0652 70.9807 99.9172 68.2165 99.9299 64.476ZM144.846 55.0803C144.897 54.0406 144.668 53.0516 144.274 52.1133C143.689 50.7438 142.761 49.6914 141.285 49.2096C138.831 48.4108 136.453 50.1606 135.398 51.8977C135.207 52.202 135.309 52.4429 135.41 52.7346C136.466 55.6255 137.28 58.5926 137.737 61.6484C137.826 62.2317 138.119 62.4092 138.666 62.4219C140.116 62.4726 141.311 61.9147 142.328 60.9637C144.032 59.3787 144.745 57.35 144.846 55.0803ZM79.5573 60.4565C79.1122 62.4726 79.3284 64.3111 79.799 66.1117C80.7655 69.8522 82.762 72.8826 86.2083 74.8226C87.3147 75.4439 88.4719 75.9004 89.9217 75.9258C89.6419 74.9367 89.5274 73.9984 89.1205 73.1996C87.4673 69.9663 86.0176 66.6569 84.784 63.246C84.6696 62.9164 84.5297 62.6374 84.1609 62.5106C82.584 61.9908 81.1342 61.23 79.5573 60.4565ZM78.54 59.1378C78.4764 59.3787 78.5018 59.645 78.7943 59.7338C79.1122 59.8352 79.214 59.5689 79.2776 59.3153C79.3539 59.0364 79.4175 58.7447 79.5065 58.4658C80.4984 55.3339 82.3042 52.9248 85.5343 51.8089C85.865 51.6948 86.4499 51.7075 86.2846 51.1876C86.132 50.7185 85.6361 50.9848 85.3054 51.0735C82.0753 52.0118 78.9596 55.7143 78.54 59.1378Z" fill="#211B29"/>
<path d="M172.061 212.854C172.073 220.031 172.34 227.195 172.633 234.359C172.684 235.627 172.773 236.882 172.836 238.15C172.366 238.163 171.908 238.201 171.438 238.201C140.408 238.201 109.366 238.201 78.3366 238.201C78.0823 238.201 77.828 238.188 77.5736 238.201C76.9886 238.239 76.569 238.125 76.6834 237.389C76.7216 237.187 76.6834 236.971 76.6707 236.768C76.7343 236.527 76.836 236.286 76.8615 236.033C77.1412 233.395 77.3956 230.745 77.6881 228.108C78.2349 223.201 78.7817 218.307 79.3667 213.412C79.8881 209.063 80.4477 204.714 80.9945 200.365C81.4396 200.453 81.2615 200.821 81.287 201.087C81.643 203.839 83.9194 205.399 86.59 204.65C87.8108 204.308 89.0316 203.928 90.227 203.509C91.1045 203.205 91.9056 203.091 92.745 203.649C93.1901 203.94 93.7623 204.055 94.2964 204.169C96.7762 204.701 99.2688 204.574 101.736 204.042C105.462 203.256 108.908 201.759 112.227 199.959C112.825 199.629 113.346 199.566 114.02 199.769C119.044 201.278 124.105 202.698 129.179 204.042C137.28 206.172 145.431 208.137 153.647 209.811C159.751 211.054 165.893 212.043 172.061 212.854Z" fill="#00E3A8"/>
<path d="M172.06 212.854C165.893 212.043 159.75 211.054 153.646 209.811C145.431 208.138 137.292 206.172 129.179 204.042C124.105 202.711 119.056 201.291 114.02 199.769C113.346 199.566 112.825 199.629 112.227 199.959C108.908 201.76 105.449 203.256 101.736 204.042C99.2685 204.562 96.7887 204.701 94.2962 204.169C93.7621 204.055 93.1771 203.941 92.7447 203.649C91.8927 203.091 91.1042 203.205 90.2268 203.509C89.0314 203.928 87.8105 204.308 86.5897 204.651C83.9319 205.386 81.6428 203.826 81.2867 201.088C81.2486 200.834 81.4393 200.466 80.9942 200.365C80.8289 200.365 80.6509 200.352 80.4856 200.378C77.0011 200.758 75.119 197.296 76.0855 194.672C76.1618 194.482 76.1999 194.279 76.2762 194C74.0253 194.101 72.1941 193.404 71.2276 191.299C70.3374 189.346 70.8334 187.596 72.2195 186.05C71.9652 185.694 71.5582 185.656 71.2276 185.466C69.4091 184.414 68.5316 182.423 69.0276 180.394C69.4599 178.632 70.6299 177.567 72.334 177.047C74.3433 176.426 76.3526 175.804 78.3364 175.183C78.3491 174.727 78.1202 174.473 77.904 174.207C77.904 174.067 77.8404 173.978 77.6878 173.991L77.7006 174.016C77.7514 173.598 77.4462 173.319 77.2555 173.002C74.9791 169.109 72.7028 165.217 70.4264 161.324C68.7605 158.484 67.1073 155.644 65.4287 152.816C65.2634 152.524 65.2888 151.878 64.6148 152.119C63.1905 152.334 61.7916 152.651 60.3419 152.651C56.5014 152.651 52.9025 151.637 49.4689 149.976C44.2803 147.465 39.9439 143.864 36.1924 139.54C29.961 132.326 25.739 124.109 23.9459 114.726C22.9158 109.35 22.8522 103.986 24.5309 98.6862C25.4465 95.7826 26.8708 93.1579 29.0708 91.0277C33.1021 87.135 37.9854 86.0319 43.3774 86.8687C48.744 87.7056 53.4238 90.1528 57.595 93.5002C67.2726 101.273 73.3513 111.315 76.1745 123.361C76.7849 125.96 76.9248 128.623 77.1792 131.26C77.0393 134.177 76.8612 137.068 76.0092 139.895C75.297 142.266 74.3178 144.498 72.7791 146.451C72.334 147.021 72.334 147.414 72.6901 148.01C77.3445 155.91 81.9862 163.822 86.6024 171.747C86.9585 172.368 87.3019 172.609 88.0013 172.305C88.5736 172.051 89.2221 171.962 89.8071 171.721C92.8592 170.53 95.9875 170.91 99.0905 171.316C103.732 171.924 108.183 173.294 112.431 175.246C113.321 175.652 114.249 175.639 115.165 175.69C120.582 176.007 125.987 176.261 131.404 176.565C139.607 177.022 147.809 177.516 156.012 177.985C159.865 178.201 163.705 178.378 167.559 178.581C168.614 178.632 169.67 178.733 170.725 178.771C171.615 178.809 171.666 178.759 171.73 177.896C171.857 176.337 171.946 174.777 172.048 173.218C172.149 171.658 172.264 170.098 172.34 168.539C172.378 167.816 172.747 167.981 173.154 168.196C173.027 170.301 172.9 172.419 172.76 174.524C172.671 175.956 172.531 177.389 172.442 178.822C172.404 179.38 172.2 179.697 171.577 179.608C171.323 179.57 171.069 179.583 170.814 179.57C164.507 179.228 158.212 178.873 151.904 178.53C146.906 178.251 141.921 177.973 136.923 177.694C129.649 177.288 122.375 176.869 115.088 176.489C113.804 176.426 112.583 176.273 111.413 175.665C110.548 175.221 109.633 174.891 108.717 174.562C103.821 172.787 98.8107 171.683 93.5713 171.734C92.8083 171.747 92.0707 171.861 91.3204 172.089C85.2926 173.928 79.252 175.741 73.2242 177.567C72.7028 177.732 72.1687 177.884 71.6727 178.125C69.9305 179.012 69.2056 181.079 69.9178 182.892C70.5536 184.49 72.5502 185.745 74.3814 184.972C74.6485 184.858 74.941 184.794 75.2335 184.705C76.5687 184.312 77.9167 183.919 79.252 183.526C79.5064 183.45 79.7861 183.387 79.9133 183.678C80.0913 184.097 79.7098 184.16 79.4555 184.274C79.2647 184.363 79.0485 184.388 78.8451 184.452C77.2682 184.921 75.6786 185.377 74.1016 185.872C72.1687 186.481 71.1386 188.471 71.7109 190.411C72.3213 192.478 74.3433 193.594 76.5306 192.947C78.2728 192.44 79.9769 191.781 81.6937 191.185C82.0116 191.071 82.3168 190.88 82.6602 190.931C82.7746 190.944 82.9145 191.02 82.9654 191.109C83.0544 191.261 83.0035 191.464 82.8509 191.552C82.5966 191.692 82.3168 191.806 82.037 191.908C80.8798 192.326 79.7225 192.719 78.5653 193.137C77.319 193.594 76.6832 194.545 76.6069 195.838C76.4543 198.26 78.5653 200.263 81.1214 199.363C82.7619 198.793 84.3897 198.209 86.0302 197.639C86.3099 197.537 86.5897 197.436 86.8822 197.385C87.0475 197.36 87.2128 197.449 87.2764 197.626C87.34 197.816 87.251 197.956 87.0857 198.045C86.8568 198.159 86.6279 198.247 86.3862 198.336C85.318 198.729 84.2371 199.122 83.1688 199.515C82.0752 199.908 81.859 200.289 82.1006 201.392C82.5203 203.319 84.2625 204.397 86.2591 203.865C87.7724 203.459 89.2603 202.99 90.7482 202.482C91.3967 202.267 91.9308 202.242 92.5285 202.66C93.0881 203.053 93.7621 203.218 94.4234 203.37C96.7887 203.915 99.1414 203.75 101.481 203.256C105.207 202.482 108.654 200.986 111.96 199.16C112.698 198.755 113.321 198.717 114.109 198.957C121.485 201.164 128.912 203.205 136.389 205.056C147.86 207.897 159.382 210.458 171.132 211.878C175.977 212.461 180.835 212.804 185.719 212.487C188.046 212.335 190.347 211.967 192.497 210.978C193.857 210.344 194.875 209.38 195.46 207.985C195.816 207.123 196.185 206.274 196.464 205.386C197.8 201.265 198.461 197.017 198.982 192.732C200.076 183.742 200.508 174.714 200.623 165.673C200.89 165.661 201.157 165.648 201.411 165.635C201.335 172.267 201.068 178.885 200.508 185.504C199.962 191.946 199.288 198.361 197.52 204.613C197.189 205.792 196.744 206.933 196.286 208.061C195.523 209.938 194.15 211.168 192.306 211.916C190.246 212.753 188.071 213.083 185.871 213.26C181.547 213.615 177.236 213.286 172.938 212.88C172.658 212.88 172.353 212.867 172.06 212.854ZM29.9483 108.64C30.0246 110.478 30.1264 112.165 30.4697 113.826C32.5935 124.299 37.7184 133.036 45.9717 139.883C48.9348 142.342 52.2666 144.168 56.0817 144.967C62.1858 146.248 67.1582 143.471 69.2438 137.626C69.9559 135.622 70.2738 133.53 70.312 131.413C70.4137 125.897 69.0403 120.698 66.7767 115.728C63.6864 108.969 59.4008 103.124 53.3857 98.6355C50.5371 96.5053 47.4469 94.9077 43.9116 94.223C38.2525 93.1198 33.4964 95.6811 31.309 100.981C30.2917 103.479 30.0246 106.117 29.9483 108.64Z" fill="#211B29"/>
<path d="M76.6835 236.768C76.6835 236.984 76.7216 237.187 76.6962 237.389C76.5817 238.125 76.9887 238.239 77.5864 238.201C77.8407 238.188 78.095 238.201 78.3494 238.201C109.379 238.201 140.421 238.201 171.45 238.201C171.921 238.201 172.379 238.163 172.849 238.15C173.358 238.176 173.867 238.214 174.375 238.214C183.748 238.214 193.107 238.214 202.48 238.214C202.861 238.214 203.243 238.226 203.612 238.277C203.777 238.302 203.904 238.429 203.904 238.632C203.904 238.848 203.764 238.924 203.586 238.936C203.294 238.949 202.988 238.949 202.696 238.949C147.797 238.949 92.9103 238.949 38.0111 238.936C37.6042 238.936 36.8412 239.228 36.8285 238.657C36.803 237.909 37.6042 238.226 38.0366 238.226C50.283 238.201 62.5422 238.214 74.7886 238.201C75.2464 238.201 75.7043 238.302 76.1621 238.112C76.2765 237.681 75.9713 237.389 75.806 237.072C70.6175 226.586 65.5052 216.062 60.8254 205.348C59.541 202.406 58.3456 199.426 57.2138 196.421C55.8658 192.833 55.6877 189.156 56.2219 185.428C57.1375 179.037 59.4393 173.116 62.4659 167.448C62.7457 167.499 62.9364 167.664 63.1272 167.854C60.4312 172.951 58.3202 178.264 57.2519 183.945C56.4126 188.433 56.5016 192.833 58.3202 197.119C59.1595 199.097 59.8716 201.126 60.7109 203.104C65.4925 214.274 70.8209 225.192 76.1875 236.083C76.302 236.324 76.3655 236.641 76.6835 236.768Z" fill="#211B29"/>
<path d="M63.1017 167.854C62.911 167.664 62.7202 167.499 62.4405 167.448C61.7665 166.954 61.0797 166.459 60.4185 165.939C59.5156 165.255 59.5156 165.242 59.8716 164.177C61.1433 160.348 62.6312 156.62 64.2717 152.93C64.3861 152.664 64.4879 152.385 64.6023 152.118C65.2763 151.865 65.2509 152.524 65.4162 152.816C67.1076 155.643 68.7608 158.484 70.414 161.324C72.6903 165.217 74.9667 169.109 77.243 173.002C77.4337 173.319 77.739 173.598 77.6881 174.016C77.3447 174.181 77.0268 173.991 76.7216 173.889C75.3609 173.433 74.0002 172.964 72.6649 172.469C69.3203 171.252 66.192 169.604 63.1017 167.854Z" fill="#00E3A8"/>
<path d="M106.53 14.5055C105.983 12.9839 105.729 11.5258 105.513 10.0803C105.207 8.07689 105.029 6.06081 105.449 4.03206C105.92 1.72435 107.14 0.469055 109.328 0.0633036C110.892 -0.21565 111.68 0.418336 111.655 2.0033C111.642 2.89088 111.464 3.76578 111.184 4.61532C110.116 7.96277 108.514 11.082 106.772 14.1251C106.733 14.2266 106.657 14.328 106.53 14.5055Z" fill="#211B29"/>
<path d="M2.5307 168.361C3.37002 168.501 4.46368 168.653 5.5319 168.894C6.63828 169.135 7.49031 168.945 8.16431 167.93C8.69843 167.119 9.35971 166.396 9.98284 165.66C10.784 164.71 11.7123 164.443 12.6661 164.887C13.6072 165.318 14.0141 166.18 13.8361 167.436C13.6708 168.526 13.5309 169.617 13.2893 170.682C13.0985 171.506 13.3783 172.064 14.0014 172.546C14.8662 173.218 15.7182 173.915 16.5702 174.612C17.5622 175.437 17.8165 176.426 17.3333 177.402C16.8754 178.315 15.9725 178.683 14.739 178.467C13.7343 178.302 12.717 178.201 11.7378 177.947C10.7586 177.706 10.1227 178.036 9.56318 178.797C8.87646 179.71 8.16431 180.61 7.4013 181.447C6.48567 182.461 5.01051 182.41 4.17119 181.421C3.64979 180.813 3.63707 180.115 3.75152 179.393C3.92956 178.315 4.06945 177.224 4.31107 176.147C4.47639 175.386 4.23477 174.841 3.64979 174.384C2.6833 173.623 1.71681 172.875 0.78847 172.076C0.0381685 171.43 -0.165303 170.517 0.178055 169.667C0.508696 168.78 1.24628 168.323 2.5307 168.361ZM4.48911 179.71C4.38737 180.47 4.64171 181.003 5.23941 181.257C5.82439 181.51 6.39666 181.396 6.84175 180.864C7.59205 179.951 8.35507 179.038 9.07994 178.112C9.77937 177.224 10.6187 176.882 11.7505 177.123C12.7806 177.351 13.8361 177.491 14.8789 177.656C15.7818 177.808 16.3286 177.592 16.6211 177.009C16.939 176.375 16.761 175.779 16.0107 175.158C15.1332 174.435 14.243 173.725 13.3528 173.002C12.5898 172.393 12.2973 171.633 12.4881 170.656C12.717 169.541 12.8823 168.412 13.0603 167.296C13.2002 166.396 12.9713 165.889 12.3228 165.597C11.6869 165.293 11.1782 165.445 10.5678 166.168C9.88111 166.967 9.19439 167.778 8.57126 168.628C7.87182 169.591 6.99435 169.946 5.82439 169.705C4.95964 169.515 4.06945 169.401 3.20469 169.262C2.9122 169.211 2.61971 169.16 2.32722 169.135C1.66594 169.071 1.15726 169.325 0.91564 169.959C0.686734 170.53 0.813904 171.049 1.28443 171.442C2.1619 172.178 3.02666 172.913 3.94228 173.598C4.9342 174.333 5.34115 175.208 5.06137 176.438C4.79432 177.554 4.65443 178.683 4.48911 179.71Z" fill="#211B29"/>
<path d="M210.987 32.6882C211.102 33.3729 210.733 33.9054 210.173 34.3619C209.321 35.0593 208.495 35.782 207.63 36.4541C206.943 36.9739 206.689 37.5826 206.88 38.4321C207.121 39.586 207.325 40.7525 207.477 41.919C207.63 43.0348 207.198 43.7703 206.282 44.1887C205.366 44.6071 204.527 44.4423 203.777 43.5927C203.014 42.7432 202.289 41.8556 201.59 40.9554C201.043 40.2453 200.407 39.9663 199.491 40.1946C198.474 40.4482 197.418 40.6003 196.376 40.7652C195.155 40.968 194.252 40.5623 193.807 39.624C193.362 38.6857 193.603 37.7347 194.544 36.9359C195.384 36.2258 196.223 35.5158 197.088 34.8437C197.724 34.3492 197.965 33.7786 197.813 32.9671C197.571 31.8133 197.406 30.6467 197.202 29.4802C197.088 28.8209 197.189 28.2249 197.635 27.6924C198.499 26.6653 199.898 26.6146 200.852 27.6543C201.628 28.4912 202.365 29.3661 203.039 30.279C203.65 31.1286 204.4 31.3061 205.366 31.0905C206.435 30.8623 207.516 30.6467 208.609 30.4946C209.995 30.3298 210.975 31.2173 210.987 32.6882ZM210.275 32.6755C210.262 31.7372 209.563 31.1666 208.622 31.3188C207.541 31.4836 206.46 31.6865 205.379 31.9147C204.184 32.1683 203.23 31.902 202.48 30.875C201.831 29.9874 201.106 29.1632 200.369 28.339C199.746 27.629 199.11 27.5402 198.474 27.9967C197.952 28.3644 197.889 28.8969 197.978 29.4675C198.156 30.5453 198.296 31.6358 198.55 32.7009C198.855 33.9435 198.436 34.8184 197.457 35.5538C196.643 36.1624 195.88 36.8345 195.104 37.4938C194.366 38.1278 194.188 38.7364 194.519 39.3577C194.824 39.941 195.396 40.1439 196.287 39.9917C197.329 39.8142 198.372 39.6367 199.402 39.4084C200.521 39.1548 201.386 39.4718 202.085 40.3721C202.759 41.2343 203.484 42.0585 204.184 42.908C204.514 43.3138 204.883 43.6435 205.468 43.6054C206.269 43.5547 206.791 42.9207 206.676 42.0078C206.536 40.8412 206.333 39.6747 206.091 38.5209C205.837 37.3924 206.193 36.5555 207.096 35.8708C207.961 35.1988 208.787 34.476 209.639 33.7786C210.008 33.4743 210.301 33.1193 210.275 32.6755Z" fill="#211B29"/>
<path d="M200.636 165.698C200.521 174.739 200.089 183.767 198.995 192.757C198.474 197.03 197.8 201.29 196.477 205.411C196.198 206.299 195.829 207.148 195.473 208.011C194.9 209.405 193.87 210.369 192.51 211.003C190.36 212.005 188.059 212.36 185.731 212.512C180.848 212.841 175.99 212.499 171.145 211.903C159.395 210.483 147.873 207.922 136.402 205.082C128.925 203.23 121.498 201.189 114.122 198.983C113.334 198.742 112.711 198.78 111.973 199.185C108.667 201.011 105.22 202.508 101.494 203.281C99.1543 203.775 96.8016 203.94 94.4363 203.395C93.775 203.243 93.101 203.078 92.5415 202.685C91.9565 202.267 91.4096 202.292 90.7611 202.508C89.2732 203.002 87.7853 203.484 86.272 203.89C84.2754 204.422 82.5332 203.344 82.1135 201.417C81.8719 200.314 82.0881 199.934 83.1818 199.54C84.25 199.147 85.3309 198.754 86.3992 198.361C86.6408 198.272 86.8697 198.184 87.0986 198.07C87.2639 197.994 87.3529 197.841 87.2893 197.651C87.2258 197.461 87.0604 197.372 86.8951 197.41C86.6026 197.461 86.3229 197.562 86.0431 197.664C84.4026 198.234 82.7748 198.818 81.1343 199.388C78.5782 200.289 76.4672 198.285 76.6198 195.863C76.6961 194.583 77.332 193.619 78.5782 193.163C79.7355 192.744 80.8927 192.351 82.05 191.933C82.3297 191.831 82.5968 191.717 82.8638 191.578C83.0292 191.489 83.0673 191.286 82.9783 191.134C82.9274 191.045 82.7875 190.969 82.6731 190.956C82.317 190.906 82.0245 191.108 81.7066 191.21C79.9898 191.806 78.2857 192.465 76.5435 192.972C74.3562 193.619 72.3215 192.503 71.7238 190.436C71.1515 188.496 72.1816 186.506 74.1146 185.897C75.6915 185.403 77.2684 184.946 78.858 184.477C79.0615 184.414 79.2777 184.388 79.4684 184.299C79.7227 184.185 80.1043 184.122 79.9262 183.704C79.799 183.412 79.5193 183.475 79.2649 183.551C77.9297 183.944 76.5817 184.337 75.2464 184.731C74.9666 184.819 74.6741 184.883 74.3943 184.997C72.5504 185.758 70.5665 184.515 69.9307 182.917C69.2058 181.117 69.9434 179.037 71.6856 178.15C72.1689 177.909 72.703 177.744 73.2371 177.592C79.2649 175.766 85.3055 173.953 91.3333 172.114C92.0709 171.886 92.8085 171.772 93.5842 171.759C98.8236 171.708 103.847 172.812 108.73 174.587C109.646 174.916 110.561 175.246 111.426 175.69C112.596 176.286 113.817 176.438 115.101 176.514C122.375 176.894 129.65 177.313 136.936 177.719C141.934 177.998 146.919 178.277 151.917 178.556C158.225 178.898 164.52 179.253 170.827 179.595C171.081 179.608 171.336 179.595 171.59 179.633C172.201 179.722 172.417 179.405 172.455 178.847C172.544 177.414 172.671 175.982 172.773 174.549C172.913 172.444 173.04 170.326 173.167 168.222C177.224 167.638 181.293 167.258 185.363 166.852C190.068 166.383 194.786 166.053 199.504 165.724C199.885 165.686 200.254 165.698 200.636 165.698Z" fill="white"/>
<path d="M86.1067 166.535C86.3737 165.102 86.6535 163.606 86.9333 162.11C87.9506 156.772 88.968 151.421 90.0108 146.083C90.0871 145.664 89.9345 144.828 90.6721 144.992C91.2316 145.119 90.8755 145.791 90.7992 146.21C89.5784 152.676 88.3449 159.13 87.1113 165.597C87.035 165.965 86.9587 166.345 86.8697 166.713C86.8061 166.992 86.6662 167.182 86.3483 167.106C86.0813 167.042 86.1194 166.801 86.1067 166.535Z" fill="#211B29"/>
<path d="M174.311 151.446C173.968 155.783 173.612 160.107 173.269 164.443C173.256 164.532 173.256 164.608 173.243 164.697C173.192 165.014 173.205 165.483 172.735 165.407C172.289 165.343 172.378 164.9 172.404 164.57C172.671 161.286 172.951 158.014 173.23 154.73C173.32 153.589 173.409 152.461 173.498 151.32C173.523 151.066 173.548 150.812 173.574 150.559C173.612 150.255 173.637 149.899 174.044 149.95C174.439 150.001 174.35 150.394 174.35 150.673C174.35 150.927 174.324 151.18 174.311 151.434C174.311 151.446 174.311 151.446 174.311 151.446Z" fill="#211B29"/>
<path d="M102.016 66.5814C102.995 67.8748 104.127 68.9906 105.462 69.9162C111.35 73.9991 118.662 71.983 121.625 65.4783C124.588 58.9609 122.21 50.3387 116.31 46.2305C110.142 41.9447 102.55 44.2525 99.8283 51.239C99.5485 51.949 99.3324 52.6718 99.1543 53.4199C98.9763 54.1553 98.9 54.9161 98.7601 55.7149C98.2896 55.6388 98.1497 55.1951 97.9081 54.8907C96.0387 52.6464 93.775 51.0234 90.901 50.3387C89.7946 50.0724 88.6628 49.9456 87.5437 50.0978C87.2385 49.7555 87.4801 49.5019 87.5691 49.2483C89.1206 44.9372 91.3588 41.0445 94.7542 37.8999C96.7381 36.074 98.989 34.6919 101.482 33.6649C102.257 33.3479 102.741 33.4113 103.351 34.0326C107.357 38.1281 111.757 41.7672 116.564 44.8864C120.557 47.4731 124.754 49.654 129.408 50.8079C130.731 51.1375 132.053 51.3658 133.414 51.4672C133.821 51.4926 134.113 51.5687 134.291 52.0124C137.153 59.5188 138.526 67.152 136.084 75.0515C134.393 80.5418 130.934 84.7895 126.229 88.0355C123.749 89.7473 121.18 91.3069 118.217 92.0423C114.529 92.9553 110.981 92.3974 107.548 90.9012C103.669 89.2274 100.464 86.6408 97.5647 83.623C95.886 81.8859 94.3854 79.9966 93.012 78.0186C92.8976 77.8537 92.7449 77.6889 92.7831 77.4226C97.6664 76.1673 100.146 72.7058 101.316 67.8621C101.876 68.8131 102.079 69.6626 102.372 70.4741C103.046 72.2493 103.707 74.0244 104.317 75.825C104.546 76.4843 104.852 76.5604 105.437 76.3195C106.187 76.0278 106.963 75.8123 107.713 75.5333C108.005 75.4319 108.463 75.3558 108.26 74.874C108.094 74.4556 107.764 74.7091 107.497 74.7852C106.937 74.9627 106.352 75.1149 105.818 75.3558C105.246 75.6094 105.017 75.4573 104.813 74.8867C104.025 72.617 103.173 70.36 102.359 68.103C102.194 67.6339 101.927 67.1774 101.901 66.6702L102.003 66.6956L102.016 66.5814ZM121.778 76.2814C121.816 76.6238 121.6 77.2324 122.21 77.2324C122.732 77.2324 122.503 76.6491 122.579 76.3068C122.617 76.142 122.617 75.9771 122.643 75.8123C122.897 73.9484 123.94 72.7692 125.784 72.3C125.987 72.2493 126.203 72.2239 126.394 72.1478C126.559 72.0844 126.648 71.9196 126.61 71.7421C126.572 71.5646 126.432 71.4505 126.254 71.4631C126 71.4758 125.746 71.5139 125.504 71.5773C123.329 72.0718 121.905 73.885 121.778 76.2814Z" fill="white"/>
<path d="M138.361 68.2803C139.06 71.2727 139.76 74.2651 140.459 77.2575C142.303 85.0936 144.16 92.9296 146.016 100.778C146.334 102.097 146.334 102.11 145.202 102.909C141.337 105.66 137.178 107.765 132.473 108.665C128.581 109.413 124.728 109.337 120.938 108.044C119.858 107.676 119.87 107.663 119.819 106.56C119.654 102.3 119.4 98.0396 118.98 93.8045C118.878 92.7394 118.904 92.7902 119.997 92.3337C126.254 89.7217 131.455 85.829 134.851 79.8569C136.695 76.6108 137.699 73.1112 137.979 69.3961C138.005 69.0411 138.03 68.6733 138.056 68.3183C138.17 68.293 138.272 68.293 138.361 68.2803Z" fill="white"/>
<path d="M121.333 59.1761C121.32 61.9276 120.735 64.2734 119.323 66.3782C116.691 70.3089 112.075 71.5896 107.827 69.472C103.694 67.4053 101.507 63.8676 100.617 59.4551C99.9936 56.3739 100.35 53.3942 101.85 50.6046C104.445 45.7736 109.798 44.2394 114.542 46.9909C117.963 48.9689 119.908 52.0501 120.9 55.7906C121.218 56.9698 121.295 58.1998 121.333 59.1761ZM109.76 62.1685C109.684 60.9766 109.302 59.8228 108.336 58.9606C107.369 58.0983 106.365 58.4026 106.06 59.6706C105.754 60.9386 106.123 62.0924 106.835 63.1449C107.42 64.0198 108.222 64.4255 108.832 64.1592C109.659 63.7788 109.735 63.0054 109.76 62.1685Z" fill="white"/>
<path d="M99.93 64.4762C99.9173 68.2167 99.0653 70.9809 96.967 73.2759C95.8606 74.4932 94.4999 75.3173 92.9103 75.7485C91.7276 76.0781 91.7276 76.0528 91.0917 75.0257C88.9553 71.5134 87.3529 67.7602 85.8396 63.9563C85.2292 62.4221 85.0257 60.9259 85.2674 59.2775C85.5853 57.1473 85.9159 55.0298 86.4246 52.9376C86.7171 51.7204 86.7425 51.7204 88.0397 51.657C90.3287 51.5429 92.4016 52.2149 94.2201 53.5716C98.0988 56.4499 99.7902 60.4314 99.93 64.4762ZM97.4121 64.5776C97.3994 64.1212 97.0433 63.8168 96.4329 63.8676C94.7415 64.007 93.2791 64.7425 91.9438 65.7442C91.5496 66.0358 91.4987 66.4796 91.7912 66.86C92.0455 67.1896 92.427 67.2657 92.8085 67.0121C94.0039 66.2006 95.2629 65.554 96.7381 65.3764C97.1323 65.313 97.3867 65.0214 97.4121 64.5776Z" fill="white"/>
<path d="M144.846 55.081C144.745 57.3506 144.032 59.3794 142.328 60.9643C141.311 61.9153 140.103 62.4732 138.666 62.4225C138.119 62.4098 137.814 62.2323 137.737 61.6491C137.292 58.5932 136.466 55.6389 135.41 52.7352C135.309 52.4563 135.207 52.2027 135.398 51.8984C136.466 50.1612 138.831 48.4114 141.286 49.2103C142.761 49.6921 143.689 50.7445 144.274 52.1139C144.681 53.0522 144.897 54.0412 144.846 55.081Z" fill="white"/>
<path d="M79.5572 60.4565C81.1341 61.23 82.5966 61.9908 84.1608 62.5107C84.5296 62.6375 84.6695 62.9291 84.7839 63.2461C86.0047 66.6569 87.4672 69.9663 89.1204 73.1997C89.5273 73.9985 89.6418 74.9368 89.9216 75.9258C88.4846 75.8878 87.3146 75.4313 86.2082 74.8227C82.7619 72.8827 80.7654 69.8522 79.7989 66.1117C79.3283 64.3112 79.1121 62.4726 79.5572 60.4565Z" fill="white"/>
<path d="M78.54 59.1383C78.947 55.7148 82.0626 52.0123 85.3055 51.0867C85.6361 50.9853 86.1448 50.7317 86.2847 51.2008C86.45 51.708 85.865 51.708 85.5344 51.8221C82.3043 52.9379 80.4985 55.3471 79.5065 58.479C79.4175 58.7579 79.3539 59.0496 79.2776 59.3285C79.214 59.5821 79.1123 59.8484 78.7944 59.747C78.5019 59.6455 78.4765 59.3666 78.54 59.1383Z" fill="white"/>
<path d="M101.863 66.4546C101.926 66.4926 101.977 66.5433 102.003 66.5814V66.6828C102.003 66.6828 101.888 66.6575 101.901 66.6575C101.901 66.5941 101.888 66.5307 101.863 66.4546Z" fill="#FF7115"/>
<path d="M101.863 66.4541L101.838 66.4287L101.863 66.4541Z" fill="#FF7115"/>
<path d="M63.1017 167.854C66.1792 169.604 69.3203 171.252 72.6522 172.482C74.0002 172.977 75.3609 173.446 76.7089 173.902C77.0141 174.004 77.332 174.194 77.6754 174.029L77.6627 174.004C77.5736 174.245 77.7517 174.207 77.8788 174.219C78.095 174.485 78.3239 174.726 78.3112 175.196C76.3274 175.817 74.3181 176.438 72.3088 177.059C70.6047 177.592 69.4475 178.657 69.0024 180.407C68.4937 182.448 69.3712 184.426 71.2024 185.479C71.5204 185.669 71.94 185.694 72.1944 186.062C70.8082 187.596 70.2995 189.359 71.2024 191.311C72.1689 193.416 74.0002 194.114 76.2511 194.012C76.1748 194.279 76.1366 194.494 76.0603 194.684C75.0938 197.296 76.9759 200.771 80.4604 200.39C80.6257 200.377 80.8037 200.377 80.9691 200.377C80.4222 204.727 79.8627 209.076 79.3413 213.425C78.7563 218.319 78.2095 223.226 77.6627 228.121C77.3702 230.758 77.1158 233.408 76.8361 236.046C76.8106 236.286 76.7089 236.527 76.6453 236.781C76.3274 236.667 76.2638 236.35 76.1493 236.096C70.7828 225.204 65.4544 214.287 60.6728 203.116C59.8335 201.138 59.1213 199.11 58.282 197.131C56.4635 192.858 56.3745 188.446 57.2138 183.957C58.3074 178.264 60.4185 172.951 63.1017 167.854Z" fill="white"/>
<path d="M29.9485 108.64C30.0248 106.117 30.2791 103.479 31.3219 100.969C33.4965 95.6687 38.2654 93.1201 43.9244 94.2105C47.447 94.8952 50.55 96.4929 53.3986 98.6231C59.401 103.112 63.6993 108.957 66.7895 115.715C69.0532 120.686 70.4266 125.884 70.3249 131.4C70.2867 133.53 69.9688 135.61 69.2566 137.613C67.171 143.459 62.1987 146.223 56.0946 144.955C52.2668 144.156 48.9476 142.33 45.9846 139.87C37.7313 133.036 32.619 124.3 30.4826 113.813C30.1265 112.178 30.0248 110.479 29.9485 108.64ZM41.7625 97.4058C41.1521 97.3424 40.8978 97.4565 40.9232 97.7101C40.9487 98.0145 41.1903 98.1032 41.4446 98.1539C41.5718 98.1793 41.699 98.192 41.8134 98.23C48.9731 100.183 54.594 104.24 58.7015 110.39C58.9305 110.745 59.0831 111.582 59.7062 111.163C60.2149 110.821 59.579 110.339 59.3501 109.997C55.5223 104.177 50.2829 100.183 43.6828 97.9511C43.0215 97.7228 42.3094 97.558 41.7625 97.4058Z" fill="white"/>
<path d="M77.9041 174.207C77.777 174.194 77.5862 174.219 77.688 173.991C77.8406 173.978 77.9041 174.067 77.9041 174.207Z" fill="#FF7115"/>
<path d="M4.4892 179.71C4.65452 178.683 4.78169 177.541 5.03603 176.438C5.31581 175.196 4.90886 174.321 3.91694 173.598C3.00132 172.913 2.13656 172.178 1.25909 171.442C0.788564 171.049 0.674111 170.53 0.890299 169.959C1.14464 169.325 1.6406 169.084 2.30188 169.135C2.59437 169.16 2.88686 169.211 3.17935 169.262C4.05683 169.401 4.9343 169.515 5.79905 169.705C6.96901 169.959 7.84648 169.591 8.54592 168.628C9.16905 167.778 9.85577 166.967 10.5425 166.168C11.1529 165.445 11.6616 165.306 12.2974 165.597C12.9333 165.901 13.1622 166.409 13.035 167.296C12.857 168.425 12.6917 169.541 12.4627 170.656C12.2593 171.633 12.5645 172.393 13.3275 173.002C14.2177 173.712 15.1079 174.422 15.9853 175.158C16.7356 175.779 16.9137 176.375 16.5958 177.009C16.3033 177.592 15.7564 177.795 14.8535 177.656C13.8107 177.491 12.7552 177.339 11.7252 177.123C10.5933 176.882 9.75403 177.212 9.0546 178.112C8.32973 179.05 7.56671 179.951 6.81641 180.864C6.38403 181.396 5.81177 181.51 5.21407 181.257C4.64181 181.003 4.38747 180.483 4.4892 179.71Z" fill="white"/>
<path d="M210.275 32.6754C210.301 33.1192 210.008 33.4616 209.639 33.7785C208.787 34.4759 207.961 35.1987 207.096 35.8707C206.206 36.5681 205.85 37.3923 206.091 38.5208C206.346 39.6746 206.536 40.8411 206.676 42.0077C206.791 42.9206 206.257 43.5546 205.468 43.6053C204.896 43.6434 204.527 43.3137 204.184 42.9079C203.484 42.0584 202.759 41.2342 202.085 40.372C201.386 39.4717 200.521 39.1547 199.402 39.4083C198.372 39.6366 197.329 39.8014 196.287 39.9916C195.409 40.1438 194.837 39.9282 194.519 39.3576C194.188 38.7363 194.366 38.1277 195.104 37.4937C195.88 36.8344 196.643 36.1623 197.456 35.5537C198.436 34.8183 198.855 33.9307 198.55 32.7008C198.296 31.6357 198.156 30.5452 197.978 29.4674C197.876 28.8969 197.952 28.377 198.474 27.9966C199.11 27.5401 199.733 27.6289 200.369 28.339C201.094 29.1631 201.831 29.9873 202.48 30.8749C203.23 31.902 204.184 32.1555 205.379 31.9146C206.46 31.6864 207.541 31.4835 208.622 31.3187C209.563 31.1792 210.262 31.7498 210.275 32.6754Z" fill="white"/>
<path d="M121.778 76.2811C121.905 73.872 123.329 72.0715 125.491 71.5516C125.733 71.4882 125.987 71.4628 126.242 71.4375C126.432 71.4248 126.56 71.5389 126.598 71.7164C126.636 71.9066 126.547 72.0588 126.381 72.1222C126.191 72.1983 125.975 72.2236 125.771 72.2743C123.927 72.7435 122.897 73.9227 122.63 75.7866C122.604 75.9515 122.592 76.1163 122.566 76.2811C122.503 76.6235 122.719 77.2068 122.198 77.2068C121.6 77.2321 121.816 76.6235 121.778 76.2811Z" fill="#211B29"/>
<path d="M109.76 62.1689C109.722 63.0057 109.658 63.7919 108.819 64.1596C108.209 64.4259 107.42 64.0328 106.822 63.1452C106.123 62.0928 105.754 60.9389 106.047 59.671C106.352 58.403 107.357 58.0987 108.323 58.9609C109.315 59.8231 109.684 60.9643 109.76 62.1689Z" fill="#211B29"/>
<path d="M97.4121 64.578C97.3866 65.0218 97.1323 65.3134 96.7253 65.3641C95.2502 65.5416 93.9912 66.1883 92.7958 66.9998C92.4143 67.2534 92.0328 67.19 91.7784 66.8476C91.4859 66.4673 91.5368 66.0235 91.931 65.7318C93.2663 64.7302 94.7288 63.9947 96.4201 63.8553C97.0433 63.8172 97.4121 64.1215 97.4121 64.578Z" fill="#211B29"/>
<path d="M41.7627 97.4054C42.3095 97.5575 43.0217 97.7224 43.6957 97.9506C50.2958 100.182 55.5352 104.176 59.363 109.996C59.5919 110.339 60.215 110.821 59.7191 111.163C59.0959 111.594 58.9433 110.744 58.7144 110.389C54.5941 104.24 48.9732 100.17 41.8263 98.2296C41.6991 98.1915 41.5719 98.1788 41.4575 98.1535C41.2031 98.1028 40.9615 98.014 40.9361 97.7097C40.8979 97.4561 41.1523 97.342 41.7627 97.4054Z" fill="#211B29"/>
</svg>
