<svg width="382" height="382" viewBox="0 0 382 382" fill="none" xmlns="http://www.w3.org/2000/svg">
<rect width="382" height="382" fill="white"/>
<g clip-path="url(#clip0)">
<path d="M304.107 225.625C305.883 227.612 307.658 229.599 309.399 231.585C316.432 239.463 322.733 247.933 328.547 256.752C334.292 265.467 339.966 274.251 345.432 283.139C346.059 284.185 346.094 284.917 345.363 285.893C344.666 286.834 343.9 287.775 343.483 288.925C343.065 289.1 342.926 289.518 342.717 289.867C342.125 290.703 341.533 291.54 340.906 292.376C336.485 298.616 331.855 304.716 326.597 310.328C324.439 312.628 322.106 314.72 319.739 316.776C319.356 316.881 319.077 317.125 318.834 317.404C318.207 317.752 317.615 318.101 316.989 318.449C315.7 319.181 315.7 319.181 314.691 318.101C311.662 314.755 308.633 311.408 305.569 308.097C305.221 307.713 304.943 307.225 304.246 307.051C303.202 319.112 301.844 331.033 300.278 342.919C299.72 342.954 299.198 342.989 298.641 342.989C274.897 342.989 251.154 342.989 227.41 342.989C226.853 342.989 226.331 342.954 225.774 342.919C225.635 340.514 225.391 338.144 225.008 335.773C223.163 323.992 219.577 312.698 214.633 301.857C214.076 300.672 213.415 299.557 212.579 298.546C210.281 295.757 208.297 292.795 206.695 289.553C203.875 283.836 202.622 277.876 203.597 271.497C204.154 267.872 205.303 264.421 206.695 261.04C208.401 256.927 210.246 252.848 211.639 248.596C212.857 244.971 213.763 241.276 214.076 237.476C214.424 233.328 213.623 229.355 212.579 225.381C209.724 214.157 206.277 203.072 202.622 192.092C201.752 189.443 201.299 187.003 202.726 184.459C203.075 184.145 203.249 183.761 203.283 183.273C204.676 181.426 205.86 179.404 207.426 177.696C212.614 171.945 218.915 167.692 225.774 164.207C225.878 164.799 226.017 165.357 226.122 165.949C227.062 171.561 228.629 176.964 231.309 182.019C232.354 183.936 233.503 185.783 234.93 187.456C239.665 193.138 245.618 196.031 253.103 195.543C254.531 195.439 254.531 195.508 254.6 196.903C254.775 201.051 254.879 205.164 255.053 209.312C255.227 213.39 255.262 217.468 255.088 221.547C255.018 223.185 255.227 223.185 256.446 223.708C260.972 225.729 265.741 226.252 270.65 225.729C276.882 225.032 282.522 222.767 287.779 219.385C290.599 217.573 290.146 218.375 290.146 215.028C290.146 214.087 289.972 213.146 290.181 212.24C290.808 212.24 291.017 212.588 291.295 212.832C293.872 215.342 296.448 217.817 299.024 220.327C300.66 222.139 302.366 223.917 304.107 225.625ZM302.332 304.019C302.297 303.6 302.018 303.321 301.809 303.043C298.815 299.173 295.821 295.339 292.792 291.505C292.479 291.121 292.131 290.389 291.539 290.877C290.982 291.365 291.609 291.853 291.922 292.237C294.881 296.036 297.875 299.871 300.835 303.67C301.078 303.949 301.252 304.332 301.635 304.472C302.018 304.576 302.227 304.367 302.332 304.019Z" fill="#00E3A8"/>
<path d="M203.283 183.378C203.248 183.831 203.074 184.249 202.726 184.563C201.925 183.343 201.089 182.123 200.324 180.868C180.827 149.183 165.857 115.407 154.646 79.9569C153.811 77.3426 153.846 77.2729 151.095 77.0637C148.693 76.8895 146.395 76.3666 144.167 75.3906C141.765 74.3449 139.328 73.4386 136.891 72.4975C136.543 72.358 136.16 71.9746 135.638 72.3232C135.638 73.4735 135.638 74.6935 135.638 75.8786C135.638 80.4449 135.638 85.0112 135.638 89.6123C135.638 90.17 135.846 90.8672 135.081 91.1809C134.349 90.7277 134.628 90.0306 134.628 89.4032C134.593 83.9655 134.628 78.5277 134.628 73.0552C134.628 71.626 134.628 71.626 133.27 71.0683C132.678 70.8243 132.052 70.5803 131.46 70.3363C128.535 69.0815 127.352 66.3277 128.501 63.3649C128.64 63.0512 128.988 62.7375 128.709 62.2843C128.535 62.2495 128.326 62.2146 128.118 62.2146C117.186 62.2146 106.254 62.2146 95.322 62.2146C93.2679 62.2146 92.2931 63.2952 92.2235 65.3866C92.2235 65.7003 92.2235 66.0489 92.2235 66.3626C92.2235 157.897 92.2235 249.467 92.2235 341.002C92.2235 341.386 92.2235 341.769 92.2235 342.152C92.1887 342.745 92.4324 343.059 93.0939 343.024C93.5116 342.989 93.9642 343.024 94.382 343.024C106.985 343.024 119.623 343.024 132.226 343.024C134.906 343.024 134.663 343.407 134.663 340.584C134.663 262.364 134.663 184.18 134.663 105.96C134.663 105.403 134.663 104.88 134.663 104.322C134.663 103.939 134.732 103.555 135.115 103.346C136.09 103.869 135.638 104.81 135.638 105.542C135.672 183.901 135.672 262.295 135.672 340.654C135.672 341.072 135.707 341.525 135.672 341.943C135.603 342.71 135.881 342.989 136.682 342.989C138.423 342.954 140.163 342.989 141.904 342.954C144.306 342.919 143.993 343.338 143.993 340.932C143.993 302.694 143.993 264.456 143.993 226.217C143.993 225.834 143.993 225.451 143.993 225.067C144.028 222.662 144.968 221.721 147.405 221.721C159.973 221.721 172.541 221.721 185.109 221.721C187.651 221.721 188.556 222.662 188.556 225.172C188.556 231.551 188.556 237.929 188.556 244.273C188.556 244.796 188.869 245.772 188.103 245.772C187.129 245.772 187.546 244.761 187.546 244.204C187.512 237.929 187.512 231.69 187.512 225.416C187.512 223.185 187.094 222.767 184.831 222.732C184.518 222.732 184.169 222.732 183.856 222.732C172.472 222.732 161.122 222.732 149.738 222.732C148.867 222.732 147.997 222.697 147.126 222.732C145.595 222.801 145.107 223.289 145.072 224.823C145.072 225.102 145.072 225.381 145.072 225.625C145.072 264.142 145.072 302.624 145.072 341.142C145.072 343.128 144.933 342.85 146.813 342.884C159.66 342.884 172.506 342.884 185.318 342.884C187.477 342.884 187.477 342.884 187.477 340.723C187.477 315.173 187.477 289.623 187.477 264.107C187.477 263.549 187.512 263.027 187.546 262.469C187.581 262.225 187.755 262.12 187.999 262.085C188.243 262.085 188.452 262.225 188.452 262.434C188.521 262.957 188.521 263.515 188.521 264.072C188.521 289.658 188.521 315.277 188.521 340.863C188.521 341.281 188.521 341.734 188.521 342.152C188.521 342.606 188.695 342.85 189.183 342.85C189.566 342.85 189.949 342.85 190.332 342.85C201.577 342.85 212.857 342.85 224.102 342.85C224.659 342.85 225.181 342.815 225.738 342.78C226.295 342.815 226.818 342.85 227.375 342.85C251.118 342.85 274.862 342.85 298.606 342.85C299.163 342.85 299.685 342.815 300.242 342.78C300.555 342.815 300.903 342.85 301.217 342.85C309.189 342.85 317.197 342.85 325.169 342.85C325.448 342.85 325.726 342.884 325.935 342.675C326.04 342.292 325.901 341.943 325.831 341.56C325.204 338.806 324.543 336.052 323.986 333.299C322.872 327.756 321.479 322.284 318.763 317.264C319.007 316.951 319.286 316.707 319.669 316.637C320.226 317.892 320.783 319.112 321.305 320.367C321.966 321.97 322.837 323.504 323.22 325.212C323.916 328.279 324.612 331.347 325.274 334.449C325.831 336.924 326.423 339.434 326.945 341.943C327.084 342.675 327.432 342.989 328.163 342.884C328.372 342.85 328.581 342.884 328.825 342.884C337.633 342.884 346.441 342.884 355.215 342.884C355.493 342.884 355.772 342.884 356.015 342.884C356.642 342.919 356.921 342.675 356.886 342.048C356.851 341.56 356.921 341.072 356.886 340.584C356.851 335.042 356.294 329.499 355.354 324.027C353.3 312.315 349.435 301.23 343.482 290.912C343.238 290.494 343.064 290.006 342.646 289.727C342.855 289.379 342.995 288.96 343.412 288.786C347.938 296.106 351.281 303.914 353.683 312.175C356.503 321.796 358 331.591 357.93 341.63C357.93 342.989 358 342.85 359.183 342.85C364.301 342.85 369.419 342.85 374.537 342.884C375.024 342.884 375.964 342.501 375.929 343.407C375.895 344.104 375.024 343.686 374.537 343.791C374.258 343.826 373.98 343.791 373.736 343.791C249.865 343.791 125.994 343.791 2.12275 343.791C1.56572 343.791 1.04349 343.791 0.486456 343.791C0.207937 343.791 -0.105396 343.686 -0.0705811 343.337C-0.0357663 343.024 0.207937 342.884 0.521271 342.884C1.00868 342.85 1.49609 342.85 1.98349 342.85C13.4028 342.85 24.822 342.85 36.2413 342.85C38.3998 342.85 38.1561 343.163 38.1561 340.967C38.1561 301.683 38.1561 262.434 38.1561 223.15C38.1561 222.557 38.1909 221.965 38.2257 221.372C38.2605 221.163 38.4346 220.989 38.6783 220.989C38.922 220.989 39.0961 221.163 39.1309 221.372C39.2005 221.895 39.2005 222.453 39.2005 223.011C39.2005 239.08 39.2005 255.149 39.2005 271.218C39.2005 294.259 39.2005 317.299 39.2005 340.34C39.2005 340.723 39.2005 341.107 39.2005 341.49C39.2005 343.059 39.2702 342.884 40.6628 342.884C50.3413 342.884 60.0198 342.884 69.6983 342.884C73.2494 342.884 76.7657 342.884 80.3168 342.884C81.605 342.884 81.605 342.85 81.6398 341.525C81.6398 341.246 81.6398 340.967 81.6398 340.723C81.6398 283.697 81.6398 226.671 81.6398 169.644C81.6398 166.403 81.605 166.403 78.3672 166.403C66.2865 166.403 54.2057 166.403 42.125 166.403C41.742 166.403 41.359 166.403 40.9761 166.403C39.6879 166.472 39.2702 166.856 39.2005 168.215C39.1657 168.633 39.2005 169.087 39.2005 169.505C39.2005 182.402 39.2005 195.334 39.2005 208.231C39.2005 208.719 39.2005 209.207 39.1309 209.695C39.0961 209.869 38.9568 210.079 38.6783 210.079C38.3998 210.079 38.2605 209.904 38.2257 209.695C38.1561 209.312 38.1561 208.928 38.1561 208.58C38.1561 195.229 38.1561 181.879 38.1561 168.564C38.1561 166.159 38.9916 165.357 41.4287 165.357C54.1013 165.357 66.7739 165.357 79.4464 165.357C81.9183 165.357 82.719 166.193 82.719 168.738C82.719 172.398 82.719 176.023 82.719 179.683C82.719 233.398 82.719 287.078 82.719 340.793C82.719 342.919 82.719 342.919 84.8776 342.919C86.4094 342.919 87.9413 342.919 89.4383 342.919C91.0746 342.919 90.9702 343.094 90.9702 341.316C90.9702 340.932 90.9702 340.549 90.9702 340.165C90.9702 248.979 90.9702 157.793 90.9702 66.6415C90.9702 66.0837 90.9353 65.5609 90.9702 65.0032C91.1094 62.7026 92.5716 61.1689 94.9042 60.9946C95.3916 60.9597 95.879 60.9946 96.3664 60.9946C107.124 60.9946 117.917 60.9946 128.675 60.9946C129.615 60.9946 130.485 60.9597 131.39 60.5763C132.713 59.9837 134.036 60.1929 135.359 60.7157C138.249 61.866 141.138 62.9815 143.993 64.1666C144.863 64.5152 145.734 64.6546 146.674 64.5849C148.484 64.4803 150.26 64.2712 151.966 63.7135C153.811 63.1209 154.298 62.2843 153.881 60.3672C153.637 59.2169 153.045 58.2409 152.349 57.3346C151.513 56.2192 151.269 56.1495 149.877 56.6723C147.022 57.718 144.167 58.7986 141.312 59.8443C138.492 60.89 136.717 60.3672 134.976 57.8923C134.593 57.3695 134.28 57.3346 133.758 57.5437C133.166 57.7877 132.539 57.9969 131.912 58.206C128.57 59.2169 125.541 56.8117 125.855 53.326C125.924 52.35 125.681 52.0712 124.845 51.6877C122.826 50.7815 121.746 48.7946 121.886 46.6683C122.025 44.5769 123.418 42.6946 125.541 42.1369C129.475 41.0563 133.444 40.0803 137.378 39.1043C138.283 38.8952 139.223 38.9649 140.129 39.174C146.883 40.8123 153.637 42.4855 160.426 44.054C162.445 44.542 163.698 45.762 164.708 47.47C174.978 64.794 184.413 82.5712 194.092 100.209C201.368 113.455 208.609 126.735 215.851 140.016C216.199 140.678 216.478 141.41 217.069 141.933C217.661 141.759 217.626 141.166 217.801 140.748C218.706 138.447 219.959 136.356 221.735 134.613C222.466 133.916 222.57 133.288 222.326 132.312C220.69 126.352 219.646 120.287 220.133 114.082C220.551 108.958 222.118 104.252 225.982 100.627C229.15 97.6643 233.015 96.2003 237.227 95.5032C243.563 94.4923 249.795 95.1197 255.992 96.5837C256.932 96.7929 257.629 96.6535 258.395 96.1306C262.015 93.5512 265.949 91.634 270.301 90.6232C276.742 89.1592 282.939 89.9957 288.892 92.854C295.472 96.026 300.521 100.941 305.046 106.553C309.642 112.235 311.94 118.823 313.158 125.899C314.829 135.415 315.456 145.035 315.491 154.691C315.491 154.969 315.595 155.283 315.456 155.492C314.969 156.294 315.561 156.643 316.048 157.096C318.938 159.571 320.957 162.708 321.897 166.333C324.717 177.208 321.862 186.515 313.785 194.288C313.646 194.428 313.472 194.602 313.263 194.707C312.462 195.16 312.566 195.683 312.949 196.449C315.839 202.096 316.257 208.022 314.377 214.052C312.984 218.514 310.443 222.139 306.265 224.509C305.499 224.928 304.698 225.242 303.932 225.625C302.192 223.882 300.486 222.139 298.745 220.431C296.203 217.921 293.592 215.412 291.016 212.937C290.772 212.693 290.529 212.344 289.902 212.344C289.693 213.251 289.867 214.227 289.867 215.133C289.902 218.479 290.355 217.677 287.5 219.49C282.243 222.836 276.603 225.137 270.371 225.834C265.462 226.357 260.727 225.834 256.166 223.812C254.948 223.289 254.739 223.289 254.809 221.651C254.983 217.573 254.948 213.495 254.774 209.416C254.6 205.268 254.461 201.155 254.321 197.007C254.252 195.613 254.252 195.543 252.824 195.648C245.339 196.136 239.386 193.243 234.651 187.561C233.258 185.888 232.075 184.075 231.03 182.123C228.315 177.069 226.783 171.666 225.843 166.054C225.738 165.461 225.599 164.869 225.495 164.311C225.669 163.614 225.146 163.509 224.694 163.3C221.282 161.662 219.054 158.978 217.592 155.527C216.269 152.32 215.955 148.974 216.408 145.593C216.582 144.443 216.373 143.536 215.816 142.525C205.998 124.644 196.215 106.727 186.467 88.8455C178.982 75.1466 171.532 61.4129 163.559 47.9929C162.619 46.4243 161.435 45.4832 159.695 45.0649C153.08 43.5312 146.465 41.9277 139.885 40.3243C138.841 40.0803 137.866 40.0803 136.856 40.3592C133.932 41.1609 130.972 41.858 128.013 42.6249C127.108 42.8689 126.203 43.0083 125.332 43.3569C123.278 44.1586 122.303 46.3546 123 48.446C123.696 50.5026 125.576 51.5135 127.769 50.9209C131.077 50.0146 134.384 49.1083 137.657 48.202C139.015 47.8186 140.372 47.7489 141.626 48.446C144.968 50.2586 148.241 52.2455 151.13 54.7203C152.836 56.1843 154.159 57.9969 154.681 60.2626C155.273 62.7026 154.542 63.9923 152.209 64.794C150.608 65.3517 148.937 65.526 147.266 65.7003C145.838 65.8746 144.515 65.7003 143.158 65.1426C140.268 63.9226 137.343 62.7375 134.349 61.6569C131.286 60.5415 128.361 63.0163 128.918 66.2232C129.197 67.8963 130.276 68.8723 131.808 69.4649C136.264 71.2077 140.721 72.9157 145.142 74.7632C146.883 75.4952 148.658 75.8089 150.503 75.9832C151.409 76.0529 152.349 76.262 153.254 76.262C154.194 76.262 154.507 76.7152 154.786 77.5517C158.406 89.7169 162.723 101.603 167.458 113.385C176.058 134.717 186.015 155.388 197.817 175.117C199.766 177.905 201.368 180.764 203.283 183.378ZM227.131 164.137C226.957 164.834 227.096 165.427 227.201 165.984C227.618 168.355 228.106 170.69 228.767 172.991C230.438 178.533 232.771 183.692 236.74 187.979C240.778 192.371 245.722 194.707 251.78 194.637C254.217 194.602 256.654 194.393 259.091 193.975C266.402 192.685 272.669 189.408 277.473 183.657C283.183 176.86 285.62 168.773 286.664 160.128C286.734 159.466 286.455 159.257 285.898 159.187C285.585 159.152 285.237 159.083 284.923 159.048C280.989 158.56 277.055 158.107 273.121 157.584C271.346 157.34 271.659 157.375 271.172 158.699C269.605 162.777 267.098 166.124 263.234 168.285C258.151 171.143 252.163 170.411 247.985 166.472C245.966 164.555 244.608 162.22 243.807 159.571C243.633 159.048 243.459 158.525 243.285 157.967C242.937 158.734 242.832 159.431 242.728 160.163C242.449 162.638 242.171 165.148 241.823 167.623C241.718 168.494 241.997 168.808 242.832 168.843C243.598 168.877 244.329 169.052 245.095 169.156C245.409 169.191 245.652 169.365 245.652 169.679C245.652 170.097 245.304 170.202 244.956 170.167C243.703 170.028 242.484 169.853 241.231 169.714C240.674 169.644 240.535 169.296 240.604 168.808C240.778 167.623 240.918 166.437 241.057 165.252C241.335 163.021 241.579 160.825 241.823 158.595C237.784 162.952 233.154 165.252 227.131 164.137ZM286.769 166.995C286.316 167.588 286.281 168.076 286.142 168.564C285.515 170.829 284.784 173.06 283.844 175.187C280.676 182.437 275.872 188.258 268.7 191.883C264.975 193.765 261.006 194.846 256.863 195.334C255.54 195.473 255.575 195.508 255.609 196.833C255.992 204.885 256.236 212.937 256.097 220.989C256.062 222.592 256.062 222.592 257.594 223.185C261.354 224.649 265.253 225.172 269.292 224.858C276.185 224.335 282.347 221.721 288.092 217.991C288.858 217.503 288.962 216.911 288.962 216.074C288.649 206.837 288.405 197.565 288.057 188.328C287.813 181.287 287.465 174.211 286.769 166.995ZM270.301 151.763C270.301 151.205 270.266 150.682 270.301 150.124C270.371 149.113 269.918 148.451 269.083 147.859C265.114 144.965 261.493 141.724 258.046 138.203C257.281 137.436 256.584 137.262 255.609 137.576C253.207 138.343 251.188 139.632 249.517 141.48C246.349 145 244.921 149.183 244.921 153.854C244.921 157.549 245.931 160.965 248.368 163.823C250.526 166.403 253.277 167.901 256.723 167.867C260.518 167.832 263.512 166.124 265.949 163.37C268.874 160.093 270.197 156.155 270.301 151.763ZM226.539 154.691C226.539 156.608 226.504 158.49 226.539 160.407C226.574 161.801 226.643 161.836 228.001 162.115C231.309 162.777 234.268 161.941 236.914 159.989C243.494 155.213 245.618 144.791 241.37 137.82C239.003 133.951 235.591 131.824 230.926 132.208C229.429 132.347 229.429 132.347 229.011 133.881C227.201 140.678 226.504 147.649 226.539 154.691ZM230.229 130.047C234.372 129.768 237.749 130.813 240.569 133.428C243.389 136.042 244.782 139.388 245.548 143.292C246.871 141.41 248.089 139.772 249.691 138.447C251.327 137.088 253.172 136.216 255.261 135.415C249.482 129.315 244.329 123.005 239.421 116.313C234.825 119.903 232.179 124.609 230.229 130.047ZM145.455 51.7226C143.889 50.7117 142.635 49.91 141.243 49.2477C140.372 48.8295 139.467 48.8295 138.527 49.0735C135.081 50.0146 131.634 50.9906 128.187 51.8969C127.352 52.106 127.073 52.6637 126.969 53.3957C126.586 55.8357 128.953 57.9272 131.46 57.2997C132.818 56.9512 134.175 56.498 135.429 55.8357C138.562 54.1975 141.695 52.6637 145.455 51.7226ZM287.395 162.743C287.709 165.636 288.092 168.773 288.231 171.91C288.231 172.119 288.266 172.328 288.301 172.572C288.405 173.269 288.823 173.095 289.241 172.921C292.548 171.631 295.368 167.448 295.229 163.928C295.159 162.011 294.463 160.337 292.792 159.187C291.956 158.629 291.051 158.385 290.041 158.281C289.206 158.176 289.241 159.152 288.718 159.257C287.569 159.431 287.674 160.303 287.569 161.069C287.5 161.557 287.465 162.045 287.395 162.743ZM223.406 136.077C220.969 138.621 219.646 141.48 218.949 144.687C218.81 145.279 219.054 145.732 219.332 146.22C221.073 149.357 222.779 152.495 224.485 155.632C224.659 155.911 224.763 156.294 225.112 156.433C225.181 156.224 225.251 156.12 225.251 156.015C225.286 152.041 225.425 148.068 225.947 144.129C225.982 143.78 225.947 143.501 225.843 143.188C225.112 140.887 224.311 138.587 223.406 136.077ZM150.503 55.3826C149.877 54.6157 149.215 54.3369 148.728 53.8489C147.475 52.6637 146.117 52.594 144.515 53.0472C141.695 53.8837 139.049 55.1386 136.438 56.4632C135.742 56.8117 135.846 57.1952 136.195 57.718C137.1 59.0775 138.701 59.67 140.338 59.1123C141.835 58.6243 143.297 58.0317 144.759 57.474C146.639 56.8466 148.519 56.1495 150.503 55.3826ZM272.564 150.612C272.46 151.867 272.355 153.157 272.181 154.447C272.112 155.144 272.286 155.388 273.017 155.457C275.454 155.736 277.856 156.085 280.293 156.364C282.243 156.608 284.192 156.852 286.107 157.061C286.421 157.096 286.803 157.2 286.873 156.712C286.943 156.189 286.629 156.085 286.212 156.015C281.546 155.283 277.438 153.296 273.469 150.856C273.191 150.752 272.982 150.438 272.564 150.612ZM225.39 161.209C225.634 160.128 225.425 159.466 225.042 158.769C223.162 155.353 221.282 151.937 219.402 148.521C219.263 148.242 219.228 147.754 218.601 147.824C218.636 153.331 220.342 157.967 225.39 161.209Z" fill="#262626"/>
<path d="M302.332 304.019C302.228 304.402 302.019 304.576 301.636 304.437C301.253 304.298 301.079 303.914 300.835 303.635C297.876 299.836 294.882 296.036 291.922 292.202C291.609 291.819 290.948 291.296 291.54 290.843C292.131 290.355 292.48 291.087 292.793 291.47C295.822 295.304 298.816 299.174 301.81 303.008C302.019 303.322 302.297 303.6 302.332 304.019Z" fill="#262626"/>
<path d="M135.116 91.1808C135.116 95.2591 135.116 99.3025 135.116 103.381C134.699 103.59 134.664 103.939 134.664 104.357C134.664 104.915 134.664 105.437 134.664 105.995C134.664 184.215 134.664 262.399 134.664 340.618C134.664 343.442 134.942 343.059 132.227 343.059C119.624 343.059 106.986 343.059 94.3831 343.059C93.9654 343.059 93.5128 343.024 93.095 343.059C92.4683 343.093 92.2246 342.78 92.2246 342.187C92.2246 341.804 92.2246 341.42 92.2246 341.037C92.2246 249.502 92.2246 157.932 92.2246 66.3974C92.2246 66.0837 92.2246 65.7351 92.2246 65.4214C92.2942 63.33 93.2691 62.2494 95.3231 62.2494C106.255 62.2145 117.187 62.2494 128.119 62.2494C128.328 62.2494 128.536 62.3191 128.711 62.3191C129.024 62.7722 128.641 63.086 128.502 63.3997C127.353 66.3625 128.502 69.1162 131.461 70.3711C132.053 70.6151 132.679 70.8591 133.271 71.1031C134.629 71.6608 134.629 71.6608 134.629 73.09C134.629 78.5277 134.629 83.9654 134.629 89.4379C134.664 89.9957 134.42 90.7277 135.116 91.1808Z" fill="#00E3A8"/>
<path d="M257.943 178.568C257.63 178.568 257.177 178.603 257.142 178.08C257.108 177.522 257.595 177.557 257.943 177.522C260.798 177.278 263.131 176.058 264.941 173.862C265.219 173.513 265.428 173.165 265.707 172.816C265.881 172.607 266.09 172.363 266.403 172.537C266.751 172.747 266.682 173.06 266.577 173.374C266.542 173.479 266.473 173.548 266.403 173.653C264.419 176.616 261.599 178.219 257.943 178.568Z" fill="#262626"/>
<path d="M253.939 147.894C253.974 149.114 253.696 150.264 252.965 151.24C251.885 152.669 250.493 152.53 249.901 150.857C249.239 149.009 249.518 147.197 250.736 145.663C251.711 144.443 252.965 144.687 253.626 146.151C253.905 146.744 253.939 147.301 253.939 147.894Z" fill="#262626"/>
<path d="M236.567 144.547C236.497 145.767 236.218 146.918 235.383 147.859C234.373 149.009 233.224 148.87 232.563 147.51C231.762 145.942 232.25 143.083 233.468 141.898C234.408 140.992 235.522 141.166 236.114 142.351C236.497 143.014 236.636 143.78 236.567 144.547Z" fill="#262626"/>
<path d="M225.45 52.6311C226.131 53.8094 227.314 53.988 228.533 54.0594C230.899 54.2379 233.265 54.3807 235.667 54.5593C235.882 55.0591 236.348 55.1663 236.814 55.2734C237.352 55.4162 237.818 55.6305 238.212 56.0232C239.682 57.5229 239.288 59.7366 237.316 60.7364C235.058 61.9147 232.727 62.9859 230.433 64.0928C228.676 64.9498 227.709 66.2709 227.637 68.2704C227.565 70.4485 227.422 72.6266 227.278 74.8404C227.243 75.4831 227.171 76.1615 226.992 76.7685C226.705 77.9111 225.844 78.5538 224.733 78.768C223.622 79.018 222.725 78.5895 222.044 77.7683C221.686 77.3041 221.399 76.7685 221.148 76.2329C220.108 74.1262 219.069 71.9839 217.993 69.8772C217.241 68.3776 216.058 67.5206 214.337 67.4492C212.616 67.3778 210.895 67.235 209.174 67.1278C208.099 67.0564 207.024 66.985 205.984 66.8779C204.657 66.6994 203.761 65.8781 203.474 64.6998C203.188 63.4501 203.725 62.2718 204.873 61.522C205.231 61.3077 205.625 61.1292 205.984 60.9507C207.956 59.9866 209.927 59.0225 211.899 58.0585C213.799 57.1658 214.803 55.7376 214.874 53.5952C214.91 51.3457 215.09 49.0962 215.233 46.8467C215.269 46.2754 215.341 45.6684 215.52 45.0971C216.273 43.0976 218.89 42.5977 220.324 44.2045C220.682 44.5972 220.933 45.0971 221.148 45.5613C222.116 47.5251 223.084 49.489 224.052 51.4528C224.375 52.0955 224.59 52.774 225.45 52.6311Z" fill="#00E3A8"/>
<path d="M225.451 52.6313C224.59 52.7741 224.375 52.0957 224.088 51.5244C223.12 49.5605 222.152 47.5967 221.185 45.6329C220.934 45.1687 220.683 44.6688 220.36 44.276C218.926 42.705 216.309 43.1691 215.556 45.1687C215.341 45.7043 215.305 46.3113 215.269 46.9183C215.126 49.1678 214.947 51.4173 214.911 53.6668C214.875 55.8091 213.835 57.2017 211.935 58.13C209.964 59.0941 207.992 60.0582 206.02 61.0222C205.662 61.2008 205.267 61.3793 204.909 61.5935C203.726 62.3077 203.224 63.5217 203.511 64.7714C203.798 65.9497 204.694 66.8066 206.02 66.9495C207.096 67.0923 208.135 67.128 209.211 67.1994C210.932 67.3065 212.652 67.4136 214.373 67.5207C216.094 67.5922 217.277 68.4491 218.03 69.9488C219.105 72.0554 220.109 74.1978 221.185 76.3045C221.435 76.8401 221.722 77.3757 222.081 77.8398C222.762 78.6611 223.658 79.0896 224.769 78.8396C225.881 78.5897 226.741 77.9827 227.028 76.8401C227.171 76.1974 227.243 75.5546 227.315 74.9119C227.458 72.7339 227.602 70.5558 227.673 68.342C227.745 66.3425 228.677 65.0213 230.47 64.1644C232.764 63.0575 235.094 61.9863 237.353 60.808C239.36 59.7725 239.719 57.5944 238.249 56.0948C237.854 55.702 237.388 55.4521 236.851 55.345C236.385 55.2378 235.919 55.095 235.704 54.6308C236.026 53.7739 236.707 53.9167 237.353 54.0952C238.966 54.488 240.4 56.1662 240.436 57.9872C240.471 59.6297 239.719 61.1651 238.249 61.9149C235.704 63.2003 233.23 64.5928 230.649 65.8069C229.609 66.3067 229.143 67.0209 229.071 68.0921C228.892 70.7343 228.641 73.4123 228.569 76.0545C228.498 77.8041 227.494 78.9467 226.275 79.8751C224.734 81.0177 221.292 79.9465 220.503 78.1969C219.32 75.6261 217.851 73.198 216.632 70.6272C216.058 69.4132 214.839 68.8776 213.441 68.8062C210.788 68.6634 208.1 68.4848 205.447 68.3063C204.013 68.1992 202.435 66.6995 202.184 65.2713C201.647 62.5219 202.22 61.4507 204.766 60.1296C206.809 59.0941 208.817 57.9515 210.932 57.0231C212.76 56.2376 213.513 54.9165 213.62 53.024C213.764 50.596 213.907 48.168 214.086 45.74C214.194 44.4189 214.552 43.2406 215.915 42.5621C218.388 41.3481 220.934 42.1337 222.188 44.5974C223.335 46.8469 224.375 49.0964 225.486 51.3816C225.63 51.7386 225.702 52.1671 225.451 52.6313Z" fill="#262626"/>
</g>
<defs>
<clipPath id="clip0">
<rect width="376" height="305" fill="white" transform="translate(0 39)"/>
</clipPath>
</defs>
</svg>
