<svg width="375" height="305" viewBox="0 0 375 305" fill="none" xmlns="http://www.w3.org/2000/svg">
<g clip-path="url(#clip0)">
<path d="M304.107 186.625C305.883 188.612 307.658 190.599 309.399 192.585C316.432 200.463 322.733 208.933 328.547 217.752C334.292 226.467 339.966 235.251 345.432 244.139C346.059 245.185 346.094 245.917 345.363 246.893C344.666 247.834 343.9 248.775 343.483 249.925C343.065 250.1 342.926 250.518 342.717 250.867C342.125 251.703 341.533 252.54 340.906 253.376C336.485 259.616 331.855 265.716 326.597 271.328C324.439 273.628 322.106 275.72 319.739 277.776C319.356 277.881 319.077 278.125 318.834 278.404C318.207 278.752 317.615 279.101 316.989 279.449C315.7 280.181 315.7 280.181 314.691 279.101C311.662 275.755 308.633 272.408 305.569 269.097C305.221 268.713 304.943 268.225 304.246 268.051C303.202 280.112 301.844 292.033 300.278 303.919C299.72 303.954 299.198 303.989 298.641 303.989C274.897 303.989 251.154 303.989 227.41 303.989C226.853 303.989 226.331 303.954 225.774 303.919C225.635 301.514 225.391 299.144 225.008 296.773C223.163 284.992 219.577 273.698 214.633 262.857C214.076 261.672 213.415 260.557 212.579 259.546C210.281 256.757 208.297 253.795 206.695 250.553C203.875 244.836 202.622 238.876 203.597 232.497C204.154 228.872 205.303 225.421 206.695 222.04C208.401 217.927 210.246 213.848 211.639 209.596C212.857 205.971 213.763 202.276 214.076 198.476C214.424 194.328 213.623 190.355 212.579 186.381C209.724 175.157 206.277 164.072 202.622 153.092C201.752 150.443 201.299 148.003 202.726 145.459C203.075 145.145 203.249 144.761 203.283 144.273C204.676 142.426 205.86 140.404 207.426 138.696C212.614 132.945 218.915 128.692 225.774 125.207C225.878 125.799 226.017 126.357 226.122 126.949C227.062 132.561 228.629 137.964 231.309 143.019C232.354 144.936 233.503 146.783 234.93 148.456C239.665 154.138 245.618 157.031 253.103 156.543C254.531 156.439 254.531 156.508 254.6 157.903C254.775 162.051 254.879 166.164 255.053 170.312C255.227 174.39 255.262 178.468 255.088 182.547C255.018 184.185 255.227 184.185 256.446 184.708C260.972 186.729 265.741 187.252 270.65 186.729C276.882 186.032 282.522 183.767 287.779 180.385C290.599 178.573 290.146 179.375 290.146 176.028C290.146 175.087 289.972 174.146 290.181 173.24C290.808 173.24 291.017 173.588 291.295 173.832C293.872 176.342 296.448 178.817 299.024 181.327C300.66 183.139 302.366 184.917 304.107 186.625ZM302.332 265.019C302.297 264.6 302.018 264.321 301.809 264.043C298.815 260.173 295.821 256.339 292.792 252.505C292.479 252.121 292.131 251.389 291.539 251.877C290.982 252.365 291.609 252.853 291.922 253.237C294.881 257.036 297.875 260.871 300.835 264.67C301.078 264.949 301.252 265.332 301.635 265.472C302.018 265.576 302.227 265.367 302.332 265.019Z" fill="#00E3A8"/>
<path d="M203.283 144.378C203.248 144.831 203.074 145.249 202.726 145.563C201.925 144.343 201.089 143.123 200.324 141.868C180.827 110.183 165.857 76.4066 154.646 40.9569C153.811 38.3426 153.846 38.2729 151.095 38.0637C148.693 37.8895 146.395 37.3666 144.167 36.3906C141.765 35.3449 139.328 34.4386 136.891 33.4975C136.543 33.358 136.16 32.9746 135.638 33.3232C135.638 34.4735 135.638 35.6935 135.638 36.8786C135.638 41.4449 135.638 46.0112 135.638 50.6123C135.638 51.17 135.846 51.8672 135.081 52.1809C134.349 51.7277 134.628 51.0306 134.628 50.4032C134.593 44.9655 134.628 39.5277 134.628 34.0552C134.628 32.626 134.628 32.626 133.27 32.0683C132.678 31.8243 132.052 31.5803 131.46 31.3363C128.535 30.0815 127.352 27.3277 128.501 24.3649C128.64 24.0512 128.988 23.7375 128.709 23.2843C128.535 23.2495 128.326 23.2146 128.118 23.2146C117.186 23.2146 106.254 23.2146 95.322 23.2146C93.2679 23.2146 92.2931 24.2952 92.2235 26.3866C92.2235 26.7003 92.2235 27.0489 92.2235 27.3626C92.2235 118.897 92.2235 210.467 92.2235 302.002C92.2235 302.386 92.2235 302.769 92.2235 303.152C92.1887 303.745 92.4324 304.059 93.0939 304.024C93.5116 303.989 93.9642 304.024 94.382 304.024C106.985 304.024 119.623 304.024 132.226 304.024C134.906 304.024 134.663 304.407 134.663 301.584C134.663 223.364 134.663 145.18 134.663 66.9603C134.663 66.4026 134.663 65.8797 134.663 65.322C134.663 64.9386 134.732 64.5552 135.115 64.346C136.09 64.8689 135.638 65.81 135.638 66.542C135.672 144.901 135.672 223.295 135.672 301.654C135.672 302.072 135.707 302.525 135.672 302.943C135.603 303.71 135.881 303.989 136.682 303.989C138.423 303.954 140.163 303.989 141.904 303.954C144.306 303.919 143.993 304.338 143.993 301.932C143.993 263.694 143.993 225.456 143.993 187.217C143.993 186.834 143.993 186.451 143.993 186.067C144.028 183.662 144.968 182.721 147.405 182.721C159.973 182.721 172.541 182.721 185.109 182.721C187.651 182.721 188.556 183.662 188.556 186.172C188.556 192.551 188.556 198.929 188.556 205.273C188.556 205.796 188.869 206.772 188.103 206.772C187.129 206.772 187.546 205.761 187.546 205.204C187.512 198.929 187.512 192.69 187.512 186.416C187.512 184.185 187.094 183.767 184.831 183.732C184.518 183.732 184.169 183.732 183.856 183.732C172.472 183.732 161.122 183.732 149.738 183.732C148.867 183.732 147.997 183.697 147.126 183.732C145.595 183.801 145.107 184.289 145.072 185.823C145.072 186.102 145.072 186.381 145.072 186.625C145.072 225.142 145.072 263.624 145.072 302.142C145.072 304.128 144.933 303.85 146.813 303.884C159.66 303.884 172.506 303.884 185.318 303.884C187.477 303.884 187.477 303.884 187.477 301.723C187.477 276.173 187.477 250.623 187.477 225.107C187.477 224.549 187.512 224.027 187.546 223.469C187.581 223.225 187.755 223.12 187.999 223.085C188.243 223.085 188.452 223.225 188.452 223.434C188.521 223.957 188.521 224.515 188.521 225.072C188.521 250.658 188.521 276.277 188.521 301.863C188.521 302.281 188.521 302.734 188.521 303.152C188.521 303.606 188.695 303.85 189.183 303.85C189.566 303.85 189.949 303.85 190.332 303.85C201.577 303.85 212.857 303.85 224.102 303.85C224.659 303.85 225.181 303.815 225.738 303.78C226.295 303.815 226.818 303.85 227.375 303.85C251.118 303.85 274.862 303.85 298.606 303.85C299.163 303.85 299.685 303.815 300.242 303.78C300.555 303.815 300.903 303.85 301.217 303.85C309.189 303.85 317.197 303.85 325.169 303.85C325.448 303.85 325.726 303.884 325.935 303.675C326.04 303.292 325.901 302.943 325.831 302.56C325.204 299.806 324.543 297.052 323.986 294.299C322.872 288.756 321.479 283.284 318.763 278.264C319.007 277.951 319.286 277.707 319.669 277.637C320.226 278.892 320.783 280.112 321.305 281.367C321.966 282.97 322.837 284.504 323.22 286.212C323.916 289.279 324.612 292.347 325.274 295.449C325.831 297.924 326.423 300.434 326.945 302.943C327.084 303.675 327.432 303.989 328.163 303.884C328.372 303.85 328.581 303.884 328.825 303.884C337.633 303.884 346.441 303.884 355.215 303.884C355.493 303.884 355.772 303.884 356.015 303.884C356.642 303.919 356.921 303.675 356.886 303.048C356.851 302.56 356.921 302.072 356.886 301.584C356.851 296.042 356.294 290.499 355.354 285.027C353.3 273.315 349.435 262.23 343.482 251.912C343.238 251.494 343.064 251.006 342.646 250.727C342.855 250.379 342.995 249.96 343.412 249.786C347.938 257.106 351.281 264.914 353.683 273.175C356.503 282.796 358 292.591 357.93 302.63C357.93 303.989 358 303.85 359.183 303.85C364.301 303.85 369.419 303.85 374.537 303.884C375.024 303.884 375.964 303.501 375.929 304.407C375.895 305.104 375.024 304.686 374.537 304.791C374.258 304.826 373.98 304.791 373.736 304.791C249.865 304.791 125.994 304.791 2.12275 304.791C1.56572 304.791 1.04349 304.791 0.486456 304.791C0.207937 304.791 -0.105396 304.686 -0.0705811 304.337C-0.0357663 304.024 0.207937 303.884 0.521271 303.884C1.00868 303.85 1.49609 303.85 1.98349 303.85C13.4028 303.85 24.822 303.85 36.2413 303.85C38.3998 303.85 38.1561 304.163 38.1561 301.967C38.1561 262.683 38.1561 223.434 38.1561 184.15C38.1561 183.557 38.1909 182.965 38.2257 182.372C38.2605 182.163 38.4346 181.989 38.6783 181.989C38.922 181.989 39.0961 182.163 39.1309 182.372C39.2005 182.895 39.2005 183.453 39.2005 184.011C39.2005 200.08 39.2005 216.149 39.2005 232.218C39.2005 255.259 39.2005 278.299 39.2005 301.34C39.2005 301.723 39.2005 302.107 39.2005 302.49C39.2005 304.059 39.2702 303.884 40.6628 303.884C50.3413 303.884 60.0198 303.884 69.6983 303.884C73.2494 303.884 76.7657 303.884 80.3168 303.884C81.605 303.884 81.605 303.85 81.6398 302.525C81.6398 302.246 81.6398 301.967 81.6398 301.723C81.6398 244.697 81.6398 187.671 81.6398 130.644C81.6398 127.403 81.605 127.403 78.3672 127.403C66.2865 127.403 54.2057 127.403 42.125 127.403C41.742 127.403 41.359 127.403 40.9761 127.403C39.6879 127.472 39.2702 127.856 39.2005 129.215C39.1657 129.633 39.2005 130.087 39.2005 130.505C39.2005 143.402 39.2005 156.334 39.2005 169.231C39.2005 169.719 39.2005 170.207 39.1309 170.695C39.0961 170.869 38.9568 171.079 38.6783 171.079C38.3998 171.079 38.2605 170.904 38.2257 170.695C38.1561 170.312 38.1561 169.928 38.1561 169.58C38.1561 156.229 38.1561 142.879 38.1561 129.564C38.1561 127.159 38.9916 126.357 41.4287 126.357C54.1013 126.357 66.7739 126.357 79.4464 126.357C81.9183 126.357 82.719 127.193 82.719 129.738C82.719 133.398 82.719 137.023 82.719 140.683C82.719 194.398 82.719 248.078 82.719 301.793C82.719 303.919 82.719 303.919 84.8776 303.919C86.4094 303.919 87.9413 303.919 89.4383 303.919C91.0746 303.919 90.9702 304.094 90.9702 302.316C90.9702 301.932 90.9702 301.549 90.9702 301.165C90.9702 209.979 90.9702 118.793 90.9702 27.6415C90.9702 27.0837 90.9353 26.5609 90.9702 26.0032C91.1094 23.7026 92.5716 22.1689 94.9042 21.9946C95.3916 21.9597 95.879 21.9946 96.3664 21.9946C107.124 21.9946 117.917 21.9946 128.675 21.9946C129.615 21.9946 130.485 21.9597 131.39 21.5763C132.713 20.9837 134.036 21.1929 135.359 21.7157C138.249 22.866 141.138 23.9815 143.993 25.1666C144.863 25.5152 145.734 25.6546 146.674 25.5849C148.484 25.4803 150.26 25.2712 151.966 24.7135C153.811 24.1209 154.298 23.2843 153.881 21.3672C153.637 20.2169 153.045 19.2409 152.349 18.3346C151.513 17.2192 151.269 17.1495 149.877 17.6723C147.022 18.718 144.167 19.7986 141.312 20.8443C138.492 21.89 136.717 21.3672 134.976 18.8923C134.593 18.3695 134.28 18.3346 133.758 18.5437C133.166 18.7877 132.539 18.9969 131.912 19.206C128.57 20.2169 125.541 17.8117 125.855 14.326C125.924 13.35 125.681 13.0712 124.845 12.6877C122.826 11.7815 121.746 9.79459 121.886 7.66831C122.025 5.57688 123.418 3.69459 125.541 3.13688C129.475 2.05631 133.444 1.08031 137.378 0.104307C138.283 -0.104836 139.223 -0.0351216 140.129 0.174021C146.883 1.81231 153.637 3.48545 160.426 5.05402C162.445 5.54202 163.698 6.76202 164.708 8.47002C174.978 25.794 184.413 43.5712 194.092 61.2089C201.368 74.4546 208.609 87.7352 215.851 101.016C216.199 101.678 216.478 102.41 217.069 102.933C217.661 102.759 217.626 102.166 217.801 101.748C218.706 99.4472 219.959 97.3558 221.735 95.6129C222.466 94.9158 222.57 94.2883 222.326 93.3123C220.69 87.3518 219.646 81.2866 220.133 75.082C220.551 69.958 222.118 65.2523 225.982 61.6272C229.15 58.6643 233.015 57.2003 237.227 56.5032C243.563 55.4923 249.795 56.1197 255.992 57.5837C256.932 57.7929 257.629 57.6535 258.395 57.1306C262.015 54.5512 265.949 52.634 270.301 51.6232C276.742 50.1592 282.939 50.9957 288.892 53.854C295.472 57.026 300.521 61.9409 305.046 67.5529C309.642 73.2346 311.94 79.8226 313.158 86.8986C314.829 96.4146 315.456 106.035 315.491 115.691C315.491 115.969 315.595 116.283 315.456 116.492C314.969 117.294 315.561 117.643 316.048 118.096C318.938 120.571 320.957 123.708 321.897 127.333C324.717 138.208 321.862 147.515 313.785 155.288C313.646 155.428 313.472 155.602 313.263 155.707C312.462 156.16 312.566 156.683 312.949 157.449C315.839 163.096 316.257 169.022 314.377 175.052C312.984 179.514 310.443 183.139 306.265 185.509C305.499 185.928 304.698 186.242 303.932 186.625C302.192 184.882 300.486 183.139 298.745 181.431C296.203 178.921 293.592 176.412 291.016 173.937C290.772 173.693 290.529 173.344 289.902 173.344C289.693 174.251 289.867 175.227 289.867 176.133C289.902 179.479 290.355 178.677 287.5 180.49C282.243 183.836 276.603 186.137 270.371 186.834C265.462 187.357 260.727 186.834 256.166 184.812C254.948 184.289 254.739 184.289 254.809 182.651C254.983 178.573 254.948 174.495 254.774 170.416C254.6 166.268 254.461 162.155 254.321 158.007C254.252 156.613 254.252 156.543 252.824 156.648C245.339 157.136 239.386 154.243 234.651 148.561C233.258 146.888 232.075 145.075 231.03 143.123C228.315 138.069 226.783 132.666 225.843 127.054C225.738 126.461 225.599 125.869 225.495 125.311C225.669 124.614 225.146 124.509 224.694 124.3C221.282 122.662 219.054 119.978 217.592 116.527C216.269 113.32 215.955 109.974 216.408 106.593C216.582 105.443 216.373 104.536 215.816 103.525C205.998 85.6438 196.215 67.7272 186.467 49.8455C178.982 36.1466 171.532 22.4129 163.559 8.99288C162.619 7.42431 161.435 6.48317 159.695 6.06488C153.08 4.53116 146.465 2.92774 139.885 1.32431C138.841 1.08031 137.866 1.08031 136.856 1.35916C133.932 2.16088 130.972 2.85802 128.013 3.62488C127.108 3.86888 126.203 4.00831 125.332 4.35688C123.278 5.15859 122.303 7.35459 123 9.44602C123.696 11.5026 125.576 12.5135 127.769 11.9209C131.077 11.0146 134.384 10.1083 137.657 9.20202C139.015 8.81859 140.372 8.74888 141.626 9.44602C144.968 11.2586 148.241 13.2455 151.13 15.7203C152.836 17.1843 154.159 18.9969 154.681 21.2626C155.273 23.7026 154.542 24.9923 152.209 25.794C150.608 26.3517 148.937 26.526 147.266 26.7003C145.838 26.8746 144.515 26.7003 143.158 26.1426C140.268 24.9226 137.343 23.7375 134.349 22.6569C131.286 21.5415 128.361 24.0163 128.918 27.2232C129.197 28.8963 130.276 29.8723 131.808 30.4649C136.264 32.2077 140.721 33.9157 145.142 35.7632C146.883 36.4952 148.658 36.8089 150.503 36.9832C151.409 37.0529 152.349 37.262 153.254 37.262C154.194 37.262 154.507 37.7152 154.786 38.5517C158.406 50.7169 162.723 62.6032 167.458 74.3849C176.058 95.7175 186.015 116.388 197.817 136.117C199.766 138.905 201.368 141.764 203.283 144.378ZM227.131 125.137C226.957 125.834 227.096 126.427 227.201 126.984C227.618 129.355 228.106 131.69 228.767 133.991C230.438 139.533 232.771 144.692 236.74 148.979C240.778 153.371 245.722 155.707 251.78 155.637C254.217 155.602 256.654 155.393 259.091 154.975C266.402 153.685 272.669 150.408 277.473 144.657C283.183 137.86 285.62 129.773 286.664 121.128C286.734 120.466 286.455 120.257 285.898 120.187C285.585 120.152 285.237 120.083 284.923 120.048C280.989 119.56 277.055 119.107 273.121 118.584C271.346 118.34 271.659 118.375 271.172 119.699C269.605 123.777 267.098 127.124 263.234 129.285C258.151 132.143 252.163 131.411 247.985 127.472C245.966 125.555 244.608 123.22 243.807 120.571C243.633 120.048 243.459 119.525 243.285 118.967C242.937 119.734 242.832 120.431 242.728 121.163C242.449 123.638 242.171 126.148 241.823 128.623C241.718 129.494 241.997 129.808 242.832 129.843C243.598 129.877 244.329 130.052 245.095 130.156C245.409 130.191 245.652 130.365 245.652 130.679C245.652 131.097 245.304 131.202 244.956 131.167C243.703 131.028 242.484 130.853 241.231 130.714C240.674 130.644 240.535 130.296 240.604 129.808C240.778 128.623 240.918 127.437 241.057 126.252C241.335 124.021 241.579 121.825 241.823 119.595C237.784 123.952 233.154 126.252 227.131 125.137ZM286.769 127.995C286.316 128.588 286.281 129.076 286.142 129.564C285.515 131.829 284.784 134.06 283.844 136.187C280.676 143.437 275.872 149.258 268.7 152.883C264.975 154.765 261.006 155.846 256.863 156.334C255.54 156.473 255.575 156.508 255.609 157.833C255.992 165.885 256.236 173.937 256.097 181.989C256.062 183.592 256.062 183.592 257.594 184.185C261.354 185.649 265.253 186.172 269.292 185.858C276.185 185.335 282.347 182.721 288.092 178.991C288.858 178.503 288.962 177.911 288.962 177.074C288.649 167.837 288.405 158.565 288.057 149.328C287.813 142.287 287.465 135.211 286.769 127.995ZM270.301 112.763C270.301 112.205 270.266 111.682 270.301 111.124C270.371 110.113 269.918 109.451 269.083 108.859C265.114 105.965 261.493 102.724 258.046 99.2032C257.281 98.4363 256.584 98.262 255.609 98.5758C253.207 99.3426 251.188 100.632 249.517 102.48C246.349 106 244.921 110.183 244.921 114.854C244.921 118.549 245.931 121.965 248.368 124.823C250.526 127.403 253.277 128.901 256.723 128.867C260.518 128.832 263.512 127.124 265.949 124.37C268.874 121.093 270.197 117.155 270.301 112.763ZM226.539 115.691C226.539 117.608 226.504 119.49 226.539 121.407C226.574 122.801 226.643 122.836 228.001 123.115C231.309 123.777 234.268 122.941 236.914 120.989C243.494 116.213 245.618 105.791 241.37 98.8198C239.003 94.9506 235.591 92.8243 230.926 93.2078C229.429 93.3472 229.429 93.3472 229.011 94.8809C227.201 101.678 226.504 108.649 226.539 115.691ZM230.229 91.0466C234.372 90.7678 237.749 91.8135 240.569 94.4278C243.389 97.042 244.782 100.388 245.548 104.292C246.871 102.41 248.089 100.772 249.691 99.4472C251.327 98.0878 253.172 97.2163 255.261 96.4146C249.482 90.3146 244.329 84.0055 239.421 77.3129C234.825 80.9032 232.179 85.6089 230.229 91.0466ZM145.455 12.7226C143.889 11.7117 142.635 10.91 141.243 10.2477C140.372 9.82945 139.467 9.82945 138.527 10.0735C135.081 11.0146 131.634 11.9906 128.187 12.8969C127.352 13.106 127.073 13.6637 126.969 14.3957C126.586 16.8357 128.953 18.9272 131.46 18.2997C132.818 17.9512 134.175 17.498 135.429 16.8357C138.562 15.1975 141.695 13.6637 145.455 12.7226ZM287.395 123.743C287.709 126.636 288.092 129.773 288.231 132.91C288.231 133.119 288.266 133.328 288.301 133.572C288.405 134.269 288.823 134.095 289.241 133.921C292.548 132.631 295.368 128.448 295.229 124.928C295.159 123.011 294.463 121.337 292.792 120.187C291.956 119.629 291.051 119.385 290.041 119.281C289.206 119.176 289.241 120.152 288.718 120.257C287.569 120.431 287.674 121.303 287.569 122.069C287.5 122.557 287.465 123.045 287.395 123.743ZM223.406 97.0769C220.969 99.6215 219.646 102.48 218.949 105.687C218.81 106.279 219.054 106.732 219.332 107.22C221.073 110.357 222.779 113.495 224.485 116.632C224.659 116.911 224.763 117.294 225.112 117.433C225.181 117.224 225.251 117.12 225.251 117.015C225.286 113.041 225.425 109.068 225.947 105.129C225.982 104.78 225.947 104.501 225.843 104.188C225.112 101.887 224.311 99.5866 223.406 97.0769ZM150.503 16.3826C149.877 15.6157 149.215 15.3369 148.728 14.8489C147.475 13.6637 146.117 13.594 144.515 14.0472C141.695 14.8837 139.049 16.1386 136.438 17.4632C135.742 17.8117 135.846 18.1952 136.195 18.718C137.1 20.0775 138.701 20.67 140.338 20.1123C141.835 19.6243 143.297 19.0317 144.759 18.474C146.639 17.8466 148.519 17.1495 150.503 16.3826ZM272.564 111.612C272.46 112.867 272.355 114.157 272.181 115.447C272.112 116.144 272.286 116.388 273.017 116.457C275.454 116.736 277.856 117.085 280.293 117.364C282.243 117.608 284.192 117.852 286.107 118.061C286.421 118.096 286.803 118.2 286.873 117.712C286.943 117.189 286.629 117.085 286.212 117.015C281.546 116.283 277.438 114.296 273.469 111.856C273.191 111.752 272.982 111.438 272.564 111.612ZM225.39 122.209C225.634 121.128 225.425 120.466 225.042 119.769C223.162 116.353 221.282 112.937 219.402 109.521C219.263 109.242 219.228 108.754 218.601 108.824C218.636 114.331 220.342 118.967 225.39 122.209Z" fill="#262626"/>
<path d="M302.332 265.019C302.227 265.402 302.019 265.577 301.636 265.437C301.253 265.298 301.078 264.914 300.835 264.636C297.876 260.836 294.881 257.037 291.922 253.202C291.609 252.819 290.947 252.296 291.539 251.843C292.131 251.355 292.479 252.087 292.793 252.47C295.821 256.305 298.816 260.174 301.81 264.008C302.019 264.322 302.297 264.601 302.332 265.019Z" fill="#262626"/>
<path d="M135.116 52.1808C135.116 56.2591 135.116 60.3025 135.116 64.3808C134.698 64.5899 134.664 64.9385 134.664 65.3568C134.664 65.9145 134.664 66.4374 134.664 66.9951C134.664 145.215 134.664 223.399 134.664 301.618C134.664 304.442 134.942 304.059 132.227 304.059C119.624 304.059 106.986 304.059 94.3829 304.059C93.9651 304.059 93.5125 304.024 93.0947 304.059C92.4681 304.093 92.2244 303.78 92.2244 303.187C92.2244 302.804 92.2244 302.42 92.2244 302.037C92.2244 210.502 92.2244 118.932 92.2244 27.3974C92.2244 27.0837 92.2244 26.7351 92.2244 26.4214C92.294 24.33 93.2688 23.2494 95.3229 23.2494C106.255 23.2145 117.187 23.2494 128.118 23.2494C128.327 23.2494 128.536 23.3191 128.71 23.3191C129.024 23.7722 128.641 24.086 128.501 24.3997C127.353 27.3625 128.501 30.1162 131.461 31.3711C132.053 31.6151 132.679 31.8591 133.271 32.1031C134.629 32.6608 134.629 32.6608 134.629 34.09C134.629 39.5277 134.629 44.9654 134.629 50.4379C134.664 50.9957 134.42 51.7277 135.116 52.1808Z" fill="#00E3A8"/>
<path d="M257.943 139.568C257.63 139.568 257.177 139.603 257.142 139.08C257.107 138.522 257.595 138.557 257.943 138.522C260.798 138.278 263.13 137.058 264.941 134.862C265.219 134.513 265.428 134.165 265.707 133.816C265.881 133.607 266.09 133.363 266.403 133.537C266.751 133.747 266.681 134.06 266.577 134.374C266.542 134.479 266.472 134.548 266.403 134.653C264.418 137.616 261.598 139.219 257.943 139.568Z" fill="#262626"/>
<path d="M253.939 108.894C253.974 110.114 253.695 111.264 252.964 112.24C251.885 113.669 250.492 113.53 249.901 111.857C249.239 110.009 249.518 108.197 250.736 106.663C251.711 105.443 252.964 105.687 253.626 107.151C253.904 107.744 253.939 108.301 253.939 108.894Z" fill="#262626"/>
<path d="M236.567 105.547C236.497 106.767 236.218 107.918 235.383 108.859C234.373 110.009 233.224 109.87 232.563 108.51C231.762 106.942 232.25 104.083 233.468 102.898C234.408 101.992 235.522 102.166 236.114 103.351C236.497 104.014 236.636 104.78 236.567 105.547Z" fill="#262626"/>
<path d="M225.451 13.6311C226.132 14.8094 227.315 14.988 228.534 15.0594C230.9 15.2379 233.266 15.3807 235.668 15.5593C235.883 16.0591 236.349 16.1663 236.815 16.2734C237.352 16.4162 237.819 16.6305 238.213 17.0232C239.683 18.5229 239.288 20.7366 237.317 21.7364C235.058 22.9147 232.728 23.9859 230.434 25.0928C228.677 25.9498 227.709 27.2709 227.637 29.2704C227.566 31.4485 227.422 33.6266 227.279 35.8404C227.243 36.4831 227.171 37.1615 226.992 37.7685C226.705 38.9111 225.845 39.5538 224.734 39.768C223.622 40.018 222.726 39.5895 222.045 38.7683C221.686 38.3041 221.4 37.7685 221.149 37.2329C220.109 35.1262 219.069 32.9839 217.994 30.8772C217.241 29.3776 216.058 28.5206 214.337 28.4492C212.616 28.3778 210.896 28.235 209.175 28.1278C208.099 28.0564 207.024 27.985 205.984 27.8779C204.658 27.6994 203.762 26.8781 203.475 25.6998C203.188 24.4501 203.726 23.2718 204.873 22.522C205.232 22.3077 205.626 22.1292 205.984 21.9507C207.956 20.9866 209.928 20.0225 211.899 19.0585C213.8 18.1658 214.803 16.7376 214.875 14.5952C214.911 12.3457 215.09 10.0962 215.233 7.84672C215.269 7.27542 215.341 6.66841 215.52 6.09711C216.273 4.09757 218.89 3.59768 220.324 5.20446C220.683 5.59723 220.934 6.09711 221.149 6.56129C222.117 8.52513 223.084 10.489 224.052 12.4528C224.375 13.0955 224.59 13.774 225.451 13.6311Z" fill="#00E3A8"/>
<path d="M225.451 13.6313C224.59 13.7741 224.375 13.0957 224.088 12.5244C223.12 10.5605 222.152 8.59671 221.185 6.63287C220.934 6.16869 220.683 5.6688 220.36 5.27604C218.926 3.70496 216.309 4.16914 215.556 6.16869C215.341 6.70428 215.305 7.3113 215.269 7.9183C215.126 10.1678 214.947 12.4173 214.911 14.6668C214.875 16.8091 213.835 18.2017 211.935 19.13C209.964 20.0941 207.992 21.0582 206.02 22.0222C205.662 22.2008 205.267 22.3793 204.909 22.5935C203.726 23.3077 203.224 24.5217 203.511 25.7714C203.798 26.9497 204.694 27.8066 206.02 27.9495C207.096 28.0923 208.135 28.128 209.211 28.1994C210.932 28.3065 212.652 28.4136 214.373 28.5207C216.094 28.5922 217.277 29.4491 218.03 30.9488C219.105 33.0554 220.109 35.1978 221.185 37.3045C221.435 37.8401 221.722 38.3757 222.081 38.8398C222.762 39.6611 223.658 40.0896 224.769 39.8396C225.881 39.5897 226.741 38.9827 227.028 37.8401C227.171 37.1974 227.243 36.5546 227.315 35.9119C227.458 33.7339 227.602 31.5558 227.673 29.342C227.745 27.3425 228.677 26.0213 230.47 25.1644C232.764 24.0575 235.094 22.9863 237.353 21.808C239.36 20.7725 239.719 18.5944 238.249 17.0948C237.854 16.702 237.388 16.4521 236.851 16.345C236.385 16.2378 235.919 16.095 235.704 15.6308C236.026 14.7739 236.707 14.9167 237.353 15.0952C238.966 15.488 240.4 17.1662 240.436 18.9872C240.471 20.6297 239.719 22.1651 238.249 22.9149C235.704 24.2003 233.23 25.5928 230.649 26.8069C229.609 27.3067 229.143 28.0209 229.071 29.0921C228.892 31.7343 228.641 34.4123 228.569 37.0545C228.498 38.8041 227.494 39.9467 226.275 40.8751C224.734 42.0177 221.292 40.9465 220.503 39.1969C219.32 36.6261 217.851 34.198 216.632 31.6272C216.058 30.4132 214.839 29.8776 213.441 29.8062C210.788 29.6634 208.1 29.4848 205.447 29.3063C204.013 29.1992 202.435 27.6995 202.184 26.2713C201.647 23.5219 202.22 22.4507 204.766 21.1296C206.809 20.0941 208.817 18.9515 210.932 18.0231C212.76 17.2376 213.513 15.9165 213.62 14.024C213.764 11.596 213.907 9.168 214.086 6.73998C214.194 5.41885 214.552 4.24056 215.915 3.56214C218.388 2.34813 220.934 3.13367 222.188 5.5974C223.335 7.84689 224.375 10.0964 225.486 12.3816C225.63 12.7386 225.702 13.1671 225.451 13.6313Z" fill="#262626"/>
</g>
<defs>
<clipPath id="clip0">
<rect width="376" height="305" fill="white"/>
</clipPath>
</defs>
</svg>
