<svg width="241" height="241" viewBox="0 0 241 241" fill="none" xmlns="http://www.w3.org/2000/svg">
<path d="M199.5 73L226 65.5L229.5 70.5L236.5 92.5L240 118L238 140.5L230.5 162L227 159L224 150L226 140.5L224 118L221.5 109.5L214.5 106.5L199.5 98L195.5 91L197.5 86L196.5 81.5L194 77L199.5 73Z" fill="#00E3A8"/>
<path d="M115 3.4998C159.4 -4.5002 195.5 24.4998 208 39.9998H206L198 36.4998L189.5 33.9998L187 35.4998L183 40.4998L167.5 39.9998L157.5 32.4998V25.4998L155.5 19.4998L139.5 14.9998C115.5 9.79979 113.167 5.16646 115 3.4998Z" fill="#00E3A8"/>
<path d="M12.0001 106.5C8.80012 106.1 6.33346 101.667 5.50012 99.5C-10.0999 150.3 24.0001 193.667 43.0001 209V204L40.5001 196L31.5001 175.5V162.5L38.0001 154.5L47.5001 145.5L54.0001 133L57.5001 122.5L55.5001 111L50.5001 106.5L38.0001 103L28.5001 99.5C26.6668 101.167 22.9001 104.7 22.5001 105.5C22.0001 106.5 16.0001 107 12.0001 106.5Z" fill="#00E3A8"/>
<path d="M127.653 150.917C124.646 148.576 120.637 146.569 119.3 142.89C116.962 136.536 110.279 133.191 106.604 127.505C103.597 122.823 103.597 116.803 104.6 111.117C106.938 97.0704 115.291 83.6924 128.656 78.6756C135.004 76.3344 141.686 76 148.368 76C154.048 76 160.062 76.3345 165.408 79.0101C170.42 81.6857 174.764 87.0369 174.095 92.7225C173.761 95.0637 173.093 97.4048 172.759 99.746C172.759 106.101 178.773 110.448 184.453 113.793C189.799 116.803 195.144 119.813 200.49 123.158C203.163 124.83 203.497 128.509 203.831 131.519C203.831 140.215 204.166 148.91 204.166 157.606C204.166 159.278 204.165 160.951 203.831 162.623C203.497 164.295 202.495 165.967 201.493 167.64C191.469 183.359 180.778 200.081 164.072 208.108C160.397 209.78 156.387 211.118 152.712 212.456C149.037 213.794 145.361 214.797 142.02 216.135C139.347 217.138 136.674 217.807 133.667 217.807C130.994 217.807 127.987 216.135 126.985 213.459C126.317 211.787 126.651 210.115 126.651 208.443C127.319 203.091 129.324 197.74 132.331 192.723C136.34 186.034 138.679 178.342 138.345 170.65C137.343 163.292 134.001 155.599 127.653 150.917Z" fill="#00E3A8"/>
<path d="M63 17C25.4 33.8 9.33333 73 6 90.5L4.5 93.5L18 90.5L37 86.5L45 93.5L58 97C64.8333 95.3333 79.6 92 84 92C89.5 92 103 79 105.5 77C107.5 75.4 109.667 65 110.5 60L105.5 46L90.5 29L78.5 19.5L63 17Z" fill="#00E3A8"/>
<path d="M127.519 150.831C124.512 148.489 120.502 146.483 119.166 142.804C116.827 136.449 110.145 133.105 106.47 127.419C103.463 122.737 103.463 116.717 104.465 111.031C106.804 96.984 115.156 83.6059 128.521 78.5892C134.869 76.248 141.552 75.9136 148.234 75.9136C153.914 75.9136 159.928 76.248 165.274 78.9236C170.285 81.5992 174.629 86.9504 173.961 92.6361C173.627 94.9773 172.958 97.3184 172.624 99.6596C172.624 106.014 178.638 110.362 184.318 113.707C189.664 116.717 195.01 119.727 200.356 123.071C203.029 124.743 203.363 128.422 203.697 131.432C203.697 140.128 204.031 148.824 204.031 157.52C204.031 159.192 204.031 160.864 203.697 162.536C203.363 164.209 202.361 165.881 201.358 167.553C191.335 183.272 180.643 199.995 163.937 208.022C160.262 209.694 156.253 211.032 152.577 212.37C148.902 213.707 145.227 214.711 141.886 216.048C139.213 217.052 136.54 217.721 133.533 217.721C130.86 217.721 127.853 216.048 126.85 213.373C126.182 211.701 126.516 210.028 126.516 208.356C127.185 203.005 129.189 197.654 132.196 192.637C136.206 185.948 138.545 178.256 138.21 170.563C137.208 163.205 133.867 155.513 127.519 150.831ZM115.156 132.436C122.507 139.459 129.189 147.152 134.869 155.847C136.874 158.857 138.545 161.867 139.547 165.212C141.552 171.901 140.215 178.924 138.21 185.279C135.872 191.634 132.531 197.654 129.858 204.008C128.521 207.353 127.519 212.035 130.526 214.376C132.865 216.383 136.54 215.38 139.547 214.376C143.891 212.704 148.234 211.032 152.577 209.694C156.253 208.356 159.928 207.018 163.269 205.346C178.972 197.319 188.996 181.6 198.351 166.55C199.353 165.212 200.022 163.874 200.356 162.202C200.69 160.53 200.69 158.857 200.69 157.185C200.69 149.827 200.356 142.469 200.356 135.111C200.356 132.436 200.356 129.76 199.019 127.419C197.015 123.406 192.003 121.733 187.994 119.727C181.645 116.717 175.965 112.369 171.622 107.017C170.62 105.68 169.283 104.007 168.949 102.335C168.281 99.3251 170.285 96.3151 170.285 92.9706C170.62 87.9538 166.944 82.937 162.267 80.9303C157.589 78.5892 152.243 78.5892 146.897 78.5892C141.886 78.5892 136.874 78.5892 132.196 79.927C118.164 83.6059 108.474 97.6529 106.136 112.369C105.467 116.382 105.467 120.73 107.472 124.743C110.145 127.419 112.818 130.095 115.156 132.436Z" fill="#29222F"/>
<path d="M134.869 238.791C135.872 238.457 137.208 238.457 138.544 238.457C164.939 234.109 189.998 221.065 208.374 201.333C232.097 175.58 243.791 139.125 239.447 104.342C234.77 69.5591 214.389 37.1174 184.652 18.3881C181.645 16.7159 178.972 15.0436 175.965 13.3714C171.956 11.3647 167.946 9.35797 163.603 8.02017C159.928 6.68237 155.584 5.34456 151.575 4.00676C150.907 4.00676 150.572 3.6723 150.238 3.6723C149.236 3.6723 148.234 3.33786 147.231 3.00341C111.147 -5.35786 71.3873 4.00675 42.9875 27.7528C14.2536 51.8332 -2.11797 89.9606 0.220839 127.419C2.55964 164.878 23.6088 200.664 55.0156 220.731C59.025 223.072 63.0345 225.413 67.0439 227.754C67.378 227.754 67.712 228.089 68.0462 228.089C68.7144 228.089 69.0485 228.423 69.7167 228.758C74.7285 231.433 80.4084 233.44 85.7542 235.112C86.7566 235.447 88.093 235.781 89.0954 236.116C89.4295 236.116 89.7637 236.45 90.4319 236.45C91.4342 236.785 92.4365 236.785 93.4388 237.119C93.7729 237.119 94.4412 237.453 94.7754 237.453C95.1095 237.453 95.1095 237.453 95.4436 237.453C105.467 239.46 116.493 240.129 127.185 240.129C129.189 239.46 132.196 239.126 134.869 238.791ZM134.869 3.00341C160.93 6.68237 185.655 19.057 204.031 37.7863C200.69 38.7896 197.349 36.114 194.342 34.4418C191.335 32.7695 186.991 31.7662 184.986 34.4418C183.984 35.7796 183.984 37.7863 182.648 38.7896C181.645 39.793 179.975 39.793 178.304 39.4585C173.961 39.1241 169.951 38.7896 165.942 37.1174C161.932 35.4451 158.591 32.1006 157.923 28.0872C157.255 25.0772 157.923 21.7327 156.253 19.7259C155.25 18.3881 153.58 18.0537 151.909 17.3848C139.881 13.7058 127.519 10.0269 115.491 6.34792C120.502 2.00006 128.187 2.00006 134.869 3.00341ZM7.57141 85.6128C14.9219 61.5323 30.2911 39.793 50.6721 24.7427C54.3474 22.0671 58.0227 19.7259 62.3662 18.7226C66.7097 17.7192 71.7214 18.3881 74.7285 21.7326C80.0743 27.0839 88.4271 28.7561 94.1071 33.4384C97.4482 36.4485 100.121 40.1274 102.46 44.1409C105.133 48.8232 108.14 53.5055 108.474 58.8567C108.808 64.5424 106.135 70.228 103.462 75.2448C99.1188 83.9405 89.0954 88.2884 79.7402 91.2984C72.7238 93.6396 65.7074 95.3118 58.691 95.3118C51.3404 95.3118 43.99 92.6362 39.3123 87.285C36.3053 83.9405 30.9593 84.9438 26.6158 85.9472C20.2676 87.6195 14.2536 89.2917 7.90544 90.964C6.56898 89.6262 7.2373 87.6195 7.57141 85.6128ZM40.6487 206.015C12.9171 180.597 -1.11558 141.132 4.23026 103.673C8.57376 111.031 21.27 110.697 25.6135 103.004C26.95 100.663 29.957 100.663 32.2958 101.666C34.6346 102.67 36.6393 104.676 38.9781 105.345C41.9851 106.349 44.9922 105.68 47.9992 106.349C55.3498 108.69 56.3522 118.723 54.3475 126.416C51.0064 138.79 42.9876 150.162 32.63 157.854C27.6183 161.533 28.6205 168.891 30.6252 174.911C33.9664 185.614 37.9759 195.647 42.6535 205.681C43.99 196.985 38.6441 188.958 35.3029 180.931C31.9618 172.904 30.6253 162.202 37.6418 156.851C48.3334 148.824 55.6839 136.784 58.0227 123.74C59.3592 116.717 58.0226 108.021 51.6744 104.676C47.6651 102.67 43.3217 103.673 39.3123 102.001C36.6394 100.997 34.6346 98.9908 32.2958 98.3219C29.6229 97.3185 26.2818 97.653 25.2795 100.329C23.2748 104.342 18.5972 106.683 14.2537 105.68C9.91022 104.676 6.5689 100.329 6.5689 95.6463C6.5689 94.3085 8.23948 93.3051 9.91005 92.9707C15.9241 91.2984 22.2723 89.6262 28.2864 88.2884C31.9616 87.285 36.3052 86.6161 38.9781 89.2917C47.6651 98.9908 62.7004 98.3219 75.3967 95.3118C83.7496 93.3051 92.4365 89.9606 99.1188 84.6094C106.135 79.2582 111.481 71.2314 112.149 62.5356C113.152 52.5021 107.806 42.8031 100.789 35.4451C91.7683 26.0805 80.0743 20.0604 68.7144 14.0403C83.0814 6.68236 99.1188 2.3345 115.156 2.00005C113.152 2.66895 112.818 5.67901 114.154 7.35126C115.49 9.02352 117.829 9.69242 119.834 10.3613C129.523 13.0369 139.213 15.7125 148.902 18.3881C152.577 19.3915 157.255 21.7326 156.253 25.7461C155.25 30.4284 158.257 35.1107 162.601 37.7863C166.61 40.1274 171.622 40.7963 176.3 41.4653C178.972 41.7997 181.645 42.1341 184.318 41.1308C186.991 40.1274 188.996 37.4518 188.328 34.7762C194.676 36.7829 200.69 38.7896 207.038 41.1308C209.711 42.1341 211.716 44.4753 213.72 46.8165C238.111 78.2548 244.793 122.737 230.76 160.195C224.412 157.185 225.414 148.155 226.083 141.132C227.419 132.101 226.751 122.737 224.746 113.707C223.744 109.359 219.4 106.349 215.057 104.676C210.713 103.004 206.036 102.335 202.36 99.6597C198.685 96.9841 195.678 91.9673 197.683 87.9539C199.353 84.6094 198.685 80.2615 196.012 77.2515C201.692 72.2347 209.377 69.5591 217.061 69.5591C219.066 69.5591 221.071 69.8936 222.741 68.5558C224.412 67.5524 224.412 64.5424 222.741 63.8735C222.073 63.8735 221.405 63.8735 220.737 64.2079C215.057 65.8802 209.043 67.8869 203.363 69.5591C198.351 71.2314 192.003 74.9103 194.342 79.9271C195.344 82.2682 198.017 84.9439 196.012 86.6161C192.003 89.9606 195.344 96.6496 199.688 99.9941C205.033 104.342 211.716 107.352 218.398 109.024C220.737 109.359 221.739 112.034 222.073 114.376C224.078 122.737 224.412 131.432 223.744 140.128C223.41 144.476 222.407 148.824 223.076 152.837C223.744 157.185 225.749 161.533 229.758 163.205C215.725 197.988 183.65 225.413 146.897 233.44C108.808 242.136 68.3802 231.433 40.6487 206.015Z" fill="#29222F"/>
</svg>
