<svg width="375" height="322" viewBox="0 0 375 322" fill="none" xmlns="http://www.w3.org/2000/svg">
<g clip-path="url(#clip0)">
<path d="M-2.89944 313.395C8.71288 313.395 20.3755 313.395 32.1386 313.395C31.9375 312.439 31.0327 312.238 30.53 311.685C28.5192 309.319 29.1727 306.3 32.1889 305.948C38.0202 305.243 42.0417 301.771 45.9125 297.947C48.1244 295.733 50.5373 294.928 53.6038 295.28C56.1675 295.582 59.3345 296.84 61.1442 295.381C62.8031 294.072 62.6523 290.751 63.7583 288.487C66.6739 282.599 64.9145 276.662 64.2107 270.774C62.1999 253.816 59.988 236.858 57.8767 219.9C57.7259 218.743 57.5248 217.585 57.4243 216.428C57.0724 212.956 57.0724 212.956 60.7421 212.755C50.9395 183.619 50.286 154.131 57.374 123.738C62.8031 132.041 66.2215 140.545 70.0923 148.948C70.4944 144.47 70.9468 139.991 71.349 135.513C72.3041 124.996 74.3149 114.63 76.7279 104.365C77.2306 102.201 76.7781 100.842 75.7225 98.9803C74.0133 95.9611 71.7512 95.005 68.5339 95.7095C66.9253 96.0618 65.2161 96.1624 64.5123 94.1999C63.8085 92.2877 64.9145 91.08 66.4728 90.3756C69.8912 88.8156 70.6955 86.2493 69.7906 82.8275C69.3885 81.1669 69.7404 79.758 71.4495 79.1038C73.1084 78.5 74.1138 79.5064 74.9684 80.7644C75.4209 81.4689 76.0241 82.0727 76.376 82.8275C77.3311 84.8403 78.8895 84.79 80.7997 84.639C82.8105 84.4881 82.6094 82.8778 82.9613 81.7708C85.1732 74.8769 87.6364 68.0836 90.5521 60.6362C98.746 85.9977 102.114 111.409 103.572 137.274C108.247 123.788 114.129 110.957 122.926 99.1816C124.333 103.509 124.635 107.686 125.64 111.661C125.339 112.064 125.087 112.466 124.484 112.265C123.881 108.843 123.428 105.371 122.373 101.647C117.899 107.887 114.33 114.177 111.313 120.819C108.901 126.204 106.387 131.588 105.13 137.425C103.924 139.388 103.572 141.753 102.114 143.564C102.164 142.658 102.315 141.753 102.315 140.797C101.712 118.354 98.9471 96.2127 93.518 74.4743C92.6634 71.1029 91.9093 67.6308 90.2504 63.9071C87.9883 70.499 85.877 76.5878 83.7656 82.6262C83.464 83.532 83.3635 83.9849 84.5699 84.4378C87.0332 85.3435 87.2845 87.5576 85.2235 89.2182C84.5197 89.7717 83.7656 90.3756 82.9613 90.8284C81.1013 91.8349 80.4981 93.1432 80.85 95.3573C81.2019 97.5714 82.2575 100.339 78.7387 101.396C78.3868 101.496 78.236 102.402 78.0852 102.956C71.9522 128.82 69.0869 154.937 72.5555 181.455C73.8625 191.62 76.1246 201.533 79.8949 211.094C81.1013 214.063 83.3635 212.503 85.1732 212.855C86.8321 213.157 86.7316 211.597 86.9829 210.692C88.7926 203.999 90.552 197.306 92.3618 190.614C92.6634 190.865 92.965 191.117 93.2666 191.419C88.6921 208.176 84.2181 224.932 79.543 241.689C74.516 259.804 68.3831 277.567 62.7026 295.481C62.3004 296.689 61.848 297.092 60.5913 296.941C58.5302 296.689 56.4189 296.739 54.3578 296.437C51.2411 295.985 48.7276 296.639 46.4655 299.004C42.645 303.029 38.372 306.401 32.4905 307.005C30.4797 307.206 30.0273 309.219 31.3845 310.829C32.7921 312.49 34.7526 313.093 36.8137 312.892C40.3326 312.59 43.7509 311.936 46.4152 309.219C48.0741 307.558 49.8838 306.049 51.5427 304.438C52.1962 303.784 52.7995 303.533 53.7546 303.734C57.2232 304.388 60.6918 304.891 64.1604 305.445C64.6129 305.495 64.9145 305.747 64.8139 306.3C64.1102 306.904 63.2053 306.602 62.401 306.602C59.2843 306.652 56.2178 306.552 53.1011 306.652C50.6881 306.703 49.3308 308.112 49.3811 310.125C49.3811 312.188 50.7887 313.446 53.2016 313.496C57.3237 313.546 61.3956 313.446 65.5177 313.496C73.7117 313.647 79.1408 309.521 82.3078 302.325C92.3115 279.832 101.913 257.137 110.459 234.04C114.129 224.077 117.748 214.113 120.412 203.848C121.518 204.351 120.915 205.307 121.066 206.062C120.412 208.276 119.709 210.44 119.005 212.805C119.91 212.855 120.664 212.855 121.418 212.906C121.418 213.258 121.418 213.66 121.418 214.013C119.357 213.61 118.1 214.315 117.798 216.529C117.698 217.233 117.296 217.938 117.044 218.642C107.845 245.765 96.685 272.133 85.2737 298.4C82.7602 304.187 80.2467 309.873 74.3149 313.244C90.7029 313.244 107.091 313.244 124.032 313.244C122.976 312.641 122.323 312.238 121.669 311.835C109.956 304.438 104.225 289.745 107.895 276.41C110.409 267.403 115.989 260.811 123.981 256.181C129.863 253.464 135.996 252.105 142.481 252.659C157.712 253.866 172.894 255.829 187.975 257.942C188.679 259.1 189.935 258.747 190.941 258.898C207.278 261.364 223.616 263.729 240.004 266.145C241.864 266.396 244.126 266.245 243.774 269.214C243.774 269.264 244.026 269.315 244.428 269.415C244.176 268.057 245.936 266.145 243.221 265.692C237.541 264.736 231.81 263.981 226.13 263.125C217.785 261.867 209.49 260.559 201.146 259.251C209.842 250.143 217.684 240.33 224.42 229.662C233.067 222.517 241.663 215.321 250.611 207.874C245.081 207.068 240.507 205.358 236.234 202.741C230.805 199.42 226.029 195.193 220.801 191.57C221.103 191.318 221.354 191.067 221.656 190.765C228.04 195.294 233.821 200.778 241.06 204.049C254.18 209.937 266.949 206.062 274.439 193.734C286.654 173.756 298.166 153.377 309.779 133.047C310.382 131.99 311.086 131.236 312.242 130.783C315.308 129.525 317.671 127.361 319.38 124.493C320.335 125.348 319.732 125.801 319.481 126.254C318.274 128.216 316.665 129.927 314.554 130.783C311.94 131.84 310.633 133.852 309.276 136.117C299.674 152.773 290.022 169.429 280.421 186.035C280.32 186.236 280.22 186.487 280.019 186.94C283.89 186.437 287.509 186.437 291.128 187.494C300.428 190.261 306.36 196.451 308.622 205.81C313.951 227.901 319.078 250.042 324.306 272.183C325.01 275.152 325.01 275.152 321.843 275.554C319.531 275.856 317.218 276.259 314.655 276.611C315.962 279.63 318.224 281.492 320.838 283.002C327.373 286.675 334.411 288.487 341.851 289.141C354.116 290.248 361.607 301.117 358.339 313.295C365.276 313.295 372.163 313.295 379.1 313.295C379.1 313.647 379.1 313.949 379.1 314.301C371.661 314.351 364.221 314.452 356.781 314.452C339.739 314.502 322.698 314.452 305.656 314.452C311.739 304.388 316.012 294.123 308.27 282.901C308.471 282.75 308.673 282.65 308.874 282.499C310.181 283.505 310.884 284.914 311.538 286.373C314.253 292.361 313.7 298.45 311.739 304.489C311.186 306.2 311.236 306.854 313.247 306.753C315.911 306.602 318.626 306.652 321.29 306.753C323.452 306.803 325.714 306.501 328.026 307.005C327.323 308.112 326.418 307.759 325.664 307.759C321.139 307.81 316.615 307.76 312.091 307.81C311.387 307.81 310.633 307.508 310.181 308.514C309.577 309.923 308.773 311.332 307.969 312.892C308.572 312.993 308.974 313.043 309.326 313.043C324.558 313.043 339.79 313.043 355.021 313.043C355.373 313.043 355.675 313.043 356.027 312.993C358.339 312.59 357.736 310.728 357.887 309.219C358.088 307.307 356.73 307.81 355.725 307.81C347.782 307.81 339.84 307.81 331.847 307.759C331.043 307.759 330.037 308.061 328.931 306.753C332.551 306.753 335.667 306.803 338.784 306.703C339.287 306.703 340.343 307.206 340.192 305.998C339.337 300.513 341.298 295.481 342.504 290.298C338.684 289.695 334.763 289.544 330.992 288.286C324.407 286.071 317.621 284.159 313.8 277.567C313.398 276.913 312.895 276.963 312.292 277.064C309.879 277.416 307.516 277.769 305.103 278.121C304.249 278.221 304.45 278.574 304.802 279.027C304.651 279.228 304.5 279.429 304.349 279.58C302.69 278.775 301.182 277.769 299.423 277.215C292.385 275.001 285.197 273.693 277.757 273.592C267.049 273.491 256.342 273.038 245.634 272.737C244.629 272.686 243.523 272.233 243.372 274.095C242.568 283.354 241.713 292.613 240.808 301.872C240.708 303.08 241.009 303.633 242.216 303.985C244.277 304.64 246.388 305.294 248.047 306.904C246.388 307.005 245.132 306.049 243.724 305.495C240.557 304.287 240.607 304.287 240.306 307.508C240.255 308.263 240.054 309.018 240.054 309.772C240.054 310.93 239.652 311.332 238.446 311.383C227.889 311.936 217.332 312.54 207.379 313.144C212.054 313.546 254.582 313.597 257.548 313.144C256.493 312.439 255.537 311.835 254.582 311.181C254.783 311.03 254.984 310.829 255.186 310.678C255.839 311.03 256.543 311.332 257.196 311.685C264.335 315.76 271.825 319.031 280.019 320.239C287.559 321.346 294.999 321.497 301.936 317.522C302.087 317.723 302.288 317.924 302.439 318.176C301.484 318.981 300.328 319.434 299.172 319.987C296.96 321.094 294.396 321.044 292.134 321.95C288.766 321.95 285.448 321.95 282.08 321.95C281.929 321.396 281.477 321.447 281.074 321.396C274.439 320.541 268.205 318.478 262.274 315.509C260.967 314.855 259.66 314.553 258.202 314.553C251.264 314.603 244.327 314.553 237.34 314.603C208.234 314.653 179.077 314.05 149.971 316.364C144.492 316.817 138.962 317.371 133.432 316.465C130.567 316.012 127.902 314.603 124.886 314.603C83.3635 314.653 41.8407 314.653 0.317828 314.603C-0.788107 314.603 -1.84377 314.502 -2.94971 314.452C-2.89944 314.05 -2.89944 313.748 -2.89944 313.395ZM79.3922 212.906C78.7889 211.295 78.3365 210.138 77.8841 208.981C71.8517 192.375 69.8912 175.165 69.9917 157.654C69.9917 154.584 69.5896 151.716 68.3831 148.898C67.0258 145.778 65.8193 142.558 64.4118 139.438C62.5518 135.211 60.6415 131.034 57.7762 126.707C56.4692 132.443 55.5643 137.677 54.9108 142.96C53.1513 157.704 53.2519 172.398 55.514 187.041C56.7708 195.143 58.5805 203.143 61.3453 210.893C61.6972 211.849 61.7475 213.006 63.3561 212.956C68.5339 212.855 73.8122 212.906 79.3922 212.906ZM66.3723 279.58C66.7242 278.725 66.875 278.473 66.9755 278.171C73.8625 257.59 79.8949 236.757 85.5753 215.774C86.1283 213.811 85.1732 213.962 83.8662 213.962C76.3257 213.962 68.7852 213.962 61.2951 213.962C58.0275 213.962 58.1281 213.962 58.5302 217.283C60.541 232.883 62.4513 248.482 64.462 264.081C65.0653 269.063 65.7188 274.045 66.3723 279.58ZM340.694 306.803C345.621 306.803 350.547 306.803 355.474 306.803C355.826 306.803 356.127 306.803 356.479 306.803C357.384 306.854 357.786 306.703 357.686 305.545C357.133 298.551 352.256 292.563 345.621 290.852C344.062 290.449 343.208 290.5 342.755 292.462C341.75 297.142 340.845 301.771 340.694 306.803ZM85.4748 86.3499C85.324 85.6455 84.4694 85.0919 83.3635 85.3938C78.9397 86.5009 75.7225 85.2429 73.8625 80.9657C73.8122 80.9153 73.762 80.8147 73.7117 80.7644C73.209 80.0599 72.5555 79.758 71.7512 80.0096C70.9468 80.2612 70.3939 81.016 70.6452 81.7708C72.1031 86.6015 70.2933 89.7717 65.9701 91.8852C65.2161 92.2374 65.1658 93.0929 65.4172 93.898C65.6685 94.6025 66.3723 95.005 67.0258 94.8541C71.7512 93.4954 75.069 95.0554 77.1803 99.4835C77.5322 100.238 78.3868 100.389 79.1911 100.087C79.8949 99.8358 80.1965 99.2319 80.1462 98.4771C80.0959 97.7223 80.1965 96.9172 79.9954 96.2127C79.1408 93.0425 80.297 90.8788 83.1624 89.4698C83.7656 89.1679 84.2683 88.715 84.771 88.3124C85.2235 88.0105 85.5753 87.5576 85.4748 86.3499ZM259.056 271.78C259.107 272.032 259.157 272.233 259.257 272.485C262.223 272.485 265.24 272.485 268.205 272.485C269.06 272.485 269.915 272.586 269.915 271.277C269.915 268.761 269.915 266.245 269.915 263.528C266.245 266.296 262.676 269.063 259.056 271.78ZM41.8909 313.345C44.3039 313.345 46.6665 313.345 49.3308 313.345C48.426 312.037 48.0238 310.779 48.1244 309.018C45.9628 310.879 44.2536 312.54 41.8909 313.345ZM270.97 262.018C272.73 258.747 274.238 255.376 274.891 251.703C273.132 254.923 271.674 258.295 270.97 262.018Z" fill="#262626"/>
<path d="M144.24 105.975C147.156 95.508 150.021 85.0917 152.937 74.6251C153.037 74.3232 153.138 73.9709 153.188 73.669C153.59 72.1594 154.596 70.3982 154.244 69.1402C153.791 67.6809 151.73 68.7879 150.373 68.3351C144.693 66.4732 140.47 58.5226 142.28 52.8364C142.581 51.9306 142.833 50.9745 143.587 50.4713C145.598 49.1127 145.246 47.3515 145.045 45.238C143.989 33.614 145.045 22.3422 151.328 12.1272C154.797 6.44101 159.673 2.41538 166.208 0.553524C166.56 0.452883 166.862 0.402563 166.912 0C169.275 0 171.587 0 173.95 0C181.138 1.55993 187.221 5.183 192.348 10.3157C193.304 11.2718 193.957 10.7182 194.711 10.366C201.95 7.14549 209.44 4.88108 217.483 5.4346C227.437 6.08876 235.078 13.1839 236.184 22.8454C237.44 33.8153 231.81 42.9736 221.807 45.6909C219.243 46.3954 218.489 47.5024 218.137 49.9178C216.528 61.3405 214.015 72.4613 207.128 82.0725C202.402 88.6645 196.873 94.1997 188.679 96.2629C186.467 96.8164 184.205 97.0177 181.943 96.6654C180.686 96.4641 180.334 96.917 180.183 98.0241C179.781 101.194 179.329 104.314 178.876 107.434C178.223 111.107 177.519 114.831 176.966 118.555C176.815 119.712 176.363 120.316 175.257 120.668C163.544 124.04 150.976 119.159 144.843 108.793C144.341 107.887 143.888 107.031 144.24 105.975ZM179.178 33.8153C178.876 34.5701 178.574 35.3752 178.223 36.13C174.201 44.8354 168.068 50.9242 158.064 51.5784C155.501 51.7293 155.048 52.8867 154.897 54.8492C154.143 67.8318 157.813 79.2043 167.314 88.3122C177.67 98.326 190.187 98.175 200.542 88.2116C202.905 85.9472 204.916 83.3808 206.776 80.7139C213.613 70.8511 215.573 59.378 217.483 47.905C217.735 46.5463 216.83 46.8986 216.126 46.8986C213.21 46.9489 210.244 47.2005 207.379 46.5967C197.124 44.3322 187.472 40.5582 179.178 33.8153ZM155.4 70.9014C155.199 70.9517 155.098 70.9517 155.048 71.002C151.831 82.5757 148.664 94.1997 145.447 105.773C145.095 106.981 145.547 107.837 146.15 108.793C152.233 118.303 163.443 122.681 174.302 119.762C175.357 119.461 175.81 119.058 176.011 117.951C177.066 111.158 178.122 104.415 179.278 97.6718C179.479 96.6151 179.228 96.2629 178.223 95.9609C168.571 92.8914 162.337 86.0981 158.014 77.2921C157.009 75.1786 156.255 73.0148 155.4 70.9014ZM153.791 59.3277C153.842 56.7614 153.59 54.8492 154.194 52.937C154.395 52.3332 154.344 51.83 153.791 51.3771C151.63 49.6662 149.267 48.6598 146.553 49.5656C144.039 50.421 143.084 52.5848 142.883 55.0505C142.481 59.529 145.748 65.0642 149.87 66.9261C150.826 67.379 151.781 67.4796 152.786 67.5299C154.093 67.5299 154.596 67.0267 154.344 65.7184C153.942 63.3533 153.691 61.0386 153.791 59.3277Z" fill="#262626"/>
<path d="M144.24 105.975C143.938 107.031 144.341 107.887 144.894 108.793C151.027 119.159 163.594 124.04 175.307 120.668C176.413 120.366 176.865 119.762 177.016 118.555C177.569 114.831 178.273 111.158 178.926 107.434C183.652 107.987 188.327 108.893 192.952 109.9C196.42 110.654 199.084 112.818 201.849 114.881C212.406 122.731 221.153 132.393 229.648 142.256C232.112 145.124 234.324 148.143 236.887 150.911C238.798 152.974 239.803 155.087 238.898 157.855C238.848 158.308 238.798 158.761 238.747 159.264C237.189 163.994 235.982 168.825 233.871 173.354C230.855 179.946 226.632 185.682 221.555 190.764C221.253 191.016 221.002 191.268 220.7 191.519C219.946 192.022 219.192 192.526 218.489 193.029C217.383 192.073 217.081 190.513 215.573 189.607C216.176 192.375 216.679 194.891 217.232 197.407C219.594 208.125 221.957 218.893 224.32 229.612C217.584 240.28 209.742 250.042 201.045 259.2C199.637 259.049 198.28 258.848 196.873 258.747C193.856 258.546 190.941 257.338 187.874 257.892C172.743 255.778 157.612 253.816 142.38 252.608C135.895 252.105 129.762 253.464 123.881 256.131C123.328 246.57 122.875 236.958 122.222 227.398C121.92 222.919 122.021 218.39 121.267 213.962C121.267 213.61 121.267 213.207 121.267 212.855C121.317 210.54 121.367 208.276 120.915 206.011C120.764 205.257 121.367 204.301 120.261 203.797C110.459 201.432 101.259 197.658 93.2163 191.368C92.9147 191.117 92.6131 190.865 92.3114 190.563C91.5574 189.758 90.9039 188.903 90.0493 188.198C88.4407 186.789 87.938 185.279 88.5412 183.116C89.7477 179.09 90.6525 175.014 91.8087 170.989C94.3725 161.78 97.9417 152.974 101.812 144.218C101.913 143.966 102.014 143.715 102.164 143.514H102.114C103.572 141.702 103.974 139.337 105.13 137.375C105.733 137.123 105.935 136.569 106.236 136.066C111.112 127.663 116.692 119.863 123.831 113.221C124.132 112.969 124.283 112.516 124.484 112.164C125.037 112.315 125.339 111.963 125.64 111.56C131.12 107.434 137.655 106.729 144.24 105.975ZM121.317 199.319C121.619 199.42 121.92 199.52 122.272 199.621C123.981 194.488 125.64 189.305 127.349 184.172C127.048 184.072 126.746 183.971 126.445 183.871C124.685 189.054 123.026 194.186 121.317 199.319ZM214.316 186.336C214.618 186.286 214.97 186.185 215.271 186.135C214.115 182.21 213.361 178.184 211.803 174.36C211.551 174.41 211.3 174.511 211.049 174.561C212.155 178.486 213.261 182.411 214.316 186.336Z" fill="#00E3A8"/>
<path d="M238.747 159.314C238.798 158.861 238.848 158.408 238.898 157.905C243.976 162.736 249.103 167.567 254.281 172.548C258.202 167.466 262.626 161.931 266.949 156.295C273.836 147.338 280.572 138.28 286.906 128.921C289.57 124.996 290.324 120.819 289.118 116.542C287.811 111.761 289.269 107.987 293.19 106.025C299.021 103.106 299.725 98.0742 300.63 92.7402C301.635 86.6514 302.841 80.5627 304.098 74.4739C304.902 70.398 307.667 68.3348 311.689 68.989C316.716 69.7941 321.743 70.8005 326.669 72.0082C330.691 72.9643 332.199 75.6816 331.445 79.7072C329.082 92.2873 326.669 104.867 324.307 117.447C323.452 121.876 319.782 124.543 315.308 123.738C310.482 122.882 305.556 122.077 300.831 120.769C298.82 120.215 299.574 122.429 298.015 122.329C298.568 119.913 298.367 117.548 297.814 115.133C297.563 114.026 299.172 112.919 300.63 112.415C299.775 114.126 298.518 115.586 299.373 117.85C299.825 119.058 300.278 119.712 301.434 119.964C306.36 120.92 311.236 122.027 316.213 122.781C319.079 123.234 321.29 121.272 321.944 118.001C323.904 107.887 325.815 97.7722 327.725 87.7082C328.278 84.8902 328.831 82.1226 329.283 79.3047C329.887 75.6816 328.228 73.3165 324.608 72.6121C320.436 71.7566 316.263 70.9515 312.041 70.1967C308.321 69.5425 305.858 71.1528 305.104 74.9268C303.445 83.4813 301.836 91.9854 300.177 100.54C300.127 100.791 300.227 101.043 300.278 101.395C301.182 100.942 301.987 100.54 302.791 100.137C304.852 99.1309 306.36 99.7347 307.064 101.949C308.019 104.817 305.003 109.95 301.333 111.006C302.288 109.95 302.942 109.195 303.646 108.49C304.752 107.383 305.556 106.125 305.958 104.666C306.31 103.458 306.36 102.15 305.254 101.144C304.098 100.087 303.244 101.244 302.339 101.697C299.021 103.358 295.854 105.169 293.039 107.534C290.525 109.648 289.168 112.063 290.073 115.636C291.38 120.869 290.626 125.7 287.409 130.38C277.154 145.325 266.044 159.515 254.884 173.756C253.627 175.316 253.175 174.159 252.471 173.454C247.897 168.623 243.322 163.944 238.747 159.314Z" fill="#262626"/>
<path d="M315.56 21.2353C315.66 21.4366 315.811 21.5875 316.062 21.5875C320.235 21.6378 321.089 22.6946 321.089 27.1731C321.089 29.8904 321.089 44.8858 321.089 49.8172C321.089 50.4714 322.095 50.572 322.145 49.8676C322.145 49.7166 322.145 49.5153 322.145 49.3644C322.145 46.3451 322.195 28.582 322.145 25.5628C322.044 22.2417 320.235 20.4805 316.917 20.4805C316.615 20.4805 316.314 20.4805 316.062 20.4805C315.66 20.4805 315.409 20.883 315.56 21.2353Z" fill="#262626"/>
<path d="M322.195 48.5592C322.145 47.8547 321.039 47.9051 321.089 48.6096C321.089 48.9618 321.089 49.314 321.089 49.6663C321.039 54.7486 320.184 55.6041 315.057 55.6041C312.644 55.6041 310.181 55.7047 307.768 55.5538C305.204 55.4028 303.243 56.057 301.836 58.422C300.931 59.9316 299.674 61.1896 298.619 62.5986C297.814 63.6553 297.111 63.7057 296.256 62.5986C295.049 60.9884 293.793 59.4284 292.636 57.8182C291.531 56.2582 290.123 55.5034 288.163 55.6041C284.996 55.7047 281.778 55.6544 278.611 55.6041C275.143 55.5538 273.936 54.3461 273.936 50.9243C273.936 42.7724 273.936 34.6708 273.936 26.5189C273.936 22.6442 274.992 21.5875 278.812 21.5875C278.812 21.5875 278.913 21.3359 278.963 21.2353C279.114 20.883 278.812 20.4805 278.46 20.4805C278.31 20.4805 278.109 20.4805 277.958 20.4805C274.69 20.4805 272.931 22.292 272.88 25.6635C272.83 34.3186 272.83 42.9233 272.88 51.5785C272.88 54.648 274.539 56.4092 277.606 56.6608C279.265 56.7614 280.974 56.9124 282.633 56.6608C288.163 55.8054 292.385 57.4659 294.949 62.6489C294.999 62.6993 295.049 62.7999 295.1 62.8502C297.01 65.2656 297.965 65.2656 299.875 62.7496C300.931 61.3406 302.087 60.0323 303.093 58.573C304.048 57.164 305.254 56.6608 306.913 56.7111C310.181 56.8118 313.448 56.7111 316.716 56.7111C318.576 56.7111 320.385 56.3086 321.24 54.5474C322.195 52.5345 322.346 50.572 322.195 48.5592Z" fill="#262626"/>
<path d="M93.1661 191.418C101.209 197.658 110.409 201.483 120.211 203.848C117.547 214.113 113.927 224.127 110.258 234.04C101.712 257.137 92.1104 279.831 82.1067 302.325C78.8894 309.52 73.5106 313.647 65.3166 313.496C61.1945 313.395 57.1226 313.496 53.0005 313.496C50.5876 313.496 49.18 312.187 49.18 310.124C49.18 308.061 50.5373 306.702 52.9 306.652C56.0167 306.552 59.0832 306.652 62.1999 306.602C63.0042 306.602 63.8588 306.904 64.6128 306.3C64.7134 305.746 64.4117 305.495 63.9593 305.444C60.4907 304.891 57.0221 304.337 53.5535 303.734C52.5984 303.532 51.9951 303.834 51.3416 304.438C49.6827 306.048 47.873 307.558 46.2141 309.218C43.5498 311.885 40.1314 312.59 36.6126 312.892C34.5515 313.043 32.591 312.489 31.1834 310.829C29.8261 309.218 30.3288 307.206 32.2894 307.004C38.1709 306.401 42.4439 303.029 46.2644 299.003C48.5265 296.588 51.0903 295.984 54.1567 296.437C56.2178 296.739 58.3291 296.689 60.3902 296.94C61.5966 297.091 62.0993 296.689 62.5015 295.481C68.182 277.567 74.3149 259.804 79.3419 241.689C84.1175 224.932 88.5915 208.175 93.1661 191.418Z" fill="#FDFDFD"/>
<path d="M101.813 144.319C97.992 153.024 94.4229 161.88 91.8088 171.089C90.7029 175.115 89.7478 179.191 88.5413 183.216C87.8878 185.33 88.4408 186.89 90.0494 188.299C90.8537 189.003 91.5575 189.859 92.3115 190.664C90.5521 197.356 88.7927 204.099 86.9327 210.742C86.6813 211.647 86.8321 213.207 85.123 212.905C83.3133 212.553 81.0008 214.113 79.8446 211.144C76.0744 201.583 73.8123 191.67 72.5053 181.505C69.0869 154.987 71.9523 128.87 78.0349 103.006C78.1857 102.452 78.3365 101.546 78.6884 101.446C82.1571 100.389 81.1014 97.571 80.7998 95.4073C80.4479 93.2435 81.0511 91.8848 82.9111 90.8784C83.7154 90.4759 84.4695 89.872 85.1732 89.2682C87.2343 87.6076 87.0332 85.3935 84.5197 84.4877C83.3133 84.0349 83.4138 83.582 83.7154 82.6762C85.8267 76.5874 87.8878 70.549 90.2002 63.957C91.8591 67.6807 92.6132 71.1528 93.4677 74.5243C98.8969 96.313 101.662 118.454 102.265 140.847C102.265 141.752 102.164 142.658 102.064 143.614H102.114C102.014 143.866 101.913 144.067 101.813 144.319Z" fill="#FDFDFD"/>
<path d="M121.217 214.012C121.971 218.44 121.87 222.969 122.172 227.448C122.825 237.009 123.278 246.57 123.831 256.181C115.838 260.81 110.207 267.402 107.744 276.41C104.075 289.744 109.755 304.438 121.518 311.835C122.172 312.238 122.875 312.64 123.881 313.244C106.94 313.244 90.552 313.244 74.1641 313.244C80.0456 309.822 82.5591 304.186 85.1229 298.4C96.5341 272.132 107.744 245.815 116.893 218.642C117.145 217.937 117.547 217.233 117.647 216.528C117.899 214.314 119.156 213.61 121.217 214.012Z" fill="#FDFDFD"/>
<path d="M79.3923 212.905C73.8123 212.905 68.534 212.855 63.3059 212.956C61.6973 212.956 61.647 211.849 61.2951 210.893C58.5303 203.143 56.7206 195.193 55.4638 187.041C53.252 172.397 53.1012 157.654 54.8606 142.96C55.5141 137.676 56.419 132.443 57.726 126.707C60.5914 131.034 62.5016 135.261 64.3616 139.438C65.7691 142.557 66.9756 145.778 68.3329 148.898C69.5394 151.716 69.9918 154.584 69.9415 157.654C69.841 175.165 71.8015 192.375 77.8339 208.98C78.3366 210.138 78.789 211.295 79.3923 212.905Z" fill="#FDFDFD"/>
<path d="M66.3723 279.58C65.6686 274.045 65.0653 269.063 64.4118 264.132C62.4513 248.532 60.4908 232.933 58.48 217.334C58.0778 214.012 57.9773 214.012 61.2448 214.012C68.7853 214.012 76.3258 214.012 83.816 214.012C85.123 214.012 86.0278 213.861 85.5251 215.824C79.8446 236.757 73.8123 257.64 66.9253 278.221C66.875 278.473 66.7745 278.724 66.3723 279.58Z" fill="#FDFDFD"/>
<path d="M340.694 306.803C340.795 301.771 341.75 297.141 342.806 292.512C343.258 290.499 344.113 290.499 345.671 290.902C352.256 292.562 357.183 298.601 357.736 305.595C357.836 306.702 357.384 306.904 356.529 306.853C356.178 306.853 355.876 306.853 355.524 306.853C350.547 306.803 345.671 306.803 340.694 306.803Z" fill="#FDFDFD"/>
<path d="M85.4748 86.3498C85.6256 87.5575 85.2737 87.9601 84.771 88.3627C84.2683 88.7652 83.7153 89.2181 83.1624 89.52C80.297 90.929 79.0905 93.0424 79.9954 96.2629C80.1965 96.9674 80.0959 97.7726 80.1462 98.5274C80.1965 99.2822 79.8948 99.8357 79.1911 100.138C78.3867 100.44 77.5322 100.289 77.1803 99.5338C75.0689 95.1056 71.8014 93.4953 67.0258 94.9043C66.4225 95.1056 65.7188 94.6527 65.4171 93.9482C65.1155 93.1934 65.1658 92.338 65.9701 91.9354C70.2933 89.8219 72.103 86.6014 70.6452 81.821C70.4441 81.0662 70.9468 80.3617 71.7511 80.0598C72.5554 79.8082 73.209 80.1101 73.7117 80.8146C73.7619 80.8649 73.8122 80.9656 73.8625 81.0159C75.7224 85.2931 78.99 86.5511 83.3635 85.4441C84.4694 85.1422 85.2737 85.6454 85.4748 86.3498Z" fill="#FDFDFD"/>
<path d="M124.484 112.265C124.283 112.617 124.132 113.019 123.831 113.321C116.642 119.913 111.062 127.763 106.236 136.167C105.935 136.67 105.733 137.223 105.13 137.475C106.337 131.638 108.85 126.254 111.313 120.869C114.33 114.227 117.899 107.937 122.373 101.697C123.428 105.371 123.881 108.843 124.484 112.265Z" fill="#FDFDFD"/>
<path d="M41.891 313.345C44.2537 312.59 46.0131 310.879 48.1244 309.018C48.0239 310.779 48.4261 312.037 49.3309 313.345C46.6666 313.345 44.3039 313.345 41.891 313.345Z" fill="#FDFDFD"/>
<path d="M270.97 262.018C271.674 258.345 273.132 254.973 274.891 251.703C274.238 255.326 272.73 258.697 270.97 262.018Z" fill="#FDFDFD"/>
<path d="M120.865 206.062C121.317 208.326 121.267 210.641 121.217 212.906C120.463 212.855 119.759 212.855 118.804 212.805C119.507 210.44 120.211 208.226 120.865 206.062Z" fill="#FDFDFD"/>
<path d="M243.925 282.599C254.733 283.203 265.591 283.857 276.399 284.461C276.5 284.713 276.651 284.964 276.751 285.216C272.076 284.612 272.579 288.134 272.026 290.6C271.473 293.217 271.473 295.934 271.775 298.601C272.026 300.362 271.624 302.476 274.891 302.325C274.69 302.627 274.439 302.929 274.238 303.23C263.832 301.016 253.376 298.752 242.97 296.538C244.528 295.431 245.886 296.337 247.293 296.437C248.299 296.538 248.65 296.437 248.55 295.33C248.248 292.009 248.248 288.638 248.902 285.316C249.103 284.209 248.751 283.857 247.645 283.807C246.388 283.757 245.081 284.008 243.925 283.404C243.875 283.102 243.875 282.851 243.925 282.599ZM255.487 284.31C253.828 284.209 252.572 284.159 251.315 284.058C250.712 284.008 250.058 284.008 249.957 284.763C249.555 287.329 249.053 289.845 249.555 292.512C250.561 291.657 250.41 290.198 251.968 289.694C252.019 290.952 251.264 291.707 250.862 292.563C249.103 296.437 249.304 296.84 253.426 297.695C254.23 297.846 255.035 297.997 256.141 298.198C255.336 294.022 255.236 289.996 255.99 285.669C254.23 287.329 254.23 287.329 252.823 287.531C253.677 286.574 254.431 285.568 255.487 284.31ZM271.423 287.027C267.703 289.745 265.089 293.066 264.737 297.796C264.687 298.651 264.284 299.859 265.34 300.211C267.049 300.765 268.909 300.966 270.719 301.318C270.769 301.318 270.97 300.714 270.97 300.463C270.166 295.984 270.568 291.506 271.423 287.027ZM263.581 299.909C262.424 295.431 263.279 291.254 263.832 286.373C261.57 289.141 259.911 291.556 258.704 294.173C256.794 298.249 256.844 298.4 261.268 299.356C261.922 299.557 262.575 299.708 263.581 299.909ZM263.782 284.813C261.771 284.662 260.213 284.511 258.654 284.36C258.001 284.31 257.196 284.209 257.046 285.115C256.543 288.436 255.889 291.808 256.895 295.632C258.755 291.556 261.017 288.285 263.782 284.813ZM263.882 294.072C265.642 290.65 268.306 287.933 271.322 285.266C269.613 285.115 268.256 285.065 266.949 284.864C265.591 284.612 265.139 285.216 264.988 286.423C264.636 288.99 264.234 291.506 263.882 294.072Z" fill="#262626"/>
<path d="M289.47 276.611C294.848 277.768 298.719 281.039 300.479 286.021C304.048 296.135 302.59 305.847 296.407 314.603C294.496 317.37 291.631 318.981 288.012 318.981C298.267 315.609 300.227 307.055 301.082 297.997C302.037 288.386 298.97 280.737 289.47 276.611Z" fill="#262626"/>
<path d="M286.403 315.358C282.985 308.665 284.392 284.36 288.514 278.221C285.197 290.499 284.292 302.828 286.403 315.358Z" fill="#262626"/>
<path d="M317.269 303.23C317.269 304.337 316.665 305.042 315.66 305.092C314.604 305.143 313.901 304.488 313.85 303.432C313.8 302.375 314.454 301.67 315.459 301.57C316.515 301.57 317.168 302.174 317.269 303.23Z" fill="#262626"/>
<path d="M321.793 303.432C321.743 304.539 320.989 305.143 320.034 305.143C319.028 305.143 318.274 304.438 318.324 303.381C318.375 302.325 319.078 301.67 320.134 301.67C321.089 301.67 321.743 302.274 321.793 303.432Z" fill="#262626"/>
<path d="M254.482 311.232C252.722 310.175 250.913 309.168 249.153 308.112C249.304 307.91 249.505 307.709 249.656 307.458C251.566 308.363 253.426 309.37 255.085 310.678C254.884 310.879 254.683 311.03 254.482 311.232Z" fill="#262626"/>
<path d="M304.752 279.026C305.506 279.328 306.26 279.58 306.36 280.838C305.405 280.687 304.852 280.184 304.299 279.58C304.45 279.429 304.601 279.228 304.752 279.026Z" fill="#262626"/>
<path d="M308.17 283.002C307.667 282.65 307.114 282.247 307.064 281.442C308.019 281.291 308.472 281.844 308.773 282.599C308.572 282.75 308.371 282.901 308.17 283.002Z" fill="#262626"/>
<path d="M301.836 317.522C302.389 317.119 302.741 316.364 303.746 316.666C303.646 317.572 302.942 317.824 302.339 318.126C302.188 317.975 301.987 317.773 301.836 317.522Z" fill="#262626"/>
<path d="M249.153 308.112C248.701 307.86 247.746 307.86 248.097 307.156C248.55 306.3 249.153 307.206 249.656 307.458C249.455 307.659 249.304 307.91 249.153 308.112Z" fill="#262626"/>
<path d="M179.178 33.8154C187.472 40.5584 197.074 44.3324 207.379 46.5465C210.244 47.1503 213.21 46.8987 216.126 46.8484C216.83 46.8484 217.735 46.4962 217.483 47.8548C215.573 59.3279 213.612 70.8009 206.776 80.6637C204.916 83.3307 202.905 85.897 200.542 88.1614C190.136 98.0745 177.67 98.2255 167.314 88.2621C157.863 79.1541 154.143 67.7817 154.897 54.799C154.998 52.7862 155.501 51.6792 158.064 51.5282C168.118 50.874 174.201 44.7853 178.222 36.0798C178.574 35.3754 178.876 34.5702 179.178 33.8154ZM206.323 61.9948C206.172 60.9884 206.273 59.6801 204.966 59.3782C203.709 59.0763 203.005 60.0827 202.503 61.0387C201.648 62.649 201.246 64.3096 202.302 65.9701C202.704 66.574 203.357 66.7753 204.061 66.423C205.821 65.5173 206.172 63.8064 206.323 61.9948ZM188.578 58.2208C188.729 57.0131 188.427 55.8558 187.271 55.5538C186.065 55.2016 185.311 56.208 184.808 57.2144C184.003 58.8246 183.501 60.4852 184.607 62.1961C185.009 62.8503 185.662 63.0516 186.316 62.649C188.025 61.6426 188.478 60.0323 188.578 58.2208ZM196.47 65.4669C196.219 65.3663 196.018 65.2153 195.767 65.1147C194.259 69.0397 194.208 73.4176 192.801 77.4432C192.248 77.2419 191.846 77.0909 191.443 77.0406C190.991 76.9903 190.539 76.5374 190.086 77.0909C192.348 78.9025 193.605 79.0031 193.957 77.3425C194.862 73.4176 195.666 69.4423 196.47 65.4669ZM179.63 81.6198C176.413 79.7579 174.251 77.1413 173.799 73.3169C172.994 77.1916 175.608 80.9153 179.63 81.6198ZM184.104 49.3644C186.366 48.7103 188.578 49.0625 190.84 49.3141C188.679 47.6032 186.115 47.6032 184.104 49.3644ZM209.591 56.7112C208.887 53.692 205.821 51.8804 203.357 53.0378C205.971 53.4404 207.781 54.6984 209.591 56.7112Z" fill="#FDFDFD"/>
<path d="M155.4 70.9014C156.255 73.0148 157.009 75.1786 158.014 77.2417C162.337 86.0478 168.571 92.841 178.223 95.9106C179.228 96.2125 179.479 96.5648 179.278 97.6215C178.122 104.364 177.016 111.158 176.011 117.901C175.86 119.008 175.357 119.41 174.302 119.712C163.443 122.631 152.233 118.253 146.15 108.742C145.547 107.786 145.095 106.931 145.447 105.723C148.664 94.1494 151.831 82.5757 155.048 70.9517C155.048 70.9517 155.149 70.9517 155.4 70.9014Z" fill="#FDFDFD"/>
<path d="M153.791 59.3277C153.641 61.0386 153.892 63.3534 154.344 65.6681C154.596 66.9764 154.043 67.5299 152.786 67.4796C151.781 67.4796 150.826 67.3287 149.87 66.8758C145.799 65.0139 142.481 59.4787 142.883 55.0002C143.134 52.5345 144.039 50.3707 146.553 49.5153C149.267 48.6095 151.63 49.6159 153.791 51.3268C154.344 51.7797 154.395 52.2829 154.194 52.8867C153.641 54.7989 153.892 56.7614 153.791 59.3277Z" fill="#FDFDFD"/>
<path d="M121.317 199.319C123.026 194.186 124.685 189.003 126.394 183.871C126.696 183.971 126.998 184.072 127.299 184.173C125.59 189.305 123.931 194.488 122.222 199.621C121.92 199.52 121.619 199.42 121.317 199.319Z" fill="#262626"/>
<path d="M214.316 186.336C213.21 182.411 212.155 178.486 211.049 174.611C211.3 174.561 211.551 174.46 211.803 174.41C213.311 178.235 214.115 182.26 215.271 186.185C214.97 186.185 214.668 186.286 214.316 186.336Z" fill="#262626"/>
<path d="M101.812 144.319C101.913 144.067 102.014 143.816 102.164 143.614C102.014 143.866 101.913 144.067 101.812 144.319Z" fill="#262626"/>
<path d="M255.487 284.31C254.431 285.618 253.677 286.575 252.823 287.581C254.23 287.38 254.23 287.38 255.99 285.719C255.236 290.047 255.336 294.072 256.141 298.249C255.035 298.048 254.23 297.947 253.426 297.746C249.304 296.89 249.103 296.538 250.862 292.613C251.264 291.758 252.019 291.003 251.968 289.745C250.46 290.198 250.561 291.707 249.555 292.563C249.053 289.896 249.555 287.329 249.957 284.813C250.058 284.059 250.712 284.059 251.315 284.109C252.571 284.159 253.778 284.21 255.487 284.31Z" fill="#FDFDFD"/>
<path d="M271.423 287.027C270.568 291.556 270.166 295.984 270.97 300.463C271.021 300.765 270.769 301.318 270.719 301.318C268.909 301.016 267.1 300.765 265.34 300.211C264.234 299.859 264.636 298.651 264.737 297.796C265.089 293.066 267.703 289.745 271.423 287.027Z" fill="#FDFDFD"/>
<path d="M263.581 299.909C262.525 299.658 261.922 299.557 261.268 299.406C256.844 298.45 256.744 298.299 258.704 294.223C259.961 291.556 261.62 289.191 263.832 286.423C263.329 291.254 262.424 295.431 263.581 299.909Z" fill="#FDFDFD"/>
<path d="M263.782 284.813C261.017 288.286 258.704 291.556 256.945 295.632C255.94 291.808 256.593 288.436 257.096 285.115C257.247 284.21 258.001 284.31 258.704 284.361C260.263 284.512 261.821 284.662 263.782 284.813Z" fill="#FDFDFD"/>
<path d="M263.882 294.072C264.234 291.506 264.636 288.939 264.988 286.423C265.139 285.216 265.591 284.612 266.949 284.863C268.256 285.065 269.613 285.115 271.322 285.266C268.306 287.983 265.642 290.65 263.882 294.072Z" fill="#FDFDFD"/>
<path d="M206.323 61.9946C206.122 63.8061 205.77 65.517 204.011 66.4731C203.357 66.8253 202.654 66.6743 202.251 66.0202C201.196 64.3596 201.598 62.699 202.453 61.0888C202.955 60.0824 203.659 59.1263 204.916 59.4282C206.323 59.7301 206.223 60.9881 206.323 61.9946Z" fill="#262626"/>
<path d="M188.578 58.2207C188.478 60.0322 188.025 61.6425 186.316 62.5986C185.612 63.0012 185.009 62.7496 184.607 62.1457C183.551 60.4348 184.004 58.7742 184.808 57.164C185.311 56.1576 186.065 55.2015 187.271 55.5034C188.427 55.8557 188.729 57.013 188.578 58.2207Z" fill="#262626"/>
<path d="M196.47 65.467C195.666 69.4423 194.862 73.4176 194.007 77.3929C193.655 79.0534 192.399 78.9528 190.136 77.1413C190.539 76.5878 191.041 76.9903 191.494 77.091C191.896 77.1413 192.298 77.3426 192.851 77.4935C194.259 73.4679 194.309 69.09 195.817 65.165C196.018 65.2154 196.269 65.316 196.47 65.467Z" fill="#262626"/>
<path d="M183.199 84.0351C179.178 83.3306 172.994 77.1916 173.849 73.3169C174.301 77.1916 179.982 82.1733 183.199 84.0351Z" fill="#262626"/>
<path d="M184.104 49.364C186.115 47.5525 188.628 47.5525 190.84 49.3137C188.628 49.0621 186.366 48.7099 184.104 49.364Z" fill="#262626"/>
<path d="M209.591 56.7112C207.781 54.6983 205.971 53.4403 203.357 53.0378C205.77 51.8804 208.887 53.6919 209.591 56.7112Z" fill="#262626"/>
<path d="M298.518 34.6707C298.066 34.3184 297.462 34.0165 297.261 33.463C296.909 32.5069 295.904 32.0037 295.351 31.1483C294.899 30.4438 294.899 29.538 295.049 28.6826C295.401 26.5691 296.658 24.5563 298.669 23.8015C299.624 23.4492 300.629 23.3989 301.635 23.3989C302.489 23.3989 303.394 23.4492 304.199 23.8518C304.953 24.2544 305.606 25.0595 305.506 25.9149C305.455 26.2672 305.355 26.6194 305.304 26.9717C305.304 27.9278 306.209 28.5819 307.064 29.0851C307.868 29.538 308.673 29.9909 309.477 30.4941C309.879 30.7457 309.929 31.2992 309.98 31.7521C309.98 33.0604 310.03 34.3688 310.03 35.6771C310.03 35.9287 310.03 36.1803 309.98 36.4319C309.929 36.6835 309.778 36.9351 309.628 37.1867C308.12 39.5518 306.511 42.0678 303.997 43.2755C303.444 43.5271 302.841 43.7284 302.288 43.9296C301.735 44.1309 301.182 44.2819 300.68 44.4832C300.277 44.6341 299.875 44.7348 299.423 44.7348C299.021 44.7348 298.568 44.4832 298.417 44.0806C298.317 43.829 298.367 43.5774 298.367 43.3258C298.468 42.5207 298.769 41.7155 299.222 40.9607C299.825 39.9543 300.177 38.797 300.127 37.6396C299.976 36.5325 299.473 35.3752 298.518 34.6707ZM296.658 31.9031C297.764 32.9598 298.769 34.1172 299.624 35.4255C299.926 35.8784 300.177 36.3313 300.328 36.8345C300.629 37.8409 300.428 38.8976 300.127 39.8537C299.775 40.8098 299.272 41.7155 298.87 42.6716C298.669 43.1748 298.518 43.8793 298.97 44.2316C299.322 44.5335 299.875 44.3825 300.328 44.2316C300.981 43.98 301.635 43.7284 302.288 43.5271C302.841 43.3258 303.394 43.1245 303.897 42.8729C306.26 41.6652 307.768 39.3002 309.175 37.0357C309.326 36.8345 309.427 36.6332 309.477 36.3816C309.527 36.13 309.527 35.8784 309.527 35.6268C309.527 34.5197 309.477 33.4127 309.477 32.3056C309.477 31.9031 309.477 31.5005 309.276 31.1483C308.974 30.5444 308.22 30.2928 307.617 29.9909C306.662 29.538 305.807 28.8838 305.154 28.0787C305.003 27.8774 304.802 27.6258 304.751 27.3742C304.651 26.9214 304.953 26.4685 304.953 25.9653C305.003 25.2105 304.45 24.4557 303.746 24.1537C303.042 23.8015 302.238 23.8015 301.434 23.8015C300.68 23.8015 299.926 23.8015 299.222 24.0028C297.11 24.5563 295.653 26.6698 295.301 28.8838C295.2 29.4877 295.2 30.1419 295.502 30.7457C295.904 31.1483 296.306 31.5508 296.658 31.9031Z" fill="#262626" stroke="#262626" stroke-width="0.6" stroke-miterlimit="10"/>
<path d="M299.624 47.9048C299.775 47.8545 299.976 47.8545 300.177 47.8545C304.148 47.2003 307.919 45.2378 310.683 42.2689C314.253 38.3942 316.012 32.9093 315.358 27.676C314.655 22.4427 311.588 17.5616 307.114 14.7437C306.662 14.4921 306.26 14.2405 305.807 13.9889C305.204 13.6869 304.601 13.385 303.947 13.1837C303.394 12.9825 302.741 12.7812 302.137 12.5799C302.037 12.5799 301.987 12.5296 301.936 12.5296C301.786 12.5296 301.635 12.4793 301.484 12.4289C296.055 11.1709 290.073 12.5799 285.8 16.1526C281.477 19.7757 279.013 25.5122 279.365 31.1481C279.717 36.784 282.884 42.1683 287.609 45.1875C288.213 45.5397 288.816 45.892 289.419 46.2442C289.469 46.2442 289.52 46.2945 289.57 46.2945C289.671 46.2945 289.721 46.3449 289.821 46.3952C290.575 46.7977 291.43 47.0997 292.234 47.3513C292.385 47.4016 292.586 47.4519 292.737 47.5022C292.787 47.5022 292.838 47.5525 292.938 47.5525C293.089 47.6029 293.24 47.6029 293.391 47.6532C293.441 47.6532 293.541 47.7035 293.592 47.7035C293.642 47.7035 293.642 47.7035 293.692 47.7035C295.2 48.0054 296.859 48.1061 298.468 48.1061C298.769 48.0054 299.222 47.9551 299.624 47.9048ZM299.624 12.4289C303.545 12.9825 307.265 14.8443 310.03 17.6622C309.527 17.8132 309.024 17.4106 308.572 17.159C308.12 16.9074 307.466 16.7565 307.164 17.159C307.014 17.3603 307.014 17.6623 306.813 17.8132C306.662 17.9642 306.41 17.9642 306.159 17.9139C305.506 17.8635 304.902 17.8132 304.299 17.5616C303.696 17.31 303.193 16.8068 303.093 16.203C302.992 15.7501 303.093 15.2469 302.841 14.945C302.69 14.7437 302.439 14.6933 302.188 14.5927C300.378 14.0392 298.518 13.4857 296.708 12.9321C297.462 12.278 298.619 12.278 299.624 12.4289ZM280.471 24.8581C281.577 21.235 283.89 17.9642 286.956 15.6998C287.509 15.2972 288.062 14.945 288.715 14.794C289.369 14.643 290.123 14.7437 290.575 15.2469C291.38 16.052 292.636 16.3036 293.491 17.0081C293.994 17.461 294.396 18.0145 294.748 18.6183C295.15 19.3228 295.602 20.0273 295.653 20.8324C295.703 21.6879 295.301 22.5433 294.899 23.2981C294.245 24.6065 292.737 25.2606 291.329 25.7135C290.274 26.0657 289.218 26.3174 288.162 26.3174C287.057 26.3174 285.951 25.9148 285.247 25.1097C284.794 24.6065 283.99 24.7574 283.337 24.9084C282.381 25.16 281.477 25.4116 280.521 25.6632C280.32 25.4619 280.421 25.16 280.471 24.8581ZM285.448 42.9734C281.275 39.149 279.164 33.2112 279.969 27.5754C280.622 28.6824 282.532 28.6321 283.186 27.4747C283.387 27.1225 283.839 27.1225 284.191 27.2734C284.543 27.4244 284.845 27.7263 285.197 27.827C285.649 27.9779 286.101 27.8773 286.554 27.9779C287.66 28.3302 287.811 29.8398 287.509 30.9971C287.006 32.859 285.8 34.5699 284.241 35.7273C283.487 36.2808 283.638 37.3878 283.94 38.2936C284.442 39.9038 285.046 41.4135 285.75 42.9231C285.951 41.6147 285.146 40.4071 284.644 39.1994C284.141 37.9917 283.94 36.3814 284.995 35.5763C286.604 34.3686 287.71 32.5571 288.062 30.5946C288.263 29.5379 288.062 28.2295 287.107 27.7263C286.504 27.4244 285.85 27.5754 285.247 27.3238C284.845 27.1728 284.543 26.8709 284.191 26.7702C283.789 26.6193 283.286 26.6696 283.135 27.0722C282.834 27.676 282.13 28.0282 281.477 27.8773C280.823 27.7263 280.32 27.0722 280.32 26.3677C280.32 26.1664 280.572 26.0154 280.823 25.9651C281.728 25.7135 282.683 25.4619 283.588 25.2606C284.141 25.1097 284.794 25.009 285.197 25.4116C286.504 26.8709 288.766 26.7702 290.676 26.3174C291.933 26.0154 293.24 25.5122 294.245 24.7071C295.301 23.902 296.105 22.6943 296.206 21.386C296.356 19.8763 295.552 18.4171 294.496 17.31C293.139 15.901 291.38 14.9953 289.671 14.0895C291.832 12.9825 294.245 12.3283 296.658 12.278C296.356 12.3786 296.306 12.8315 296.507 13.0831C296.708 13.3347 297.06 13.4353 297.362 13.536C298.82 13.9385 300.278 14.3411 301.735 14.7437C302.288 14.8946 302.992 15.2469 302.841 15.8507C302.69 16.5552 303.143 17.2597 303.796 17.6622C304.4 18.0145 305.154 18.1151 305.857 18.2158C306.26 18.2661 306.662 18.3164 307.064 18.1655C307.466 18.0145 307.768 17.6119 307.667 17.2094C308.622 17.5113 309.527 17.8132 310.482 18.1655C310.884 18.3164 311.186 18.6687 311.488 19.0209C315.157 23.751 316.163 30.4436 314.051 36.0795C313.096 35.6266 313.247 34.268 313.348 33.2112C313.549 31.8526 313.448 30.4436 313.147 29.085C312.996 28.4308 312.342 27.9779 311.689 27.7263C311.035 27.4747 310.331 27.3741 309.779 26.9715C309.226 26.569 308.773 25.8141 309.075 25.2103C309.326 24.7071 309.226 24.0529 308.823 23.6001C309.678 22.8452 310.834 22.4427 311.99 22.4427C312.292 22.4427 312.594 22.493 312.845 22.2917C313.096 22.1408 313.096 21.6879 312.845 21.5872C312.744 21.5872 312.644 21.5872 312.543 21.6376C311.689 21.8892 310.784 22.1911 309.929 22.4427C309.175 22.6943 308.22 23.2478 308.572 24.0026C308.723 24.3549 309.125 24.7574 308.823 25.009C308.22 25.5122 308.723 26.5186 309.376 27.0218C310.181 27.676 311.186 28.1289 312.191 28.3805C312.543 28.4308 312.694 28.8334 312.744 29.1856C313.046 30.4436 313.096 31.7519 312.996 33.0603C312.945 33.7144 312.795 34.3686 312.895 34.9725C312.996 35.6266 313.297 36.2808 313.901 36.5324C311.789 41.7657 306.963 45.892 301.434 47.0997C295.703 48.408 289.62 46.7977 285.448 42.9734Z" fill="#262626" stroke="#262626" stroke-width="0.6" stroke-miterlimit="10"/>
<path d="M325.075 153.147C326.436 153.17 327.198 152.248 327.887 151.24C329.259 149.303 330.6 147.349 331.99 145.382C332.529 145.455 332.861 145.111 333.193 144.766C333.592 144.379 334.016 144.09 334.556 143.954C336.598 143.466 338.293 144.945 338.134 147.15C337.981 149.692 337.699 152.242 337.466 154.778C337.296 156.725 337.93 158.235 339.607 159.327C341.437 160.51 343.23 161.755 345.054 163.018C345.587 163.379 346.131 163.79 346.559 164.256C347.391 165.091 347.499 166.159 347.11 167.222C346.752 168.304 345.923 168.851 344.868 169.012C344.286 169.08 343.679 169.05 343.091 168.989C340.75 168.796 338.378 168.583 336.018 168.42C334.345 168.293 333.001 168.866 332.054 170.304C331.106 171.743 330.097 173.144 329.119 174.564C328.504 175.449 327.889 176.334 327.262 177.17C326.426 178.215 325.26 178.56 324.103 178.199C322.884 177.802 322.151 176.734 322.099 175.364C322.1 174.947 322.15 174.517 322.181 174.117C322.37 171.931 322.559 169.744 322.748 167.558C322.962 165.469 322.255 163.873 320.455 162.708C318.545 161.519 316.709 160.207 314.855 158.926C314.384 158.601 313.9 158.227 313.503 157.779C312.177 156.104 313.096 153.603 315.212 153.201C315.733 153.096 316.291 153.139 316.8 153.193C318.981 153.375 321.163 153.557 323.345 153.738C324.062 153.793 324.755 153.958 325.075 153.147Z" fill="#00E3A8"/>
<path d="M325.075 153.147C324.755 153.958 324.062 153.793 323.425 153.744C321.243 153.563 319.061 153.381 316.879 153.199C316.352 153.175 315.794 153.133 315.292 153.207C313.206 153.627 312.257 156.11 313.583 157.785C313.931 158.245 314.433 158.588 314.935 158.932C316.789 160.213 318.625 161.525 320.535 162.714C322.353 163.849 323.011 165.457 322.828 167.564C322.639 169.75 322.45 171.937 322.261 174.124C322.229 174.523 322.179 174.953 322.178 175.37C322.181 176.752 322.963 177.808 324.182 178.205C325.34 178.566 326.536 178.24 327.342 177.176C328.018 176.328 328.584 175.455 329.199 174.57C330.177 173.15 331.155 171.73 332.133 170.31C333.081 168.872 334.425 168.299 336.098 168.426C338.457 168.59 340.811 168.833 343.17 168.996C343.759 169.056 344.366 169.086 344.948 169.018C346.003 168.857 346.832 168.31 347.19 167.228C347.548 166.147 347.471 165.097 346.639 164.263C346.162 163.809 345.648 163.416 345.134 163.024C343.341 161.779 341.548 160.534 339.687 159.333C338.01 158.242 337.358 156.762 337.546 154.784C337.779 152.248 338.061 149.699 338.214 147.156C338.36 144.902 336.678 143.473 334.635 143.96C334.096 144.096 333.641 144.367 333.273 144.772C332.941 145.117 332.578 145.443 332.07 145.388C331.501 144.67 331.975 144.16 332.46 143.699C333.627 142.518 335.804 142.153 337.384 143.06C338.81 143.875 339.739 145.311 339.624 146.958C339.415 149.801 339.335 152.639 339.046 155.477C338.939 156.625 339.312 157.392 340.193 158.006C342.365 159.52 344.532 161.114 346.76 162.537C348.222 163.499 348.685 164.948 348.853 166.471C349.038 168.381 346.348 170.779 344.442 170.554C341.629 170.244 338.791 170.254 335.959 169.974C334.623 169.841 333.536 170.61 332.755 171.771C331.266 173.972 329.729 176.185 328.209 178.367C327.379 179.541 325.281 180.12 323.928 179.6C321.294 178.645 320.671 177.602 320.85 174.739C321.014 172.454 321.069 170.145 321.362 167.854C321.631 165.882 320.886 164.557 319.319 163.49C317.312 162.116 315.304 160.743 313.316 159.339C312.238 158.566 311.413 157.652 311.533 156.135C311.766 153.389 313.751 151.612 316.509 151.806C319.028 151.981 321.491 152.248 324.023 152.472C324.402 152.533 324.807 152.693 325.075 153.147Z" fill="#262626"/>
</g>
<defs>
<clipPath id="clip0">
<rect width="382" height="322" fill="white" transform="translate(-3)"/>
</clipPath>
</defs>
</svg>
