<svg width="382" height="382" viewBox="0 0 382 382" fill="none" xmlns="http://www.w3.org/2000/svg">
<rect width="382" height="382" fill="white"/>
<g clip-path="url(#clip0)">
<path d="M0.100563 343.395C11.7129 343.395 23.3755 343.395 35.1386 343.395C34.9375 342.439 34.0327 342.238 33.53 341.685C31.5192 339.319 32.1727 336.3 35.1889 335.948C41.0202 335.243 45.0417 331.771 48.9125 327.947C51.1244 325.733 53.5373 324.928 56.6038 325.28C59.1675 325.582 62.3345 326.84 64.1442 325.381C65.8031 324.072 65.6523 320.751 66.7583 318.487C69.6739 312.599 67.9145 306.662 67.2107 300.774C65.1999 283.816 62.988 266.858 60.8767 249.9C60.7259 248.743 60.5248 247.585 60.4243 246.428C60.0724 242.956 60.0724 242.956 63.7421 242.755C53.9395 213.619 53.286 184.131 60.374 153.738C65.8031 162.041 69.2215 170.545 73.0923 178.948C73.4944 174.47 73.9468 169.991 74.349 165.513C75.3041 154.996 77.3149 144.63 79.7279 134.365C80.2306 132.201 79.7781 130.842 78.7225 128.98C77.0133 125.961 74.7512 125.005 71.5339 125.71C69.9253 126.062 68.2161 126.162 67.5123 124.2C66.8085 122.288 67.9145 121.08 69.4728 120.376C72.8912 118.816 73.6955 116.249 72.7906 112.828C72.3885 111.167 72.7404 109.758 74.4495 109.104C76.1084 108.5 77.1138 109.506 77.9684 110.764C78.4209 111.469 79.0241 112.073 79.376 112.828C80.3311 114.84 81.8895 114.79 83.7997 114.639C85.8105 114.488 85.6094 112.878 85.9613 111.771C88.1732 104.877 90.6364 98.0836 93.5521 90.6362C101.746 115.998 105.114 141.409 106.572 167.274C111.247 153.788 117.129 140.957 125.926 129.182C127.333 133.509 127.635 137.686 128.64 141.661C128.339 142.064 128.087 142.466 127.484 142.265C126.881 138.843 126.428 135.371 125.373 131.647C120.899 137.887 117.33 144.177 114.313 150.819C111.901 156.204 109.387 161.588 108.13 167.425C106.924 169.388 106.572 171.753 105.114 173.564C105.164 172.658 105.315 171.753 105.315 170.797C104.712 148.354 101.947 126.213 96.518 104.474C95.6634 101.103 94.9093 97.6308 93.2504 93.9071C90.9883 100.499 88.877 106.588 86.7656 112.626C86.464 113.532 86.3635 113.985 87.5699 114.438C90.0332 115.344 90.2845 117.558 88.2235 119.218C87.5197 119.772 86.7656 120.376 85.9613 120.828C84.1013 121.835 83.4981 123.143 83.85 125.357C84.2019 127.571 85.2575 130.339 81.7387 131.396C81.3868 131.496 81.236 132.402 81.0852 132.956C74.9522 158.82 72.0869 184.937 75.5555 211.455C76.8625 221.62 79.1246 231.533 82.8949 241.094C84.1013 244.063 86.3635 242.503 88.1732 242.855C89.8321 243.157 89.7316 241.597 89.9829 240.692C91.7926 233.999 93.5521 227.306 95.3618 220.614C95.6634 220.865 95.965 221.117 96.2666 221.419C91.6921 238.176 87.2181 254.932 82.543 271.689C77.516 289.804 71.3831 307.567 65.7026 325.481C65.3004 326.689 64.848 327.092 63.5913 326.941C61.5302 326.689 59.4189 326.739 57.3578 326.437C54.2411 325.985 51.7276 326.639 49.4655 329.004C45.645 333.029 41.372 336.401 35.4905 337.005C33.4797 337.206 33.0273 339.219 34.3845 340.829C35.7921 342.49 37.7526 343.093 39.8137 342.892C43.3326 342.59 46.7509 341.936 49.4152 339.219C51.0741 337.558 52.8838 336.049 54.5427 334.438C55.1962 333.784 55.7995 333.533 56.7546 333.734C60.2232 334.388 63.6918 334.891 67.1604 335.445C67.6129 335.495 67.9145 335.747 67.8139 336.3C67.1102 336.904 66.2053 336.602 65.401 336.602C62.2843 336.652 59.2178 336.552 56.1011 336.652C53.6881 336.703 52.3308 338.112 52.3811 340.125C52.3811 342.188 53.7887 343.446 56.2016 343.496C60.3237 343.546 64.3956 343.446 68.5177 343.496C76.7117 343.647 82.1408 339.521 85.3078 332.325C95.3115 309.832 104.913 287.137 113.459 264.04C117.129 254.077 120.748 244.113 123.412 233.848C124.518 234.351 123.915 235.307 124.066 236.062C123.412 238.276 122.709 240.44 122.005 242.805C122.91 242.855 123.664 242.855 124.418 242.906C124.418 243.258 124.418 243.66 124.418 244.013C122.357 243.61 121.1 244.315 120.798 246.529C120.698 247.233 120.296 247.938 120.044 248.642C110.845 275.765 99.685 302.133 88.2737 328.4C85.7602 334.187 83.2468 339.873 77.3149 343.244C93.7029 343.244 110.091 343.244 127.032 343.244C125.976 342.641 125.323 342.238 124.669 341.835C112.956 334.438 107.225 319.745 110.895 306.41C113.409 297.403 118.989 290.811 126.981 286.181C132.863 283.464 138.996 282.105 145.481 282.659C160.712 283.866 175.894 285.829 190.975 287.942C191.679 289.1 192.935 288.747 193.941 288.898C210.278 291.364 226.616 293.729 243.004 296.145C244.864 296.396 247.126 296.245 246.774 299.214C246.774 299.264 247.026 299.315 247.428 299.415C247.176 298.057 248.936 296.145 246.221 295.692C240.541 294.736 234.81 293.981 229.13 293.125C220.785 291.867 212.49 290.559 204.146 289.251C212.842 280.143 220.684 270.33 227.42 259.662C236.067 252.517 244.663 245.321 253.611 237.874C248.081 237.068 243.507 235.358 239.234 232.741C233.805 229.42 229.029 225.193 223.801 221.57C224.103 221.318 224.354 221.067 224.656 220.765C231.04 225.294 236.821 230.778 244.06 234.049C257.18 239.937 269.949 236.062 277.439 223.734C289.654 203.756 301.166 183.377 312.779 163.047C313.382 161.99 314.086 161.236 315.242 160.783C318.308 159.525 320.671 157.361 322.38 154.493C323.335 155.348 322.732 155.801 322.481 156.254C321.274 158.216 319.665 159.927 317.554 160.783C314.94 161.84 313.633 163.852 312.276 166.117C302.674 182.773 293.022 199.429 283.421 216.035C283.32 216.236 283.22 216.487 283.019 216.94C286.89 216.437 290.509 216.437 294.128 217.494C303.428 220.261 309.36 226.451 311.622 235.81C316.951 257.901 322.078 280.042 327.306 302.183C328.01 305.152 328.01 305.152 324.843 305.554C322.531 305.856 320.218 306.259 317.655 306.611C318.962 309.63 321.224 311.492 323.838 313.002C330.373 316.675 337.411 318.487 344.851 319.141C357.116 320.248 364.607 331.117 361.339 343.295C368.276 343.295 375.163 343.295 382.101 343.295C382.101 343.647 382.101 343.949 382.101 344.301C374.661 344.351 367.221 344.452 359.781 344.452C342.739 344.502 325.698 344.452 308.656 344.452C314.739 334.388 319.012 324.123 311.27 312.901C311.472 312.75 311.673 312.65 311.874 312.499C313.181 313.505 313.884 314.914 314.538 316.373C317.253 322.361 316.7 328.45 314.739 334.489C314.186 336.2 314.236 336.854 316.247 336.753C318.911 336.602 321.626 336.652 324.29 336.753C326.452 336.803 328.714 336.501 331.026 337.005C330.323 338.112 329.418 337.759 328.664 337.759C324.139 337.81 319.615 337.76 315.091 337.81C314.387 337.81 313.633 337.508 313.181 338.514C312.577 339.923 311.773 341.332 310.969 342.892C311.572 342.993 311.974 343.043 312.326 343.043C327.558 343.043 342.79 343.043 358.021 343.043C358.373 343.043 358.675 343.043 359.027 342.993C361.339 342.59 360.736 340.728 360.887 339.219C361.088 337.307 359.73 337.81 358.725 337.81C350.782 337.81 342.84 337.81 334.847 337.759C334.043 337.759 333.037 338.061 331.931 336.753C335.551 336.753 338.667 336.803 341.784 336.703C342.287 336.703 343.343 337.206 343.192 335.998C342.337 330.513 344.298 325.481 345.504 320.298C341.684 319.695 337.763 319.544 333.992 318.286C327.407 316.071 320.621 314.159 316.8 307.567C316.398 306.913 315.895 306.963 315.292 307.064C312.879 307.416 310.516 307.769 308.103 308.121C307.249 308.221 307.45 308.574 307.802 309.027C307.651 309.228 307.5 309.429 307.349 309.58C305.69 308.775 304.182 307.769 302.423 307.215C295.385 305.001 288.197 303.693 280.757 303.592C270.049 303.491 259.342 303.038 248.634 302.737C247.629 302.686 246.523 302.233 246.372 304.095C245.568 313.354 244.713 322.613 243.808 331.872C243.708 333.08 244.009 333.633 245.216 333.985C247.277 334.64 249.388 335.294 251.047 336.904C249.388 337.005 248.132 336.049 246.724 335.495C243.557 334.287 243.607 334.287 243.306 337.508C243.255 338.263 243.054 339.018 243.054 339.772C243.054 340.93 242.652 341.332 241.446 341.383C230.889 341.936 220.332 342.54 210.379 343.144C215.054 343.546 257.582 343.597 260.548 343.144C259.493 342.439 258.537 341.835 257.582 341.181C257.783 341.03 257.984 340.829 258.186 340.678C258.839 341.03 259.543 341.332 260.196 341.685C267.335 345.76 274.825 349.031 283.019 350.239C290.559 351.346 297.999 351.497 304.936 347.522C305.087 347.723 305.288 347.924 305.439 348.176C304.484 348.981 303.328 349.434 302.172 349.987C299.96 351.094 297.396 351.044 295.134 351.95C291.766 351.95 288.448 351.95 285.08 351.95C284.929 351.396 284.477 351.447 284.074 351.396C277.439 350.541 271.205 348.478 265.274 345.509C263.967 344.855 262.66 344.553 261.202 344.553C254.264 344.603 247.327 344.553 240.34 344.603C211.234 344.653 182.077 344.05 152.971 346.364C147.492 346.817 141.962 347.371 136.432 346.465C133.567 346.012 130.902 344.603 127.886 344.603C86.3635 344.653 44.8407 344.653 3.31783 344.603C2.21189 344.603 1.15623 344.502 0.050293 344.452C0.100563 344.05 0.100563 343.748 0.100563 343.395ZM82.3922 242.906C81.7889 241.295 81.3365 240.138 80.8841 238.981C74.8517 222.375 72.8912 205.165 72.9917 187.654C72.9917 184.584 72.5896 181.716 71.3831 178.898C70.0258 175.778 68.8193 172.558 67.4118 169.438C65.5518 165.211 63.6415 161.034 60.7762 156.707C59.4692 162.443 58.5643 167.677 57.9108 172.96C56.1513 187.704 56.2519 202.398 58.514 217.041C59.7708 225.143 61.5805 233.143 64.3453 240.893C64.6972 241.849 64.7475 243.006 66.3561 242.956C71.5339 242.855 76.8122 242.906 82.3922 242.906ZM69.3723 309.58C69.7242 308.725 69.875 308.473 69.9755 308.171C76.8625 287.59 82.8949 266.757 88.5753 245.774C89.1283 243.811 88.1732 243.962 86.8662 243.962C79.3257 243.962 71.7852 243.962 64.2951 243.962C61.0275 243.962 61.1281 243.962 61.5302 247.283C63.541 262.883 65.4513 278.482 67.462 294.081C68.0653 299.063 68.7188 304.045 69.3723 309.58ZM343.694 336.803C348.621 336.803 353.547 336.803 358.474 336.803C358.826 336.803 359.127 336.803 359.479 336.803C360.384 336.854 360.786 336.703 360.686 335.545C360.133 328.551 355.256 322.563 348.621 320.852C347.062 320.449 346.208 320.5 345.755 322.462C344.75 327.142 343.845 331.771 343.694 336.803ZM88.4748 116.35C88.324 115.645 87.4694 115.092 86.3635 115.394C81.9397 116.501 78.7225 115.243 76.8625 110.966C76.8122 110.915 76.762 110.815 76.7117 110.764C76.209 110.06 75.5555 109.758 74.7512 110.01C73.9468 110.261 73.3939 111.016 73.6452 111.771C75.103 116.602 73.2933 119.772 68.9701 121.885C68.2161 122.237 68.1658 123.093 68.4172 123.898C68.6685 124.602 69.3723 125.005 70.0258 124.854C74.7512 123.495 78.069 125.055 80.1803 129.484C80.5322 130.238 81.3868 130.389 82.1911 130.087C82.8949 129.836 83.1965 129.232 83.1462 128.477C83.0959 127.722 83.1965 126.917 82.9954 126.213C82.1408 123.043 83.297 120.879 86.1624 119.47C86.7656 119.168 87.2683 118.715 87.771 118.312C88.2235 118.011 88.5753 117.558 88.4748 116.35ZM262.056 301.78C262.107 302.032 262.157 302.233 262.257 302.485C265.223 302.485 268.239 302.485 271.205 302.485C272.06 302.485 272.915 302.586 272.915 301.277C272.915 298.761 272.915 296.245 272.915 293.528C269.245 296.296 265.676 299.063 262.056 301.78ZM44.8909 343.345C47.3039 343.345 49.6666 343.345 52.3308 343.345C51.426 342.037 51.0238 340.779 51.1244 339.018C48.9628 340.879 47.2536 342.54 44.8909 343.345ZM273.97 292.018C275.73 288.747 277.238 285.376 277.891 281.703C276.132 284.923 274.674 288.295 273.97 292.018Z" fill="#262626"/>
<path d="M147.24 135.975C150.156 125.508 153.021 115.092 155.937 104.625C156.037 104.323 156.138 103.971 156.188 103.669C156.59 102.159 157.596 100.398 157.244 99.1402C156.791 97.6809 154.73 98.7879 153.373 98.3351C147.693 96.4732 143.47 88.5226 145.28 82.8364C145.581 81.9306 145.833 80.9745 146.587 80.4713C148.597 79.1127 148.246 77.3515 148.044 75.238C146.989 63.614 148.044 52.3422 154.328 42.1272C157.797 36.441 162.673 32.4154 169.208 30.5535C169.56 30.4529 169.862 30.4026 169.912 30C172.274 30 174.587 30 176.95 30C184.138 31.5599 190.221 35.183 195.348 40.3157C196.303 41.2718 196.957 40.7182 197.711 40.366C204.95 37.1455 212.44 34.8811 220.483 35.4346C230.437 36.0888 238.078 43.1839 239.184 52.8454C240.44 63.8153 234.81 72.9736 224.806 75.6909C222.243 76.3954 221.489 77.5024 221.137 79.9178C219.528 91.3405 217.015 102.461 210.128 112.073C205.402 118.664 199.873 124.2 191.679 126.263C189.467 126.816 187.205 127.018 184.942 126.665C183.686 126.464 183.334 126.917 183.183 128.024C182.781 131.194 182.328 134.314 181.876 137.434C181.222 141.107 180.519 144.831 179.966 148.555C179.815 149.712 179.363 150.316 178.257 150.668C166.544 154.04 153.976 149.159 147.843 138.793C147.341 137.887 146.888 137.031 147.24 135.975ZM182.178 63.8153C181.876 64.5701 181.574 65.3752 181.222 66.13C177.201 74.8354 171.068 80.9242 161.064 81.5784C158.501 81.7293 158.048 82.8867 157.897 84.8492C157.143 97.8318 160.813 109.204 170.314 118.312C180.67 128.326 193.187 128.175 203.542 118.212C205.905 115.947 207.916 113.381 209.776 110.714C216.612 100.851 218.573 89.378 220.483 77.905C220.735 76.5463 219.83 76.8986 219.126 76.8986C216.21 76.9489 213.244 77.2005 210.379 76.5967C200.124 74.3322 190.472 70.5582 182.178 63.8153ZM158.4 100.901C158.199 100.952 158.098 100.952 158.048 101.002C154.831 112.576 151.664 124.2 148.447 135.773C148.095 136.981 148.547 137.837 149.15 138.793C155.233 148.303 166.443 152.681 177.301 149.762C178.357 149.461 178.81 149.058 179.011 147.951C180.066 141.158 181.122 134.415 182.278 127.672C182.479 126.615 182.228 126.263 181.222 125.961C171.571 122.891 165.337 116.098 161.014 107.292C160.009 105.179 159.255 103.015 158.4 100.901ZM156.791 89.3277C156.842 86.7614 156.59 84.8492 157.194 82.937C157.395 82.3332 157.344 81.83 156.791 81.3771C154.63 79.6662 152.267 78.6598 149.553 79.5656C147.039 80.421 146.084 82.5848 145.883 85.0505C145.481 89.529 148.748 95.0642 152.87 96.9261C153.825 97.379 154.781 97.4796 155.786 97.5299C157.093 97.5299 157.596 97.0267 157.344 95.7184C156.942 93.3533 156.691 91.0386 156.791 89.3277Z" fill="#262626"/>
<path d="M147.24 135.975C146.938 137.031 147.341 137.887 147.894 138.793C154.027 149.159 166.594 154.04 178.307 150.668C179.413 150.366 179.865 149.762 180.016 148.555C180.569 144.831 181.273 141.158 181.926 137.434C186.652 137.987 191.327 138.893 195.952 139.9C199.42 140.654 202.084 142.818 204.849 144.881C215.406 152.731 224.153 162.393 232.648 172.256C235.112 175.124 237.324 178.143 239.887 180.911C241.798 182.974 242.803 185.087 241.898 187.855C241.848 188.308 241.798 188.761 241.747 189.264C240.189 193.994 238.982 198.825 236.871 203.354C233.855 209.946 229.632 215.682 224.555 220.764C224.253 221.016 224.002 221.268 223.7 221.519C222.946 222.022 222.192 222.526 221.489 223.029C220.383 222.073 220.081 220.513 218.573 219.607C219.176 222.375 219.679 224.891 220.232 227.407C222.595 238.125 224.957 248.893 227.32 259.612C220.584 270.28 212.742 280.042 204.045 289.2C202.637 289.049 201.28 288.848 199.873 288.747C196.856 288.546 193.941 287.338 190.874 287.892C175.743 285.778 160.612 283.816 145.38 282.608C138.895 282.105 132.762 283.464 126.881 286.131C126.328 276.57 125.875 266.958 125.222 257.398C124.92 252.919 125.021 248.39 124.267 243.962C124.267 243.61 124.267 243.207 124.267 242.855C124.317 240.54 124.367 238.276 123.915 236.011C123.764 235.257 124.367 234.301 123.261 233.797C113.459 231.432 104.259 227.658 96.2163 221.368C95.9147 221.117 95.6131 220.865 95.3114 220.563C94.5574 219.758 93.9039 218.903 93.0493 218.198C91.4407 216.789 90.938 215.279 91.5412 213.116C92.7477 209.09 93.6525 205.014 94.8087 200.989C97.3725 191.78 100.942 182.974 104.812 174.218C104.913 173.966 105.014 173.715 105.164 173.514H105.114C106.572 171.702 106.974 169.337 108.13 167.375C108.733 167.123 108.935 166.569 109.236 166.066C114.112 157.663 119.692 149.863 126.831 143.221C127.132 142.969 127.283 142.516 127.484 142.164C128.037 142.315 128.339 141.963 128.64 141.56C134.12 137.434 140.655 136.729 147.24 135.975ZM124.317 229.319C124.619 229.42 124.92 229.52 125.272 229.621C126.981 224.488 128.64 219.305 130.349 214.172C130.048 214.072 129.746 213.971 129.445 213.871C127.685 219.054 126.026 224.186 124.317 229.319ZM217.316 216.336C217.618 216.286 217.97 216.185 218.271 216.135C217.115 212.21 216.361 208.184 214.803 204.36C214.551 204.41 214.3 204.511 214.049 204.561C215.155 208.486 216.261 212.411 217.316 216.336Z" fill="#00E3A8"/>
<path d="M241.748 189.314C241.798 188.861 241.848 188.408 241.898 187.905C246.976 192.736 252.103 197.567 257.281 202.548C261.202 197.466 265.626 191.931 269.949 186.295C276.836 177.338 283.572 168.28 289.906 158.921C292.57 154.996 293.324 150.819 292.118 146.542C290.811 141.761 292.269 137.987 296.19 136.025C302.021 133.106 302.725 128.074 303.63 122.74C304.635 116.651 305.842 110.563 307.098 104.474C307.903 100.398 310.667 98.3348 314.689 98.989C319.716 99.7941 324.743 100.801 329.669 102.008C333.691 102.964 335.199 105.682 334.445 109.707C332.082 122.287 329.669 134.867 327.307 147.447C326.452 151.876 322.782 154.543 318.308 153.738C313.483 152.882 308.556 152.077 303.831 150.769C301.82 150.215 302.574 152.429 301.016 152.329C301.569 149.913 301.368 147.548 300.815 145.133C300.563 144.026 302.172 142.919 303.63 142.415C302.775 144.126 301.518 145.586 302.373 147.85C302.825 149.058 303.278 149.712 304.434 149.964C309.36 150.92 314.237 152.027 319.213 152.781C322.079 153.234 324.291 151.272 324.944 148.001C326.905 137.887 328.815 127.772 330.725 117.708C331.278 114.89 331.831 112.123 332.283 109.305C332.887 105.682 331.228 103.317 327.608 102.612C323.436 101.757 319.264 100.951 315.041 100.197C311.321 99.5425 308.858 101.153 308.104 104.927C306.445 113.481 304.836 121.985 303.177 130.54C303.127 130.791 303.227 131.043 303.278 131.395C304.183 130.942 304.987 130.54 305.791 130.137C307.852 129.131 309.36 129.735 310.064 131.949C311.019 134.817 308.003 139.95 304.333 141.006C305.289 139.95 305.942 139.195 306.646 138.49C307.752 137.383 308.556 136.125 308.958 134.666C309.31 133.458 309.36 132.15 308.254 131.144C307.098 130.087 306.244 131.244 305.339 131.697C302.021 133.358 298.854 135.169 296.039 137.534C293.525 139.648 292.168 142.063 293.073 145.636C294.38 150.869 293.626 155.7 290.409 160.38C280.154 175.325 269.044 189.515 257.884 203.756C256.627 205.316 256.175 204.159 255.471 203.454C250.897 198.623 246.322 193.944 241.748 189.314Z" fill="#262626"/>
<path d="M318.559 51.2353C318.66 51.4366 318.811 51.5875 319.062 51.5875C323.234 51.6378 324.089 52.6946 324.089 57.1731C324.089 59.8904 324.089 74.8858 324.089 79.8172C324.089 80.4714 325.094 80.572 325.145 79.8676C325.145 79.7166 325.145 79.5153 325.145 79.3644C325.145 76.3451 325.195 58.582 325.145 55.5628C325.044 52.2417 323.234 50.4805 319.917 50.4805C319.615 50.4805 319.313 50.4805 319.062 50.4805C318.66 50.4805 318.409 50.883 318.559 51.2353Z" fill="#262626"/>
<path d="M325.195 78.5592C325.145 77.8547 324.039 77.9051 324.089 78.6096C324.089 78.9618 324.089 79.314 324.089 79.6663C324.039 84.7486 323.184 85.6041 318.057 85.6041C315.644 85.6041 313.181 85.7047 310.768 85.5538C308.204 85.4028 306.243 86.057 304.836 88.422C303.931 89.9316 302.674 91.1896 301.619 92.5986C300.814 93.6553 300.111 93.7057 299.256 92.5986C298.049 90.9884 296.793 89.4284 295.636 87.8182C294.531 86.2582 293.123 85.5034 291.163 85.6041C287.996 85.7047 284.778 85.6544 281.611 85.6041C278.143 85.5538 276.936 84.3461 276.936 80.9243C276.936 72.7724 276.936 64.6708 276.936 56.5189C276.936 52.6442 277.992 51.5875 281.812 51.5875C281.812 51.5875 281.913 51.3359 281.963 51.2353C282.114 50.883 281.812 50.4805 281.46 50.4805C281.31 50.4805 281.109 50.4805 280.958 50.4805C277.69 50.4805 275.931 52.292 275.88 55.6635C275.83 64.3186 275.83 72.9233 275.88 81.5785C275.88 84.648 277.539 86.4092 280.606 86.6608C282.265 86.7614 283.974 86.9124 285.633 86.6608C291.163 85.8054 295.385 87.4659 297.949 92.6489C297.999 92.6993 298.049 92.7999 298.1 92.8502C300.01 95.2656 300.965 95.2656 302.875 92.7496C303.931 91.3406 305.087 90.0323 306.093 88.573C307.048 87.164 308.254 86.6608 309.913 86.7111C313.181 86.8118 316.448 86.7111 319.716 86.7111C321.576 86.7111 323.385 86.3086 324.24 84.5474C325.195 82.5345 325.346 80.572 325.195 78.5592Z" fill="#262626"/>
<path d="M96.1662 221.418C104.209 227.658 113.409 231.483 123.211 233.848C120.547 244.113 116.928 254.127 113.258 264.04C104.712 287.137 95.1105 309.831 85.1068 332.325C81.8896 339.52 76.5107 343.647 68.3167 343.496C64.1946 343.395 60.1228 343.496 56.0006 343.496C53.5877 343.496 52.1801 342.187 52.1801 340.124C52.1801 338.061 53.5374 336.702 55.9001 336.652C59.0168 336.552 62.0833 336.652 65.2 336.602C66.0043 336.602 66.8589 336.904 67.6129 336.3C67.7135 335.746 67.4119 335.495 66.9594 335.444C63.4908 334.891 60.0222 334.337 56.5536 333.734C55.5985 333.532 54.9952 333.834 54.3417 334.438C52.6828 336.048 50.8731 337.558 49.2142 339.218C46.5499 341.885 43.1316 342.59 39.6127 342.892C37.5516 343.043 35.5911 342.489 34.1836 340.829C32.8263 339.218 33.329 337.206 35.2895 337.004C41.171 336.401 45.444 333.029 49.2645 329.003C51.5266 326.588 54.0904 325.984 57.1568 326.437C59.2179 326.739 61.3292 326.689 63.3903 326.94C64.5968 327.091 65.0995 326.689 65.5016 325.481C71.1821 307.567 77.315 289.804 82.342 271.689C87.1176 254.932 91.5916 238.175 96.1662 221.418Z" fill="#FDFDFD"/>
<path d="M104.812 174.319C100.992 183.024 97.4226 191.88 94.8086 201.089C93.7027 205.115 92.7475 209.191 91.5411 213.216C90.8876 215.33 91.4405 216.89 93.0492 218.299C93.8535 219.003 94.5573 219.859 95.3113 220.664C93.5519 227.356 91.7924 234.099 89.9324 240.742C89.6811 241.647 89.8319 243.207 88.1227 242.905C86.313 242.553 84.0006 244.113 82.8444 241.144C79.0742 231.583 76.812 221.67 75.505 211.505C72.0867 184.987 74.952 158.87 81.0347 133.006C81.1855 132.452 81.3363 131.546 81.6882 131.446C85.1568 130.389 84.1011 127.571 83.7995 125.407C83.4476 123.243 84.0509 121.885 85.9108 120.878C86.7152 120.476 87.4692 119.872 88.173 119.268C90.234 117.608 90.033 115.394 87.5195 114.488C86.313 114.035 86.4135 113.582 86.7152 112.676C88.8265 106.587 90.8876 100.549 93.2 93.957C94.8589 97.6807 95.6129 101.153 96.4675 104.524C101.897 126.313 104.661 148.454 105.265 170.847C105.265 171.752 105.164 172.658 105.064 173.614H105.114C105.013 173.866 104.913 174.067 104.812 174.319Z" fill="#FDFDFD"/>
<path d="M124.217 244.012C124.971 248.44 124.87 252.969 125.172 257.448C125.825 267.009 126.278 276.57 126.831 286.181C118.838 290.81 113.207 297.402 110.744 306.41C107.075 319.744 112.755 334.438 124.518 341.835C125.172 342.238 125.875 342.64 126.881 343.244C109.94 343.244 93.552 343.244 77.1641 343.244C83.0456 339.822 85.5591 334.186 88.1229 328.4C99.5341 302.132 110.744 275.815 119.893 248.642C120.145 247.937 120.547 247.233 120.647 246.528C120.899 244.314 122.156 243.61 124.217 244.012Z" fill="#FDFDFD"/>
<path d="M82.3924 242.905C76.8124 242.905 71.5341 242.855 66.306 242.956C64.6974 242.956 64.6472 241.849 64.2953 240.893C61.5304 233.143 59.7207 225.193 58.464 217.041C56.2521 202.397 56.1013 187.654 57.8607 172.96C58.5142 167.676 59.4191 162.443 60.7261 156.707C63.5915 161.034 65.5017 165.261 67.3617 169.438C68.7693 172.557 69.9757 175.778 71.333 178.898C72.5395 181.716 72.9919 184.584 72.9417 187.654C72.8411 205.165 74.8016 222.375 80.834 238.98C81.3367 240.138 81.7891 241.295 82.3924 242.905Z" fill="#FDFDFD"/>
<path d="M69.3722 309.58C68.6684 304.045 68.0652 299.063 67.4117 294.132C65.4512 278.532 63.4907 262.933 61.4799 247.334C61.0777 244.012 60.9772 244.012 64.2447 244.012C71.7852 244.012 79.3256 244.012 86.8158 244.012C88.1228 244.012 89.0277 243.861 88.525 245.824C82.8445 266.757 76.8121 287.64 69.9252 308.221C69.8749 308.473 69.7744 308.724 69.3722 309.58Z" fill="#FDFDFD"/>
<path d="M343.694 336.803C343.795 331.771 344.75 327.142 345.806 322.512C346.258 320.499 347.113 320.499 348.671 320.902C355.256 322.563 360.183 328.601 360.736 335.596C360.836 336.703 360.384 336.904 359.529 336.854C359.177 336.854 358.876 336.854 358.524 336.854C353.547 336.803 348.671 336.803 343.694 336.803Z" fill="#FDFDFD"/>
<path d="M88.4749 116.35C88.6257 117.558 88.2738 117.96 87.7711 118.363C87.2684 118.765 86.7155 119.218 86.1625 119.52C83.2971 120.929 82.0906 123.042 82.9955 126.263C83.1966 126.967 83.096 127.773 83.1463 128.527C83.1966 129.282 82.895 129.836 82.1912 130.138C81.3869 130.44 80.5323 130.289 80.1804 129.534C78.0691 125.106 74.8015 123.495 70.0259 124.904C69.4227 125.106 68.7189 124.653 68.4173 123.948C68.1156 123.193 68.1659 122.338 68.9702 121.935C73.2934 119.822 75.1031 116.601 73.6453 111.821C73.4442 111.066 73.9469 110.362 74.7513 110.06C75.5556 109.808 76.2091 110.11 76.7118 110.815C76.762 110.865 76.8123 110.966 76.8626 111.016C78.7226 115.293 81.9901 116.551 86.3636 115.444C87.4695 115.142 88.2738 115.645 88.4749 116.35Z" fill="#FDFDFD"/>
<path d="M127.484 142.265C127.283 142.617 127.132 143.019 126.831 143.321C119.642 149.913 114.062 157.763 109.236 166.167C108.935 166.67 108.734 167.223 108.13 167.475C109.337 161.638 111.85 156.254 114.314 150.869C117.33 144.227 120.899 137.937 125.373 131.697C126.429 135.371 126.881 138.843 127.484 142.265Z" fill="#FDFDFD"/>
<path d="M44.8911 343.345C47.2538 342.59 49.0132 340.879 51.1246 339.017C51.024 340.779 51.4262 342.037 52.331 343.345C49.6667 343.345 47.3041 343.345 44.8911 343.345Z" fill="#FDFDFD"/>
<path d="M273.97 292.018C274.674 288.345 276.132 284.973 277.891 281.702C277.238 285.325 275.73 288.697 273.97 292.018Z" fill="#FDFDFD"/>
<path d="M123.865 236.062C124.317 238.326 124.267 240.641 124.217 242.906C123.463 242.855 122.759 242.855 121.804 242.805C122.507 240.44 123.211 238.226 123.865 236.062Z" fill="#FDFDFD"/>
<path d="M246.925 312.599C257.733 313.203 268.592 313.857 279.4 314.461C279.5 314.713 279.651 314.964 279.752 315.216C275.076 314.612 275.579 318.134 275.026 320.6C274.473 323.217 274.473 325.934 274.775 328.601C275.026 330.362 274.624 332.476 277.892 332.325C277.69 332.627 277.439 332.929 277.238 333.23C266.832 331.016 256.376 328.752 245.97 326.538C247.529 325.431 248.886 326.337 250.293 326.437C251.299 326.538 251.651 326.437 251.55 325.33C251.249 322.009 251.249 318.638 251.902 315.316C252.103 314.209 251.751 313.857 250.645 313.807C249.389 313.757 248.082 314.008 246.925 313.404C246.875 313.102 246.875 312.851 246.925 312.599ZM258.487 314.31C256.828 314.209 255.572 314.159 254.315 314.058C253.712 314.008 253.058 314.008 252.958 314.763C252.556 317.329 252.053 319.845 252.556 322.512C253.561 321.657 253.41 320.198 254.969 319.694C255.019 320.952 254.265 321.707 253.863 322.563C252.103 326.437 252.304 326.84 256.426 327.695C257.231 327.846 258.035 327.997 259.141 328.198C258.337 324.022 258.236 319.996 258.99 315.669C257.231 317.329 257.231 317.329 255.823 317.531C256.678 316.574 257.432 315.568 258.487 314.31ZM274.423 317.027C270.703 319.745 268.089 323.066 267.737 327.796C267.687 328.651 267.285 329.859 268.34 330.211C270.049 330.765 271.909 330.966 273.719 331.318C273.769 331.318 273.97 330.714 273.97 330.463C273.166 325.984 273.568 321.506 274.423 317.027ZM266.581 329.909C265.425 325.431 266.279 321.254 266.832 316.373C264.57 319.141 262.911 321.556 261.705 324.173C259.794 328.249 259.845 328.4 264.268 329.356C264.922 329.557 265.575 329.708 266.581 329.909ZM266.782 314.813C264.771 314.662 263.213 314.511 261.654 314.36C261.001 314.31 260.197 314.209 260.046 315.115C259.543 318.436 258.89 321.808 259.895 325.632C261.755 321.556 264.017 318.285 266.782 314.813ZM266.882 324.072C268.642 320.65 271.306 317.933 274.322 315.266C272.613 315.115 271.256 315.065 269.949 314.864C268.592 314.612 268.139 315.216 267.988 316.423C267.636 318.99 267.234 321.506 266.882 324.072Z" fill="#262626"/>
<path d="M292.47 306.611C297.848 307.768 301.719 311.039 303.479 316.021C307.048 326.135 305.59 335.847 299.407 344.603C297.496 347.371 294.631 348.981 291.012 348.981C301.267 345.609 303.227 337.055 304.082 327.997C305.037 318.386 301.97 310.737 292.47 306.611Z" fill="#262626"/>
<path d="M289.403 345.358C285.985 338.665 287.392 314.36 291.515 308.221C288.197 320.499 287.292 332.828 289.403 345.358Z" fill="#262626"/>
<path d="M320.269 333.23C320.269 334.337 319.665 335.042 318.66 335.092C317.604 335.143 316.901 334.488 316.85 333.432C316.8 332.375 317.454 331.67 318.459 331.57C319.515 331.57 320.168 332.174 320.269 333.23Z" fill="#262626"/>
<path d="M324.793 333.432C324.743 334.539 323.989 335.143 323.034 335.143C322.028 335.143 321.274 334.438 321.325 333.382C321.375 332.325 322.079 331.671 323.134 331.671C324.089 331.671 324.743 332.274 324.793 333.432Z" fill="#262626"/>
<path d="M257.482 341.232C255.722 340.175 253.913 339.168 252.153 338.112C252.304 337.91 252.505 337.709 252.656 337.458C254.566 338.363 256.426 339.37 258.085 340.678C257.884 340.879 257.683 341.03 257.482 341.232Z" fill="#262626"/>
<path d="M307.752 309.026C308.506 309.328 309.26 309.58 309.36 310.838C308.405 310.687 307.852 310.184 307.299 309.58C307.45 309.429 307.601 309.228 307.752 309.026Z" fill="#262626"/>
<path d="M311.17 313.002C310.667 312.649 310.114 312.247 310.064 311.442C311.019 311.291 311.472 311.844 311.773 312.599C311.572 312.75 311.371 312.901 311.17 313.002Z" fill="#262626"/>
<path d="M304.836 347.521C305.389 347.119 305.741 346.364 306.746 346.666C306.646 347.572 305.942 347.823 305.339 348.125C305.188 347.974 304.987 347.773 304.836 347.521Z" fill="#262626"/>
<path d="M252.153 338.112C251.701 337.86 250.746 337.86 251.098 337.155C251.55 336.3 252.153 337.206 252.656 337.457C252.455 337.659 252.304 337.91 252.153 338.112Z" fill="#262626"/>
<path d="M182.178 63.8154C190.472 70.5584 200.074 74.3324 210.379 76.5465C213.244 77.1503 216.21 76.8987 219.126 76.8484C219.83 76.8484 220.735 76.4962 220.483 77.8548C218.573 89.3279 216.612 100.801 209.776 110.664C207.916 113.331 205.905 115.897 203.542 118.161C193.136 128.075 180.67 128.225 170.314 118.262C160.863 109.154 157.143 97.7817 157.897 84.799C157.998 82.7862 158.501 81.6792 161.064 81.5282C171.118 80.874 177.201 74.7853 181.222 66.0798C181.574 65.3754 181.876 64.5702 182.178 63.8154ZM209.323 91.9948C209.172 90.9884 209.273 89.6801 207.966 89.3782C206.709 89.0763 206.005 90.0827 205.503 91.0387C204.648 92.649 204.246 94.3096 205.302 95.9701C205.704 96.574 206.357 96.7753 207.061 96.423C208.821 95.5173 209.172 93.8064 209.323 91.9948ZM191.578 88.2208C191.729 87.0131 191.427 85.8558 190.271 85.5538C189.065 85.2016 188.311 86.208 187.808 87.2144C187.004 88.8247 186.501 90.4852 187.607 92.1961C188.009 92.8503 188.662 93.0516 189.316 92.649C191.025 91.6426 191.478 90.0323 191.578 88.2208ZM199.47 95.4669C199.219 95.3663 199.018 95.2153 198.767 95.1147C197.259 99.0397 197.208 103.418 195.801 107.443C195.248 107.242 194.846 107.091 194.443 107.041C193.991 106.99 193.539 106.537 193.086 107.091C195.348 108.902 196.605 109.003 196.957 107.343C197.862 103.418 198.666 99.4423 199.47 95.4669ZM182.63 111.62C179.413 109.758 177.251 107.141 176.799 103.317C175.994 107.192 178.608 110.915 182.63 111.62ZM187.104 79.3644C189.366 78.7103 191.578 79.0625 193.84 79.3141C191.679 77.6032 189.115 77.6032 187.104 79.3644ZM212.591 86.7112C211.887 83.692 208.821 81.8804 206.357 83.0378C208.971 83.4404 210.781 84.6984 212.591 86.7112Z" fill="#FDFDFD"/>
<path d="M158.4 100.901C159.255 103.015 160.009 105.179 161.014 107.242C165.337 116.048 171.571 122.841 181.223 125.911C182.228 126.213 182.479 126.565 182.278 127.621C181.122 134.364 180.016 141.158 179.011 147.901C178.86 149.008 178.357 149.41 177.302 149.712C166.443 152.631 155.233 148.253 149.15 138.742C148.547 137.786 148.095 136.931 148.447 135.723C151.664 124.149 154.831 112.576 158.048 100.952C158.048 100.952 158.149 100.952 158.4 100.901Z" fill="#FDFDFD"/>
<path d="M156.791 89.3277C156.64 91.0386 156.892 93.3534 157.344 95.6681C157.596 96.9764 157.043 97.5299 155.786 97.4796C154.78 97.4796 153.825 97.3287 152.87 96.8758C148.798 95.0139 145.481 89.4787 145.883 85.0002C146.134 82.5345 147.039 80.3707 149.552 79.5153C152.267 78.6095 154.63 79.6159 156.791 81.3268C157.344 81.7797 157.394 82.2829 157.193 82.8867C156.64 84.7989 156.892 86.7614 156.791 89.3277Z" fill="#FDFDFD"/>
<path d="M124.317 229.319C126.027 224.186 127.685 219.003 129.395 213.871C129.696 213.971 129.998 214.072 130.3 214.173C128.59 219.305 126.931 224.488 125.222 229.621C124.921 229.52 124.619 229.42 124.317 229.319Z" fill="#262626"/>
<path d="M217.316 216.336C216.21 212.411 215.155 208.486 214.049 204.611C214.3 204.561 214.552 204.46 214.803 204.41C216.311 208.235 217.115 212.26 218.272 216.185C217.97 216.185 217.668 216.286 217.316 216.336Z" fill="#262626"/>
<path d="M104.812 174.319C104.913 174.067 105.014 173.816 105.164 173.614C105.014 173.866 104.913 174.067 104.812 174.319Z" fill="#262626"/>
<path d="M258.487 314.31C257.432 315.618 256.678 316.575 255.823 317.581C257.231 317.38 257.231 317.38 258.99 315.719C258.236 320.047 258.337 324.072 259.141 328.249C258.035 328.048 257.231 327.947 256.426 327.746C252.304 326.89 252.103 326.538 253.863 322.613C254.265 321.758 255.019 321.003 254.969 319.745C253.46 320.198 253.561 321.707 252.556 322.563C252.053 319.896 252.556 317.329 252.958 314.813C253.058 314.059 253.712 314.059 254.315 314.109C255.572 314.159 256.778 314.21 258.487 314.31Z" fill="#FDFDFD"/>
<path d="M274.423 317.027C273.568 321.556 273.166 325.984 273.97 330.463C274.02 330.765 273.769 331.318 273.719 331.318C271.909 331.016 270.099 330.765 268.34 330.211C267.234 329.859 267.636 328.651 267.737 327.796C268.089 323.066 270.703 319.745 274.423 317.027Z" fill="#FDFDFD"/>
<path d="M266.581 329.909C265.525 329.658 264.922 329.557 264.268 329.406C259.845 328.45 259.744 328.299 261.705 324.223C262.961 321.556 264.62 319.191 266.832 316.424C266.329 321.254 265.425 325.431 266.581 329.909Z" fill="#FDFDFD"/>
<path d="M266.781 314.813C264.017 318.285 261.704 321.556 259.945 325.632C258.939 321.808 259.593 318.436 260.096 315.115C260.246 314.209 261 314.31 261.704 314.36C263.263 314.511 264.821 314.662 266.781 314.813Z" fill="#FDFDFD"/>
<path d="M266.882 324.072C267.234 321.506 267.636 318.939 267.988 316.423C268.139 315.216 268.591 314.612 269.949 314.863C271.256 315.065 272.613 315.115 274.322 315.266C271.306 317.983 268.642 320.65 266.882 324.072Z" fill="#FDFDFD"/>
<path d="M209.323 91.9946C209.122 93.8061 208.77 95.517 207.011 96.4731C206.357 96.8253 205.654 96.6743 205.251 96.0202C204.196 94.3596 204.598 92.699 205.452 91.0888C205.955 90.0824 206.659 89.1263 207.916 89.4282C209.323 89.7301 209.223 90.9881 209.323 91.9946Z" fill="#262626"/>
<path d="M191.578 88.2207C191.478 90.0322 191.025 91.6425 189.316 92.5986C188.612 93.0012 188.009 92.7496 187.607 92.1457C186.551 90.4348 187.004 88.7742 187.808 87.164C188.311 86.1576 189.065 85.2015 190.271 85.5034C191.428 85.8557 191.729 87.013 191.578 88.2207Z" fill="#262626"/>
<path d="M199.471 95.467C198.666 99.4423 197.862 103.418 197.007 107.393C196.656 109.053 195.399 108.953 193.137 107.141C193.539 106.588 194.042 106.99 194.494 107.091C194.896 107.141 195.298 107.343 195.851 107.494C197.259 103.468 197.309 99.09 198.817 95.165C199.018 95.2154 199.27 95.316 199.471 95.467Z" fill="#262626"/>
<path d="M186.199 114.035C182.178 113.331 175.994 107.192 176.849 103.317C177.301 107.192 182.982 112.173 186.199 114.035Z" fill="#262626"/>
<path d="M187.104 79.364C189.115 77.5525 191.628 77.5525 193.84 79.3137C191.628 79.0621 189.366 78.7099 187.104 79.364Z" fill="#262626"/>
<path d="M212.591 86.7112C210.781 84.6983 208.971 83.4403 206.357 83.0378C208.77 81.8804 211.887 83.6919 212.591 86.7112Z" fill="#262626"/>
<path d="M301.518 64.6707C301.066 64.3184 300.463 64.0165 300.262 63.463C299.91 62.5069 298.904 62.0037 298.351 61.1483C297.899 60.4438 297.899 59.538 298.05 58.6826C298.402 56.5691 299.658 54.5563 301.669 53.8015C302.624 53.4492 303.63 53.3989 304.635 53.3989C305.49 53.3989 306.394 53.4492 307.199 53.8518C307.953 54.2544 308.606 55.0595 308.506 55.9149C308.456 56.2672 308.355 56.6194 308.305 56.9717C308.305 57.9278 309.21 58.5819 310.064 59.0851C310.868 59.538 311.673 59.9909 312.477 60.4941C312.879 60.7457 312.93 61.2992 312.98 61.7521C312.98 63.0604 313.03 64.3688 313.03 65.6771C313.03 65.9287 313.03 66.1803 312.98 66.4319C312.93 66.6835 312.779 66.9351 312.628 67.1867C311.12 69.5518 309.511 72.0678 306.998 73.2755C306.445 73.5271 305.841 73.7284 305.289 73.9296C304.736 74.1309 304.183 74.2819 303.68 74.4832C303.278 74.6341 302.876 74.7348 302.423 74.7348C302.021 74.7348 301.569 74.4832 301.418 74.0806C301.317 73.829 301.367 73.5774 301.367 73.3258C301.468 72.5207 301.77 71.7155 302.222 70.9607C302.825 69.9543 303.177 68.797 303.127 67.6396C302.976 66.5325 302.473 65.3752 301.518 64.6707ZM299.658 61.9031C300.764 62.9598 301.77 64.1172 302.624 65.4255C302.926 65.8784 303.177 66.3313 303.328 66.8345C303.63 67.8409 303.429 68.8976 303.127 69.8537C302.775 70.8098 302.272 71.7155 301.87 72.6716C301.669 73.1748 301.518 73.8793 301.971 74.2316C302.323 74.5335 302.876 74.3825 303.328 74.2316C303.982 73.98 304.635 73.7284 305.289 73.5271C305.841 73.3258 306.394 73.1245 306.897 72.8729C309.26 71.6652 310.768 69.3002 312.175 67.0357C312.326 66.8345 312.427 66.6332 312.477 66.3816C312.527 66.13 312.527 65.8784 312.527 65.6268C312.527 64.5197 312.477 63.4127 312.477 62.3056C312.477 61.9031 312.477 61.5005 312.276 61.1483C311.974 60.5444 311.22 60.2928 310.617 59.9909C309.662 59.538 308.807 58.8838 308.154 58.0787C308.003 57.8774 307.802 57.6258 307.752 57.3742C307.651 56.9214 307.953 56.4685 307.953 55.9653C308.003 55.2105 307.45 54.4557 306.746 54.1537C306.043 53.8015 305.238 53.8015 304.434 53.8015C303.68 53.8015 302.926 53.8015 302.222 54.0028C300.111 54.5563 298.653 56.6698 298.301 58.8838C298.2 59.4877 298.2 60.1419 298.502 60.7457C298.904 61.1483 299.306 61.5508 299.658 61.9031Z" fill="#262626" stroke="#262626" stroke-width="0.6" stroke-miterlimit="10"/>
<path d="M302.624 77.9048C302.775 77.8545 302.976 77.8545 303.177 77.8545C307.148 77.2003 310.919 75.2378 313.683 72.2689C317.253 68.3942 319.012 62.9093 318.358 57.676C317.655 52.4427 314.588 47.5616 310.114 44.7437C309.662 44.4921 309.26 44.2405 308.807 43.9889C308.204 43.6869 307.601 43.385 306.947 43.1837C306.394 42.9825 305.741 42.7812 305.137 42.5799C305.037 42.5799 304.987 42.5296 304.936 42.5296C304.786 42.5296 304.635 42.4793 304.484 42.4289C299.055 41.1709 293.073 42.5799 288.8 46.1526C284.477 49.7757 282.013 55.5122 282.365 61.1481C282.717 66.784 285.884 72.1683 290.609 75.1875C291.213 75.5397 291.816 75.892 292.419 76.2442C292.469 76.2442 292.52 76.2945 292.57 76.2945C292.671 76.2945 292.721 76.3449 292.821 76.3952C293.575 76.7977 294.43 77.0997 295.234 77.3513C295.385 77.4016 295.586 77.4519 295.737 77.5022C295.787 77.5022 295.838 77.5525 295.938 77.5525C296.089 77.6029 296.24 77.6029 296.391 77.6532C296.441 77.6532 296.541 77.7035 296.592 77.7035C296.642 77.7035 296.642 77.7035 296.692 77.7035C298.2 78.0054 299.859 78.1061 301.468 78.1061C301.769 78.0054 302.222 77.9551 302.624 77.9048ZM302.624 42.4289C306.545 42.9825 310.265 44.8443 313.03 47.6622C312.527 47.8132 312.024 47.4106 311.572 47.159C311.12 46.9074 310.466 46.7565 310.164 47.159C310.014 47.3603 310.014 47.6623 309.813 47.8132C309.662 47.9642 309.41 47.9642 309.159 47.9139C308.506 47.8635 307.902 47.8132 307.299 47.5616C306.696 47.31 306.193 46.8068 306.093 46.203C305.992 45.7501 306.093 45.2469 305.841 44.945C305.69 44.7437 305.439 44.6933 305.188 44.5927C303.378 44.0392 301.518 43.4857 299.708 42.9321C300.462 42.278 301.619 42.278 302.624 42.4289ZM283.471 54.8581C284.577 51.235 286.89 47.9642 289.956 45.6998C290.509 45.2972 291.062 44.945 291.715 44.794C292.369 44.643 293.123 44.7437 293.575 45.2469C294.38 46.052 295.636 46.3036 296.491 47.0081C296.994 47.461 297.396 48.0145 297.748 48.6183C298.15 49.3228 298.602 50.0273 298.653 50.8324C298.703 51.6879 298.301 52.5433 297.899 53.2981C297.245 54.6065 295.737 55.2606 294.329 55.7135C293.274 56.0657 292.218 56.3174 291.162 56.3174C290.057 56.3174 288.951 55.9148 288.247 55.1097C287.794 54.6065 286.99 54.7574 286.337 54.9084C285.381 55.16 284.477 55.4116 283.521 55.6632C283.32 55.4619 283.421 55.16 283.471 54.8581ZM288.448 72.9734C284.275 69.149 282.164 63.2112 282.969 57.5754C283.622 58.6824 285.532 58.6321 286.186 57.4747C286.387 57.1225 286.839 57.1225 287.191 57.2734C287.543 57.4244 287.845 57.7263 288.197 57.827C288.649 57.9779 289.101 57.8773 289.554 57.9779C290.66 58.3302 290.811 59.8398 290.509 60.9971C290.006 62.859 288.8 64.5699 287.241 65.7273C286.487 66.2808 286.638 67.3878 286.94 68.2936C287.442 69.9038 288.046 71.4135 288.75 72.9231C288.951 71.6147 288.146 70.4071 287.644 69.1994C287.141 67.9917 286.94 66.3814 287.995 65.5763C289.604 64.3686 290.71 62.5571 291.062 60.5946C291.263 59.5379 291.062 58.2295 290.107 57.7263C289.504 57.4244 288.85 57.5754 288.247 57.3238C287.845 57.1728 287.543 56.8709 287.191 56.7702C286.789 56.6193 286.286 56.6696 286.135 57.0722C285.834 57.676 285.13 58.0282 284.477 57.8773C283.823 57.7263 283.32 57.0722 283.32 56.3677C283.32 56.1664 283.572 56.0154 283.823 55.9651C284.728 55.7135 285.683 55.4619 286.588 55.2606C287.141 55.1097 287.794 55.009 288.197 55.4116C289.504 56.8709 291.766 56.7702 293.676 56.3174C294.933 56.0154 296.24 55.5122 297.245 54.7071C298.301 53.902 299.105 52.6943 299.206 51.386C299.356 49.8763 298.552 48.4171 297.496 47.31C296.139 45.901 294.38 44.9953 292.671 44.0895C294.832 42.9825 297.245 42.3283 299.658 42.278C299.356 42.3786 299.306 42.8315 299.507 43.0831C299.708 43.3347 300.06 43.4353 300.362 43.536C301.82 43.9385 303.278 44.3411 304.735 44.7437C305.288 44.8946 305.992 45.2469 305.841 45.8507C305.69 46.5552 306.143 47.2597 306.796 47.6622C307.4 48.0145 308.154 48.1151 308.857 48.2158C309.26 48.2661 309.662 48.3164 310.064 48.1655C310.466 48.0145 310.768 47.6119 310.667 47.2094C311.622 47.5113 312.527 47.8132 313.482 48.1655C313.884 48.3164 314.186 48.6687 314.488 49.0209C318.157 53.751 319.163 60.4436 317.051 66.0795C316.096 65.6266 316.247 64.268 316.348 63.2112C316.549 61.8526 316.448 60.4436 316.147 59.085C315.996 58.4308 315.342 57.9779 314.689 57.7263C314.035 57.4747 313.331 57.3741 312.779 56.9715C312.226 56.569 311.773 55.8141 312.075 55.2103C312.326 54.7071 312.226 54.0529 311.823 53.6001C312.678 52.8452 313.834 52.4427 314.99 52.4427C315.292 52.4427 315.594 52.493 315.845 52.2917C316.096 52.1408 316.096 51.6879 315.845 51.5872C315.744 51.5872 315.644 51.5872 315.543 51.6376C314.689 51.8892 313.784 52.1911 312.929 52.4427C312.175 52.6943 311.22 53.2478 311.572 54.0026C311.723 54.3549 312.125 54.7574 311.823 55.009C311.22 55.5122 311.723 56.5186 312.376 57.0218C313.181 57.676 314.186 58.1289 315.191 58.3805C315.543 58.4308 315.694 58.8334 315.744 59.1856C316.046 60.4436 316.096 61.7519 315.996 63.0603C315.945 63.7144 315.795 64.3686 315.895 64.9725C315.996 65.6266 316.297 66.2808 316.901 66.5324C314.789 71.7657 309.963 75.892 304.434 77.0997C298.703 78.408 292.62 76.7977 288.448 72.9734Z" fill="#262626" stroke="#262626" stroke-width="0.6" stroke-miterlimit="10"/>
<path d="M328.075 183.147C329.436 183.17 330.198 182.248 330.887 181.24C332.259 179.303 333.6 177.349 334.99 175.382C335.529 175.455 335.861 175.111 336.193 174.766C336.592 174.379 337.016 174.09 337.556 173.954C339.598 173.466 341.293 174.945 341.134 177.15C340.981 179.692 340.699 182.242 340.466 184.778C340.296 186.725 340.93 188.235 342.607 189.327C344.437 190.51 346.23 191.755 348.054 193.018C348.587 193.379 349.131 193.79 349.559 194.256C350.391 195.091 350.499 196.159 350.11 197.222C349.752 198.304 348.923 198.851 347.868 199.012C347.286 199.08 346.679 199.05 346.091 198.989C343.75 198.796 341.378 198.583 339.018 198.42C337.345 198.293 336.001 198.866 335.054 200.304C334.106 201.743 333.097 203.144 332.119 204.564C331.504 205.449 330.889 206.334 330.262 207.17C329.426 208.215 328.26 208.56 327.103 208.199C325.884 207.802 325.151 206.734 325.099 205.364C325.1 204.947 325.15 204.517 325.181 204.117C325.37 201.931 325.559 199.744 325.748 197.558C325.962 195.469 325.255 193.873 323.455 192.708C321.545 191.519 319.709 190.207 317.855 188.926C317.384 188.601 316.9 188.227 316.503 187.779C315.177 186.104 316.096 183.603 318.212 183.201C318.733 183.096 319.291 183.139 319.8 183.193C321.981 183.375 324.163 183.557 326.345 183.738C327.062 183.793 327.755 183.958 328.075 183.147Z" fill="#00E3A8"/>
<path d="M328.075 183.147C327.754 183.958 327.062 183.793 326.425 183.744C324.243 183.563 322.061 183.381 319.879 183.199C319.352 183.175 318.794 183.133 318.291 183.207C316.206 183.627 315.256 186.11 316.583 187.785C316.931 188.245 317.433 188.588 317.935 188.932C319.789 190.213 321.625 191.525 323.535 192.714C325.353 193.849 326.011 195.457 325.828 197.564C325.639 199.75 325.45 201.937 325.261 204.124C325.229 204.523 325.179 204.953 325.178 205.37C325.181 206.752 325.963 207.808 327.182 208.205C328.34 208.566 329.536 208.24 330.341 207.176C331.018 206.328 331.584 205.455 332.199 204.57C333.177 203.15 334.155 201.73 335.133 200.31C336.08 198.872 337.424 198.299 339.098 198.427C341.457 198.59 343.811 198.833 346.17 198.996C346.759 199.056 347.365 199.086 347.948 199.018C349.003 198.857 349.831 198.31 350.19 197.228C350.548 196.147 350.471 195.097 349.639 194.263C349.162 193.809 348.648 193.416 348.134 193.024C346.341 191.779 344.547 190.534 342.687 189.333C341.01 188.242 340.357 186.762 340.546 184.784C340.779 182.248 341.061 179.699 341.214 177.156C341.36 174.902 339.678 173.473 337.635 173.96C337.095 174.096 336.641 174.367 336.272 174.772C335.941 175.117 335.578 175.443 335.069 175.388C334.501 174.67 334.974 174.16 335.46 173.699C336.627 172.518 338.804 172.153 340.384 173.06C341.81 173.875 342.738 175.311 342.624 176.958C342.415 179.801 342.335 182.639 342.046 185.477C341.939 186.625 342.311 187.392 343.193 188.006C345.365 189.52 347.531 191.114 349.759 192.537C351.222 193.499 351.685 194.948 351.853 196.471C352.038 198.381 349.348 200.779 347.442 200.554C344.629 200.244 341.79 200.254 338.959 199.974C337.623 199.841 336.536 200.61 335.755 201.771C334.266 203.972 332.728 206.185 331.209 208.367C330.379 209.541 328.281 210.12 326.927 209.6C324.294 208.645 323.671 207.602 323.849 204.739C324.014 202.454 324.069 200.145 324.362 197.854C324.631 195.882 323.886 194.557 322.319 193.49C320.312 192.116 318.304 190.743 316.315 189.339C315.238 188.566 314.413 187.652 314.533 186.135C314.766 183.389 316.75 181.612 319.508 181.806C322.028 181.981 324.491 182.248 327.022 182.472C327.402 182.533 327.806 182.693 328.075 183.147Z" fill="#262626"/>
</g>
<defs>
<clipPath id="clip0">
<rect width="382" height="322" fill="white" transform="translate(0 30)"/>
</clipPath>
</defs>
</svg>
