<svg width="294" height="315" viewBox="0 0 294 315" fill="none" xmlns="http://www.w3.org/2000/svg">
<g clip-path="url(#clip0)">
<path d="M180.214 193.885C178.996 195.813 178.422 197.705 177.669 199.526C174.658 206.739 171.79 214.023 168.85 221.307C168.277 222.771 167.703 224.235 167.13 225.699C165.552 229.662 162.863 232.519 158.741 233.947C156.877 234.59 154.905 234.804 152.969 234.483C151.212 234.197 149.42 233.983 147.807 233.019C146.982 232.519 145.943 232.233 145.01 232.197C142.752 232.09 140.852 230.912 138.809 230.162C135.654 229.02 132.607 227.663 129.488 226.413C127.767 225.735 126.082 225.056 124.361 224.378C121.242 223.128 118.159 221.878 115.076 220.629C110.344 218.736 105.612 216.808 100.88 214.916C97.797 213.666 94.7139 212.381 91.6309 211.095C88.5837 209.81 85.429 208.667 82.3459 207.489C78.7969 206.132 75.2478 204.775 71.8421 203.168C69.8704 202.24 68.1138 200.919 66.7873 199.026C65.7836 197.598 64.8515 196.241 64.3496 194.527C64.1703 193.956 64.1703 193.421 64.0986 192.849C63.5968 189.421 64.1345 186.136 65.5326 182.994C68.5798 176.067 71.2327 168.962 74.1364 161.963C76.0723 157.286 77.9365 152.608 79.8006 147.895C81.2346 144.253 82.812 140.647 84.3176 137.005C85.7875 133.434 87.2214 129.828 88.6554 126.221C89.6592 123.722 90.5913 121.223 91.595 118.759C92.8139 115.76 94.0686 112.76 95.2875 109.761C96.6139 106.547 97.9045 103.369 99.1951 100.156C101.131 95.407 102.959 90.6224 105.003 85.9092C107.01 81.196 108.91 76.447 110.846 71.6981C113.356 65.5209 115.901 59.3795 118.374 53.2023C120.597 47.6321 122.927 42.1334 125.078 36.5632C126.871 31.8857 128.878 27.3153 130.671 22.6378C131.567 20.2455 132.427 17.8175 133.539 15.5323C136.443 9.53364 141.246 6.49861 148.452 7.17703C150.495 7.39127 152.36 8.35534 154.26 9.10517C165.767 13.6756 177.239 18.2817 188.711 22.9235C199.43 27.2439 210.149 31.5644 220.832 35.9205C222.337 36.5275 223.843 37.2416 225.134 38.2771C225.886 38.8841 226.89 39.2055 227.822 39.5268C231.909 40.9551 234.562 43.7402 235.96 47.775C237.036 50.8814 236.821 53.9164 235.602 56.9515C231.909 65.9851 228.217 75.0188 224.524 84.0882C221.764 90.8366 219.039 97.6208 216.279 104.369C215.885 105.298 215.92 106.047 216.386 106.976C217.964 110.189 218.573 113.689 219.039 117.188C220.437 128.507 220.33 139.897 219.971 151.287C219.792 157.821 219.398 164.32 219.039 170.818C218.573 179.459 217.82 188.1 217.032 196.706C216.781 199.598 216.566 202.49 215.992 205.346C215.132 209.631 213.518 213.63 211.762 217.629C208.249 225.485 204.771 233.34 201.294 241.231C199.717 244.766 198.139 248.265 196.562 251.8C196.06 252.943 195.737 254.085 195.701 255.371C195.307 271.153 195.02 286.899 195.128 302.681C195.164 305.824 195.307 308.966 195.45 312.108C195.522 313.786 195.558 313.786 197.171 313.786C198.892 313.786 200.613 313.822 202.334 313.822C225.958 313.822 249.583 313.858 273.243 313.858C273.781 313.858 274.319 313.857 274.857 313.893C275.179 313.929 275.394 314.143 275.43 314.465C275.43 314.822 275.179 315 274.857 315C274.426 315.036 274.032 315.036 273.602 315.036C190.145 315.036 106.688 315.036 23.2305 315.036C22.8003 315.036 22.4059 315.036 21.9757 315C21.6172 314.964 21.2587 314.929 21.2946 314.393C21.3304 314 21.5455 313.75 21.9399 313.715C22.2267 313.679 22.5493 313.715 22.8361 313.715C45.708 313.75 68.544 313.75 91.4158 313.786C96.363 313.786 101.31 313.786 106.222 313.786C107.763 313.786 107.763 313.75 107.906 312.215C108.731 302.896 109.52 293.541 110.201 284.221C111.025 272.974 111.707 261.726 111.85 250.479C111.886 247.408 111.85 244.302 111.563 241.231C111.384 239.339 110.595 237.91 109.412 236.411C107.261 233.733 104.895 231.162 102.888 228.341C101.74 226.734 100.306 225.306 99.0159 223.771C96.829 221.093 94.6422 218.451 92.4196 215.773C92.0252 215.308 91.7026 214.809 91.7743 214.202C91.8101 213.809 92.1328 213.523 92.5271 213.809C92.9573 214.13 93.3158 214.523 93.6743 214.916C95.5026 217.094 97.3309 219.272 99.1234 221.486C101.561 224.449 103.963 227.449 106.365 230.412C108.265 232.733 110.129 235.09 112.029 237.446C112.423 237.946 112.531 238.482 112.639 239.089C113.284 243.695 113.284 248.301 113.176 252.943C112.854 266.154 111.993 279.365 110.918 292.541C110.416 298.754 109.878 304.931 109.376 311.144C109.34 311.608 109.269 312.072 109.161 312.536C108.874 313.608 109.018 313.75 110.165 313.75C113.929 313.786 117.657 313.786 121.422 313.786C145.01 313.786 168.563 313.822 192.152 313.822C194.196 313.822 194.196 313.822 194.088 311.822C193.658 301.325 193.73 290.827 193.945 280.329C194.088 271.903 194.267 263.512 194.339 255.085C194.339 253.585 194.769 252.264 195.343 250.908C198.032 244.909 200.649 238.875 203.337 232.876C205.345 228.448 207.317 223.985 209.288 219.522C210.937 215.737 212.551 211.916 213.805 207.917C215.885 201.419 215.849 194.992 214.271 188.529C213.303 184.708 211.726 181.03 209.79 177.567C208.643 175.496 206.994 173.711 205.811 171.604C203.911 168.141 201.76 164.82 199.86 161.356C197.888 157.821 195.737 154.358 193.622 150.894C192.726 149.466 192.081 147.895 191.041 146.574C188.388 143.182 183.835 143.396 181.577 146.967C176.916 154.394 174.55 162.463 174.873 171.247C175.088 177.424 176.558 183.351 179.211 188.957C181.111 192.992 183.369 196.813 186.058 200.383C186.237 200.633 186.452 200.847 186.596 201.097C186.739 201.383 186.703 201.704 186.452 201.919C186.201 202.133 185.915 202.097 185.664 201.883C185.269 201.526 184.803 201.204 184.516 200.776C182.939 198.669 181.254 196.634 180.214 193.885ZM220.151 49.6674C220.258 47.0608 218.932 44.8114 216.494 43.1689C215.419 42.4547 214.235 41.8834 213.017 41.3836C194.59 33.9924 176.199 26.5655 157.773 19.1743C155.837 18.3888 153.973 17.4961 151.929 16.9605C147.735 15.8179 144.652 16.9605 142.143 20.4954C140.96 22.1736 140.207 24.0304 139.454 25.8871C130.993 46.7038 122.569 67.4848 114.108 88.3015C101.167 120.151 88.2611 151.966 75.3195 183.816C74.6383 185.529 74.0647 187.279 73.8138 189.1C73.4553 191.671 74.2081 193.778 76.2516 195.42C77.6138 196.527 79.1553 197.277 80.7686 197.919C98.7291 205.132 116.69 212.381 134.686 219.593C137.231 220.629 139.705 221.736 142.322 222.557C146.767 223.914 149.743 222.807 152.216 218.879C153.077 217.522 153.722 216.058 154.331 214.594C160.569 199.276 166.771 183.958 173.009 168.676C173.296 167.962 173.511 167.212 173.547 166.462C174.084 159.107 176.594 152.394 180.501 146.146C180.931 145.431 181.433 144.717 182.15 144.289C183.047 143.753 183.405 142.932 183.764 142.039C190.324 125.9 196.884 109.761 203.445 93.6217C208.428 81.3388 213.447 69.0201 218.43 56.7372C219.326 54.5948 220.115 52.4168 220.151 49.6674ZM173.367 172.211C172.758 172.497 172.722 172.997 172.543 173.425C170.75 177.817 168.958 182.209 167.165 186.601C163.222 196.241 159.314 205.918 155.371 215.558C154.654 217.308 153.829 219.022 152.718 220.557C150.531 223.557 147.663 224.913 143.899 224.306C142.358 224.056 140.888 223.592 139.454 222.985C119.737 215.058 100.02 207.132 80.2667 199.169C78.7252 198.562 77.2195 197.812 75.8931 196.813C73.3119 194.956 72.1647 192.456 72.4515 189.279C72.7025 186.815 73.5629 184.565 74.4949 182.316C82.0233 163.82 89.5158 145.324 97.0441 126.828C106.939 102.513 116.797 78.1966 126.692 53.8807C130.742 43.9544 134.758 33.9924 138.809 24.0661C139.669 21.9237 140.78 19.8884 142.394 18.1745C144.437 15.9965 146.946 14.9967 149.922 15.2823C151.463 15.4252 152.969 15.8179 154.403 16.4249C161.896 19.4243 169.388 22.4236 176.881 25.4586C189.069 30.3504 201.258 35.2421 213.447 40.1695C215.06 40.8123 216.602 41.5264 217.964 42.6333C220.33 44.49 221.513 46.8823 221.513 49.8459C221.513 52.3097 220.796 54.6306 219.864 56.88C215.06 68.7345 210.22 80.589 205.417 92.4434C199.788 106.333 194.124 120.223 188.46 134.113C187.313 136.969 186.165 139.79 184.911 142.896C187.384 142.503 189.428 143.11 191.292 144.432C191.65 143.575 191.937 142.932 192.188 142.254C200.039 122.936 207.89 103.619 215.705 84.2667C219.828 74.1261 224.022 63.9856 228.037 53.8093C230.726 47.0608 227.643 40.2053 220.903 37.4559C208.034 32.2071 195.056 26.994 182.115 21.7809C171.933 17.6747 161.716 13.5684 151.535 9.46223C149.563 8.67669 147.556 8.21251 145.441 8.46245C140.386 9.06946 136.801 11.676 134.901 16.3535C129.846 28.7079 124.863 41.0622 119.844 53.3808C111.348 74.3404 102.816 95.3356 94.3196 116.295C87.329 133.47 80.3742 150.645 73.3836 167.855C71.0176 173.675 68.6515 179.495 66.2854 185.315C64.4571 189.778 64.8873 194.028 67.7553 197.919C69.2251 199.955 71.2685 201.24 73.5629 202.169C80.3025 204.847 87.0063 207.56 93.746 210.274C110.129 216.88 126.476 223.485 142.86 230.019C149.707 232.769 156.626 229.769 159.458 222.985C160.175 221.236 160.892 219.486 161.609 217.701C166.09 206.668 170.571 195.634 175.088 184.601C175.482 183.673 175.518 182.851 175.196 181.852C174.479 179.602 174.048 177.246 173.762 174.889C173.582 174.068 173.69 173.139 173.367 172.211ZM216.028 189.386C216.602 188.85 216.458 188.243 216.494 187.672C216.781 183.78 217.068 179.888 217.354 175.96C218.286 162.999 218.86 150.037 218.788 137.076C218.752 129.471 218.502 121.901 217.247 114.403C216.852 112.153 216.386 109.904 215.347 107.761C214.773 108.118 214.666 108.654 214.486 109.154C208.715 123.365 202.979 137.576 197.171 151.787C196.813 152.644 196.849 153.287 197.35 154.108C199.645 157.929 201.832 161.785 204.126 165.605C205.775 168.355 207.209 171.211 209.109 173.818C211.403 177.031 213.232 180.459 214.486 184.173C214.988 185.887 215.454 187.6 216.028 189.386Z" fill="#262626"/>
<path d="M23.5529 192.956C24.2341 194.135 25.4171 194.313 26.636 194.385C29.002 194.563 31.3681 194.706 33.77 194.884C33.9851 195.384 34.4511 195.491 34.9172 195.599C35.4549 195.741 35.921 195.956 36.3153 196.348C37.7851 197.848 37.3908 200.062 35.4191 201.062C33.1606 202.24 30.8303 203.311 28.536 204.418C26.7794 205.275 25.8115 206.596 25.7398 208.596C25.6681 210.774 25.5247 212.952 25.3813 215.166C25.3454 215.808 25.2737 216.487 25.0945 217.094C24.8077 218.236 23.9473 218.879 22.836 219.093C21.7246 219.343 20.8284 218.915 20.1473 218.093C19.7888 217.629 19.502 217.094 19.251 216.558C18.2114 214.451 17.1718 212.309 16.0963 210.202C15.3435 208.703 14.1604 207.846 12.4397 207.774C10.7189 207.703 8.99813 207.56 7.27737 207.453C6.20189 207.382 5.12641 207.31 4.08678 207.203C2.76036 207.025 1.86412 206.203 1.57733 205.025C1.29054 203.775 1.82828 202.597 2.97545 201.847C3.33395 201.633 3.72829 201.454 4.08678 201.276C6.05849 200.312 8.0302 199.348 10.0019 198.384C11.9019 197.491 12.9057 196.063 12.9774 193.92C13.0133 191.671 13.1925 189.421 13.3359 187.172C13.3717 186.601 13.4434 185.994 13.6227 185.422C14.3755 183.423 16.9925 182.923 18.4265 184.53C18.785 184.922 19.0359 185.422 19.251 185.886C20.219 187.85 21.1869 189.814 22.1548 191.778C22.4775 192.421 22.6926 193.099 23.5529 192.956Z" fill="#00E3A8"/>
<path d="M57.7891 108.511C62.0552 108.404 66.6797 107.833 71.1609 106.226C75.9647 104.512 80.4817 102.298 84.4968 99.1204C86.1818 97.7993 87.7591 96.3354 89.3365 94.8714C89.5874 94.6215 89.9101 94.5143 90.161 94.3001C90.4478 94.0502 90.7346 94.2644 90.9497 94.4429C91.2007 94.6572 91.1648 94.9785 90.9497 95.2285C90.6271 95.5855 90.3044 95.9426 89.9818 96.2639C86.4327 99.8703 82.2742 102.691 77.793 104.976C71.1968 108.333 64.1344 109.832 56.7495 109.761C54.24 109.725 51.7664 109.44 49.2928 109.047C46.6041 108.654 43.9513 108.083 41.4418 107.154C38.0003 105.869 34.7022 104.262 31.655 102.191C30.1493 101.191 28.9304 99.906 27.4248 98.9062C26.5285 98.2992 25.8832 97.2637 25.0587 96.5139C21.5096 93.2289 18.6058 89.4083 16.419 85.1236C15.0568 82.4456 13.7662 79.6606 13.085 76.7326C11.5435 70.2698 10.8982 63.7356 12.0454 57.1299C12.3322 55.3803 12.4756 53.6307 12.9775 51.8811C13.8379 48.9889 14.8775 46.2039 16.2039 43.4902C17.2436 41.4192 18.3907 39.384 19.7889 37.4915C21.7964 34.8136 23.9115 32.207 26.4568 29.9575C29.3965 27.3867 32.5512 25.0301 36.0286 23.3519C44.1305 19.3885 52.6985 17.5675 61.8042 18.4601C67.576 19.0314 73.0251 20.6382 78.1874 23.2091C87.7591 28.0294 94.7497 35.3492 99.2667 45.0255C99.3026 45.1327 99.3743 45.2398 99.4101 45.3469C99.5535 45.7754 100.02 46.2396 99.446 46.5966C98.7649 47.0251 98.2988 46.4895 98.0479 45.9539C97.1875 44.3114 96.3988 42.6332 95.4667 41.0265C92.6346 36.2418 88.9063 32.2784 84.5327 28.8506C80.1949 25.4586 75.2119 23.4233 70.0496 21.6023C62.9873 19.1386 55.9249 19.1386 48.7551 20.3526C45.4928 20.8882 42.4098 22.1379 39.3267 23.459C34.5946 25.4943 30.4003 28.3151 26.6719 31.85C10.5756 47.0251 8.24539 72.198 21.187 89.9796C27.138 98.1564 34.989 103.727 44.6683 106.654C48.7909 107.904 53.0212 108.44 57.7891 108.511Z" fill="#262626"/>
<path d="M23.553 192.956C22.6926 193.099 22.4775 192.421 22.1907 191.85C21.2228 189.886 20.2549 187.922 19.287 185.958C19.036 185.494 18.7851 184.994 18.4624 184.601C17.0284 183.03 14.4114 183.494 13.6586 185.494C13.4435 186.029 13.4077 186.636 13.3718 187.243C13.2284 189.493 13.0492 191.742 13.0133 193.992C12.9775 196.134 11.9378 197.527 10.0378 198.455C8.06612 199.419 6.09441 200.383 4.1227 201.347C3.76421 201.526 3.36987 201.704 3.01137 201.919C1.82835 202.633 1.32646 203.847 1.61325 205.097C1.90005 206.275 2.79628 207.132 4.1227 207.275C5.19818 207.417 6.23781 207.453 7.31329 207.525C9.03406 207.632 10.7548 207.739 12.4756 207.846C14.1964 207.917 15.3794 208.774 16.1322 210.274C17.2077 212.381 18.2115 214.523 19.287 216.63C19.5379 217.165 19.8247 217.701 20.1832 218.165C20.8643 218.986 21.7606 219.415 22.8719 219.165C23.9832 218.915 24.8436 218.308 25.1304 217.165C25.2738 216.523 25.3455 215.88 25.4172 215.237C25.5606 213.059 25.704 210.881 25.7757 208.667C25.8474 206.668 26.7795 205.347 28.5719 204.49C30.8663 203.383 33.1965 202.311 35.455 201.133C37.4625 200.098 37.821 197.92 36.3512 196.42C35.9569 196.027 35.4908 195.777 34.9531 195.67C34.4871 195.563 34.021 195.42 33.8059 194.956C34.1286 194.099 34.8097 194.242 35.455 194.42C37.0682 194.813 38.5022 196.491 38.538 198.312C38.5739 199.955 37.821 201.49 36.3512 202.24C33.8059 203.526 31.3323 204.918 28.7512 206.132C27.7115 206.632 27.2455 207.346 27.1738 208.417C26.9946 211.06 26.7436 213.737 26.6719 216.38C26.6002 218.129 25.5964 219.272 24.3776 220.2C22.836 221.343 19.3945 220.272 18.6058 218.522C17.4228 215.951 15.953 213.523 14.7341 210.952C14.1605 209.738 12.9416 209.203 11.5435 209.131C8.89066 208.989 6.20196 208.81 3.54911 208.631C2.11514 208.524 0.537773 207.025 0.286828 205.596C-0.250911 202.847 0.322677 201.776 2.86798 200.455C4.91139 199.419 6.91895 198.277 9.03406 197.348C10.8624 196.563 11.6152 195.242 11.7228 193.349C11.8661 190.921 12.0095 188.493 12.1888 186.065C12.2963 184.744 12.6548 183.566 14.0171 182.887C16.4907 181.673 19.036 182.459 20.2907 184.923C21.4379 187.172 22.4775 189.422 23.5889 191.707C23.7323 192.064 23.804 192.492 23.553 192.956Z" fill="#262626"/>
<path d="M264.353 116.795C264.353 103.977 264.353 91.1938 264.353 78.3753C264.353 77.8397 264.353 77.3041 264.389 76.7685C264.424 76.4472 264.604 76.1972 264.926 76.1972C265.321 76.1615 265.607 76.4115 265.679 76.8042C265.751 77.3398 265.715 77.8754 265.715 78.411C265.715 99.442 265.679 120.509 265.679 141.54C265.679 146.11 265.679 150.68 265.643 155.215C265.643 155.679 265.751 156.143 265.5 156.608C265.321 156.929 265.07 156.965 264.783 157.036C264.317 157.107 264.353 156.679 264.353 156.465C264.281 155.929 264.317 155.394 264.317 154.858C264.317 142.182 264.317 129.471 264.353 116.795Z" fill="#262626"/>
<path d="M286.328 163.249C286.328 150.323 286.328 137.433 286.364 124.508C286.364 123.829 285.898 122.651 287.045 122.651C287.977 122.651 287.619 123.793 287.619 124.436C287.619 150.145 287.619 175.853 287.619 201.562C287.619 202.026 287.619 202.526 287.547 202.99C287.475 203.275 287.225 203.49 286.902 203.454C286.579 203.418 286.364 203.24 286.328 202.883C286.292 202.418 286.292 201.919 286.292 201.454C286.292 188.707 286.292 175.996 286.292 163.249H286.328Z" fill="#262626"/>
<path d="M21.3662 64.0215C21.7964 51.3458 27.0304 41.2409 37.6776 34.0283C37.9644 33.8141 38.2871 33.6712 38.5739 33.457C38.9324 33.2071 39.255 33.3142 39.506 33.5998C39.8644 33.9926 39.5418 34.2782 39.2909 34.4925C38.3946 35.1709 37.4625 35.7779 36.5663 36.4563C29.4682 41.8837 24.9511 48.9178 23.3738 57.7372C21.8681 66.0925 23.0511 74.0192 27.4247 81.4104C27.5323 81.6247 27.604 81.8389 27.7474 82.0531C28.0342 82.4816 27.7832 82.7315 27.4964 82.9101C27.1738 83.0886 26.7436 83.16 26.5644 82.803C26.1342 81.9103 25.3813 81.1962 25.0587 80.2678C24.0191 77.1971 22.6568 74.2335 22.119 70.9842C21.653 68.6276 21.3662 66.3424 21.3662 64.0215Z" fill="#262626"/>
<path d="M43.3059 255.014C43.3059 246.765 43.3059 238.553 43.3059 230.305C43.3059 229.876 43.2701 229.484 43.3059 229.055C43.3418 228.734 43.1984 228.305 43.7003 228.234C44.2739 228.163 44.5965 228.484 44.6324 229.055C44.6682 229.484 44.6682 229.876 44.6682 230.305C44.6682 246.944 44.6682 263.619 44.6682 280.258C44.6682 280.722 44.6682 281.222 44.6324 281.686C44.5965 282.079 44.3456 282.329 43.9154 282.293C43.5927 282.257 43.3776 282.043 43.3418 281.722C43.3059 281.258 43.3059 280.758 43.3059 280.294C43.2701 271.831 43.2701 263.44 43.3059 255.014Z" fill="#262626"/>
<path d="M220.151 49.6675C220.115 52.4169 219.326 54.595 218.466 56.7373C213.483 69.0203 208.464 81.3389 203.481 93.6218C196.92 109.761 190.36 125.9 183.799 142.039C183.441 142.932 183.082 143.753 182.186 144.289C181.469 144.717 181.003 145.431 180.537 146.146C176.629 152.358 174.12 159.071 173.582 166.462C173.511 167.248 173.331 167.962 173.045 168.676C166.807 183.994 160.569 199.276 154.367 214.594C153.758 216.094 153.112 217.522 152.252 218.879C149.778 222.807 146.803 223.914 142.358 222.557C139.741 221.771 137.231 220.629 134.722 219.593C116.761 212.381 98.8007 205.132 80.8043 197.92C79.1911 197.277 77.6496 196.527 76.2873 195.42C74.2439 193.778 73.4911 191.671 73.8495 189.1C74.1005 187.279 74.6741 185.53 75.3552 183.816C88.2968 151.966 101.203 120.152 114.144 88.3016C122.605 67.4849 131.029 46.7039 139.49 25.8872C140.242 24.0305 141.031 22.1737 142.178 20.4955C144.688 16.9249 147.735 15.818 151.965 16.9606C153.973 17.4962 155.873 18.3889 157.809 19.1744C176.235 26.5656 194.626 33.9568 213.052 41.3837C214.271 41.8836 215.454 42.4191 216.53 43.169C218.967 44.8115 220.258 47.061 220.151 49.6675ZM131.065 61.272C131.567 61.1292 131.71 60.5936 131.89 60.0937C135.259 51.8456 138.665 43.5617 142.035 35.3136C142.25 34.778 142.859 33.9925 141.927 33.6354C141.139 33.3498 141.031 34.2067 140.816 34.7066C137.41 42.9547 134.041 51.2386 130.671 59.4867C130.527 59.8795 130.276 60.2365 130.348 60.665C130.42 61.0578 130.599 61.2363 131.065 61.272ZM124.684 209.024C124.72 208.703 124.54 208.453 124.254 208.31C123.895 208.132 123.501 207.989 123.106 207.81C115.471 204.561 107.835 201.347 100.163 198.134C99.5893 197.884 98.7648 197.134 98.3705 198.17C98.0478 199.026 99.0874 199.098 99.6252 199.348C107.333 202.633 115.005 205.882 122.712 209.131C123.106 209.31 123.465 209.488 123.859 209.56C124.254 209.631 124.54 209.417 124.684 209.024Z" fill="white"/>
<path d="M173.367 172.211C173.69 173.14 173.582 174.104 173.69 175.032C174.012 177.389 174.407 179.71 175.124 181.995C175.446 182.959 175.375 183.78 175.016 184.744C170.499 195.777 166.054 206.811 161.537 217.844C160.82 219.593 160.139 221.379 159.386 223.128C156.554 229.912 149.635 232.912 142.788 230.162C126.405 223.592 110.057 216.987 93.6742 210.417C86.9346 207.703 80.2307 204.989 73.4911 202.312C71.1609 201.383 69.1533 200.098 67.6835 198.062C64.8156 194.135 64.4212 189.922 66.2137 185.458C68.5797 179.638 70.9458 173.818 73.3118 167.998C80.3024 150.823 87.2572 133.649 94.2478 116.438C102.744 95.4786 111.276 74.4834 119.773 53.5239C124.791 41.1695 129.774 28.8152 134.829 16.4965C136.765 11.7833 140.35 9.21249 145.369 8.60548C147.484 8.35554 149.492 8.81972 151.463 9.60525C161.716 13.5686 171.933 17.6749 182.114 21.7811C195.056 26.9942 208.033 32.2073 220.975 37.4204C227.715 40.134 230.798 47.0253 228.109 53.7738C224.058 63.9501 219.9 74.0906 215.777 84.2312C207.926 103.548 200.075 122.865 192.26 142.218C192.009 142.861 191.722 143.539 191.364 144.396C189.464 143.075 187.42 142.468 184.982 142.861C186.237 139.754 187.384 136.898 188.531 134.077C194.16 120.187 199.824 106.298 205.488 92.4079C210.292 80.5534 215.132 68.699 219.935 56.8445C220.868 54.595 221.585 52.2741 221.585 49.8104C221.585 46.8111 220.366 44.4188 218.035 42.5978C216.673 41.5266 215.096 40.8125 213.518 40.134C201.33 35.2423 189.141 30.3505 176.952 25.4231C169.46 22.4238 161.967 19.4245 154.475 16.3894C153.041 15.8181 151.571 15.3897 149.993 15.2468C146.982 14.9969 144.509 15.9967 142.465 18.139C140.852 19.8529 139.776 21.8882 138.88 24.0306C134.829 33.9569 130.814 43.8832 126.763 53.8452C116.869 78.1611 107.01 102.477 97.1158 126.793C89.5874 145.289 82.0949 163.785 74.5666 182.28C73.6703 184.53 72.7741 186.779 72.5232 189.243C72.2005 192.421 73.3835 194.92 75.9647 196.777C77.327 197.741 78.7968 198.491 80.3383 199.134C100.055 207.06 119.808 215.023 139.525 222.95C140.959 223.521 142.429 223.985 143.971 224.271C147.735 224.878 150.603 223.521 152.79 220.522C153.901 218.986 154.726 217.272 155.443 215.523C159.386 205.882 163.294 196.206 167.237 186.565C169.029 182.173 170.822 177.781 172.614 173.39C172.722 172.997 172.758 172.461 173.367 172.211Z" fill="white"/>
<path d="M216.028 189.386C215.49 187.6 214.988 185.886 214.415 184.172C213.16 180.459 211.332 176.996 209.037 173.818C207.173 171.211 205.703 168.355 204.054 165.605C201.76 161.785 199.573 157.928 197.279 154.108C196.813 153.322 196.741 152.68 197.1 151.787C202.871 137.576 208.643 123.365 214.415 109.154C214.594 108.69 214.702 108.118 215.275 107.761C216.315 109.904 216.817 112.153 217.175 114.403C218.466 121.901 218.681 129.471 218.717 137.076C218.788 150.073 218.215 163.034 217.283 175.96C216.996 179.852 216.745 183.744 216.422 187.672C216.422 188.243 216.566 188.85 216.028 189.386Z" fill="white"/>
<path d="M131.065 61.272C130.599 61.2363 130.42 61.0221 130.384 60.7007C130.312 60.2723 130.563 59.9152 130.707 59.5224C134.076 51.2743 137.446 42.9905 140.852 34.7423C141.067 34.2424 141.175 33.3498 141.963 33.6711C142.895 34.0282 142.286 34.778 142.071 35.3493C138.701 43.5975 135.295 51.8813 131.925 60.1294C131.71 60.5936 131.567 61.1292 131.065 61.272Z" fill="#262626"/>
<path d="M124.684 209.024C124.54 209.417 124.29 209.631 123.895 209.559C123.501 209.452 123.106 209.274 122.748 209.131C115.04 205.882 107.333 202.632 99.661 199.348C99.1233 199.133 98.0837 199.026 98.4063 198.169C98.8007 197.134 99.6252 197.884 100.199 198.134C107.835 201.347 115.506 204.596 123.142 207.81C123.537 207.988 123.895 208.131 124.29 208.31C124.54 208.453 124.684 208.667 124.684 209.024Z" fill="#262626"/>
<path d="M70.3004 51.5953C71.3759 50.4527 72.4872 49.2744 73.5627 48.1318C74.3872 47.2749 75.0684 47.2392 75.9646 47.9533C77.542 49.203 78.9759 50.5956 80.4099 51.9881C80.3382 52.2381 80.4816 52.4166 80.5892 52.5951C81.0911 53.5592 81.0552 53.8448 80.3382 54.6661C77.0759 58.201 73.8136 61.7359 70.5155 65.2351C68.0778 67.8417 65.6759 70.4482 63.2381 73.0191C61.4815 74.8758 59.7249 76.7682 57.9683 78.6249C57.3947 79.2319 56.7852 79.6604 55.9607 79.8746C54.455 80.2317 53.0928 80.0889 51.838 79.1248C51.4078 78.7678 50.9418 78.4464 50.5475 78.0893C50.0456 77.6609 49.5795 77.2324 49.0776 76.8039C48.8625 76.6254 48.6474 76.4826 48.3607 76.5897C46.0304 74.5901 43.7002 72.5549 41.3342 70.5553C41.4417 70.234 41.2266 70.0554 41.0116 69.8769C40.3304 69.3056 39.6493 68.6986 38.9681 68.1273C38.1078 67.3775 37.2474 66.6634 36.4228 65.8778C35.5983 65.128 35.5625 64.521 36.2794 63.664C37.57 62.093 38.8606 60.5219 40.2946 59.0936C41.0474 58.3438 41.5851 58.3081 42.4097 58.9865C43.0191 59.4864 43.5927 59.9506 44.2021 60.4862C46.8191 62.7357 49.4361 65.0209 52.0531 67.2704C52.6626 67.806 53.3079 68.3058 53.9531 68.8414C54.2399 69.0557 54.455 69.0914 54.706 68.8057C54.7777 68.6986 54.8852 68.6272 54.9569 68.5558C57.4664 65.8778 59.9758 63.1641 62.4853 60.4862C64.9947 57.8082 67.5042 55.0946 70.0136 52.4166C70.157 52.0952 70.4438 51.9524 70.3004 51.5953Z" fill="#00E3A8"/>
<path d="M70.3004 51.5955C69.9061 51.4526 69.7268 51.774 69.5476 51.9882C66.2136 55.5589 62.8796 59.1295 59.5456 62.7001C59.3664 62.9143 58.0041 64.3783 57.6814 64.7353C56.6777 65.7708 55.7097 66.8063 54.7418 67.8418C54.3116 68.306 54.3116 68.306 53.8456 67.9132C50.9776 65.5566 48.1814 63.0572 45.3493 60.6291C44.5606 59.9507 43.8078 59.308 43.0191 58.6653C42.7681 58.4511 42.5172 58.2725 42.2663 58.1297C41.6568 57.8083 41.0474 57.8083 40.4738 58.2011C40.1511 58.4153 39.9002 58.6653 39.6493 58.9152C38.3228 60.3078 37.104 61.7717 35.8851 63.2357C34.9888 64.3426 35.0605 65.1995 36.1002 66.235C36.7455 66.842 37.4266 67.449 38.1077 68.0203C38.9681 68.7701 39.8285 69.52 40.6889 70.2341C40.8681 70.4126 41.0474 70.6626 41.37 70.484C41.4776 70.1627 41.2625 69.9841 41.0474 69.8056C40.3662 69.2343 39.6851 68.6273 39.004 68.056C38.1436 67.3062 37.2832 66.5921 36.4587 65.8065C35.6341 65.0567 35.5983 64.4497 36.3153 63.5927C37.6058 62.0217 38.8964 60.4506 40.3304 59.0224C41.0832 58.2725 41.621 58.2368 42.4455 58.9152C43.0549 59.4151 43.6285 59.8793 44.238 60.4149C46.855 62.6644 49.472 64.9496 52.089 67.1991C52.6984 67.7347 53.3437 68.2345 53.989 68.7701C54.2758 68.9844 54.4909 69.0201 54.7418 68.7344C54.8135 68.6273 54.921 68.5559 54.9927 68.4845C57.5022 65.8065 60.0117 63.0929 62.5211 60.4149C65.0306 57.7369 67.54 55.0233 70.0494 52.3453C70.157 52.0954 70.4438 51.9525 70.3004 51.5955Z" fill="#2E2733" stroke="#2E2733" stroke-width="0.6" stroke-miterlimit="10"/>
<path d="M80.9834 52.1666C80.84 51.9167 80.6608 51.8095 80.4099 51.9881C80.3382 52.238 80.4816 52.4165 80.5891 52.5951C81.091 53.5591 81.0551 53.8448 80.3382 54.666C77.0759 58.2009 73.8136 61.7359 70.5155 65.2351C68.0777 67.8416 65.6758 70.4482 63.2381 73.019C61.4814 74.8757 59.7248 76.7682 57.9682 78.6249C57.3946 79.2319 56.7852 79.6604 55.9607 79.8746C54.455 80.2317 53.0927 80.0889 51.838 79.1248C51.4078 78.7677 50.9418 78.4464 50.5474 78.0893C50.0455 77.6608 49.5795 77.2324 49.0776 76.8039C48.8625 76.6254 48.6474 76.4825 48.3606 76.5896C48.2889 76.8039 48.3606 76.9467 48.5399 77.0895C49.5436 77.8751 50.4399 78.8034 51.4795 79.589C52.9135 80.6959 54.5267 80.9101 56.2116 80.4459C56.7135 80.3031 57.1795 80.0889 57.5739 79.8032C57.6097 79.7675 57.6814 79.7318 57.7173 79.6961C57.7173 79.6961 57.7531 79.6961 57.7531 79.6604C57.789 79.6247 57.789 79.6247 57.8248 79.589C58.1116 79.3747 58.9361 78.4821 59.1871 78.1964C62.2343 74.9472 65.2815 71.6979 68.3287 68.4486C72.4872 64.0211 76.6098 59.5578 80.7325 55.0945C81.6646 54.059 81.7004 53.2378 80.9834 52.1666Z" fill="#2E2733" stroke="#2E2733" stroke-width="0.6" stroke-miterlimit="10"/>
</g>
<defs>
<clipPath id="clip0">
<rect width="294" height="315" fill="white"/>
</clipPath>
</defs>
</svg>
