<svg width="382" height="382" viewBox="0 0 382 382" fill="none" xmlns="http://www.w3.org/2000/svg">
<rect width="382" height="382" fill="white"/>
<g clip-path="url(#clip0)">
<path d="M224.214 222.885C222.995 224.813 222.422 226.705 221.669 228.526C218.658 235.739 215.79 243.023 212.85 250.307C212.277 251.771 211.703 253.235 211.129 254.699C209.552 258.662 206.863 261.519 202.741 262.947C200.876 263.59 198.905 263.804 196.969 263.483C195.212 263.197 193.42 262.983 191.807 262.019C190.982 261.519 189.942 261.233 189.01 261.197C186.752 261.09 184.852 259.912 182.808 259.162C179.654 258.02 176.607 256.663 173.488 255.413C171.767 254.735 170.082 254.056 168.361 253.378C165.242 252.128 162.159 250.878 159.076 249.629C154.344 247.736 149.612 245.808 144.88 243.916C141.797 242.666 138.714 241.381 135.631 240.095C132.584 238.81 129.429 237.667 126.346 236.489C122.797 235.132 119.248 233.775 115.842 232.168C113.87 231.24 112.114 229.919 110.787 228.026C109.783 226.598 108.851 225.241 108.349 223.527C108.17 222.956 108.17 222.421 108.099 221.849C107.597 218.421 108.134 215.136 109.532 211.994C112.58 205.067 115.233 197.962 118.136 190.963C120.072 186.286 121.936 181.608 123.801 176.895C125.234 173.253 126.812 169.647 128.318 166.005C129.787 162.434 131.221 158.828 132.655 155.221C133.659 152.722 134.591 150.223 135.595 147.759C136.814 144.76 138.069 141.76 139.287 138.761C140.614 135.547 141.904 132.37 143.195 129.156C145.131 124.407 146.959 119.622 149.003 114.909C151.01 110.196 152.91 105.447 154.846 100.698C157.355 94.5209 159.901 88.3795 162.374 82.2023C164.597 76.6321 166.927 71.1334 169.078 65.5632C170.871 60.8857 172.878 56.3153 174.671 51.6378C175.567 49.2455 176.427 46.8175 177.539 44.5323C180.442 38.5336 185.246 35.4986 192.452 36.177C194.495 36.3913 196.359 37.3553 198.259 38.1052C209.767 42.6756 221.239 47.2817 232.711 51.9235C243.43 56.2439 254.149 60.5644 264.832 64.9205C266.337 65.5275 267.843 66.2416 269.134 67.2771C269.886 67.8841 270.89 68.2055 271.822 68.5268C275.909 69.9551 278.562 72.7402 279.96 76.775C281.036 79.8814 280.82 82.9164 279.602 85.9515C275.909 94.9851 272.217 104.019 268.524 113.088C265.764 119.837 263.039 126.621 260.279 133.369C259.884 134.298 259.92 135.047 260.386 135.976C261.964 139.189 262.573 142.689 263.039 146.188C264.437 157.507 264.33 168.897 263.971 180.287C263.792 186.821 263.398 193.32 263.039 199.818C262.573 208.459 261.82 217.1 261.032 225.706C260.781 228.598 260.566 231.49 259.992 234.346C259.132 238.631 257.518 242.63 255.762 246.629C252.249 254.485 248.771 262.34 245.294 270.231C243.716 273.766 242.139 277.265 240.562 280.8C240.06 281.943 239.737 283.085 239.701 284.371C239.307 300.153 239.02 315.899 239.128 331.681C239.164 334.824 239.307 337.966 239.45 341.108C239.522 342.786 239.558 342.786 241.171 342.786C242.892 342.786 244.613 342.822 246.333 342.822C269.958 342.822 293.583 342.858 317.243 342.858C317.781 342.858 318.319 342.857 318.856 342.893C319.179 342.929 319.394 343.143 319.43 343.465C319.43 343.822 319.179 344 318.856 344C318.426 344.036 318.032 344.036 317.602 344.036C234.145 344.036 150.687 344.036 67.2303 344.036C66.8001 344.036 66.4058 344.036 65.9756 344C65.6171 343.964 65.2586 343.929 65.2945 343.393C65.3303 343 65.5454 342.75 65.9398 342.715C66.2266 342.679 66.5492 342.715 66.836 342.715C89.7078 342.75 112.544 342.75 135.416 342.786C140.363 342.786 145.31 342.786 150.221 342.786C151.763 342.786 151.763 342.75 151.906 341.215C152.731 331.896 153.52 322.541 154.201 313.221C155.025 301.974 155.706 290.726 155.85 279.479C155.886 276.408 155.85 273.302 155.563 270.231C155.384 268.339 154.595 266.91 153.412 265.411C151.261 262.733 148.895 260.162 146.887 257.341C145.74 255.734 144.306 254.306 143.016 252.771C140.829 250.093 138.642 247.451 136.419 244.773C136.025 244.308 135.702 243.809 135.774 243.202C135.81 242.809 136.133 242.523 136.527 242.809C136.957 243.13 137.316 243.523 137.674 243.916C139.502 246.094 141.331 248.272 143.123 250.486C145.561 253.449 147.963 256.449 150.365 259.412C152.265 261.733 154.129 264.09 156.029 266.446C156.423 266.946 156.531 267.482 156.638 268.089C157.284 272.695 157.284 277.301 157.176 281.943C156.854 295.154 155.993 308.365 154.918 321.541C154.416 327.754 153.878 333.931 153.376 340.144C153.34 340.608 153.269 341.072 153.161 341.536C152.874 342.608 153.018 342.75 154.165 342.75C157.929 342.786 161.657 342.786 165.422 342.786C189.01 342.786 212.563 342.822 236.152 342.822C238.196 342.822 238.196 342.822 238.088 340.822C237.658 330.325 237.73 319.827 237.945 309.329C238.088 300.903 238.267 292.512 238.339 284.085C238.339 282.585 238.769 281.264 239.343 279.908C242.031 273.909 244.648 267.875 247.337 261.876C249.345 257.448 251.316 252.985 253.288 248.522C254.937 244.737 256.55 240.916 257.805 236.917C259.884 230.419 259.849 223.992 258.271 217.529C257.303 213.708 255.726 210.03 253.79 206.567C252.643 204.496 250.994 202.711 249.811 200.604C247.911 197.141 245.76 193.82 243.86 190.356C241.888 186.821 239.737 183.358 237.622 179.894C236.726 178.466 236.08 176.895 235.041 175.574C232.388 172.182 227.835 172.396 225.577 175.967C220.916 183.394 218.55 191.463 218.873 200.247C219.088 206.424 220.558 212.351 223.211 217.957C225.111 221.992 227.369 225.813 230.058 229.383C230.237 229.633 230.452 229.847 230.596 230.097C230.739 230.383 230.703 230.704 230.452 230.919C230.201 231.133 229.914 231.097 229.663 230.883C229.269 230.526 228.803 230.204 228.516 229.776C226.939 227.669 225.254 225.634 224.214 222.885ZM264.15 78.6674C264.258 76.0608 262.932 73.8114 260.494 72.1689C259.418 71.4547 258.235 70.8834 257.016 70.3836C238.59 62.9924 220.199 55.5655 201.773 48.1743C199.837 47.3888 197.973 46.4961 195.929 45.9605C191.735 44.8179 188.652 45.9605 186.142 49.4954C184.959 51.1736 184.207 53.0304 183.454 54.8871C174.993 75.7038 166.569 96.4848 158.108 117.301C145.167 149.151 132.261 180.966 119.319 212.816C118.638 214.529 118.065 216.279 117.814 218.1C117.455 220.671 118.208 222.778 120.251 224.42C121.614 225.527 123.155 226.277 124.768 226.919C142.729 234.132 160.689 241.381 178.686 248.593C181.231 249.629 183.705 250.736 186.322 251.557C190.767 252.914 193.742 251.807 196.216 247.879C197.076 246.522 197.722 245.058 198.331 243.594C204.569 228.276 210.771 212.958 217.009 197.676C217.295 196.962 217.511 196.212 217.546 195.462C218.084 188.107 220.594 181.394 224.501 175.146C224.931 174.431 225.433 173.717 226.15 173.289C227.046 172.753 227.405 171.932 227.763 171.039C234.324 154.9 240.884 138.761 247.445 122.622C252.428 110.339 257.447 98.0202 262.43 85.7372C263.326 83.5948 264.115 81.4168 264.15 78.6674ZM217.367 201.211C216.758 201.497 216.722 201.997 216.543 202.425C214.75 206.817 212.958 211.209 211.165 215.601C207.222 225.241 203.314 234.918 199.371 244.558C198.654 246.308 197.829 248.022 196.718 249.557C194.531 252.557 191.663 253.913 187.899 253.306C186.358 253.056 184.888 252.592 183.454 251.985C163.737 244.058 144.02 236.132 124.267 228.169C122.725 227.562 121.219 226.812 119.893 225.813C117.312 223.956 116.165 221.456 116.451 218.279C116.702 215.815 117.563 213.565 118.495 211.316C126.023 192.82 133.516 174.324 141.044 155.828C150.938 131.513 160.797 107.197 170.691 82.8807C174.742 72.9544 178.757 62.9924 182.808 53.0661C183.669 50.9237 184.78 48.8884 186.393 47.1745C188.437 44.9965 190.946 43.9967 193.922 44.2823C195.463 44.4252 196.969 44.8179 198.403 45.4249C205.895 48.4243 213.388 51.4236 220.88 54.4586C233.069 59.3504 245.258 64.2421 257.447 69.1695C259.06 69.8123 260.601 70.5264 261.964 71.6333C264.33 73.49 265.513 75.8823 265.513 78.8459C265.513 81.3097 264.796 83.6306 263.864 85.88C259.06 97.7345 254.22 109.589 249.416 121.443C243.788 135.333 238.124 149.223 232.46 163.113C231.313 165.969 230.165 168.79 228.911 171.896C231.384 171.503 233.428 172.11 235.292 173.432C235.65 172.575 235.937 171.932 236.188 171.254C244.039 151.936 251.89 132.619 259.705 113.267C263.828 103.126 268.022 92.9856 272.037 82.8093C274.726 76.0608 271.643 69.2053 264.903 66.4559C252.033 61.2071 239.056 55.994 226.114 50.7809C215.933 46.6747 205.716 42.5684 195.535 38.4622C193.563 37.6767 191.556 37.2125 189.441 37.4625C184.386 38.0695 180.801 40.676 178.901 45.3535C173.846 57.7079 168.863 70.0622 163.844 82.3808C155.348 103.34 146.816 124.336 138.319 145.295C131.329 162.47 124.374 179.645 117.383 196.855C115.017 202.675 112.651 208.495 110.285 214.315C108.457 218.778 108.887 223.028 111.755 226.919C113.225 228.955 115.268 230.24 117.563 231.169C124.302 233.847 131.006 236.56 137.746 239.274C154.129 245.879 170.476 252.485 186.859 259.019C193.707 261.769 200.626 258.769 203.458 251.985C204.175 250.236 204.892 248.486 205.609 246.701C210.09 235.668 214.571 224.634 219.088 213.601C219.482 212.673 219.518 211.851 219.195 210.852C218.478 208.602 218.048 206.246 217.762 203.889C217.582 203.068 217.69 202.139 217.367 201.211ZM260.028 218.386C260.601 217.85 260.458 217.243 260.494 216.672C260.781 212.78 261.067 208.888 261.354 204.96C262.286 191.999 262.86 179.037 262.788 166.076C262.752 158.471 262.501 150.901 261.247 143.403C260.852 141.153 260.386 138.904 259.347 136.761C258.773 137.118 258.666 137.654 258.486 138.154C252.715 152.365 246.979 166.576 241.171 180.787C240.813 181.644 240.848 182.287 241.35 183.108C243.645 186.929 245.832 190.785 248.126 194.605C249.775 197.355 251.209 200.211 253.109 202.818C255.403 206.031 257.232 209.459 258.486 213.173C258.988 214.887 259.454 216.6 260.028 218.386Z" fill="#262626"/>
<path d="M67.5531 221.956C68.2342 223.135 69.4172 223.313 70.6361 223.385C73.0022 223.563 75.3682 223.706 77.7701 223.884C77.9852 224.384 78.4513 224.491 78.9173 224.599C79.455 224.741 79.9211 224.956 80.3154 225.348C81.7852 226.848 81.3909 229.062 79.4192 230.062C77.1607 231.24 74.8305 232.311 72.5361 233.418C70.7795 234.275 69.8116 235.596 69.7399 237.596C69.6682 239.774 69.5248 241.952 69.3814 244.166C69.3455 244.808 69.2738 245.487 69.0946 246.094C68.8078 247.236 67.9474 247.879 66.8361 248.093C65.7248 248.343 64.8285 247.915 64.1474 247.093C63.7889 246.629 63.5021 246.094 63.2512 245.558C62.2115 243.451 61.1719 241.309 60.0964 239.202C59.3436 237.703 58.1606 236.846 56.4398 236.774C54.719 236.703 52.9983 236.56 51.2775 236.453C50.202 236.382 49.1265 236.31 48.0869 236.203C46.7605 236.025 45.8642 235.203 45.5775 234.025C45.2907 232.775 45.8284 231.597 46.9756 230.847C47.3341 230.633 47.7284 230.454 48.0869 230.276C50.0586 229.312 52.0303 228.348 54.002 227.384C55.902 226.491 56.9058 225.063 56.9775 222.92C57.0134 220.671 57.1926 218.421 57.336 216.172C57.3719 215.601 57.4436 214.994 57.6228 214.422C58.3756 212.423 60.9926 211.923 62.4266 213.53C62.7851 213.922 63.0361 214.422 63.2512 214.886C64.2191 216.85 65.187 218.814 66.1549 220.778C66.4776 221.421 66.6927 222.099 67.5531 221.956Z" fill="#00E3A8"/>
<path d="M101.789 137.511C106.055 137.404 110.68 136.833 115.161 135.226C119.965 133.512 124.482 131.298 128.497 128.12C130.182 126.799 131.759 125.335 133.337 123.871C133.588 123.621 133.91 123.514 134.161 123.3C134.448 123.05 134.735 123.264 134.95 123.443C135.201 123.657 135.165 123.979 134.95 124.228C134.627 124.586 134.305 124.943 133.982 125.264C130.433 128.87 126.274 131.691 121.793 133.976C115.197 137.333 108.135 138.832 100.75 138.761C98.2403 138.725 95.7667 138.44 93.2931 138.047C90.6044 137.654 87.9515 137.083 85.4421 136.154C82.0005 134.869 78.7024 133.262 75.6552 131.191C74.1496 130.191 72.9307 128.906 71.425 127.906C70.5288 127.299 69.8835 126.264 69.059 125.514C65.5099 122.229 62.6061 118.408 60.4193 114.124C59.057 111.446 57.7664 108.661 57.0853 105.733C55.5438 99.2698 54.8985 92.7356 56.0457 86.1299C56.3325 84.3803 56.4759 82.6307 56.9777 80.8811C57.8381 77.9889 58.8778 75.2039 60.2042 72.4902C61.2438 70.4192 62.391 68.384 63.7891 66.4915C65.7967 63.8136 67.9118 61.207 70.4571 58.9575C73.3967 56.3867 76.5515 54.0301 80.0288 52.3519C88.1308 48.3885 96.6988 46.5675 105.804 47.4601C111.576 48.0314 117.025 49.6382 122.188 52.2091C131.759 57.0294 138.75 64.3492 143.267 74.0255C143.303 74.1327 143.375 74.2398 143.41 74.3469C143.554 74.7754 144.02 75.2396 143.446 75.5966C142.765 76.0251 142.299 75.4895 142.048 74.9539C141.188 73.3114 140.399 71.6332 139.467 70.0265C136.635 65.2418 132.907 61.2784 128.533 57.8506C124.195 54.4586 119.212 52.4233 114.05 50.6023C106.988 48.1386 99.9252 48.1386 92.7553 49.3526C89.4931 49.8882 86.41 51.1379 83.327 52.459C78.5949 54.4943 74.4005 57.3151 70.6722 60.85C54.5758 76.0251 52.2456 101.198 65.1872 118.98C71.1382 127.156 78.9892 132.727 88.6685 135.654C92.7912 136.904 97.0214 137.44 101.789 137.511Z" fill="#262626"/>
<path d="M67.5531 221.956C66.6928 222.099 66.4777 221.421 66.1909 220.85C65.2229 218.886 64.255 216.922 63.2871 214.958C63.0361 214.494 62.7852 213.994 62.4625 213.601C61.0286 212.03 58.4116 212.494 57.6587 214.494C57.4436 215.029 57.4078 215.636 57.3719 216.243C57.2285 218.493 57.0493 220.742 57.0134 222.992C56.9776 225.134 55.938 226.527 54.038 227.455C52.0662 228.419 50.0945 229.383 48.1228 230.347C47.7643 230.526 47.37 230.704 47.0115 230.919C45.8285 231.633 45.3266 232.847 45.6134 234.097C45.9002 235.275 46.7964 236.132 48.1228 236.275C49.1983 236.417 50.2379 236.453 51.3134 236.525C53.0342 236.632 54.7549 236.739 56.4757 236.846C58.1965 236.917 59.3795 237.774 60.1323 239.274C61.2078 241.381 62.2116 243.523 63.2871 245.63C63.538 246.165 63.8248 246.701 64.1833 247.165C64.8644 247.986 65.7607 248.415 66.872 248.165C67.9833 247.915 68.8437 247.308 69.1305 246.165C69.2739 245.523 69.3456 244.88 69.4173 244.237C69.5607 242.059 69.7041 239.881 69.7758 237.667C69.8475 235.668 70.7796 234.347 72.572 233.49C74.8664 232.383 77.1966 231.311 79.4551 230.133C81.4627 229.098 81.8212 226.92 80.3513 225.42C79.957 225.027 79.491 224.777 78.9532 224.67C78.4872 224.563 78.0211 224.42 77.806 223.956C78.1287 223.099 78.8098 223.242 79.4551 223.42C81.0683 223.813 82.5023 225.491 82.5381 227.312C82.574 228.955 81.8212 230.49 80.3513 231.24C77.806 232.526 75.3324 233.918 72.7513 235.132C71.7117 235.632 71.2456 236.346 71.1739 237.417C70.9947 240.06 70.7437 242.737 70.672 245.38C70.6003 247.129 69.5966 248.272 68.3777 249.2C66.8362 250.343 63.3946 249.272 62.6059 247.522C61.4229 244.951 59.9531 242.523 58.7342 239.952C58.1606 238.738 56.9418 238.203 55.5436 238.131C52.8908 237.989 50.2021 237.81 47.5492 237.631C46.1153 237.524 44.5379 236.025 44.287 234.596C43.7492 231.847 44.3228 230.776 46.8681 229.455C48.9115 228.419 50.9191 227.277 53.0342 226.348C54.8625 225.563 55.6153 224.242 55.7229 222.349C55.8663 219.921 56.0097 217.493 56.1889 215.065C56.2965 213.744 56.655 212.566 58.0172 211.887C60.4908 210.673 63.0361 211.459 64.2909 213.923C65.438 216.172 66.4777 218.422 67.589 220.707C67.7324 221.064 67.8041 221.492 67.5531 221.956Z" fill="#262626"/>
<path d="M308.353 145.795C308.353 132.977 308.353 120.194 308.353 107.375C308.353 106.84 308.353 106.304 308.389 105.769C308.425 105.447 308.604 105.197 308.927 105.197C309.321 105.162 309.608 105.411 309.679 105.804C309.751 106.34 309.715 106.875 309.715 107.411C309.715 128.442 309.679 149.509 309.679 170.54C309.679 175.11 309.679 179.68 309.643 184.215C309.643 184.679 309.751 185.143 309.5 185.608C309.321 185.929 309.07 185.965 308.783 186.036C308.317 186.107 308.353 185.679 308.353 185.465C308.281 184.929 308.317 184.394 308.317 183.858C308.317 171.182 308.317 158.471 308.353 145.795Z" fill="#262626"/>
<path d="M330.328 192.249C330.328 179.323 330.328 166.433 330.364 153.508C330.364 152.829 329.898 151.651 331.045 151.651C331.977 151.651 331.619 152.793 331.619 153.436C331.619 179.145 331.619 204.853 331.619 230.562C331.619 231.026 331.619 231.526 331.547 231.99C331.475 232.275 331.225 232.49 330.902 232.454C330.579 232.418 330.364 232.24 330.328 231.883C330.292 231.418 330.292 230.919 330.292 230.454C330.292 217.707 330.292 204.996 330.292 192.249C330.292 192.249 330.328 192.249 330.328 192.249Z" fill="#262626"/>
<path d="M65.3662 93.0215C65.7964 80.3458 71.0304 70.2409 81.6776 63.0283C81.9644 62.8141 82.2871 62.6712 82.5739 62.457C82.9324 62.2071 83.255 62.3142 83.506 62.5998C83.8644 62.9926 83.5418 63.2782 83.2909 63.4925C82.3946 64.1709 81.4625 64.7779 80.5663 65.4563C73.4682 70.8837 68.9511 77.9178 67.3738 86.7372C65.8681 95.0925 67.0511 103.019 71.4247 110.41C71.5323 110.625 71.604 110.839 71.7474 111.053C72.0342 111.482 71.7832 111.732 71.4964 111.91C71.1738 112.089 70.7436 112.16 70.5644 111.803C70.1342 110.91 69.3813 110.196 69.0587 109.268C68.0191 106.197 66.6568 103.233 66.119 99.9842C65.653 97.6276 65.3662 95.3424 65.3662 93.0215Z" fill="#262626"/>
<path d="M87.3062 284.014C87.3062 275.765 87.3062 267.553 87.3062 259.305C87.3062 258.876 87.2703 258.484 87.3062 258.055C87.342 257.734 87.1986 257.305 87.7005 257.234C88.2741 257.163 88.5968 257.484 88.6326 258.055C88.6685 258.484 88.6685 258.876 88.6685 259.305C88.6685 275.944 88.6685 292.619 88.6685 309.258C88.6685 309.722 88.6685 310.222 88.6326 310.686C88.5968 311.079 88.3458 311.329 87.9156 311.293C87.593 311.257 87.3779 311.043 87.342 310.722C87.3062 310.258 87.3062 309.758 87.3062 309.294C87.2703 300.831 87.2703 292.44 87.3062 284.014Z" fill="#262626"/>
<path d="M264.151 78.6675C264.115 81.4169 263.326 83.595 262.466 85.7373C257.483 98.0203 252.464 110.339 247.481 122.622C240.92 138.761 234.36 154.9 227.799 171.039C227.441 171.932 227.082 172.753 226.186 173.289C225.469 173.717 225.003 174.431 224.537 175.146C220.63 181.358 218.12 188.071 217.582 195.462C217.511 196.248 217.331 196.962 217.045 197.676C210.807 212.994 204.569 228.276 198.367 243.594C197.758 245.094 197.112 246.522 196.252 247.879C193.778 251.807 190.803 252.914 186.358 251.557C183.741 250.771 181.231 249.629 178.722 248.593C160.761 241.381 142.801 234.132 124.804 226.92C123.191 226.277 121.65 225.527 120.287 224.42C118.244 222.778 117.491 220.671 117.85 218.1C118.101 216.279 118.674 214.53 119.355 212.816C132.297 180.966 145.203 149.152 158.144 117.302C166.605 96.4849 175.029 75.7039 183.49 54.8872C184.243 53.0305 185.031 51.1737 186.178 49.4955C188.688 45.9249 191.735 44.818 195.965 45.9606C197.973 46.4962 199.873 47.3889 201.809 48.1744C220.235 55.5656 238.626 62.9568 257.052 70.3837C258.271 70.8836 259.454 71.4191 260.53 72.169C262.968 73.8115 264.258 76.061 264.151 78.6675ZM175.065 90.272C175.567 90.1292 175.71 89.5936 175.89 89.0937C179.26 80.8456 182.665 72.5617 186.035 64.3136C186.25 63.778 186.86 62.9925 185.927 62.6354C185.139 62.3498 185.031 63.2067 184.816 63.7066C181.41 71.9547 178.041 80.2386 174.671 88.4867C174.527 88.8795 174.276 89.2365 174.348 89.665C174.42 90.0578 174.599 90.2363 175.065 90.272ZM168.684 238.024C168.72 237.703 168.541 237.453 168.254 237.31C167.895 237.132 167.501 236.989 167.107 236.81C159.471 233.561 151.835 230.347 144.163 227.134C143.589 226.884 142.765 226.134 142.371 227.17C142.048 228.026 143.088 228.098 143.625 228.348C151.333 231.633 159.005 234.882 166.712 238.131C167.107 238.31 167.465 238.488 167.859 238.56C168.254 238.631 168.541 238.417 168.684 238.024Z" fill="white"/>
<path d="M217.367 201.211C217.69 202.14 217.582 203.104 217.69 204.032C218.013 206.389 218.407 208.71 219.124 210.995C219.447 211.959 219.375 212.78 219.016 213.744C214.499 224.777 210.054 235.811 205.537 246.844C204.82 248.593 204.139 250.379 203.386 252.128C200.554 258.912 193.635 261.912 186.788 259.162C170.405 252.592 154.057 245.987 137.674 239.417C130.935 236.703 124.231 233.989 117.491 231.312C115.161 230.383 113.153 229.098 111.684 227.062C108.816 223.135 108.421 218.922 110.214 214.458C112.58 208.638 114.946 202.818 117.312 196.998C124.303 179.823 131.257 162.649 138.248 145.438C146.744 124.479 155.276 103.483 163.773 82.5239C168.792 70.1695 173.775 57.8152 178.829 45.4965C180.765 40.7833 184.35 38.2125 189.369 37.6055C191.484 37.3555 193.492 37.8197 195.463 38.6053C205.716 42.5686 215.933 46.6749 226.115 50.7811C239.056 55.9942 252.034 61.2073 264.975 66.4204C271.715 69.134 274.798 76.0253 272.109 82.7738C268.058 92.9501 263.9 103.091 259.777 113.231C251.926 132.548 244.075 151.865 236.26 171.218C236.009 171.861 235.722 172.539 235.364 173.396C233.464 172.075 231.42 171.468 228.983 171.861C230.237 168.754 231.384 165.898 232.532 163.077C238.16 149.187 243.824 135.298 249.488 121.408C254.292 109.553 259.132 97.699 263.936 85.8445C264.868 83.595 265.585 81.2741 265.585 78.8104C265.585 75.8111 264.366 73.4188 262.036 71.5978C260.673 70.5266 259.096 69.8125 257.519 69.134C245.33 64.2423 233.141 59.3505 220.952 54.4231C213.46 51.4238 205.967 48.4245 198.475 45.3894C197.041 44.8181 195.571 44.3897 193.994 44.2468C190.982 43.9969 188.509 44.9967 186.465 47.139C184.852 48.8529 183.777 50.8882 182.88 53.0306C178.829 62.9569 174.814 72.8832 170.763 82.8452C160.869 107.161 151.01 131.477 141.116 155.793C133.588 174.289 126.095 192.785 118.567 211.28C117.67 213.53 116.774 215.779 116.523 218.243C116.201 221.421 117.384 223.92 119.965 225.777C121.327 226.741 122.797 227.491 124.338 228.134C144.056 236.06 163.808 244.023 183.526 251.95C184.96 252.521 186.429 252.985 187.971 253.271C191.735 253.878 194.603 252.521 196.79 249.522C197.901 247.986 198.726 246.272 199.443 244.523C203.386 234.882 207.294 225.206 211.237 215.565C213.03 211.173 214.822 206.781 216.614 202.39C216.722 201.997 216.758 201.461 217.367 201.211Z" fill="white"/>
<path d="M260.028 218.386C259.49 216.6 258.989 214.886 258.415 213.172C257.16 209.459 255.332 205.996 253.038 202.818C251.173 200.211 249.704 197.355 248.055 194.605C245.76 190.785 243.573 186.928 241.279 183.108C240.813 182.322 240.741 181.68 241.1 180.787C246.871 166.576 252.643 152.365 258.415 138.154C258.594 137.69 258.702 137.118 259.275 136.761C260.315 138.904 260.817 141.153 261.175 143.403C262.466 150.901 262.681 158.471 262.717 166.076C262.789 179.073 262.215 192.034 261.283 204.96C260.996 208.852 260.745 212.744 260.423 216.672C260.423 217.243 260.566 217.85 260.028 218.386Z" fill="white"/>
<path d="M175.065 90.272C174.599 90.2363 174.42 90.0221 174.384 89.7007C174.313 89.2723 174.563 88.9152 174.707 88.5224C178.077 80.2743 181.446 71.9905 184.852 63.7423C185.067 63.2424 185.175 62.3498 185.964 62.6711C186.896 63.0282 186.286 63.778 186.071 64.3493C182.701 72.5975 179.296 80.8813 175.926 89.1294C175.711 89.5936 175.567 90.1292 175.065 90.272Z" fill="#262626"/>
<path d="M168.684 238.024C168.541 238.417 168.29 238.631 167.895 238.559C167.501 238.452 167.107 238.274 166.748 238.131C159.041 234.882 151.333 231.632 143.661 228.348C143.124 228.133 142.084 228.026 142.407 227.169C142.801 226.134 143.625 226.884 144.199 227.134C151.835 230.347 159.507 233.596 167.143 236.81C167.537 236.988 167.895 237.131 168.29 237.31C168.541 237.453 168.684 237.667 168.684 238.024Z" fill="#262626"/>
<path d="M114.3 80.5953C115.376 79.4527 116.487 78.2744 117.563 77.1318C118.387 76.2749 119.068 76.2392 119.964 76.9533C121.542 78.203 122.976 79.5956 124.41 80.9881C124.338 81.2381 124.481 81.4166 124.589 81.5951C125.091 82.5592 125.055 82.8448 124.338 83.6661C121.076 87.201 117.814 90.7359 114.515 94.2351C112.078 96.8417 109.676 99.4482 107.238 102.019C105.481 103.876 103.725 105.768 101.968 107.625C101.395 108.232 100.785 108.66 99.9606 108.875C98.4549 109.232 97.0926 109.089 95.8379 108.125C95.4077 107.768 94.9417 107.446 94.5473 107.089C94.0454 106.661 93.5794 106.232 93.0775 105.804C92.8624 105.625 92.6473 105.483 92.3605 105.59C90.0303 103.59 87.7001 101.555 85.3341 99.5553C85.4416 99.234 85.2265 99.0554 85.0114 98.8769C84.3303 98.3056 83.6492 97.6986 82.968 97.1273C82.1076 96.3775 81.2473 95.6634 80.4227 94.8778C79.5982 94.128 79.5623 93.521 80.2793 92.664C81.5699 91.093 82.8605 89.5219 84.2944 88.0936C85.0473 87.3438 85.585 87.3081 86.4096 87.9865C87.019 88.4864 87.5926 88.9506 88.202 89.4862C90.819 91.7357 93.436 94.0209 96.053 96.2704C96.6624 96.806 97.3077 97.3058 97.953 97.8414C98.2398 98.0557 98.4549 98.0914 98.7059 97.8057C98.7776 97.6986 98.8851 97.6272 98.9568 97.5558C101.466 94.8778 103.976 92.1641 106.485 89.4862C108.995 86.8082 111.504 84.0946 114.014 81.4166C114.157 81.0952 114.444 80.9524 114.3 80.5953Z" fill="#00E3A8"/>
<path d="M114.3 80.5955C113.906 80.4526 113.727 80.774 113.548 80.9882C110.214 84.5589 106.88 88.1295 103.546 91.7001C103.366 91.9143 102.004 93.3783 101.681 93.7353C100.678 94.7708 99.7097 95.8063 98.7418 96.8418C98.3116 97.306 98.3116 97.306 97.8456 96.9132C94.9776 94.5566 92.1814 92.0572 89.3493 89.6291C88.5606 88.9507 87.8078 88.308 87.0191 87.6653C86.7681 87.4511 86.5172 87.2725 86.2663 87.1297C85.6568 86.8083 85.0474 86.8083 84.4738 87.2011C84.1511 87.4153 83.9002 87.6653 83.6493 87.9152C82.3228 89.3078 81.104 90.7717 79.8851 92.2357C78.9888 93.3426 79.0605 94.1995 80.1002 95.235C80.7455 95.842 81.4266 96.449 82.1077 97.0203C82.9681 97.7701 83.8285 98.52 84.6889 99.2341C84.8681 99.4126 85.0474 99.6626 85.37 99.484C85.4776 99.1627 85.2625 98.9841 85.0474 98.8056C84.3662 98.2343 83.6851 97.6273 83.004 97.056C82.1436 96.3062 81.2832 95.5921 80.4587 94.8065C79.6341 94.0567 79.5983 93.4497 80.3153 92.5927C81.6058 91.0217 82.8964 89.4506 84.3304 88.0224C85.0832 87.2725 85.621 87.2368 86.4455 87.9152C87.0549 88.4151 87.6285 88.8793 88.238 89.4149C90.855 91.6644 93.472 93.9496 96.089 96.1991C96.6984 96.7347 97.3437 97.2345 97.989 97.7701C98.2758 97.9844 98.4909 98.0201 98.7418 97.7344C98.8135 97.6273 98.921 97.5559 98.9927 97.4845C101.502 94.8065 104.012 92.0929 106.521 89.4149C109.031 86.7369 111.54 84.0233 114.049 81.3453C114.157 81.0954 114.444 80.9525 114.3 80.5955Z" fill="#2E2733" stroke="#2E2733" stroke-width="0.6" stroke-miterlimit="10"/>
<path d="M124.983 81.1666C124.84 80.9167 124.661 80.8095 124.41 80.9881C124.338 81.238 124.481 81.4165 124.589 81.5951C125.091 82.5591 125.055 82.8448 124.338 83.666C121.076 87.2009 117.813 90.7359 114.515 94.2351C112.078 96.8416 109.676 99.4482 107.238 102.019C105.481 103.876 103.725 105.768 101.968 107.625C101.395 108.232 100.785 108.66 99.9605 108.875C98.4549 109.232 97.0926 109.089 95.8379 108.125C95.4077 107.768 94.9416 107.446 94.5473 107.089C94.0454 106.661 93.5794 106.232 93.0775 105.804C92.8624 105.625 92.6473 105.483 92.3605 105.59C92.2888 105.804 92.3605 105.947 92.5397 106.09C93.5435 106.875 94.4397 107.803 95.4794 108.589C96.9133 109.696 98.5266 109.91 100.211 109.446C100.713 109.303 101.179 109.089 101.574 108.803C101.61 108.767 101.681 108.732 101.717 108.696C101.717 108.696 101.753 108.696 101.753 108.66C101.789 108.625 101.789 108.625 101.825 108.589C102.111 108.375 102.936 107.482 103.187 107.196C106.234 103.947 109.281 100.698 112.329 97.4486C116.487 93.0211 120.61 88.5578 124.732 84.0945C125.664 83.059 125.7 82.2378 124.983 81.1666Z" fill="#2E2733" stroke="#2E2733" stroke-width="0.6" stroke-miterlimit="10"/>
</g>
<defs>
<clipPath id="clip0">
<rect width="294" height="315" fill="white" transform="translate(44 29)"/>
</clipPath>
</defs>
</svg>
