<svg width="15" height="15" viewBox="0 0 15 15" fill="none" xmlns="http://www.w3.org/2000/svg">
<path d="M13.8079 10.5508L12.2843 9.6712L13.6046 8.89267C13.8481 8.74907 13.9292 8.43526 13.7856 8.19174C13.642 7.9483 13.3282 7.86729 13.0846 8.01081L11.2659 9.08322L8.5237 7.49997L11.2654 5.91698L13.0847 6.98925C13.1663 7.03737 13.2558 7.06016 13.3441 7.06016C13.5194 7.06016 13.6901 6.97007 13.7856 6.80812C13.9291 6.5646 13.848 6.25079 13.6045 6.10719L12.284 5.32894L13.8079 4.44913C14.0527 4.30779 14.1366 3.99473 13.9952 3.74991C13.8539 3.50503 13.5408 3.42116 13.296 3.56257L11.7725 4.44224L11.7586 2.90928C11.7561 2.62659 11.5242 2.39816 11.2422 2.40205C10.9595 2.40458 10.7323 2.63581 10.7349 2.9185L10.754 5.03021L8.0119 6.6134V3.44729L9.85034 2.40826C10.0965 2.26917 10.1832 1.95693 10.0441 1.71075C9.90501 1.46464 9.5927 1.37783 9.34659 1.51699L8.0119 2.27135V0.511873C8.0119 0.229183 7.78272 0 7.50003 0C7.21734 0 6.98815 0.229183 6.98815 0.511873V2.27135L5.65346 1.51706C5.40722 1.37789 5.09511 1.46464 4.95595 1.71082C4.81686 1.95693 4.9036 2.26924 5.14971 2.40833L6.98808 3.44736V6.6134L4.24601 5.03021L4.26506 2.9185C4.26765 2.63581 4.04051 2.40458 3.75782 2.40205C3.75625 2.40205 3.75475 2.40205 3.75311 2.40205C3.47261 2.40205 3.2439 2.62816 3.24138 2.90935L3.22752 4.44224L1.70398 3.56257C1.45917 3.42116 1.14611 3.5051 1.00477 3.74991C0.86342 3.99473 0.947299 4.30779 1.19211 4.44913L2.71592 5.32894L1.39522 6.10733C1.15171 6.25086 1.07063 6.56467 1.21416 6.80825C1.30964 6.97021 1.48033 7.0603 1.65566 7.0603C1.74398 7.0603 1.83345 7.03744 1.91508 6.98939L3.73455 5.91712L6.47635 7.5001L3.73407 9.08336L1.91508 8.01075C1.6717 7.86722 1.35775 7.94816 1.21416 8.19168C1.07056 8.43519 1.15157 8.749 1.39509 8.89253L2.71558 9.67113L1.19204 10.5507C0.947231 10.6921 0.863352 11.0051 1.0047 11.2499C1.0995 11.4142 1.27155 11.506 1.44846 11.506C1.53527 11.506 1.62331 11.4838 1.70392 11.4373L3.22746 10.5576L3.24131 12.0906C3.24383 12.3718 3.47254 12.5979 3.75305 12.5979C3.75462 12.5979 3.75619 12.5979 3.75776 12.5979C4.04045 12.5954 4.26758 12.3641 4.26499 12.0814L4.24595 9.96965L6.98808 8.38646V11.5526L5.14971 12.5917C4.9036 12.7308 4.81686 13.043 4.95595 13.2892C5.05006 13.4557 5.22349 13.5493 5.40203 13.5493C5.48734 13.5493 5.57388 13.5279 5.65346 13.4829L6.98815 12.7286V14.4881C6.98815 14.7708 7.21734 15 7.50003 15C7.78272 15 8.0119 14.7708 8.0119 14.4881V12.7286L9.34659 13.4829C9.42617 13.5279 9.51264 13.5493 9.59802 13.5493C9.77656 13.5493 9.94999 13.4557 10.0441 13.2892C10.1832 13.0431 10.0965 12.7308 9.85034 12.5917L8.0119 11.5526V8.38653L10.754 9.96965L10.7344 12.0814C10.7318 12.3641 10.9589 12.5954 11.2415 12.5979C11.2432 12.598 11.2448 12.598 11.2464 12.598C11.5268 12.598 11.7555 12.3719 11.7581 12.0909L11.7723 10.5576L13.2961 11.4374C13.3767 11.4839 13.4647 11.506 13.5515 11.506C13.7284 11.506 13.9005 11.4142 13.9953 11.25C14.1366 11.0052 14.0528 10.6921 13.8079 10.5508Z" fill="#262626"/>
</svg>
