<svg width="15" height="15" viewBox="0 0 15 15" fill="none" xmlns="http://www.w3.org/2000/svg">
<path d="M14.3288 1.17534C14.1059 0.952475 13.7446 0.952475 13.5218 1.17534L10.9489 3.74827C9.94306 2.0187 8.94615 0.559402 8.72983 0.246298C8.62323 0.092067 8.44769 0 8.26021 0C8.07273 0 7.89719 0.092067 7.79067 0.246374C7.32508 0.92067 3.24149 6.90777 3.24149 9.46807C3.24149 10.0619 3.34581 10.6318 3.5361 11.1609L0.671298 14.0258C0.448435 14.2486 0.448435 14.61 0.671298 14.8328C0.782691 14.9442 0.928781 15 1.07479 15C1.22081 15 1.3669 14.9443 1.47829 14.8328L4.0761 12.235C4.97562 13.5905 6.51497 14.4865 8.26028 14.4865C11.0283 14.4865 13.2804 12.2352 13.2804 9.46807C13.2804 8.32788 12.4703 6.50822 11.5304 4.78071L14.3288 1.98233C14.5517 1.75955 14.5517 1.39813 14.3288 1.17534ZM4.38282 9.46807C4.38282 7.80835 6.85988 3.71266 8.26028 1.59154C8.7872 2.38918 9.46651 3.46629 10.1089 4.58798L4.45967 10.2372C4.40952 9.98859 4.38282 9.73141 4.38282 9.46807ZM12.139 9.46807C12.139 11.6059 10.399 13.3452 8.26021 13.3452C6.82822 13.3452 5.57596 12.5643 4.9044 11.4066L10.6844 5.62674C11.4982 7.15018 12.139 8.62379 12.139 9.46807Z" fill="#262626"/>
</svg>
