<svg width="25" height="15" viewBox="0 0 25 15" fill="none" xmlns="http://www.w3.org/2000/svg">
<path d="M21.8411 5.12629C21.8411 3.40246 20.4387 2 18.7148 2C16.991 2 15.5885 3.40246 15.5885 5.12629C15.5885 5.4716 15.8685 5.75155 16.2138 5.75155C16.5591 5.75155 16.8391 5.4716 16.8391 5.12629C16.8391 4.09199 17.6805 3.25052 18.7148 3.25052C19.7491 3.25052 20.5906 4.09199 20.5906 5.12629C20.5906 6.1606 19.7491 7.00207 18.7148 7.00207H3.62526C3.27995 7.00207 3 7.28202 3 7.62733C3 7.97264 3.27995 8.25259 3.62526 8.25259H18.7148C20.4387 8.25259 21.8411 6.85013 21.8411 5.12629Z" fill="#00E3A8"/>
<path d="M20.4664 9.50293H14.6252C14.2799 9.50293 14 9.78288 14 10.1282C14 10.4735 14.2799 10.7534 14.6252 10.7534H20.4664C21.1559 10.7534 21.7169 11.3144 21.7169 12.004C21.7169 12.6935 21.1559 13.2545 20.4664 13.2545C19.9371 13.2545 19.4631 12.9195 19.2868 12.4208C19.1718 12.0953 18.8145 11.9246 18.4889 12.0397C18.1633 12.1548 17.9927 12.512 18.1078 12.8376C18.4603 13.8349 19.4081 14.505 20.4664 14.505C21.8454 14.505 22.9674 13.383 22.9674 12.004C22.9674 10.6249 21.8454 9.50293 20.4664 9.50293Z" fill="#00E3A8"/>
<path d="M16.2139 12.0039H9.87794C9.53263 12.0039 9.25269 12.2839 9.25269 12.6292C9.25269 12.9745 9.53263 13.2544 9.87794 13.2544H16.2139C16.5592 13.2544 16.8392 12.9745 16.8392 12.6292C16.8392 12.2839 16.5592 12.0039 16.2139 12.0039Z" fill="#00E3A8"/>
<path d="M6.62526 5.75149H12.8778C13.2232 5.75149 13.5031 5.47154 13.5031 5.12624C13.5031 4.78093 13.2232 4.50098 12.8778 4.50098H6.62526C6.27995 4.50098 6 4.78093 6 5.12624C6 5.47154 6.27995 5.75149 6.62526 5.75149Z" fill="#00E3A8"/>
<path d="M12.5031 10.1282C12.5031 9.78288 12.2232 9.50293 11.8778 9.50293H5.62526C5.27995 9.50293 5 9.78288 5 10.1282C5 10.4735 5.27995 10.7534 5.62526 10.7534H11.8778C12.2232 10.7534 12.5031 10.4735 12.5031 10.1282Z" fill="#00E3A8"/>
</svg>
