<svg width="16" height="17" viewBox="0 0 16 17" fill="none" xmlns="http://www.w3.org/2000/svg">
<path d="M7.3335 3.1665H2.66683C2.31321 3.1665 1.97407 3.30698 1.72402 3.55703C1.47397 3.80708 1.3335 4.14622 1.3335 4.49984V13.8332C1.3335 14.1868 1.47397 14.5259 1.72402 14.776C1.97407 15.026 2.31321 15.1665 2.66683 15.1665H12.0002C12.3538 15.1665 12.6929 15.026 12.943 14.776C13.193 14.5259 13.3335 14.1868 13.3335 13.8332V9.1665" stroke="#262626" stroke-width="1.5" stroke-linecap="round" stroke-linejoin="round"/>
<path d="M12.3335 2.16665C12.5987 1.90144 12.9584 1.75244 13.3335 1.75244C13.7086 1.75244 14.0683 1.90144 14.3335 2.16665C14.5987 2.43187 14.7477 2.79158 14.7477 3.16665C14.7477 3.54173 14.5987 3.90144 14.3335 4.16665L8.00016 10.5L5.3335 11.1667L6.00016 8.49999L12.3335 2.16665Z" stroke="#262626" stroke-width="1.5" stroke-linecap="round" stroke-linejoin="round"/>
</svg>
