<svg width="24" height="24" viewBox="0 0 24 24" fill="none" xmlns="http://www.w3.org/2000/svg">
<path d="M13.9273 13.9271C13.6776 14.195 13.3765 14.4099 13.042 14.559C12.7074 14.7081 12.3463 14.7882 11.9801 14.7947C11.6139 14.8011 11.2501 14.7338 10.9106 14.5966C10.571 14.4594 10.2625 14.2553 10.0035 13.9963C9.74452 13.7373 9.54036 13.4288 9.40319 13.0892C9.26602 12.7497 9.19866 12.3859 9.20512 12.0197C9.21158 11.6535 9.29174 11.2924 9.4408 10.9578C9.58986 10.6233 9.80478 10.3222 10.0727 10.0725M17.4 17.3998C15.846 18.5843 13.9537 19.2406 12 19.2725C5.63636 19.2725 2 11.9998 2 11.9998C3.13081 9.89243 4.69921 8.05126 6.6 6.5998L17.4 17.3998ZM10.0909 4.94526C10.7167 4.79878 11.3573 4.72556 12 4.72707C18.3636 4.72707 22 11.9998 22 11.9998C21.4482 13.0322 20.7901 14.0041 20.0364 14.8998L10.0909 4.94526Z" stroke="#262626" stroke-width="1.5" stroke-linecap="round" stroke-linejoin="round"/>
<path d="M2 2L22 22" stroke="#262626" stroke-width="1.5" stroke-linecap="round" stroke-linejoin="round"/>
</svg>
