<svg width="15" height="15" viewBox="0 0 15 15" fill="none" xmlns="http://www.w3.org/2000/svg">
<path d="M0.561758 11.4232C1.05872 11.4232 1.29293 11.5535 1.56408 11.7042C1.86168 11.8695 2.19906 12.057 2.84221 12.057C3.48506 12.057 3.82216 11.8695 4.11976 11.7042C4.39091 11.5535 4.62484 11.4232 5.1218 11.4232C5.61877 11.4232 5.85298 11.5535 6.12413 11.7042C6.42172 11.8695 6.75883 12.057 7.40167 12.057C8.0448 12.057 8.38221 11.8695 8.67981 11.7042C8.95096 11.5535 9.18519 11.4232 9.68244 11.4232C10.1805 11.4232 10.4154 11.5535 10.6871 11.7042C10.985 11.8695 11.3226 12.057 11.9667 12.057C12.6106 12.057 12.9484 11.8695 13.2462 11.7042C13.518 11.5535 13.7528 11.4232 14.2509 11.4232C14.4154 11.4232 14.5485 11.2814 14.5485 11.1062C14.5485 10.931 14.4154 10.7893 14.2509 10.7893C13.6069 10.7893 13.2692 10.9768 12.9713 11.1421C12.9012 11.181 12.8333 11.2182 12.7629 11.2525V6.98597H13.6557C13.7804 6.98597 13.8917 6.90334 13.9347 6.7789C13.978 6.65446 13.944 6.51457 13.8492 6.42852L7.59987 0.723588C7.48886 0.621434 7.32378 0.621434 7.21277 0.723588L0.963418 6.42852C0.868673 6.51457 0.834665 6.65446 0.877964 6.7789C0.920984 6.90334 1.03227 6.98597 1.15695 6.98597H2.04972V11.2534C1.9788 11.2188 1.91022 11.1814 1.83961 11.1421C1.54201 10.9768 1.20491 10.7893 0.561786 10.7893C0.397266 10.7893 0.26416 10.931 0.26416 11.1062C0.26416 11.2814 0.397266 11.4232 0.561758 11.4232ZM9.19181 10.8361C8.84943 10.9013 8.61399 11.0256 8.40425 11.1421C8.1331 11.2928 7.89886 11.4231 7.40162 11.4231C6.90465 11.4231 6.67072 11.2928 6.39957 11.1421C6.1917 11.0267 5.95802 10.9038 5.62072 10.8381V8.25375H9.19178V10.8361H9.19181ZM1.96133 6.3521L7.40628 1.38165L12.8512 6.3521H12.4653C12.3008 6.3521 12.1677 6.49386 12.1677 6.66905V11.4093C12.1028 11.415 12.0427 11.4232 11.9666 11.4232C11.4685 11.4232 11.2337 11.2929 10.962 11.1421C10.6822 10.9869 10.3577 10.8178 9.787 10.7971V7.93682C9.787 7.76164 9.6539 7.61987 9.4894 7.61987H5.32315C5.15866 7.61987 5.02555 7.76164 5.02555 7.93682V10.7965C4.45031 10.8157 4.12512 10.9861 3.8442 11.1421C3.57305 11.2929 3.33912 11.4232 2.84216 11.4232C2.76744 11.4232 2.70869 11.415 2.64483 11.4095V6.66905C2.64483 6.49386 2.51172 6.3521 2.34723 6.3521H1.96133Z" fill="#262626" stroke="#262626" stroke-width="0.3" stroke-linecap="round" stroke-linejoin="round"/>
<path d="M14.2508 13.3247C13.6068 13.3247 13.2691 13.5123 12.9712 13.6776C12.6995 13.8283 12.4647 13.9586 11.9666 13.9586C11.4685 13.9586 11.2336 13.8283 10.9619 13.6776C10.6641 13.5123 10.3264 13.3247 9.68235 13.3247C9.03923 13.3247 8.70182 13.5123 8.40422 13.6776C8.13307 13.8283 7.89883 13.9586 7.40159 13.9586C6.90463 13.9586 6.67069 13.8283 6.39955 13.6776C6.10195 13.5123 5.76485 13.3247 5.12172 13.3247C4.47887 13.3247 4.14177 13.5123 3.84417 13.6776C3.57302 13.8283 3.33909 13.9586 2.84213 13.9586C2.34489 13.9586 2.11065 13.8283 1.8395 13.6776C1.5419 13.5123 1.2048 13.3247 0.561674 13.3247C0.397266 13.3247 0.26416 13.4664 0.26416 13.6416C0.26416 13.8168 0.397266 13.9586 0.561758 13.9586C1.05872 13.9586 1.29293 14.0889 1.56408 14.2396C1.86168 14.4049 2.19906 14.5925 2.84221 14.5925C3.48506 14.5925 3.82216 14.4049 4.11976 14.2396C4.39091 14.0889 4.62484 13.9586 5.1218 13.9586C5.61877 13.9586 5.85298 14.0889 6.12413 14.2396C6.42172 14.4049 6.75883 14.5925 7.40167 14.5925C8.0448 14.5925 8.38221 14.4049 8.67981 14.2396C8.95096 14.0889 9.18519 13.9586 9.68244 13.9586C10.1805 13.9586 10.4154 14.0889 10.6871 14.2396C10.985 14.4049 11.3226 14.5925 11.9667 14.5925C12.6106 14.5925 12.9484 14.4049 13.2462 14.2396C13.518 14.0889 13.7528 13.9586 14.2509 13.9586C14.4154 13.9586 14.5485 13.8168 14.5485 13.6416C14.5484 13.4664 14.4153 13.3247 14.2508 13.3247Z" fill="#262626" stroke="#262626" stroke-width="0.3" stroke-linecap="round" stroke-linejoin="round"/>
</svg>
