<svg width="15" height="15" viewBox="0 0 15 15" fill="none" xmlns="http://www.w3.org/2000/svg">
<path d="M2.62214 7.34814C1.72816 7.34814 1 8.0763 1 8.97028C1 9.86426 1.72816 10.5924 2.62214 10.5924C3.51612 10.5924 4.24427 9.86426 4.24427 8.97028C4.24427 8.0763 3.51612 7.34814 2.62214 7.34814ZM2.62214 9.87147C2.12468 9.87147 1.72095 9.46774 1.72095 8.97028C1.72095 8.47283 2.12468 8.06909 2.62214 8.06909C3.11959 8.06909 3.52332 8.47283 3.52332 8.97028C3.52332 9.46774 3.11959 9.87147 2.62214 9.87147Z" fill="#262626" stroke="#262626" stroke-width="0.4"/>
<path d="M7.20368 10.7544C6.3097 10.7544 5.58154 11.4826 5.58154 12.3765C5.58154 13.2705 6.3097 13.9987 7.20368 13.9987C8.09766 13.9987 8.82582 13.2705 8.82582 12.3765C8.82582 11.4826 8.09766 10.7544 7.20368 10.7544ZM7.20368 13.2777C6.70623 13.2777 6.30249 12.874 6.30249 12.3765C6.30249 11.8791 6.70623 11.4753 7.20368 11.4753C7.69753 11.4753 8.10487 11.8791 8.10487 12.3765C8.10487 12.874 7.70114 13.2777 7.20368 13.2777Z" fill="#262626" stroke="#262626" stroke-width="0.4"/>
<path d="M11.7962 7.34814C10.9022 7.34814 10.1741 8.0763 10.1741 8.97028C10.1741 9.86426 10.9022 10.5924 11.7962 10.5924C12.6938 10.5924 13.4183 9.86426 13.4183 8.97028C13.4183 8.0763 12.6902 7.34814 11.7962 7.34814ZM11.7962 9.87147C11.2988 9.87147 10.895 9.46774 10.895 8.97028C10.895 8.47283 11.2988 8.06909 11.7962 8.06909C12.2937 8.06909 12.6974 8.47283 12.6974 8.97028C12.6974 9.46774 12.2937 9.87147 11.7962 9.87147Z" fill="#262626" stroke="#262626" stroke-width="0.4"/>
<path d="M7.20374 9.33055C7.402 9.33055 7.56421 9.16834 7.56421 8.97008V4.7345C7.56421 4.53624 7.402 4.37402 7.20374 4.37402C7.00548 4.37402 6.84326 4.53624 6.84326 4.7345V8.97008C6.84326 9.16834 7.00548 9.33055 7.20374 9.33055Z" fill="#262626" stroke="#262626" stroke-width="0.4"/>
<path d="M11.7963 5.92409C11.9981 5.92409 12.1567 5.76188 12.1567 5.56361V1.36047C12.1567 1.16221 11.9945 1 11.7963 1C11.598 1 11.4358 1.16221 11.4358 1.36047V5.56361C11.4358 5.76188 11.598 5.92409 11.7963 5.92409Z" fill="#262626" stroke="#262626" stroke-width="0.4"/>
<path d="M2.62219 5.92409C2.82045 5.92409 2.98267 5.76188 2.98267 5.56361V1.36047C2.98267 1.16221 2.82045 1 2.62219 1C2.42393 1 2.26172 1.16221 2.26172 1.36047V5.56361C2.26172 5.76188 2.42393 5.92409 2.62219 5.92409Z" fill="#262626" stroke="#262626" stroke-width="0.4"/>
</svg>
