<svg width="15" height="15" viewBox="0 0 15 15" fill="none" xmlns="http://www.w3.org/2000/svg">
<g clip-path="url(#clip0)">
<path d="M3.95663 12.1658C4.87515 13.5097 6.45043 14.401 8.23512 14.401C11.0668 14.401 13.3655 12.1658 13.3655 9.42265C13.3655 8.2912 12.5374 6.4855 11.5761 4.77216L10.9812 3.74692C9.95794 2.03358 8.93948 0.583477 8.7158 0.27406C8.60634 0.12166 8.42549 0.0292969 8.23512 0.0292969C8.04476 0.0292969 7.86391 0.12166 7.75445 0.27406C7.27853 0.943694 3.10474 6.88266 3.10474 9.42265C3.10474 10.0138 3.20944 10.5772 3.40456 11.1037C3.40456 11.1037 3.59969 11.5562 3.95663 12.1658ZM10.7146 5.61266C11.5475 7.12281 12.1995 8.58676 12.1995 9.42265C12.1995 11.5424 10.4196 13.2696 8.23512 13.2696C6.7693 13.2696 5.48908 12.4937 4.80376 11.3484C4.80376 11.3484 4.55628 11.0298 4.34688 10.1893C4.29453 9.94451 4.26597 9.68589 4.26597 9.42727C4.26597 7.77858 6.79785 3.71921 8.23036 1.61333C8.76815 2.40304 9.46299 3.47445 10.1198 4.58743L10.7146 5.61266Z" fill="white"/>
</g>
<defs>
<clipPath id="clip0">
<rect width="10.2655" height="14.3717" fill="white" transform="translate(3.10474 0.0292969)"/>
</clipPath>
</defs>
</svg>
