<svg width="15" height="15" viewBox="0 0 15 15" fill="none" xmlns="http://www.w3.org/2000/svg">
<path d="M5.42773 3.60484C5.42773 3.60484 6.04223 0.804375 8.30879 1.01088C10.1623 1.18214 10.4394 2.49171 10.802 3.34293C10.802 3.34293 11.5374 3.16664 12.2627 3.46885C12.8419 3.71061 13.5068 4.11356 13.9853 5.12092C15.038 7.33208 13.6931 9.07481 12.1519 9.76486" stroke="#262626" stroke-width="0.9" stroke-miterlimit="10" stroke-linecap="round" stroke-linejoin="round"/>
<path d="M11.2654 8.49562C11.2654 8.49562 12.6505 9.96637 11.8648 11.558C11.079 13.1496 9.89539 13.2504 9.25572 13.2504C8.61604 13.2504 7.46261 12.7265 6.90857 11.7645C6.90857 11.7645 4.80822 13.0187 3.84619 10.7017C3.84619 10.7017 1.38319 11.0795 1.03565 8.85323C0.693145 6.66726 2.92445 6.25928 3.20651 6.25928" stroke="#262626" stroke-width="0.9" stroke-miterlimit="10" stroke-linecap="round" stroke-linejoin="round"/>
<path d="M2.38535 6.4706C2.38535 6.4706 1.86656 4.93941 2.30476 4.07811C2.74296 3.21682 3.65463 1.99287 5.83053 2.557" stroke="#262626" stroke-width="0.9" stroke-miterlimit="10" stroke-linecap="round"/>
</svg>
