<svg width="15" height="15" viewBox="0 0 15 15" fill="none" xmlns="http://www.w3.org/2000/svg">
<g clip-path="url(#clip0)">
<path d="M4.35927 10.5437C4.58778 11.4046 5.15028 11.8594 5.95302 12.0716C7.07216 12.3626 8.17372 12.3565 9.26942 11.9928C9.662 11.8654 10.0253 11.6714 10.2948 11.3258C10.4647 11.1015 10.746 11.0833 10.9511 11.247C11.162 11.4107 11.203 11.7078 11.039 11.9503C10.7636 12.3505 10.3768 12.6051 9.94911 12.787C8.68349 13.3327 7.37684 13.3933 6.04091 13.1144C6.00575 13.1084 5.96474 13.1023 5.92372 13.0902C6.24013 13.7147 7.18349 14.133 7.88075 13.9572C7.98622 13.9329 8.08583 13.8966 8.18544 13.8602C8.47841 13.7632 8.74794 13.8723 8.83583 14.1391C8.92958 14.4119 8.81239 14.6666 8.51942 14.7939C7.91005 15.0485 7.28895 15.0728 6.65614 14.8606C6.01161 14.6484 5.47841 14.2361 5.09755 13.6844C4.55849 12.8962 4.05458 12.0776 3.58583 11.2409C3.05849 10.289 2.61317 9.28257 2.07997 8.33674C1.67567 7.61523 1.21278 6.91798 0.714735 6.26317C-0.287218 4.9293 -0.252062 3.49235 0.884657 2.27974C1.68739 1.41272 2.6952 0.897363 3.78505 0.569958C6.52724 -0.248555 9.2577 -0.212177 11.9413 0.842795C12.8612 1.20658 13.6933 1.728 14.3319 2.53439C15.246 3.6985 15.2225 5.09906 14.2733 6.23892C13.5058 7.15444 12.5097 7.70618 11.4198 8.05784C8.64833 8.94911 5.88856 8.91879 3.14638 7.89413C3.09364 7.87595 3.04091 7.85776 2.9413 7.82744C3.21669 8.43981 3.52138 8.9673 4.09559 9.28864C4.91005 9.74337 5.78895 9.96164 6.69716 10.0405C7.87489 10.1375 9.04091 10.0586 10.16 9.63423C10.7811 9.39777 11.3612 9.10068 11.7304 8.48831C11.8651 8.27004 12.1464 8.22154 12.3515 8.34886C12.5741 8.48225 12.6913 8.77934 12.5272 8.99761C12.246 9.36139 11.9472 9.7373 11.5839 10.0101C10.8104 10.5861 9.89638 10.8347 8.95888 10.9681C7.42958 11.1924 5.92372 11.0954 4.45302 10.5619C4.42958 10.5437 4.40028 10.5437 4.35927 10.5437ZM1.39442 5.49923C1.85731 4.38969 2.71278 3.747 3.72645 3.34078C6.287 2.31612 8.85341 2.33431 11.4022 3.40141C12.0468 3.67424 12.6268 4.06834 13.0897 4.62614C13.3065 4.89292 13.3007 5.19001 13.0956 5.38403C12.8847 5.57805 12.5917 5.55379 12.3749 5.29308C11.9882 4.83229 11.5018 4.52307 10.9686 4.28661C9.5038 3.64393 7.96864 3.51054 6.40419 3.66212C5.40809 3.75913 4.4413 4.00771 3.56239 4.52307C3.11708 4.78378 2.71278 5.09906 2.44911 5.56592C2.13856 6.11159 2.20888 6.31774 2.73622 6.6027C2.8827 6.68152 2.96474 6.63908 3.09364 6.54813C3.4745 6.28742 3.8495 6.00246 4.26552 5.82057C5.56044 5.25064 6.91981 5.11725 8.31434 5.23245C9.22255 5.30521 10.1073 5.49923 10.9393 5.90545C11.244 6.05096 11.3495 6.3238 11.2323 6.59664C11.121 6.85129 10.8456 6.9483 10.5585 6.82097C8.91786 6.08128 7.23036 6.0449 5.51356 6.439C4.9745 6.56632 4.45302 6.76034 3.96083 7.11806C4.0663 7.15444 4.14247 7.18476 4.21278 7.20901C6.30458 7.82138 8.40809 7.84563 10.5175 7.28783C11.5487 7.01499 12.5272 6.61483 13.3183 5.84482C14.2968 4.89292 14.3026 3.747 13.289 2.83754C12.8612 2.45557 12.3573 2.12816 11.8417 1.89171C10.1483 1.10351 8.3495 0.921615 6.51552 1.06107C5.25575 1.15201 4.04872 1.42485 2.91786 1.98871C2.31434 2.29187 1.76356 2.66778 1.35341 3.22558C0.820204 3.94708 0.831923 4.75953 1.39442 5.49923Z" fill="#262626"/>
</g>
<defs>
<clipPath id="clip0">
<rect width="15" height="15" fill="white"/>
</clipPath>
</defs>
</svg>
